<svg width="72" height="72" viewBox="0 0 72 72" fill="none" xmlns="http://www.w3.org/2000/svg">
<path d="M2.34582 55.4609C2.34964 55.79 2.47791 56.1178 2.73022 56.3677C10.4593 64.0234 8.08327 61.6699 15.8456 69.3585C16.0653 69.5749 16.3675 69.7077 16.7002 69.7058C47.4136 69.4296 17.2559 69.8571 52.0506 69.3555C53.0739 69.3616 53.8604 69.2025 54.7399 68.678C55.566 68.1865 56.2125 67.4242 56.5923 66.5504C56.7776 66.1106 56.8955 65.6439 56.9438 65.1705C56.975 64.6598 56.9523 64.3153 56.9507 63.9122C56.9469 63.7284 56.6402 45.1323 56.2212 32.4011C57.6683 30.827 59.1189 29.2564 60.5546 27.6713C62.7656 25.2048 64.9957 22.7568 67.1647 20.2499L68.8017 18.3797C69.4324 17.704 69.762 16.7354 69.6571 15.8331C69.5809 14.9276 69.0575 14.082 68.3744 13.5909L66.4765 11.9826L68.1573 13.8166C69.4538 15.0749 69.3115 16.8483 68.2193 17.8194L66.414 19.5279C65.8261 20.0779 65.2495 20.6389 64.6676 21.1947C64.3783 20.4235 64.0183 19.7259 63.5992 19.0897C62.4918 17.4656 61.038 16.1095 59.484 15.1364C58.8321 14.7439 58.123 14.4107 57.3439 14.1503C57.8767 13.5472 58.415 12.9493 58.9416 12.3402L60.5781 10.4695C61.5018 9.34461 63.2655 9.12521 64.5779 10.375L66.4765 11.9826L64.7963 10.1479C64.2794 9.48403 63.4134 8.99391 62.5054 8.95246C61.5994 8.88249 60.6436 9.24939 59.9924 9.90608L58.1866 11.614C57.5202 12.2369 56.8663 12.8718 56.2078 13.5023L56.3985 7.43552C56.4913 6.22255 55.9841 4.92351 55.0265 4.09575C54.5542 3.67603 53.9768 3.3728 53.36 3.2078C53.0517 3.1219 52.732 3.08608 52.4116 3.07016C29.695 2.55452 40.5599 2.80114 37.4974 2.73162L9.42542 2.32435L7.67093 2.29889C7.05445 2.26945 6.17654 2.37741 5.5035 2.68072C4.09534 3.27862 2.99555 4.544 2.63437 6.04519C2.53711 6.41698 2.49814 6.80097 2.48704 7.18329C2.48632 7.32007 2.4723 9.99138 2.47318 9.82199C2.42346 18.3563 2.26917 46.9264 2.34558 55.4391L2.34582 55.4609ZM6.03881 55.9766C7.28553 56.2102 8.53225 56.3776 9.77897 56.4994C10.7981 56.6258 11.8171 56.6499 12.8362 56.7256C13.5716 56.7688 14.1607 57.0379 14.6378 57.5074C15.1091 57.9835 15.3777 58.5728 15.4233 59.309C15.4969 60.3281 15.5248 61.3471 15.6499 62.3663C15.7762 63.6542 15.9496 64.9422 16.195 66.2301L6.03881 55.9766ZM58.0081 16.6708C59.0406 18.1856 60.4524 19.5857 62.1182 20.6294C62.7628 21.0188 63.466 21.3476 64.2367 21.606C57.9038 27.6797 52.7155 32.855 46.0669 39.5901C45.8251 39.0837 45.5539 38.6078 45.2578 38.1579C44.1483 36.5311 42.6936 35.176 41.1425 34.2047C40.6821 33.9274 40.1976 33.675 39.6842 33.4527C46.1444 26.5578 51.052 21.2452 56.9498 14.5968C57.2392 15.354 57.5954 16.0418 58.0081 16.6708ZM38.9608 34.5363C39.1768 34.9572 39.4148 35.3554 39.6666 35.7391C40.6971 37.2507 42.1076 38.6519 43.7767 39.6977C44.1701 39.9354 44.578 40.1579 45.0083 40.3573L36.6515 42.9901L38.9608 34.5363ZM4.90485 6.59923C5.08022 5.81311 5.6666 5.12474 6.4106 4.79797C6.81499 4.63297 7.11986 4.57973 7.67092 4.57344L9.42541 4.54798L37.4974 4.14079L51.5335 3.82355C52.1358 3.81816 52.6959 3.75697 53.1984 3.8801C54.881 4.24637 55.9995 5.75175 55.9571 7.43553L56.1496 13.5577C49.5325 19.8959 43.834 25.5927 36.9735 32.5481C36.8336 32.691 36.7223 32.8736 36.664 33.0795C36.5967 33.3166 33.3377 44.8114 33.3782 44.6685C33.3068 44.919 33.3067 45.1923 33.3935 45.4583C33.6255 46.1693 34.3899 46.5575 35.1008 46.3255C35.2389 46.2805 46.6988 42.5409 46.5577 42.587C46.7469 42.5244 46.9238 42.4151 47.0697 42.2595C50.1076 39.0225 53.1263 35.7671 56.1316 32.4988C55.7127 45.2732 55.4087 63.7292 55.4049 63.9122C55.4079 64.7671 55.3966 65.32 55.1168 65.8969C54.8532 66.4525 54.4211 66.9362 53.8839 67.2303C53.2418 67.5832 52.7821 67.6246 52.0506 67.6059C18.6237 67.1239 46.0465 67.5184 17.2139 67.2588L17.0463 67.0896C17.3933 65.5151 17.6076 63.9407 17.762 62.3663C17.8871 61.3471 17.915 60.3281 17.9886 59.309C18.0746 58.0047 17.5392 56.5509 16.5584 55.5867C15.5953 54.6043 14.1412 54.0694 12.8362 54.153C11.8171 54.2287 10.798 54.2528 9.77893 54.3791C8.23446 54.53 6.69007 54.7376 5.14551 55.0747L4.97238 54.8999C5.05609 44.7844 4.92635 25.6577 4.84387 9.82199C4.84331 9.68521 4.83165 7.02782 4.83239 7.19721C4.83977 6.99556 4.85369 6.79384 4.90485 6.59923Z" fill="#031421"/>
<path d="M29.9182 13.4423C32.5384 13.4495 35.1585 13.3413 37.7787 13.1443C40.3989 12.9453 43.019 12.6498 45.6391 12.0843C43.019 11.5187 40.3989 11.2232 37.7787 11.0242C35.1585 10.8272 32.5384 10.719 29.9182 10.7262C27.2981 10.7239 24.6779 10.8295 22.0577 11.0282C19.4376 11.228 16.8175 11.5221 14.1973 12.0843C16.8175 12.6464 19.4376 12.9405 22.0577 13.1403C24.6779 13.339 27.2981 13.4446 29.9182 13.4423Z" fill="#38A3EE"/>
<path d="M29.9182 23.9301C32.5384 23.9373 35.1585 23.8291 37.7787 23.6322C40.3989 23.4331 43.019 23.1376 45.6391 22.572C43.019 22.0065 40.3989 21.7109 37.7787 21.5119C35.1585 21.3149 32.5384 21.2068 29.9182 21.214C27.2981 21.2118 24.6779 21.3173 22.0577 21.516C19.4376 21.7158 16.8175 22.0099 14.1973 22.572C16.8175 23.1342 19.4376 23.4283 22.0577 23.6281C24.6779 23.8268 27.2981 23.9323 29.9182 23.9301Z" fill="#38A3EE"/>
<path d="M22.4078 34.4179C25.0179 34.4221 28.2083 34.0622 30.6183 33.0599C28.2079 32.0574 25.018 31.6977 22.4078 31.7018C21.0394 31.7034 19.6709 31.7961 18.3025 31.9953C16.9341 32.2121 15.5657 32.4939 14.1973 33.0599C15.5657 33.6258 16.9341 33.9077 18.3025 34.1244C19.6709 34.3236 21.0394 34.4164 22.4078 34.4179Z" fill="#38A3EE"/>
</svg>
