<svg width="72" height="72" viewBox="0 0 72 72" fill="none" xmlns="http://www.w3.org/2000/svg">
<path d="M42.3755 23.2082C42.9756 23.2305 43.5981 23.0474 44.0944 22.6751C44.5924 22.3065 44.9571 21.7522 45.1093 21.1357C45.2437 20.4389 45.1884 20.071 45.2281 19.5774L45.3378 16.7584L45.4286 13.9394L45.4682 12.5299L45.477 12.1676C45.4762 11.9928 45.4659 11.8178 45.4367 11.6435C45.3798 11.2957 45.2637 10.9556 45.0942 10.6444C44.5979 9.72126 43.5997 9.05974 42.4845 9.00788L41.741 8.98383L38.922 8.93158L33.284 8.83615L22.0079 8.76111C21.8662 8.7619 12.0028 8.8162 12.1401 8.81542C11.379 8.81833 10.612 9.09301 10.0295 9.58056C9.44556 10.0644 9.02931 10.747 8.87849 11.4914C8.74724 12.366 8.84459 12.6494 8.82642 13.1638C8.82881 13.3005 8.93163 19.1748 8.92509 18.8018C8.929 18.9385 8.97976 20.7109 8.97583 20.5741C8.98321 20.7524 9.00046 20.9297 9.03669 21.1054C9.34069 22.6119 10.6473 23.6062 12.0358 23.6185L12.7753 23.6029L15.5943 23.5127L21.2323 23.2883C24.991 23.0626 28.7496 22.9303 32.5084 22.6223C28.7496 22.3143 24.991 22.182 21.2323 21.9564L15.5943 21.732L12.7753 21.6417L12.1054 21.6188C11.9821 21.6099 11.8648 21.5792 11.7574 21.5275C11.4122 21.3652 11.2064 21.0643 11.1624 20.7225C11.1545 20.6666 11.1551 20.6099 11.1556 20.5531C11.1594 20.4164 11.2081 18.6651 11.2043 18.8018C11.2067 18.665 11.3096 12.7907 11.303 13.1638C11.3151 12.741 11.3073 12.0759 11.3463 12.0238C11.3923 11.8475 11.5029 11.6908 11.6469 11.5812C11.7945 11.4732 11.9646 11.4274 12.1428 11.4225C12.2895 11.4233 16.6397 11.4478 16.3699 11.4463L22.0079 11.4765L33.284 11.4015L38.922 11.306L41.7411 11.2539L42.4069 11.2371C42.8227 11.2191 43.2711 11.5027 43.3969 12.011C43.4117 12.0679 43.4181 12.1271 43.4242 12.1874L43.4351 12.5299L43.4746 13.9394L43.5654 16.7584L43.6751 19.5774C43.6846 20.0207 43.7344 20.6015 43.6985 20.8314C43.6538 21.1356 43.4919 21.4206 43.2619 21.6454C43.028 21.8686 42.7135 22.0061 42.3743 22.0362C42.2354 22.0437 37.8909 22.278 38.1463 22.2643C36.267 22.3535 34.3877 22.4766 32.5084 22.6223C34.3877 22.768 36.267 22.8911 38.1463 22.9804C38.2856 22.9879 42.6449 23.2228 42.3755 23.2082Z" fill="#38A3EE"/>
<path d="M9.39955 33.1117L9.4818 33.9925C9.49813 34.3073 9.58578 34.754 9.78661 35.0635C10.1749 35.7205 10.8984 36.1149 11.5912 36.0895C12.2293 36.0293 12.7797 35.9206 13.3783 35.8179L11.6425 35.5303C11.162 35.4022 10.7942 35.0431 10.6829 34.631C10.6173 34.4135 10.6147 34.2635 10.6465 33.9925L10.7288 33.1117L10.8561 31.35L10.9588 29.67C11.0074 29.3952 11.2072 29.1589 11.4527 29.073C11.6023 29.0274 11.6308 29.0141 11.8896 29.0186C12.062 29.0209 14.6911 29.0564 14.532 29.0542L16.2025 29.0353C16.4455 29.047 16.68 29.2023 16.8067 29.4257C16.877 29.5618 16.9063 29.6 16.9174 29.8613L16.9535 30.7421C16.9845 31.7399 17.0537 32.4988 17.1732 34.2042C17.1987 34.5624 17.0122 34.966 16.6582 35.1967C16.4761 35.3235 16.3024 35.3928 16.0208 35.4231C15.5716 35.4858 14.803 35.5564 13.3783 35.8179C13.9655 35.9256 14.5527 36.0213 15.1399 36.1003L16.0208 36.2127C16.3249 36.2584 16.7479 36.2376 17.0929 36.0978C17.8079 35.8291 18.3751 35.1413 18.5032 34.3263C18.5805 33.6175 18.5931 33.1181 18.6412 32.5038C18.7305 31.2929 18.7263 30.9661 18.7749 29.8613C18.8014 29.5367 18.7407 28.9782 18.5445 28.5873C18.1716 27.7418 17.3147 27.1434 16.3844 27.0525C16.1168 27.0324 16.0039 27.0381 15.8533 27.0344L15.4128 27.0284L14.532 27.0177C14.3484 27.0202 11.7218 27.0556 11.8896 27.0533C11.5624 27.0423 10.9943 27.1192 10.6167 27.3401C9.79337 27.7535 9.23942 28.6087 9.18543 29.5072C9.17996 30.2567 9.23552 30.7266 9.27208 31.35L9.39955 33.1117Z" fill="#031421"/>
<path d="M22.7022 33.4192C22.7363 33.7417 22.7419 33.942 22.7996 34.3646C22.8753 34.7514 23.0392 35.1191 23.2927 35.4036C23.7782 35.9848 24.6013 36.2311 25.2269 36.0986C25.8141 36.0202 26.4013 35.9247 26.9885 35.8179C26.4013 35.711 25.8141 35.6155 25.2269 35.537C24.68 35.4834 24.2921 35.2085 24.0972 34.8179C23.9968 34.6322 23.9543 34.4287 23.957 34.2347L24.0315 33.4192C24.144 31.8294 24.2282 30.8486 24.2572 29.896C24.2693 29.5979 24.2924 29.5729 24.3645 29.4231C24.4959 29.1904 24.7292 29.0547 24.9947 29.0239L25.7655 29.0304L27.5271 29.0542L29.2887 29.0315C29.4722 29.0311 29.4929 29.0266 29.5606 29.0376C29.6216 29.0447 29.6807 29.0614 29.7378 29.0859C29.8538 29.1322 29.9538 29.2153 30.0407 29.3108C30.1303 29.4063 30.1834 29.528 30.2145 29.6577C30.2249 29.6944 30.2337 29.8345 30.2381 29.9941L30.2562 30.4345C30.2877 31.4505 30.3586 32.218 30.4811 33.9578C30.5593 34.4263 30.4592 34.7671 30.1473 35.0853C30.0018 35.2402 29.8055 35.3498 29.5866 35.414C29.3818 35.4684 29.024 35.4855 28.7502 35.5354C28.163 35.6144 27.5758 35.7101 26.9886 35.8179C27.5758 35.9256 28.163 36.0213 28.7502 36.1003C29.0633 36.1401 29.2939 36.1903 29.6746 36.1988C30.0365 36.1898 30.4113 36.0932 30.7361 35.8943C31.396 35.5319 31.8172 34.6618 31.8167 33.9578L31.9439 32.1962C32.0309 31.0163 32.0324 30.6006 32.0595 29.9941C32.0648 29.8601 32.0773 29.7062 32.0603 29.4505C32.0182 28.9994 31.865 28.5501 31.6007 28.1753C31.2183 27.6053 30.5659 27.2032 29.8946 27.0869C29.6734 27.0403 29.3981 27.0432 29.2887 27.0404L27.5271 27.0176C27.3903 27.0195 25.1841 27.0492 25.325 27.0473C25.1922 27.0501 25.0368 27.0454 24.7754 27.0709C24.3173 27.1298 23.8666 27.2997 23.5079 27.5862C23.1434 27.864 22.8576 28.2345 22.6801 28.6523C22.4927 29.0341 22.4511 29.6097 22.4764 29.896C22.4943 30.4832 22.533 31.0704 22.5748 31.6576L22.7022 33.4192Z" fill="#031421"/>
<path d="M44.9418 28.2284C44.4724 27.4536 43.4368 26.9936 42.6331 27.0404L40.8714 27.0177L39.1098 27.0415L38.6694 27.0474C38.5149 27.0513 38.4107 27.0451 38.1436 27.0647C37.6835 27.1076 37.2317 27.2754 36.863 27.5473C36.1164 28.0567 35.6998 29.0736 35.7785 29.8538C35.8076 30.8069 35.8903 31.7665 36.0043 33.3771L36.0964 34.3085C36.158 34.6979 36.3218 35.0664 36.5624 35.3598C37.0406 35.9466 37.8422 36.2256 38.4869 36.0987C39.0741 36.0202 39.6613 35.9247 40.2485 35.8179C39.6613 35.7111 39.0741 35.6155 38.4869 35.5371C37.9536 35.4805 37.567 35.183 37.3811 34.7941C37.2912 34.6033 37.2449 34.4026 37.2567 34.207L37.3336 33.377L37.461 31.6154C37.5028 31.0282 37.5415 30.441 37.5594 29.8538C37.5678 29.4561 37.7278 29.2848 37.9567 29.1302C38.0725 29.0716 38.1897 29.0292 38.3147 29.0224L39.1098 29.0305L40.8715 29.0542L42.6331 29.0315C43.0073 29.0081 43.1598 29.1245 43.3545 29.3253C43.4357 29.4256 43.4947 29.5446 43.5182 29.677C43.5384 29.8086 43.5445 30.2193 43.5583 30.4768C43.5766 31.064 43.6126 31.6512 43.6559 32.2384L43.7832 34C43.8606 34.439 43.7388 34.7968 43.4257 35.1035C43.2738 35.2489 43.0784 35.3627 42.8564 35.417C42.6318 35.4656 42.2883 35.4868 42.0101 35.5354C41.4229 35.6145 40.8357 35.7101 40.2485 35.8179C40.8357 35.9256 41.4229 36.0213 42.0101 36.1004C42.319 36.1422 42.5633 36.1854 42.9251 36.2037C43.2882 36.2082 43.6621 36.1118 43.9944 35.9266C44.657 35.5694 45.1117 34.739 45.1187 34L45.2461 32.2384C45.2894 31.6512 45.3254 31.064 45.3437 30.4768C45.3507 30.1472 45.3788 29.9701 45.3686 29.5153C45.3422 29.0625 45.1912 28.6125 44.9418 28.2284Z" fill="#031421"/>
<path d="M18.6192 41.9499C18.3003 41.0822 17.4928 40.4231 16.5682 40.2726C16.0294 40.2025 15.8519 40.24 15.53 40.224L14.6492 40.2132C14.4656 40.2157 11.8391 40.2511 12.0068 40.2489L11.7866 40.2518C11.6853 40.2566 11.56 40.2596 11.4488 40.2759C11.2194 40.3044 10.9955 40.3713 10.7841 40.4613C9.93571 40.8223 9.32097 41.6311 9.20937 42.5265C9.15928 43.04 9.20613 43.2286 9.21319 43.5479L9.27247 44.4288L9.39991 46.1904L9.48217 47.0712C9.49759 47.3174 9.54684 47.8091 9.72545 48.1213C10.0719 48.801 10.7616 49.2489 11.4568 49.2668C12.1307 49.2433 12.6553 49.1081 13.2618 49.0135C12.6952 48.8975 12.0413 48.8314 11.5464 48.7123C11.0739 48.5565 10.7348 48.1661 10.6494 47.7514C10.5569 47.4188 10.6988 46.7766 10.7291 46.1904L10.8565 44.4288L10.9158 43.5479C10.9368 43.2811 10.9341 42.879 10.9674 42.8104C11.0295 42.5381 11.2532 42.3183 11.4992 42.2474C11.5603 42.2281 11.6233 42.223 11.685 42.2149L11.7866 42.2111C12.3301 42.2184 14.7922 42.2517 14.6492 42.2498L15.53 42.239C15.7943 42.237 16.2075 42.2248 16.2508 42.2382C16.5425 42.2659 16.8196 42.5241 16.8929 42.8483L16.9089 42.9535L16.9178 43.1737C16.9666 44.2839 16.962 44.6018 17.0515 45.8161L17.1634 47.47C17.1692 47.8308 16.9483 48.2177 16.5835 48.4261C16.278 48.6499 15.5941 48.6222 15.0234 48.731C14.4362 48.81 13.849 48.9057 13.2618 49.0135C13.849 49.1212 14.4362 49.2169 15.0234 49.2959L15.9043 49.4082C16.1588 49.455 16.6078 49.47 16.9554 49.355C17.6849 49.1316 18.3024 48.4898 18.4819 47.6829C18.5709 47.227 18.5512 47.0087 18.582 46.697C18.6668 45.442 18.7136 44.8747 18.7392 44.0545L18.7753 43.1737L18.7842 42.9535C18.7835 42.8536 18.7846 42.7299 18.7725 42.6194C18.7502 42.3921 18.6994 42.166 18.6192 41.9499Z" fill="#031421"/>
<path d="M22.5747 44.4288L22.7022 46.1904L22.7843 47.0712C22.7998 47.3174 22.8491 47.8091 23.0277 48.1213C23.3741 48.801 24.0638 49.2488 24.7591 49.2668C25.433 49.2433 25.9575 49.1081 26.564 49.0134C25.9974 48.8974 25.3435 48.8314 24.8485 48.7123C24.3761 48.5565 24.037 48.166 23.9515 47.7514C23.8591 47.4188 24.001 46.7765 24.0314 46.1904L24.1587 44.4288L24.218 43.5479C24.2391 43.2811 24.2364 42.879 24.2697 42.8104C24.3318 42.5381 24.5555 42.3182 24.8014 42.2474C24.8625 42.2281 24.9255 42.223 24.9872 42.2148L25.0888 42.2111L25.309 42.2141L26.1899 42.226L27.9515 42.2498L28.8323 42.239C29.0965 42.237 29.5097 42.2248 29.553 42.2382C29.7961 42.2613 30.0174 42.4406 30.1303 42.6671C30.1594 42.7237 30.1807 42.7845 30.1951 42.8483L30.211 42.9534L30.2201 43.1737L30.2561 44.0545C30.2815 44.8708 30.3173 45.2759 30.4657 47.47C30.4715 47.8308 30.2506 48.2177 29.8857 48.4261C29.5802 48.6499 28.8963 48.6222 28.3257 48.7309C27.7385 48.81 27.1513 48.9057 26.5641 49.0134C27.1513 49.1212 27.7385 49.2169 28.3257 49.2959L29.2065 49.4082C29.4611 49.455 29.91 49.47 30.2576 49.355C30.9871 49.1316 31.6047 48.4898 31.7841 47.6829C31.8732 47.227 31.8534 47.0086 31.8843 46.697C31.9691 45.442 32.0159 44.8747 32.0415 44.0545L32.0775 43.1737L32.0865 42.9535C32.0857 42.8536 32.0867 42.7299 32.0747 42.6194C32.0525 42.3921 32.0017 42.166 31.9215 41.9499C31.6025 41.0822 30.7951 40.4231 29.8705 40.2726C29.3317 40.2025 29.1542 40.24 28.8323 40.224L27.9515 40.2132C27.7678 40.2157 25.1412 40.2511 25.309 40.2489L25.0888 40.2518C24.9876 40.2566 24.8623 40.2596 24.7511 40.2759C24.5216 40.3044 24.2978 40.3713 24.0863 40.4613C23.238 40.8223 22.6232 41.6311 22.5116 42.5265C22.4615 43.04 22.5084 43.2286 22.5154 43.5479L22.5747 44.4288Z" fill="#031421"/>
<path d="M18.313 54.5859C17.8415 53.8138 16.7722 53.3791 16.0021 53.4314L14.2404 53.4088L12.4788 53.4325L12.0384 53.4385C11.8976 53.4413 11.7611 53.4372 11.4976 53.4587C11.0389 53.5139 10.5872 53.6809 10.2252 53.9629C9.48182 54.4745 9.09037 55.5222 9.17428 56.2716C9.20316 57.2227 9.28485 58.1682 9.40006 59.7948L9.49451 60.7351C9.56723 61.1226 9.72891 61.4911 9.97856 61.7786C10.4609 62.3625 11.2769 62.6198 11.9093 62.4898C12.4965 62.4114 13.0837 62.3159 13.6709 62.209C13.0837 62.1021 12.4965 62.0066 11.9093 61.9281C11.3676 61.8729 10.9793 61.5909 10.7884 61.2002C10.6909 61.0129 10.6492 60.8099 10.6531 60.6157L10.7293 59.7948C10.8418 58.205 10.926 57.2242 10.9551 56.2715C10.9641 55.8471 11.112 55.6903 11.3433 55.5287C11.456 55.4636 11.5758 55.4272 11.699 55.4136L12.4788 55.4215L14.2404 55.4453L16.0021 55.4226C16.4058 55.4001 16.5409 55.5047 16.7427 55.7072C16.8302 55.8041 16.8834 55.9254 16.9137 56.0557C16.9223 56.0911 16.9316 56.2486 16.9359 56.4007L16.954 56.8412C16.9856 57.8572 17.0564 58.6246 17.1789 60.3644C17.2563 60.8217 17.1494 61.1697 16.8364 61.4831C16.6888 61.6354 16.4923 61.7444 16.2726 61.8071C16.0603 61.8576 15.708 61.8775 15.4325 61.9265C14.8453 62.0055 14.2581 62.1013 13.6709 62.209C14.2581 62.3167 14.8453 62.4125 15.4325 62.4914C15.744 62.5324 15.9796 62.5786 16.3535 62.5927C16.7155 62.5864 17.0906 62.4921 17.4178 62.2973C18.0794 61.9374 18.5119 61.081 18.5145 60.3645L18.6418 58.6028C18.7287 57.423 18.7302 57.0073 18.7573 56.4008C18.7626 56.2593 18.7744 56.1231 18.7614 55.8655C18.7229 55.4139 18.5726 54.9638 18.313 54.5859Z" fill="#031421"/>
<path d="M30.1178 53.5201C29.8949 53.4557 29.6558 53.4319 29.4321 53.4255L28.9917 53.4195L28.1109 53.4088C27.929 53.4113 25.3289 53.4463 25.4684 53.4444L25.0004 53.4532C24.7703 53.4579 24.5416 53.507 24.3221 53.5748C23.4415 53.8568 22.7568 54.6044 22.5616 55.4844C22.5072 55.7007 22.4927 55.93 22.4942 56.1437L22.5155 56.5842L22.5748 57.465L22.7022 59.2266L22.7844 60.1074L22.8282 60.563C22.8466 60.7553 22.89 60.9449 22.96 61.1223C23.2426 61.8324 23.8873 62.341 24.5775 62.4242C25.2958 62.4769 25.7882 62.2866 26.4047 62.209L25.5239 62.056C25.2217 62.0075 24.9312 61.9901 24.7186 61.8806C24.2627 61.6812 23.9608 61.2601 23.9145 60.8407C23.9052 60.7357 23.8966 60.6341 23.9103 60.5324L23.9492 60.1074L24.0314 59.2266L24.1588 57.465L24.2181 56.5841L24.2393 56.1437C24.2503 56.0645 24.2582 55.9987 24.2852 55.932C24.3725 55.666 24.6176 55.467 24.8665 55.4202C25.0023 55.3956 25.1282 55.4091 25.4685 55.4096C25.6409 55.412 28.2699 55.4474 28.1109 55.4453L28.9917 55.4345L29.4322 55.4286C29.5013 55.4317 29.5573 55.4302 29.6173 55.4473C29.858 55.493 30.0627 55.6941 30.153 55.9275C30.1747 55.9867 30.1939 56.0488 30.2 56.115L30.2201 56.5286C30.2689 57.6388 30.2643 57.9567 30.3538 59.171C30.363 59.3075 30.4525 60.6288 30.4432 60.4923C30.4464 60.5841 30.4593 60.6698 30.4459 60.7599C30.4178 61.1202 30.1609 61.4855 29.7797 61.6587C29.6068 61.754 29.3671 61.7782 29.0472 61.8141C28.5966 61.8771 27.8339 61.9468 26.4047 62.209C26.9919 62.3167 27.5792 62.4125 28.1664 62.4914L29.0472 62.6038C29.3119 62.6353 29.6696 62.699 30.0628 62.6183C30.8112 62.4628 31.4842 61.8814 31.7385 61.0956C31.8065 60.9028 31.8418 60.6934 31.8545 60.4923L31.8843 60.0519C31.9691 58.7969 32.0159 58.2297 32.0415 57.4094L32.0776 56.5286L32.0928 56.0614C32.0942 55.8339 32.0612 55.6047 32.0037 55.3815C31.7652 54.4854 31.0231 53.7567 30.1178 53.5201Z" fill="#031421"/>
<path d="M64.1342 53.4585C63.8401 56.2571 62.5304 58.8182 60.5348 60.545C58.5661 62.3017 55.9711 63.1887 53.4494 63.0914C50.9274 62.9738 48.4975 61.9185 46.8014 60.1118C45.0828 58.3407 44.09 55.9163 44.1211 53.4628C44.0922 51.0104 45.0777 48.5839 46.7994 46.8159C48.4935 45.0076 50.9241 43.9567 53.445 43.8368C55.9658 43.7386 58.5606 44.6226 60.5304 46.3762C62.528 48.0997 63.8379 50.6602 64.1342 53.4585C64.4494 50.6525 63.4555 47.6546 61.4733 45.4323C59.4924 43.2109 56.5283 41.7961 53.445 41.7165C50.362 41.5778 47.2327 42.8264 44.9798 44.9972C42.725 47.1786 41.4131 50.3124 41.4058 53.464C41.4193 56.6144 42.7283 59.7488 44.9873 61.9256C47.2389 64.0967 50.3682 65.3426 53.4503 65.2035C56.5332 65.1239 59.4953 63.7049 61.4733 61.4831C63.454 59.2608 64.4469 56.2644 64.1342 53.4585Z" fill="#031421"/>
<path d="M53.4464 36.8022C52.6323 36.804 51.8222 36.8884 51.0183 37.0123C51.2903 29.6307 51.4296 22.2488 51.6423 14.8672L51.7563 8.99237L51.7816 7.51465C51.7892 6.92669 51.6761 6.33459 51.4654 5.78188C50.8316 4.11528 49.2896 2.87224 47.4232 2.66641L46.9731 2.63697L46.6051 2.63075C46.3995 2.62797 36.4118 2.49281 37.0586 2.50157L13.5595 2.27537L7.6848 2.25017C6.47937 2.21269 5.09293 2.65205 4.12108 3.49423C3.1207 4.3223 2.44428 5.5367 2.26617 6.83241C2.17787 7.54665 2.21784 7.99505 2.20639 8.48235C2.20602 8.62408 2.17977 18.9282 2.18018 18.7632L2.25522 42.2622C2.27032 44.0643 2.20056 35.7341 2.40281 59.8864C2.40532 60.073 2.46545 64.5483 2.46201 64.2925C2.46159 64.7224 2.4723 65.4249 2.6397 66.0092C3.10135 67.7826 4.54689 69.2401 6.4447 69.6414C7.05122 69.7765 7.68387 69.7528 8.12424 69.7463L13.999 69.6554L25.7485 69.4313C27.5508 69.3844 19.2204 69.601 43.3728 68.9732L46.3101 68.8712C47.1528 68.8898 48.0442 68.7476 48.7921 68.3337C50.3216 68.73 51.8983 68.8891 53.4541 68.7648C49.4502 68.4701 45.6626 66.7021 43.1018 63.8139C40.4876 60.9905 39.1009 57.1963 39.2025 53.4635C39.3154 49.7306 40.868 46.0998 43.5341 43.5507C46.1579 40.9727 49.7833 39.4826 53.4476 39.5175C57.1107 39.484 60.7386 40.9658 63.3597 43.5466C66.0277 46.0935 67.5755 49.7253 67.6913 53.4569C67.7938 57.1888 66.4122 60.9835 63.8012 63.8083C61.2446 66.6993 57.4578 68.4683 53.4541 68.7648C57.4762 69.0883 61.6494 67.5582 64.7436 64.7496C67.8254 61.9168 69.7357 57.7506 69.8115 53.4569C69.9543 49.1631 68.2089 44.8327 65.1785 41.7271C62.1438 38.6131 57.8087 36.8048 53.4464 36.8022ZM48.7533 68.3219C47.9897 68.6689 47.1475 68.7409 46.3102 68.6672L43.3728 68.5653C19.2204 67.9375 27.5506 68.154 25.7485 68.1072L13.999 67.8831L8.12426 67.7922C7.58762 67.786 7.23216 67.7853 6.88143 67.6962C6.52489 67.6103 6.18402 67.4607 5.88444 67.2499C5.28206 66.8321 4.8465 66.1901 4.6874 65.4916L4.89552 18.7632L4.88117 12.8884C4.88067 12.7018 4.86854 8.22654 4.86923 8.48235C4.87056 7.99183 4.8543 7.45635 4.89552 7.19931C5.05745 5.88063 6.26537 4.80836 7.6848 4.87312L13.5595 4.848L37.0586 4.62171C37.2016 4.61978 46.4384 4.4948 45.8707 4.50248L46.6051 4.49253L46.9715 4.48673L47.2546 4.49453C48.4565 4.58192 49.4678 5.35268 49.9141 6.40125C50.0656 6.7568 50.1576 7.14078 50.1665 7.53289C50.1692 7.67237 50.3196 15.3393 50.3103 14.8672C50.5232 22.2532 50.6624 29.6392 50.9348 37.0252C47.8075 37.5234 44.8344 38.9157 42.4867 41.0266C42.3073 41.003 42.1234 40.9763 41.9404 40.9502L40.0069 40.7323L39.0401 40.6476C38.6994 40.6323 38.4563 40.5619 37.9572 40.6041C37.0565 40.6971 36.2333 41.3897 35.9615 42.2999C35.8873 42.5178 35.858 42.7784 35.8465 42.9806L35.8168 43.4639L35.7787 44.4307L35.7067 46.3643L35.6532 50.2313C35.6735 52.8094 35.7169 55.3874 35.8794 57.9655L36.0068 59.899C36.0471 60.2163 36.0265 60.5207 36.1419 60.9857C36.2603 61.4026 36.4951 61.7782 36.8113 62.0521C37.1303 62.3226 37.5177 62.4948 37.9127 62.5468C38.3348 62.5995 38.6437 62.5215 38.9627 62.4885C39.322 62.4448 39.6813 62.3854 40.0405 62.332C40.6658 63.2115 41.3759 64.0259 42.1657 64.7504C44.0531 66.462 46.3429 67.6905 48.7533 68.3219ZM39.8635 62.0577C39.5632 62.0144 39.263 61.9635 38.9627 61.9269C38.2592 61.8728 37.8054 61.7651 37.5184 61.352C37.3816 61.1658 37.2977 60.955 37.2805 60.7403C37.2652 60.5713 37.3141 60.2243 37.336 59.899L37.4635 57.9655C37.4888 57.5634 37.4955 57.1613 37.5154 56.7592C37.9674 58.6594 38.7762 60.4597 39.8635 62.0577ZM37.6697 48.786L37.6362 46.3643L37.4991 42.7049C37.5424 42.3581 37.8155 42.0398 38.1929 41.9186C38.3318 41.861 38.7376 41.8494 39.0401 41.8176L40.0069 41.7329L41.9404 41.515C41.948 41.5143 41.9552 41.5128 41.9627 41.512C41.8842 41.5893 41.7971 41.6575 41.7203 41.7366C39.8019 43.7017 38.4042 46.159 37.6697 48.786Z" fill="#031421"/>
<path d="M55.5936 53.4473C55.1268 53.2531 54.5379 53.0732 53.8278 52.9076V49.4348C54.5771 49.4448 55.3068 49.5761 56.0169 49.829C56.1137 49.8676 56.1921 49.8872 56.2503 49.8872C56.4254 49.8872 56.5661 49.8267 56.6735 49.7049C56.7804 49.5832 56.8339 49.4448 56.8339 49.2887C56.8339 48.9972 56.6973 48.8024 56.4254 48.705C55.6274 48.4135 54.7617 48.2527 53.8278 48.2236V47.1002C53.8278 47.0028 53.7963 46.9227 53.7333 46.8591C53.6698 46.7962 53.5897 46.7647 53.4923 46.7647C53.395 46.7647 53.3171 46.7962 53.259 46.8591C53.2008 46.9227 53.1711 47.0028 53.1711 47.1002V48.2384C52.442 48.277 51.8191 48.4331 51.3037 48.7051C50.7878 48.9776 50.3989 49.3327 50.1365 49.7703C49.8735 50.2084 49.7423 50.69 49.7423 51.2148C49.7423 51.818 49.9026 52.3072 50.2238 52.6814C50.545 53.056 50.9387 53.3434 51.4059 53.5423C51.8726 53.7418 52.461 53.9341 53.1711 54.1188V57.4604C52.1885 57.4313 51.3038 57.2412 50.5159 56.8909C50.428 56.8524 50.3354 56.8328 50.2386 56.8328C50.0635 56.8328 49.9198 56.8909 49.8081 57.0079C49.6959 57.1249 49.6401 57.2656 49.6401 57.4313C49.6401 57.5577 49.6787 57.6717 49.7571 57.7738C49.8349 57.876 49.9323 57.9513 50.0487 58.0001C51.0116 58.4186 52.0525 58.652 53.1711 58.7006V59.8389C53.1711 60.0263 53.2899 60.1595 53.4923 60.1595C53.5897 60.1595 53.6698 60.1304 53.7334 60.0722C53.7963 60.014 53.8278 59.9357 53.8278 59.8389V58.7006C54.5189 58.6615 55.1215 58.516 55.6375 58.2625C56.6247 57.779 57.2572 56.9499 57.2572 55.8549C57.2572 55.213 57.0963 54.7 56.7757 54.3159C56.4545 53.9317 56.0608 53.642 55.5936 53.4473ZM53.1711 52.7473C52.4806 52.5721 51.9551 52.3679 51.5953 52.1345C51.2355 51.9006 51.0556 51.5603 51.0556 51.1127C51.0556 50.646 51.2498 50.269 51.6392 49.9822C52.0282 49.6954 52.5388 49.522 53.1711 49.4639V52.7473ZM53.8278 57.4455V54.2791C54.5283 54.4643 55.0562 54.6638 55.4112 54.8776C55.7663 55.0913 55.9439 55.3882 55.9439 55.7676C55.9439 56.7888 55.2385 57.3487 53.8278 57.4455Z" fill="#031421"/>
</svg>
