<svg width="72" height="72" viewBox="0 0 72 72" fill="none" xmlns="http://www.w3.org/2000/svg">
<path d="M69.4908 11.4661L69.5303 9.35375L69.5433 8.26689C69.5413 7.8281 69.4727 7.3889 69.3592 6.96213C68.8989 5.24916 67.5126 3.81746 65.7781 3.31798C65.3488 3.18548 64.9005 3.1208 64.4534 3.10529L63.3737 3.0887C63.0993 3.08561 52.1107 2.96147 52.8116 2.96939C52.6061 2.96939 19.2255 2.96579 19.0129 2.96576C18.8686 2.9674 7.82066 3.09298 8.45078 3.08582L7.36855 3.10298C6.92139 3.11907 6.47306 3.18382 6.04382 3.31599C4.31187 3.81904 2.92328 5.24395 2.45837 6.95948C2.34402 7.38674 2.2748 7.82678 2.2728 8.26656L2.28581 9.35375L2.32562 11.4661L2.41583 15.691L2.48466 18.2814C2.4772 18.3073 2.46542 18.3316 2.45837 18.3576C2.34402 18.7849 2.2748 19.2249 2.2728 19.6647L2.28581 20.7518L2.32562 22.8643L2.41583 27.0892C2.71061 38.1751 2.61992 35.0062 2.6421 35.5913C2.64008 35.7286 2.21035 64.7695 2.23782 62.918C2.22721 63.3933 2.20722 64.1145 2.37206 64.7718C3.05461 67.7382 5.30878 68.7773 8.35153 68.8395C66.6806 69.1165 65.0086 69.171 66.5151 68.5103C68.4482 67.6719 69.7714 65.7182 69.7691 63.5536C69.6913 45.9547 69.6821 39.8002 69.5539 33.0901L69.5307 31.4873C69.5258 31.0083 69.5299 30.2983 69.3533 29.6574C69.3485 29.6383 69.3383 29.6212 69.3333 29.6023L69.3999 27.0892L69.4908 22.8643L69.5303 20.7518L69.5433 19.6651C69.5413 19.2263 69.4727 18.787 69.3592 18.3603C69.3517 18.3324 69.3392 18.3064 69.3313 18.2787L69.3999 15.691L69.4908 11.4661ZM4.28675 11.4661L4.32655 9.35375C4.33584 9.01562 4.33393 8.61837 4.35234 8.32882C4.36246 8.06398 4.41701 7.80512 4.49313 7.55538C4.80663 6.55386 5.66688 5.75098 6.66286 5.50953C6.91003 5.44502 7.16483 5.41418 7.42088 5.41087L8.45078 5.41832C8.72515 5.42145 19.7138 5.54635 19.0129 5.53839C19.2192 5.53836 52.5982 5.53476 52.8116 5.53473C53.0224 5.53236 63.9103 5.40936 63.3737 5.41542L64.4062 5.40762C64.662 5.41334 64.9179 5.43698 65.1647 5.50356C66.1608 5.74302 67.0187 6.54762 67.3313 7.5524C67.4072 7.80298 67.4615 8.06267 67.4716 8.3285C67.4899 8.6187 67.488 9.01546 67.4972 9.35375L67.5367 11.4661C67.5397 11.6056 67.6338 15.9752 67.628 15.7055C66.692 14.9313 65.606 14.5435 64.4534 14.5035L63.3737 14.4869L61.2613 14.463L52.8116 14.3676C52.6061 14.3675 19.2255 14.3639 19.0129 14.3639C18.8686 14.3656 7.82066 14.4911 8.45078 14.484L7.36856 14.5011C6.20105 14.5431 5.12298 14.9384 4.1963 15.7027C4.22052 14.5678 4.2912 11.2571 4.28675 11.4661ZM67.4735 33.0901C67.3395 40.1089 67.2543 63.6712 67.255 63.5336C67.245 65.0478 66.0183 66.3646 64.4176 66.3877C64.5554 66.3866 42.1138 66.3591 7.55014 66.5252C7.32312 66.5195 7.15156 66.5137 6.95364 66.4783C5.79143 66.2812 4.79803 65.4161 4.49196 64.2489C4.30888 63.6045 4.39628 62.3346 4.35117 61.3153C4.27151 55.9356 4.55195 74.8743 3.97025 35.5913C3.98742 35.1383 3.92688 37.2276 4.13458 29.4253C4.67566 28.1 5.93665 27.1992 7.38537 27.1259L8.9771 27.082C13.2512 26.9921 17.5255 26.8689 21.7996 26.7219C13.4294 26.4342 7.77778 26.3397 7.3635 26.3297C6.22632 26.3327 5.0813 26.7622 4.18227 27.6304L4.19661 27.0892L4.28675 22.8643L4.32655 20.7518C4.33584 20.4138 4.33393 20.0165 4.35234 19.7269C4.36246 19.4621 4.41701 19.2033 4.49313 18.9536C4.80663 17.952 5.66688 17.1491 6.66287 16.9077C6.91005 16.8431 7.16485 16.8123 7.42088 16.809L8.45078 16.8165C8.72515 16.8196 19.7138 16.9445 19.0129 16.9366C19.2192 16.9365 52.5982 16.9329 52.8116 16.9329C52.9483 16.9314 64.0753 16.8057 63.3737 16.8136L64.4062 16.8058C64.662 16.8115 64.9179 16.8351 65.1647 16.9017C66.1608 17.1411 67.0187 17.9458 67.3313 18.9505C67.4072 19.2011 67.4615 19.4608 67.4716 19.7266C67.4899 20.0169 67.488 20.4136 67.4972 20.7518L67.5367 22.8643L67.6254 26.9851C67.4432 26.8354 67.2625 26.683 67.061 26.5606C66.5024 26.218 65.8766 25.9851 65.2322 25.8795C64.9164 25.823 64.5693 25.811 64.2743 25.8095C43.9801 26.1114 67.758 25.7572 47.4448 26.0599C38.8963 26.2838 30.348 26.4159 21.7996 26.722C30.348 27.028 38.8963 27.1601 47.4448 27.384C47.5865 27.3861 64.4116 27.6364 64.2743 27.6345C64.5134 27.6451 64.701 27.6563 64.9112 27.6997C66.1723 27.9466 67.1574 28.9267 67.4234 30.1325C67.5805 30.8153 67.4582 32.0657 67.4735 33.0901Z" fill="#031421"/>
<path d="M63.0664 37.0974L63.0663 37.0935C63.0534 36.6638 62.6945 36.326 62.2648 36.3389C61.3777 36.3657 60.4848 36.0312 59.8287 35.4071C59.169 34.7864 58.7758 33.8984 58.7393 32.9711L58.7375 32.9266C58.7257 32.5831 58.4377 32.3143 58.0942 32.3261C51.8108 32.5423 45.5274 32.674 39.244 32.971C45.3273 33.2585 51.4104 33.3928 57.4937 33.5973C57.7208 35.7586 59.2855 37.4422 61.4482 37.8487C61.2995 43.9747 61.2168 50.1006 61.1229 56.2266C60.1325 56.4371 59.1936 56.9209 58.4721 57.6385C57.7632 58.3295 57.2754 59.2355 57.039 60.2007C49.9961 60.1193 42.9532 60.11 35.9102 60.0846L14.8336 60.1369C14.2954 58.0228 12.7299 56.6158 10.77 56.1763C10.7194 50.1123 10.6215 44.0484 10.5189 37.9845C11.5108 37.7776 12.4393 37.2737 13.1316 36.5471C13.8683 35.789 14.3271 34.7917 14.4731 33.7593C18.4771 33.6764 22.4812 33.5606 26.4851 33.4275C30.7381 33.2956 34.991 33.1696 39.244 32.971C34.991 32.7724 30.7381 32.6464 26.4851 32.5145C22.2322 32.3731 17.9792 32.245 13.7262 32.1621C13.291 32.1537 12.9295 32.4982 12.9181 32.9341L12.9172 32.9711C12.894 33.8577 12.5121 34.7059 11.8822 35.2976C11.2534 35.8925 10.4042 36.2084 9.55563 36.1918L9.55307 36.1917C9.0389 36.183 8.61496 36.5928 8.60633 37.107C8.49131 43.8754 8.37731 50.6244 8.32864 57.2607C8.32392 57.93 8.86071 58.4788 9.53092 58.4874L9.55563 58.4876C10.3346 58.4977 11.083 58.8203 11.6164 59.3705C12.1515 59.9197 12.4461 60.6694 12.4344 61.4313L12.4342 61.4477C12.4325 62.1504 13.0007 62.7213 13.7033 62.7231C26.8282 62.7556 22.8181 62.7457 35.9102 62.7782C43.3049 62.7516 50.6996 62.7475 58.0942 62.6538L58.1282 62.6534L58.1311 62.6533C58.796 62.6433 59.3269 62.0961 59.3168 61.4313C59.305 60.6517 59.6072 59.8833 60.1552 59.3216C60.7013 58.7586 61.4681 58.4285 62.2649 58.4187L62.2971 58.4184L62.301 58.4183C62.9305 58.4085 63.4328 57.8902 63.4229 57.2607C63.3178 50.5544 63.2362 43.8481 63.0676 37.1418L63.0664 37.0974Z" fill="#38A3EE"/>
<path d="M32.23 56.3237C33.2939 57.0176 34.6089 57.4156 35.9075 57.3591C37.2045 57.2974 38.4493 56.8173 39.4145 56.0703C40.3868 55.3258 41.1295 54.3813 41.6709 53.3688C42.728 51.322 43.051 49.0336 42.7706 46.8925C42.4558 49.0239 41.7645 51.0621 40.5471 52.6634C39.3765 54.2782 37.608 55.3472 35.9056 55.247C34.2085 55.1207 32.705 53.9516 31.7924 52.3375C30.8497 50.7413 30.3959 48.8103 30.4068 46.8926C30.4 44.9758 30.8482 43.043 31.7955 41.4496C32.7065 39.8344 34.2108 38.6695 35.9055 38.5421C37.606 38.4413 39.3736 39.5099 40.5441 41.1236C41.7624 42.7234 42.4535 44.7613 42.7706 46.8925C43.0533 44.7512 42.7301 42.4624 41.674 40.4142C41.1314 39.4021 40.3897 38.4564 39.4168 37.7113C38.45 36.9656 37.2056 36.4835 35.9074 36.4219C34.6073 36.3635 33.2927 36.7652 32.2282 37.4589C31.1518 38.1445 30.2873 39.0703 29.6149 40.0846C28.2926 42.1424 27.7328 44.537 27.6914 46.8926C27.7368 49.2473 28.2911 51.6436 29.618 53.6986C30.2901 54.7127 31.1541 55.6383 32.23 56.3237Z" fill="#031421"/>
<path d="M37.7903 46.571C37.3825 46.4012 36.8678 46.244 36.2473 46.0993V43.0646C36.9021 43.0734 37.5392 43.1881 38.1598 43.4092C38.2448 43.4428 38.3133 43.46 38.3641 43.46C38.5167 43.46 38.6402 43.4071 38.7335 43.3007C38.827 43.1943 38.8746 43.0734 38.8746 42.9369C38.8746 42.6822 38.7553 42.5121 38.5167 42.4269C37.8204 42.1722 37.0639 42.0316 36.2473 42.0062V41.0245C36.2473 40.9394 36.2203 40.8694 36.1642 40.8139C36.1092 40.7589 36.0387 40.7314 35.9546 40.7314C35.8695 40.7314 35.801 40.7589 35.7502 40.8139C35.6994 40.8694 35.6734 40.9394 35.6734 41.0245V42.0192C35.0363 42.0529 34.4915 42.1893 34.0411 42.4269C33.5908 42.6651 33.2515 42.9753 33.0211 43.3577C32.7918 43.7406 32.6776 44.1614 32.6776 44.6201C32.6776 45.1472 32.8177 45.5747 33.0979 45.9016C33.3781 46.229 33.7226 46.4801 34.1304 46.654C34.5392 46.8283 35.0529 46.9964 35.6734 47.1578V50.0778C34.8153 50.0524 34.0411 49.8864 33.3532 49.5802C33.2763 49.5465 33.1954 49.5293 33.1103 49.5293C32.9578 49.5293 32.8322 49.5802 32.7347 49.6824C32.6371 49.7846 32.5884 49.9076 32.5884 50.0524C32.5884 50.1629 32.6216 50.2625 32.6901 50.3518C32.7575 50.441 32.8426 50.5069 32.9453 50.5494C33.7869 50.9152 34.6959 51.1191 35.6734 51.1616V52.1563C35.6734 52.2408 35.6994 52.3093 35.7502 52.3602C35.801 52.411 35.8695 52.4364 35.9546 52.4364C36.0387 52.4364 36.1092 52.411 36.1642 52.3601C36.2203 52.3093 36.2473 52.2408 36.2473 52.1563V51.1616C36.8512 51.1273 37.3783 51.0002 37.8287 50.7787C38.2791 50.5582 38.6277 50.2672 38.8746 49.9055C39.1206 49.5444 39.2441 49.134 39.2441 48.6748C39.2441 48.114 39.104 47.6657 38.8228 47.33C38.5426 46.9943 38.1981 46.7411 37.7903 46.571ZM35.6734 45.9592C35.0695 45.8062 34.6109 45.6276 34.2964 45.4237C33.982 45.2194 33.8242 44.922 33.8242 44.5308C33.8242 44.123 33.9945 43.7935 34.3348 43.543C34.6752 43.2924 35.1214 43.1409 35.6734 43.09V45.9592H35.6734ZM36.2473 50.0648V47.2978C36.8595 47.4597 37.3202 47.634 37.6305 47.8208C37.9408 48.0076 38.0964 48.267 38.0964 48.5986C38.0964 49.4909 37.48 49.9802 36.2473 50.0648Z" fill="#031421"/>
</svg>
