<svg width="92" height="85" viewBox="0 0 92 85" fill="none" xmlns="http://www.w3.org/2000/svg">
<path d="M10.1984 39.0832C9.28541 40.2061 8.41608 41.3763 7.36351 41.9607C6.29506 42.5823 5.13089 42.5599 3.59153 42.4974L3.30926 42.4911C3.16981 42.4944 3.02977 42.4959 2.89089 42.5184C2.61219 42.5527 2.33822 42.632 2.08166 42.7466C1.06381 43.1936 0.335432 44.2144 0.320847 45.4147C0.313753 45.6827 0.168696 51.1599 0.177017 50.8458L0.079583 55.1905L0.0381305 57.3629L0.0205078 58.4868C0.0341493 59.7586 0.813734 60.9315 2.02915 61.4588C2.56823 61.7286 3.43215 61.7498 3.66604 61.7403L4.74762 61.7637C6.39041 61.8171 7.2363 62.3143 8.27638 63.6164C9.08596 64.6185 9.92662 65.9135 10.942 67.096C13.7109 70.3445 17.0279 72.8502 20.8431 74.8727C20.8421 75.0645 20.8119 81.1944 20.8138 80.8031L20.8125 81.1912C20.8003 83.1446 22.3451 84.699 24.232 84.7999C26.3147 84.8093 29.6446 84.8243 32.5626 84.8335C32.8168 84.832 33.0937 84.8063 33.3544 84.7486C34.4123 84.5191 35.3358 83.8078 35.8117 82.8597C36.0535 82.3884 36.1879 81.8617 36.2053 81.342L36.212 80.5045L36.2152 79.4917C39.6644 79.8687 43.1458 79.862 46.6018 79.4705L46.6051 80.5092L46.6118 81.3435C46.6293 81.8554 46.7617 82.3751 47.0008 82.8403C47.4706 83.7777 48.3849 84.4742 49.4122 84.7022C49.6678 84.7607 49.928 84.7881 50.1857 84.7924C50.3757 84.7919 53.1279 84.7843 52.9379 84.7849L56.0605 84.7635L57.6217 84.7485L58.4534 84.7377C58.9616 84.7214 59.4772 84.5935 59.9389 84.3621C60.8689 83.9069 61.5606 83.022 61.7872 82.0264C61.8459 81.7789 61.8733 81.5266 61.8777 81.2769C61.8759 81.0851 61.8157 74.7081 61.8176 74.8999C66.1262 72.6511 70.0487 69.5612 72.9543 65.6055C76.1048 61.408 77.852 56.0564 77.402 50.8225C77.3203 49.6091 77.1099 48.42 76.8092 47.2587C78.0878 47.2101 79.2754 47.63 80.2328 48.2804C81.5033 49.0988 82.3129 50.3487 82.9135 51.7235C83.0803 52.1484 83.2088 52.6183 83.3492 53.076C82.9686 53.0673 82.5843 53.0857 82.2053 53.1707C79.5074 53.7182 77.8562 56.2377 78.3874 58.9172C78.6176 60.2035 79.6034 61.5356 80.8977 62.1207C82.1573 62.71 83.6707 62.7917 85.0589 62.1075C87.2407 60.8902 87.7887 58.7408 87.7251 56.9735C89.1204 57.499 90.5191 58.0186 91.981 58.427C90.6784 57.2253 89.292 56.171 87.9111 55.107C87.72 54.9681 87.5134 54.824 87.3145 54.6812C86.9058 53.1709 86.3875 51.7402 85.5054 50.3633C84.502 48.7252 82.9182 47.2467 81.0151 46.6286C79.5922 46.1597 77.9644 46.1671 76.676 46.7582C75.6248 43.0863 73.5668 39.7427 70.9638 37.0638C67.5339 33.4876 63.2334 30.9127 58.6756 29.2316C59.3869 28.0284 59.9773 26.7458 60.4191 25.4087C61.601 21.623 61.602 17.4036 60.2683 13.57C59.0292 9.69365 56.3784 6.3102 53.058 3.89105C51.3716 2.7049 49.5009 1.77675 47.5304 1.13056C45.5457 0.526415 43.4807 0.20743 41.4048 0.166504C39.3293 0.210176 37.2641 0.523576 35.2788 1.12692C33.3093 1.7746 31.4352 2.69603 29.7509 3.88524C26.4277 6.30097 23.7786 9.68375 22.5352 13.5575C21.8829 15.4728 21.5016 17.4855 21.5216 19.4943C21.4768 21.4983 21.7796 23.4987 22.3759 25.3936C22.823 26.7523 23.4222 28.0562 24.1485 29.2762C18.7991 31.2275 13.8117 34.5089 10.1984 39.0832ZM83.9426 57.9419C83.796 58.4068 83.5185 58.7147 83.3314 58.7873C83.1711 58.8899 82.7781 58.9194 82.478 58.7791C82.1748 58.6658 82.0186 58.486 81.865 58.1047C81.5739 57.3104 81.9643 56.4569 82.9886 55.981C83.2613 55.8386 83.6046 55.8073 83.9766 55.8216C83.9936 55.9439 84.0321 56.07 84.0458 56.1911C84.1167 56.8944 84.1039 57.5145 83.9426 57.9419ZM23.366 19.5748C23.4969 17.758 23.913 15.9721 24.602 14.3041C27.2451 7.55788 34.185 2.83323 41.4037 2.96662C48.6213 2.84315 55.5563 7.57099 58.1931 14.3179C58.8788 15.9862 59.298 17.7715 59.4248 19.5882C59.617 21.4038 59.4738 23.2547 59.0784 25.0554C58.3708 28.575 56.4896 31.8485 53.8796 34.5068C52.2174 33.5951 50.4257 32.9266 48.5847 32.4546C48.26 32.3689 47.9298 32.3047 47.6018 32.2316C49.6576 31.3557 51.5159 29.9282 52.9401 28.1331C54.9909 25.4838 55.9816 21.9937 55.6383 18.5861C55.3719 15.1519 53.6249 11.8717 51.0382 9.53207C48.4333 7.18953 44.917 5.8669 41.3847 5.84434C37.8531 5.87581 34.339 7.19945 31.7389 9.54565C29.1535 11.8843 27.4063 15.1633 27.141 18.5976C26.7988 22.0051 27.7961 25.4951 29.8527 28.1382C31.2813 29.9337 33.1439 31.3606 35.2035 32.2354C34.8706 32.3095 34.5357 32.3749 34.2061 32.4622C32.3712 32.9335 30.5843 33.5971 28.9249 34.5009C26.3016 31.8483 24.4166 28.5681 23.7089 25.0434C23.3159 23.2418 23.1729 21.3907 23.366 19.5748ZM35.9063 32.0755C33.8533 30.9343 32.132 29.3186 30.9917 27.3682C29.3997 24.8032 28.864 21.7294 29.3241 18.8677C30.1662 13.056 35.6201 8.53699 41.387 8.64451C47.1536 8.52913 52.6064 13.0466 53.4469 18.8582C53.9088 21.7193 53.3779 24.7933 51.7928 27.3607C50.6587 29.3116 48.9419 30.9279 46.8925 32.0706C45.0846 31.7199 43.2384 31.5533 41.3945 31.553C39.5535 31.5577 37.7108 31.7252 35.9063 32.0755ZM24.171 29.3166C25.3925 31.3572 26.987 33.1452 28.8751 34.5303C28.4384 34.7698 28.005 35.0157 27.5885 35.2912C29.9924 35.054 32.2854 34.7855 34.5738 34.6096C39.3104 34.2839 43.0329 34.2521 48.2156 34.6103C50.5033 34.7868 52.7958 35.0551 55.2005 35.2921C54.7899 35.0189 54.3622 34.7756 53.9317 34.5378C55.8297 33.1371 57.43 31.3299 58.6541 29.2699C63.0032 31.4076 67.0087 34.2335 70.0375 37.8738C73.1567 41.6059 75.1017 46.2357 75.2043 50.9333C75.3259 55.6348 73.5966 60.2311 70.6611 63.8958C67.7201 67.5776 63.7436 70.405 59.4202 72.4179C58.8663 72.6769 58.4789 73.233 58.4725 73.8802C58.4597 75.201 58.4089 80.4236 58.4122 80.0901L58.4046 80.863L58.3996 81.2217L58.3935 81.2373C58.3853 81.2453 58.3777 81.2523 58.3679 81.2479L58.3513 81.2433L57.6217 81.2379L56.0605 81.2229L50.2642 81.1904C50.2649 80.9654 50.2753 77.1873 50.2747 77.418C50.2703 76.2648 49.243 75.4493 48.1564 75.6173L48.1417 75.6196C43.6897 76.3083 39.0991 76.2491 34.6343 75.5609C33.4381 75.3844 32.4575 76.2943 32.4611 77.4001C32.4616 77.5882 32.4724 81.3951 32.4717 81.1529C32.2817 81.1535 23.9286 81.1783 24.4604 81.1768C24.4595 80.985 24.4216 73.3357 24.424 73.8179L24.4242 73.7891C24.4198 73.1397 24.0469 72.519 23.4137 72.2241C19.664 70.4774 16.2175 68.1078 13.4277 64.9854C11.87 63.2727 10.6705 61.0503 8.73845 59.8549C7.93002 59.3431 6.975 59.0257 6.08411 58.9104C5.63832 58.8547 5.20232 58.8299 4.77877 58.8326L3.66609 58.85C3.17172 58.861 3.28721 58.8597 3.14834 58.8339C2.96181 58.7676 2.83119 58.6046 2.81472 58.4114L2.79179 57.363L2.75034 55.1905L2.65279 50.8458C2.64417 50.5205 2.50102 45.115 2.50896 45.4147C2.50262 45.2316 2.5306 45.0928 2.61156 44.9468C2.74189 44.7081 2.98772 44.5561 3.19785 44.5192C3.23885 44.5065 3.28238 44.5077 3.32545 44.5005L3.59158 44.4926C4.93621 44.4887 6.87528 44.4557 8.29855 43.4202C9.74024 42.4292 10.5085 41.0885 11.3472 39.9207C14.4496 35.3211 19.0689 31.8117 24.171 29.3166Z" fill="#FAFDFF"/>
<path d="M41.74 28.5037C41.8305 28.4321 41.8667 28.3246 41.8667 28.2172V26.8201C42.7171 26.7664 43.4769 26.5872 44.1102 26.2828C44.7433 25.9604 45.2498 25.5484 45.5935 25.047C45.9373 24.5454 46.1182 23.9544 46.1182 23.3096C46.1182 22.5217 45.9193 21.8947 45.5212 21.429C45.1232 20.9455 44.6347 20.5873 44.0558 20.3544C43.4769 20.1216 42.7532 19.8887 41.8667 19.6917V15.4289C42.7894 15.4289 43.694 15.5901 44.5805 15.9126C44.707 15.9484 44.7975 15.9842 44.87 15.9842C45.0871 15.9842 45.2679 15.9126 45.3945 15.7514C45.5212 15.6081 45.5935 15.4289 45.5935 15.2498C45.5935 14.8917 45.4308 14.6409 45.0871 14.5334C44.0921 14.1752 43.0245 13.9782 41.8667 13.9424V12.5454C41.8667 12.4379 41.8305 12.3305 41.74 12.2588C41.6677 12.1872 41.5591 12.1334 41.4506 12.1334C41.324 12.1334 41.2336 12.1872 41.1612 12.2588C41.0888 12.3305 41.0526 12.438 41.0526 12.5454V13.9603C40.148 13.9962 39.37 14.1931 38.7369 14.5334C38.0856 14.8558 37.5971 15.3036 37.2714 15.8409C36.9458 16.3782 36.7829 16.9693 36.7829 17.6141C36.7829 18.3484 36.982 18.9573 37.38 19.4051C37.778 19.8708 38.2846 20.2291 38.8635 20.4798C39.4424 20.7127 40.1661 20.9455 41.0526 21.1783V25.2798C39.8224 25.244 38.7369 25.0112 37.7599 24.5813C37.6333 24.5455 37.5248 24.5097 37.3981 24.5097C37.181 24.5097 37.0182 24.5813 36.8734 24.7246C36.7287 24.8679 36.6562 25.047 36.6562 25.244C36.6562 25.4052 36.7106 25.5484 36.801 25.6738C36.9096 25.7992 37.0182 25.8887 37.1629 25.9604C38.375 26.4618 39.6595 26.7486 41.0526 26.8202V28.2172C41.0526 28.3246 41.0888 28.4321 41.1612 28.5037C41.2335 28.5753 41.3239 28.6112 41.4506 28.6112C41.5591 28.6111 41.6677 28.5753 41.74 28.5037ZM41.8667 21.3753C42.7351 21.6081 43.3864 21.8588 43.8206 22.1096C44.2729 22.3784 44.49 22.7366 44.49 23.2021C44.49 24.4559 43.6216 25.1545 41.8667 25.2619V21.3753ZM41.0526 19.4947C40.1842 19.2797 39.5329 19.029 39.0987 18.7424C38.6465 18.4559 38.4294 18.0439 38.4294 17.4886C38.4294 16.9156 38.6645 16.4499 39.1529 16.0917C39.6234 15.7513 40.2566 15.5364 41.0526 15.4648V19.4947Z" fill="#FAFDFF"/>
<path d="M20.7354 47.1C21.7933 46.9232 22.716 46.2931 23.1166 45.45C21.4257 46.2723 19.8004 45.639 19.1506 44.6674C18.4621 43.6663 18.646 42.4127 19.3752 41.726C20.0975 41.0005 21.347 40.8367 22.3554 41.5179C23.3324 42.1674 23.9476 43.774 23.1166 45.45C23.9691 45.055 24.6115 44.1516 24.8042 43.1044C24.984 42.0592 24.6877 40.8604 23.9169 39.9718C23.1863 39.0642 21.9943 38.4858 20.7672 38.4357C19.537 38.3731 18.2696 38.8615 17.3889 39.7313C16.4941 40.6017 15.9946 41.8583 16.0518 43.0743C16.0937 44.2878 16.6718 45.469 17.5838 46.1965C18.4739 46.9654 19.6801 47.2654 20.7354 47.1Z" fill="#FAFDFF"/>
</svg>
