<svg width="94" height="86" viewBox="0 0 94 86" fill="none" xmlns="http://www.w3.org/2000/svg">
<path d="M93.5867 77.2553C93.1998 75.0335 92.4345 72.885 91.3297 70.9339C90.2062 68.9929 88.7566 67.2508 87.0618 65.8002C85.3908 64.3608 83.3113 63.2486 81.3951 62.4763C70.126 57.6052 62.7535 54.5589 58.4257 52.7433C58.2263 52.6609 57.9884 52.7047 57.8317 52.8709C54.1991 56.7212 50.583 60.588 47.0119 64.4998C50.8183 61.0126 54.58 57.4809 58.3273 53.9347C60.6402 55.0806 62.9698 56.1894 65.2871 57.3254C63.4185 59.223 61.8753 61.2983 60.4015 63.4114C59.1938 65.2459 58.0746 67.1287 57.0286 69.0513C55.7481 68.3093 54.4513 67.5917 53.1147 66.9343C51.1617 66 49.172 65.1208 47.0094 64.5025C47.0101 64.5016 47.0112 64.5007 47.0119 64.4998C47.0101 64.5003 47.0087 64.5011 47.007 64.5016C47.0053 64.5011 47.0038 64.5003 47.0021 64.4998C47.0028 64.5008 47.0038 64.5016 47.0045 64.5025C44.842 65.1208 42.8524 66 40.8993 66.9343C39.5626 67.5917 38.2659 68.3093 36.9853 69.0513C35.9392 67.1287 34.8202 65.2459 33.6126 63.4114C32.1387 61.2984 30.5957 59.223 28.727 57.3254C31.0409 56.1906 33.3674 55.0839 35.6767 53.9389C39.4307 57.4835 43.1985 61.0145 47.0119 64.4998C43.4354 60.5867 39.8128 56.7195 36.1747 52.868C36.0255 52.7108 35.7888 52.6524 35.5768 52.7404L35.5445 52.7539C27.8741 55.939 20.2281 59.1779 12.6067 62.4708C10.6894 63.2414 8.61074 64.3572 6.93919 65.7964C5.2438 67.2472 3.79357 68.9897 2.66949 70.931C1.56431 72.8827 0.798361 75.0318 0.411305 77.2542C0.228777 78.3514 0.145286 79.5322 0.133777 80.5902L0.101192 83.7028C0.090588 84.5871 0.79872 85.3099 1.68293 85.3205C2.93453 85.3304 15.7164 85.5288 47.0021 85.5887C76.9646 85.5288 91.4501 85.3233 92.3212 85.3164C93.2024 85.3064 93.9088 84.5841 93.8989 83.7028L93.8639 80.5902C93.8523 79.5323 93.7691 78.3522 93.5867 77.2553ZM3.31993 82.0718C3.32204 80.6608 3.22278 79.4792 3.44706 77.7219C3.71389 75.8466 4.29959 74.0103 5.18495 72.3197C6.08919 70.64 7.27983 69.1089 8.69666 67.8132C10.1556 66.5111 11.7289 65.5639 13.6174 64.6883C18.5402 62.3327 23.4361 59.9172 28.3379 57.5151C28.9222 60.1211 29.8346 62.548 30.8166 64.937C31.9644 67.5292 33.2059 70.0703 34.6465 72.5027L34.7132 72.6153L34.7933 72.7382C35.3687 73.5466 36.4905 73.7356 37.2989 73.1603C39.049 71.9149 40.7505 70.5963 42.3873 69.1799C44.0093 67.7456 45.5946 66.2559 47.0071 64.5052C49.5616 67.6714 53.4101 70.8083 56.7152 73.1603L56.8412 73.2423C57.695 73.748 58.797 73.4659 59.3026 72.6121L59.3675 72.5027C60.8082 70.0703 62.0497 67.5292 63.1974 64.937C64.1794 62.548 65.0919 60.121 65.6762 57.515C70.5755 59.9156 75.4688 62.3293 80.3894 64.6828C82.2788 65.5566 83.8512 66.5075 85.3109 67.8094C86.7282 69.1053 87.9194 70.6367 88.8241 72.317C89.71 74.008 90.2961 75.845 90.5633 77.7209C90.6855 78.6776 90.7251 79.572 90.7064 80.5902L90.6897 82.0757C76.1272 81.9099 61.5646 81.8464 47.0021 81.8174C32.4414 81.8453 17.8806 81.9053 3.31993 82.0718Z" fill="#FAFDFF"/>
<path d="M58.8581 35.9334C59.6424 35.1748 60.6348 34.4661 61.4862 33.5411C64.9432 30.011 66.969 24.9993 66.864 19.9192C66.8572 14.8328 64.6373 9.78062 60.9892 6.15962C57.3401 2.51213 52.179 0.415754 47.0013 0.411377C41.8253 0.421622 36.6614 2.51157 33.0176 6.16492C29.3683 9.78441 27.1543 14.8375 27.1465 19.9218C27.0412 25.0003 29.0686 30.0111 32.5238 33.5392C33.3724 34.4606 34.3671 35.1777 35.153 35.9326C35.9694 36.713 36.7027 37.5843 37.3777 38.5077C38.5552 40.1442 39.4534 42.0029 40.0887 43.9724L39.8845 43.9555C39.4858 43.9118 38.7581 43.8487 38.1359 44.0833C36.8618 44.5048 35.9264 45.7608 35.878 47.1681C35.7932 48.561 36.6751 49.9948 38.0205 50.54C38.6662 50.8476 39.5218 50.8499 39.8851 50.8566L41.0063 50.896C40.9447 52.1434 41.3712 53.4736 42.2202 54.5163C43.3468 55.9822 45.2539 56.8933 47.1697 56.8797C49.0853 56.8893 50.9908 55.9793 52.1163 54.5133C52.9674 53.4667 53.3961 52.1312 53.3317 50.8805L54.12 50.853C54.4817 50.8453 55.344 50.8471 55.9839 50.5364C57.3181 50.0022 58.2133 48.5516 58.1229 47.1694C58.0823 45.7718 57.1289 44.4952 55.8671 44.0904C55.2496 43.8586 54.5169 43.9128 54.1194 43.9591L53.9173 43.9758C54.5554 42.006 55.4558 40.1474 56.6349 38.5106C57.3102 37.5873 58.0438 36.7162 58.8581 35.9334ZM41.9462 50.9148L47.0026 50.9809L52.4016 50.9068C49.8754 55.0954 44.4857 55.0985 41.9462 50.9148ZM53.7776 43.9875L52.6959 44.0769C50.798 44.2699 48.8999 44.4562 47.0019 44.768C48.8999 45.0799 50.798 45.2661 52.6959 45.4591C53.584 45.5813 54.7909 45.5202 55.173 45.8011C55.6903 46.0906 55.9904 46.6515 55.9228 47.1681C55.8589 47.6978 55.5101 48.0927 55.0576 48.2431C54.8275 48.372 53.5813 48.232 52.6965 48.2305L47.0026 48.1524L41.3086 48.2268C40.4256 48.2294 39.1748 48.3668 38.9478 48.2402C38.5098 48.0967 38.1433 47.6881 38.0865 47.1676C38.0052 46.6586 38.334 46.0856 38.8311 45.8031C39.2106 45.5253 40.4212 45.5838 41.3081 45.4628C43.206 45.2683 45.104 45.0823 47.0019 44.768C45.104 44.4537 43.206 44.2677 41.3081 44.0731L40.2281 43.9839C39.9231 41.906 39.2924 39.8468 38.2611 37.9587C37.694 36.8889 37.0009 35.8805 36.2175 34.9406C35.4028 33.9749 34.5527 33.2144 33.9033 32.3172C31.0875 28.839 29.7579 24.354 30.0776 20.042C30.4107 15.7278 32.338 11.6093 35.4879 8.73238C38.5678 5.80315 42.7677 4.13158 47.0016 4.18272C51.2337 4.13666 55.4368 5.80038 58.5121 8.73468C61.6642 11.6092 63.5867 15.7279 63.9219 20.0401C64.2429 24.3503 62.9129 28.8349 60.0998 32.3119C59.4548 33.207 58.5967 33.9702 57.7864 34.9383C57.0071 35.8813 56.3128 36.8881 55.7464 37.9584C54.715 39.8479 54.0828 41.9082 53.7776 43.9875Z" fill="#FAFDFF"/>
<path d="M39.57 13.1052C37.7175 14.3105 36.241 16.2125 35.5703 18.3976C34.888 20.571 34.9783 22.971 35.8275 25.023C36.6774 27.0647 38.2556 28.772 40.2127 29.4835C38.4518 25.7882 38.2402 22.5363 39.1693 19.5287C39.6395 18.0389 40.4091 16.663 41.4774 15.3779C42.5494 14.0974 43.9312 12.9993 45.7259 11.9688C43.7115 11.4178 41.4352 11.9125 39.57 13.1052Z" fill="#FAFDFF"/>
</svg>
