<svg width="94" height="90" viewBox="0 0 94 90" fill="none" xmlns="http://www.w3.org/2000/svg">
<path d="M1.80828 79.8891C0.757429 80.7617 0.0554106 82.2505 0.050354 83.6595C0.00416536 85.0995 0.599449 86.5762 1.66307 87.5991C2.19166 88.1143 2.83839 88.5115 3.53915 88.7664C3.88924 88.8947 4.25441 88.9824 4.6235 89.0353C4.99801 89.087 5.39001 89.0928 5.60467 89.0969C1.69603 89.2727 42.8795 89.0928 43.0729 89.0926C43.2856 89.0872 43.6854 89.0883 44.0625 89.0306C45.2045 88.8651 46.2556 88.324 47.0041 87.5851C48.0649 86.6073 48.6853 85.0566 48.6183 83.6504C48.5901 82.2103 47.9243 80.8023 46.8568 79.8768C46.3262 79.4102 45.6998 79.0559 45.0303 78.8447C44.4045 78.621 43.5528 78.5974 43.0686 78.6368L41.9371 78.6929C42.2492 76.5762 42.481 74.4593 42.6998 72.3425L42.8567 70.4602C42.9148 69.8087 42.8911 68.9613 42.7 68.2276C42.164 66.0359 40.3067 64.0846 37.8096 63.467C37.411 63.3747 37.0055 63.3228 36.5972 63.3037L35.6282 63.2654L31.8636 63.132C31.6743 63.132 15.7999 63.1375 16.8054 63.1371L13.0408 63.2697L12.072 63.3077C11.6639 63.3269 11.2583 63.3777 10.8607 63.4732C8.35381 64.0927 6.5023 66.0546 5.97469 68.2294C5.78352 68.9624 5.75958 69.8089 5.81726 70.4602L5.97433 72.3425C6.19118 74.4574 6.42254 76.5724 6.73209 78.6873L5.60052 78.6311C4.42807 78.4857 2.80766 78.9334 1.80828 79.8891ZM7.81726 72.3425L7.97422 70.4602C8.02513 69.8583 8.12254 69.4426 8.31971 68.9778C8.92947 67.5975 10.1251 66.726 11.4691 66.5669C11.69 66.5504 11.907 66.5291 12.1278 66.5388L13.0408 66.5675L16.8054 66.7C16.9947 66.7001 32.8692 66.7055 31.8636 66.7052L35.6282 66.5717L36.5412 66.5428C36.7617 66.5333 36.9788 66.5534 37.1988 66.5731C38.5762 66.7354 39.756 67.6387 40.3438 68.9795C40.541 69.4436 40.6387 69.8584 40.69 70.4602L40.847 72.3425C41.0662 74.4647 41.2984 76.5869 41.6117 78.7091L36.8239 78.9462C32.6607 79.2036 28.4977 79.452 24.3345 79.8677C28.4977 80.2835 32.6607 80.5317 36.8239 80.7891L43.0686 81.0984C44.7075 81.0767 45.7551 82.3353 45.685 83.6533C45.641 84.3312 45.3714 84.8618 44.866 85.2679C44.5081 85.5591 44.1047 85.7509 43.6415 85.7932C43.5023 85.807 43.38 85.8005 43.0729 85.7949C43.3392 85.7847 42.197 85.6261 5.60467 85.7906C5.29962 85.7977 5.16937 85.7975 5.02771 85.7874C4.881 85.7734 4.73543 85.7479 4.59494 85.7037C4.31211 85.6193 4.04884 85.4689 3.81449 85.277C3.3422 84.8926 3.02943 84.3043 2.99511 83.6574C2.90828 82.3468 3.99033 81.0795 5.6005 81.1043L11.8451 80.7942C16.0083 80.5347 20.1714 80.2868 24.3345 79.8677C20.1715 79.4486 16.0083 79.2007 11.8451 78.9412L7.05718 78.7034C7.36824 76.5831 7.59982 74.4629 7.81726 72.3425Z" fill="#FAFDFF"/>
<path d="M92.2323 77.8181C90.88 76.2435 73.8776 55.3587 54.2295 34.2152C54.8798 33.5978 55.5351 32.9862 56.167 32.3464C57.6604 30.8327 59.0987 29.2523 60.4174 27.5271L60.6526 27.8058L62.2476 29.6335C63.0071 30.5317 64.0853 31.1606 65.2044 31.4043C66.2701 31.6457 67.5538 31.5764 68.5897 31.0712C70.7023 30.0717 71.9282 27.8663 71.6091 25.5706C71.4802 24.5048 70.8806 23.3982 70.22 22.7632L66.8938 19.2203C64.6369 16.8909 62.387 14.5558 60.008 12.3274C61.7458 15.0852 63.6128 17.7366 65.4727 20.3937L68.3218 24.3305C69.0903 25.3242 69.0675 26.4555 68.4928 27.3008C68.2206 27.7042 67.7879 28.0219 67.3462 28.1738C66.8967 28.3293 66.4836 28.334 65.9805 28.1992C65.5288 28.0636 65.1564 27.8071 64.8928 27.4496L63.4001 25.5375L57.3052 17.9914L51.0534 10.575L47.8629 6.92012C47.4073 6.43448 47.2836 6.12863 47.1731 5.63112C46.8874 4.02959 48.3317 2.63301 49.9835 2.91793C50.5238 2.99555 51.0426 3.24602 51.4534 3.66763L53.1183 5.43753C55.3768 7.76563 57.6263 10.101 60.008 12.3274C58.2726 9.56742 56.4054 6.91631 54.5471 4.25795L53.1242 2.28812C52.5127 1.45504 51.5883 0.806006 50.5548 0.511534C49.5766 0.219138 48.3826 0.225704 47.3562 0.645572C45.244 1.48025 43.8529 3.58391 44.026 5.97244C44.0874 7.0857 44.6855 8.31044 45.3132 9.02501L46.9022 11.0612C44.9355 12.0337 43.0918 13.155 41.3061 14.3468C36.867 17.3161 32.7956 20.6276 28.7688 24.705C27.238 26.2567 25.767 27.8808 24.4217 29.6571L23.3194 28.4003L22.4941 27.4887C21.4141 26.2933 19.8366 25.607 17.9753 25.7948C16.8623 25.9237 15.8287 26.441 15.0893 27.1963C13.5271 28.6932 13.1788 31.17 14.1899 32.9396C14.7344 33.8823 15.3747 34.337 15.9081 34.942C16.7974 35.8347 18.2033 37.3412 21.1006 40.0886C20.224 38.7159 19.3311 37.3567 18.414 36.0176L17.03 34.0158C16.586 33.3415 16.0098 32.6709 15.8528 32.1453C15.4059 30.9921 15.8318 29.6653 16.7354 29.0265C17.1846 28.6883 17.7044 28.5059 18.2037 28.4992C18.7044 28.5019 19.2879 28.6523 19.6539 28.9389C19.8541 29.0792 20.0246 29.2546 20.1679 29.4507L20.8881 30.4077L22.376 32.3237L25.3614 36.148L31.4564 43.6939C31.6183 43.8865 37.0797 50.3833 36.9178 50.1907L37.2059 50.5438C37.2655 50.6306 37.3352 50.7136 37.3781 50.81C37.8012 51.548 37.6642 52.604 36.9945 53.2419C36.6605 53.584 36.2309 53.7906 35.7898 53.8587C35.356 53.9289 34.7685 53.8553 34.3579 53.6328C34.1372 53.524 33.9389 53.376 33.7633 53.1986L32.9575 52.3108L31.3172 50.5207L27.9903 46.9784C25.7318 44.6503 23.4821 42.315 21.1006 40.0886C22.8358 42.8486 24.7032 45.4996 26.5615 48.158L29.4099 52.0953L30.8571 54.045L31.5968 55.0259C31.9437 55.4644 32.3654 55.8522 32.8401 56.1562C33.8137 56.7747 34.8815 57.0575 36.0571 57.0129C37.2284 56.9445 38.3519 56.4514 39.2063 55.6994C41.0015 54.2009 41.6377 51.4531 40.6017 49.2687C40.4856 48.9932 40.3282 48.7376 40.1685 48.4871L39.905 48.1271C39.4691 47.589 37.9772 45.747 38.1357 45.9425C40.0645 44.9814 41.8746 43.8763 43.6298 42.7048C44.3736 42.2072 45.0945 41.6819 45.8206 41.1629C58.4192 58.6597 66.6981 68.8815 75.7706 80.3794L81.1141 86.9889C82.272 88.4461 84.0969 89.4633 85.9868 89.6475C87.8779 89.8624 89.8665 89.2752 91.3396 88.0526C92.8173 86.838 93.7807 84.9964 93.9225 83.095C94.098 81.2035 93.4314 79.218 92.2323 77.8181ZM41.7549 40.4341C40.2743 41.9337 38.8483 43.4993 37.5409 45.2085C37.2069 44.7968 34.1881 41.0752 34.3646 41.2928L28.109 33.8796L24.9742 30.2872C26.9644 29.3049 28.83 28.1719 30.6365 26.9672C35.3943 23.7906 39.4184 20.4209 43.181 16.6176C44.6835 15.0957 46.1285 13.5042 47.4517 11.7652L48.2982 12.8499L54.3969 20.3925L59.8272 26.8276C57.887 27.7947 56.0657 28.9065 54.2994 30.0845C49.5449 33.2586 45.5206 36.6276 41.7549 40.4341ZM88.9418 85.1416C87.5333 86.3767 85.1501 86.1736 83.9618 84.6464L78.5306 78.1101C68.2949 66.0841 60.5225 56.7069 45.9699 41.0578C49.0102 38.8736 51.1219 37.1557 54.099 34.3411C71.1217 57.9637 87.9684 78.3428 89.3878 80.158C90.6752 81.633 90.4247 83.9966 88.9418 85.1416Z" fill="#FAFDFF"/>
</svg>
