<svg width="94" height="84" viewBox="0 0 94 84" fill="none" xmlns="http://www.w3.org/2000/svg">
<path d="M11.4108 83.5796L16.1591 83.601C17.8821 83.6056 80.7325 83.8202 85.1525 83.504C90.5008 82.9521 93.9737 78.5945 93.9462 73.8347C93.8779 59.6813 93.9947 68.2976 93.483 31.0992L93.354 21.6026C93.3622 17.9953 90.978 14.5546 87.6329 13.3353C86.8097 13.0094 85.9316 12.8521 85.0597 12.7839C84.1433 12.7364 83.4295 12.7949 82.6157 12.8007L77.8674 12.9062L68.3706 13.1174C67.6702 13.1312 66.9698 13.1574 66.2694 13.1724C66.6413 11.0348 66.8856 8.89741 67.1283 6.75981C67.3925 3.87916 65.3166 1.10526 62.122 0.693598C59.9389 0.450013 40.7919 -0.00319499 34.4709 0.699126C32.9769 0.891899 31.5695 1.6545 30.6746 2.80403C29.7669 3.9363 29.344 5.41311 29.4692 6.75981C29.7076 8.87577 29.9508 10.9917 30.3137 13.1077C8.73211 12.6357 9.86183 12.6335 8.93594 12.6876C8.05474 12.7654 7.17134 12.9373 6.343 13.2712C3.03823 14.553 0.651737 17.7742 0.603397 21.6229C0.488812 30.006 0.342454 40.7137 0.278869 45.3649C0.0717558 58.5429 0.12336 61.7493 0.0559256 73.8549C-0.0400178 78.6023 2.96949 83.4121 11.4108 83.5796ZM90.6677 69.0862L90.6464 73.8347C90.6257 76.4818 89.0382 78.7589 86.6765 79.6904C85.4563 80.2043 16.3482 80.0809 16.1591 80.0805L11.4108 80.1022C5.51911 80.1684 3.36726 77.1074 3.40457 73.8549C3.33783 61.8758 3.38815 58.5063 3.18162 45.3649L3.0493 35.6875C7.17447 37.4585 12.6893 37.1988 16.1704 35.5472C16.1841 35.7478 16.1956 35.9489 16.2077 36.1497C16.2703 37.1867 16.588 41.3986 16.8686 42.3956C17.8095 45.3252 20.674 45.0435 20.8633 45.1231C21.057 45.123 27.1485 45.1209 26.7738 45.121C26.9625 45.0435 29.824 45.3099 30.7638 42.394C31.0495 41.379 30.9595 41.1088 31.0452 40.5701C31.223 38.6394 31.4581 35.5502 31.4793 35.2513C33.9207 35.8736 36.3618 36.2393 38.8032 36.486C44.5802 37.0661 49.9006 37.0283 55.2908 36.4915C57.708 36.2486 60.1254 35.8853 62.5427 35.2706C62.5919 35.9731 62.6565 37.442 62.8346 39.0992L62.9767 40.5708C63.0624 41.1095 62.972 41.3792 63.2581 42.3956C63.6476 43.6085 64.7173 44.6337 66.0735 44.9869C66.2891 45.0445 66.5102 45.0798 66.7322 45.1026L67.2528 45.1231L70.208 45.165L73.1633 45.121L73.6837 45.1007C73.9055 45.0779 74.1265 45.0427 74.3419 44.9851C75.6631 44.6409 76.7487 43.6493 77.1532 42.394C77.439 41.379 77.3489 41.1088 77.4346 40.5701C77.6128 38.6356 77.6608 38.5646 77.8132 36.1491C77.8253 35.9466 77.8367 35.7441 77.8508 35.5419C78.8122 35.9961 79.7737 36.2725 80.7352 36.4978C82.0197 36.7746 83.3043 36.9034 84.5889 36.9054C85.8735 36.9084 87.1581 36.7792 88.4426 36.5028C89.311 36.3006 90.1792 36.044 91.0476 35.6617C90.794 54.0601 90.6758 61.1503 90.6677 69.0862ZM7.08993 15.1202C9.45791 14.0457 11.0403 14.9096 49.3772 13.6146C43.0738 13.4016 36.7703 13.2496 30.467 13.1114C30.8303 10.9943 31.0736 8.87716 31.312 6.75982C31.4959 4.86543 33.1471 3.57954 34.7038 3.62331L36.3005 3.71913C52.1249 4.35009 61.6993 3.63322 61.8882 3.62907C63.442 3.58416 65.0913 4.86865 65.2754 6.75982C65.5183 8.89858 65.7626 11.0371 66.135 13.1759C60.5491 13.2947 54.9632 13.4361 49.3772 13.6146C61.1865 13.9918 65.3546 14.0371 77.8675 14.3229L82.6158 14.4286C84.2621 14.4493 85.6565 14.4443 86.9486 15.0422C89.5548 16.1139 91.3271 18.8291 91.2385 21.6027L91.1096 31.0993L91.065 34.3839C90.1908 33.9974 89.3168 33.739 88.4426 33.5356C84.5717 32.7027 80.5772 33.2345 77.9171 34.4691C77.9457 34.0435 77.9815 33.619 77.9961 33.1915L78.0243 32.367C78.0247 31.9973 77.9697 31.626 77.848 31.281C77.6162 30.5877 77.1571 29.9972 76.5777 29.6171C75.9952 29.239 75.3017 29.0738 74.6551 29.1282C74.1343 29.1892 73.6622 29.2498 73.1633 29.3329C72.1782 29.4783 71.1931 29.6549 70.208 29.853C71.1931 30.0508 72.1782 30.2277 73.1633 30.373L74.6267 30.5826C74.9661 30.6542 75.2472 30.833 75.4388 31.0661C75.6314 31.2959 75.7513 31.5656 75.7616 31.8282C75.774 31.9576 75.7541 32.0855 75.7207 32.2055L75.559 32.846C75.3149 33.8069 75.1271 34.7756 74.9085 35.74C74.3819 38.0972 74.4065 38.1862 74.0371 40.0963C73.9521 40.5254 73.8331 41.2557 73.8045 41.1772C73.7154 41.3063 73.6082 41.4061 73.4506 41.4338L73.3814 41.4409C73.1771 41.4379 70.0143 41.3908 70.208 41.3937C70.0181 41.3964 66.8314 41.4417 67.0349 41.4388L66.9659 41.4319C66.9202 41.4239 66.8735 41.4082 66.829 41.3843C66.7354 41.3375 66.6732 41.2557 66.6164 41.1754C66.5881 41.2555 66.4685 40.5247 66.3836 40.0958C66.0309 38.2615 65.9656 37.7382 65.5132 35.7393C65.2947 34.7747 65.1041 33.8065 64.863 32.8453L64.7007 32.2053C64.6672 32.0858 64.6471 31.9584 64.6592 31.8294C64.6692 31.5682 64.7873 31.2978 64.9802 31.07C65.1708 30.8372 65.4509 30.6584 65.7895 30.5863C66.546 30.4687 67.9229 30.3157 70.2081 29.853C69.223 29.6535 68.2379 29.4762 67.2528 29.3299C66.754 29.2461 66.2818 29.1864 65.7609 29.1245C65.1136 29.0697 64.419 29.2346 63.8353 29.6132C62.9658 30.1868 62.3856 31.2042 62.3864 32.3674L62.4141 33.1924C62.4336 33.7169 62.475 34.2379 62.5112 34.7598C60.1045 34.1499 57.6976 33.789 55.2909 33.5469C49.8875 33.0089 44.5656 32.9736 38.8033 33.5527C36.3717 33.7979 33.9401 34.1623 31.5085 34.78C31.5455 34.2512 31.6064 32.9704 31.635 32.367C31.6362 30.4291 30.0602 28.9773 28.2657 29.1282C27.7449 29.1892 27.2727 29.2498 26.7739 29.3329C25.7888 29.4783 24.8037 29.6549 23.8186 29.853C24.8037 30.0508 25.7888 30.2277 26.7739 30.3731L28.2373 30.5826C28.927 30.7282 29.3526 31.3315 29.3722 31.8282C29.3847 31.9577 29.3647 32.0855 29.3313 32.2055C27.8796 38.4906 28.208 37.1989 27.6477 40.0963C27.5627 40.5254 27.4436 41.2557 27.4151 41.1772C27.3253 41.3074 27.2182 41.4062 27.0612 41.4338L26.992 41.4409C22.4586 41.3735 20.599 41.4395 20.6455 41.4388C20.4529 41.3414 20.4451 41.4842 20.227 41.1754C20.1601 41.3645 18.252 32.0183 18.2697 31.8294C18.2891 31.3307 18.7157 30.732 19.4 30.5863C20.1566 30.4687 21.5335 30.3157 23.8186 29.853C22.8335 29.6535 21.8485 29.4762 20.8634 29.3299C20.3645 29.2461 19.8925 29.1864 19.3715 29.1245C17.5333 28.9688 15.9957 30.4707 15.9969 32.3674C16.0214 32.8914 16.0751 34.0398 16.1033 34.4631C12.5192 32.7941 7.04959 32.6248 3.03123 34.3585C3.02862 34.1686 2.8527 21.2926 2.85723 21.6229C2.82 18.6738 4.57934 16.1737 7.08993 15.1202Z" fill="#FAFDFF"/>
</svg>
