<svg width="53" height="57" viewBox="0 0 53 57" fill="none" xmlns="http://www.w3.org/2000/svg">
<path d="M11.6987 20.4494C9.96672 20.6732 8.31781 21.9915 8.16919 23.7458C8.98963 23.4517 9.62661 23.2222 10.2485 23.0618C11.4174 22.744 12.606 22.5786 13.8085 22.5642C14.4525 22.5467 15.1291 22.5939 15.9972 22.6499C15.3623 21.0124 13.4276 20.1991 11.6987 20.4494Z" fill="#38A3EE"/>
<path d="M15.6926 15.2682C17.2891 15.5122 18.8732 15.9888 20.5314 16.6398C18.3177 13.8106 14.3288 12.4683 10.6422 12.9876C6.95251 13.4832 3.47112 15.8757 2.13818 19.2145C3.55178 18.1292 4.94214 17.2353 6.40866 16.5627C9.20307 15.2829 12.4467 14.775 15.6926 15.2682Z" fill="#38A3EE"/>
<path d="M20.1594 56.1681C31.4886 54.6175 41.8222 47.5807 46.2153 37.0004C39.9379 46.8683 30.0729 52.6118 19.8828 53.9138C11.7843 54.9944 1.02941 52.7608 1.1695 44.991C1.20161 42.6618 2.81702 40.1612 5.32638 39.4943C5.60794 40.1161 5.91372 40.7248 6.25985 41.3068C7.34701 43.0791 8.71469 44.6906 10.4266 45.9751C12.7836 47.7325 14.8971 48.0488 16.8097 47.6494L16.71 47.6713C25.4096 46.2658 33.6486 42.0882 39.9243 35.866C46.1421 29.6444 50.3544 21.473 51.8088 12.8208C51.8112 12.813 51.8112 12.8036 51.8135 12.7956C51.8151 12.7856 51.8174 12.7759 51.8189 12.766L51.8193 12.7673C51.8229 12.752 51.8239 12.7362 51.8273 12.7209C51.8282 12.7154 51.8296 12.7098 51.8305 12.7042L51.8302 12.7047C52.0853 11.5775 52.0896 10.3763 51.7423 9.3087C51.4135 8.22598 50.9157 7.21955 50.2696 6.36389C48.0096 3.20625 43.6868 0.382372 39.6746 0.0179278C38.578 -0.0582242 37.3417 0.0946251 36.3111 0.74002C33.7013 2.35449 33.0297 6.2024 32.515 9.24255C32.0524 12.5015 31.6387 16.281 34.3709 18.1323C35.2967 18.7858 36.3659 19.0381 37.3898 19.1974C39.2075 19.4152 41.0006 19.2073 42.7269 18.783C41.1048 23.1004 38.6384 27.1139 35.5083 30.5645C39.0491 27.1623 41.853 22.9679 43.7099 18.3706C43.7385 18.2999 43.7463 18.22 43.7273 18.1401C43.6789 17.9352 43.4734 17.8085 43.2685 17.8569L43.2494 17.8614C41.6036 18.2511 39.8898 18.4086 38.2397 18.2355C38.1355 15.5956 38.9166 12.4786 39.3688 9.91885C39.8266 7.58253 40.2246 4.47567 41.1525 2.1287C42.3509 2.49681 43.5261 3.07396 44.6088 3.75971C46.1702 4.77252 47.6252 6.02155 48.6598 7.50623C49.6009 8.83057 50.1671 10.3596 49.9496 11.7848C49.9448 11.7935 49.9297 11.7899 49.9279 11.8001C49.8207 12.1155 48.4647 24.2945 38.3218 34.2566C32.4283 40.2014 24.6507 44.2487 16.3742 45.6651L16.274 45.6872C14.9204 45.9495 13.3913 45.6963 11.5933 44.3764C10.1379 43.3081 8.88148 41.8746 7.8987 40.2985C7.2436 39.2449 6.69531 38.1051 6.34043 36.9461C8.68289 36.0219 11.7792 35.6251 14.1214 35.1662C16.6726 34.7155 19.779 33.9376 22.4139 34.0363C22.5882 35.6872 22.4316 37.4029 22.0475 39.0528L22.0428 39.0729C22.0245 39.1512 22.0293 39.2356 22.0618 39.3157C22.1453 39.5219 22.3802 39.6214 22.5865 39.5377C27.5116 37.5419 31.9773 34.4648 35.5082 30.5644C31.911 34.0294 27.6432 36.751 23.0197 38.4979C23.4306 36.7879 23.633 35.0149 23.4216 33.2149C23.2698 32.1906 23.0086 31.1288 22.3692 30.1978C20.5402 27.4447 16.7788 27.8311 13.5117 28.2909C10.4916 28.8034 6.65937 29.4488 5.00151 32.0038C4.33151 33.0099 4.12393 34.2512 4.19939 35.3483C4.31195 36.7968 4.72251 38.1289 5.27907 39.3838C4.0593 39.4937 2.87068 40.1086 1.98153 41.0096C0.955122 42.0324 0.259106 43.4096 0.0627041 44.9086C-0.943272 53.8373 10.3466 57.3174 20.1594 56.1681ZM37.1355 9.50233C36.606 12.2555 36.3558 15.5829 37.4902 18.1498C36.5962 17.9653 35.7247 17.6901 35.0498 17.1854C32.8702 15.5888 33.4335 12.167 33.9112 9.4843C34.3793 7.07276 35.1105 3.36342 37.1635 2.17476C37.8374 1.77765 38.667 1.685 39.5289 1.76462C39.7647 1.79195 40 1.85547 40.2356 1.90332C38.5203 3.86501 37.5967 6.95329 37.1355 9.50233ZM6.43149 32.9012C7.64185 30.903 11.2967 30.1875 13.7564 29.7088C16.4006 29.2407 19.8178 28.6866 21.3958 30.8815C21.8872 31.5449 22.14 32.401 22.323 33.2737C19.7619 32.1558 16.4494 32.4049 13.705 32.9329C11.1536 33.3944 8.07382 34.3163 6.11221 36.0281C6.05873 35.7624 5.99348 35.4966 5.96691 35.231C5.88667 34.3699 6.01934 33.5598 6.43149 32.9012Z" fill="#38A3EE"/>
</svg>
