<svg width="65" height="57" viewBox="0 0 65 57" fill="none" xmlns="http://www.w3.org/2000/svg">
<path d="M64.1218 16.4938C64.4901 14.4436 63.7792 12.436 62.3108 11.0648C61.8237 10.6113 61.2492 10.2538 60.6399 9.99205C59.0907 9.25797 30.6249 2.36632 28.4286 1.94814C27.2317 1.78852 25.9842 2.01964 24.9736 2.64355C23.9663 3.26063 23.1655 4.20314 22.78 5.29513C22.578 5.85675 22.4966 6.36942 22.38 6.87582L22.045 8.41014C21.7828 9.58061 21.5493 10.7587 21.3054 11.934L19.6659 6.41518C19.3854 5.47926 19.0926 4.4508 18.5161 3.57374C16.6948 0.681827 13.2316 -0.572119 10.1044 0.245436C7.96666 0.762076 6.04184 2.24264 4.99438 4.24005C3.91241 6.20584 3.74821 8.71524 4.48356 10.8121L5.53365 14.0833C5.44121 14.1013 5.3472 14.1087 5.25607 14.1337C3.45293 14.5748 1.92816 16.0364 1.42665 17.8691C1.28673 18.3201 1.23911 18.8011 1.21809 19.2651C1.21202 19.5528 1.13786 23.0673 1.14062 22.9369L0.981836 32.7283C0.961529 34.6064 1.05541 25.925 0.783203 51.0956C0.796546 51.606 0.841455 52.1227 0.987884 52.6174C1.50963 54.6198 3.16433 56.2472 5.16841 56.7598C6.02053 57.0071 4.33323 57.0497 37.2881 56.9501L38.5189 56.9415C39.03 56.9206 39.5457 56.8703 40.038 56.718C42.0275 56.1723 43.6376 54.5211 44.1225 52.5302C44.2591 52.0408 44.2981 51.52 44.3066 51.0275C44.3054 50.8995 44.2921 49.4348 44.2933 49.5627C45.903 50.1005 47.503 50.6325 49.1683 51.1157C51.3598 51.6705 53.9222 50.5257 54.9625 48.3564C55.1038 48.0952 55.1951 47.8057 55.2891 47.5308C55.602 46.4501 58.0349 38.7839 64.1218 16.4938ZM6.66683 5.08353C7.40754 3.51098 8.81076 2.24356 10.5167 1.68784C12.214 1.1242 14.1634 1.2925 15.8061 2.1684C17.4762 3.046 18.6653 4.64802 19.2426 6.55835L21.2989 11.9645C21.1293 12.7821 20.9468 13.5963 20.7844 14.416C19.812 14.3812 18.8397 14.3455 17.8674 14.3157L16.6844 11.0331C16.6358 10.9007 15.0341 6.53913 15.1333 6.80926C14.8908 6.15868 14.4201 5.59356 13.8293 5.24525C12.6477 4.51975 11.0228 4.73475 10.1033 5.71356C9.63446 6.1849 9.34361 6.81205 9.2721 7.45953C9.16584 8.09289 9.42667 8.82336 9.59281 9.21512C10.2447 10.8455 10.879 12.4818 11.5184 14.1164C11.3837 14.1124 7.69256 14.0045 7.91936 14.0112L6.53522 10.1182C5.89649 8.47217 5.91487 6.67648 6.66683 5.08353ZM12.5534 14.9746L15.1975 14.8974C15.3957 14.8923 15.5939 14.8823 15.7921 14.8769L18.3546 22.9638C18.6975 24.4089 17.9766 26.0207 16.6892 26.7309C15.402 27.4846 13.7006 27.2533 12.6213 26.2594C11.7192 25.4134 8.58021 15.8821 8.53838 15.7523L8.30601 15.0988C8.69903 15.0873 12.066 14.989 11.866 14.9948C12.5679 16.7823 13.2774 18.5671 14.0265 20.3386C13.5634 18.5412 13.0613 16.7569 12.5534 14.9746ZM15.1975 14.2239L12.3195 14.1397C11.8104 12.3629 11.295 10.5884 10.7986 8.80739C10.6277 8.2709 10.5655 8.01611 10.6376 7.64917C10.7021 7.31069 10.8802 6.99619 11.1351 6.78064C11.6369 6.32668 12.4215 6.30814 12.925 6.67981C13.1771 6.86409 13.3627 7.1178 13.453 7.40741C13.4927 7.53514 14.8637 11.9526 14.7784 11.6778L15.5894 14.2373C15.4588 14.2339 15.3281 14.2272 15.1975 14.2239ZM54.0283 47.1967C53.9657 47.4206 53.9145 47.6358 53.8259 47.8461C53.2066 49.5605 51.2302 50.7571 49.2941 50.4541C47.657 50.1173 45.9713 49.756 44.292 49.417L44.2731 47.3557C44.2706 47.1809 43.9942 27.9536 43.9916 27.7728C43.9888 27.6423 43.8076 19.0703 43.8104 19.2007C43.7858 18.7381 43.7349 18.2728 43.5872 17.8324C43.0604 16.0507 41.5486 14.6448 39.7827 14.255C39.3474 14.1422 38.891 14.1189 38.4522 14.1191L37.2282 14.1546C33.7685 14.2586 30.9326 14.3125 24.989 14.5606C28.2527 14.6969 31.5166 14.8121 34.7804 14.8956C35.4818 14.9159 38.6091 15.0068 38.4522 15.0022C38.8273 15.0263 39.1914 15.0639 39.5421 15.1783C40.9582 15.5777 42.0757 16.7811 42.3932 18.1618C42.4866 18.5036 42.5034 18.8593 42.5115 19.2098C42.5088 19.3403 42.3309 27.9032 42.3337 27.7728C42.3049 29.7751 42.438 20.5192 42.0521 47.3557C42.0496 47.6285 42.0174 51.1567 42.0186 51.0275C42.0016 51.3488 41.9797 51.6485 41.8876 51.9447C41.5788 53.1345 40.5778 54.1107 39.4028 54.4039C39.1128 54.493 38.8071 54.5072 38.5051 54.5196C4.91461 54.414 6.51518 54.6007 5.79147 54.3867C4.61727 54.1027 3.63629 53.1326 3.30657 51.9731C3.09684 51.3491 3.19006 52.8617 2.80638 22.9369C2.79159 22.2354 2.72566 19.1082 2.72898 19.2651C2.73355 18.9152 2.74736 18.5757 2.83764 18.2414C3.13749 16.8942 4.23063 15.7402 5.58788 15.3346C5.69266 15.2982 5.80195 15.2795 5.91007 15.2559L6.31121 16.5055C9.56075 26.4608 9.4664 26.1093 9.74816 26.6167C10.053 27.17 10.4426 27.6777 10.9022 28.1133C12.7407 29.886 15.7627 30.1997 17.9349 28.8909C20.1527 27.6335 21.3351 24.8777 20.7245 22.4159C20.5334 21.7167 18.6652 16.5275 18.7119 16.659L18.0418 14.7996C20.3574 14.7276 22.6732 14.6581 24.989 14.5606C23.5929 14.5019 22.1968 14.4666 20.8008 14.4166C22.0269 10.7748 22.5017 9.17404 23.1648 7.08409C23.3267 6.58358 23.4663 6.06789 23.6613 5.66115C24.053 4.80418 24.761 4.12901 25.5733 3.72733C26.386 3.31339 27.3219 3.20581 28.1853 3.3804C28.3126 3.41364 59.5117 12.2468 59.6389 12.3104C59.9863 12.4648 60.3139 12.6678 60.5894 12.9325C61.1449 13.4511 61.5467 14.1551 61.6669 14.9117C61.7038 15.1407 60.6835 19.4427 54.0283 47.1967Z" fill="#38A3EE"/>
</svg>
