<svg width="62" height="59" viewBox="0 0 62 59" fill="none" xmlns="http://www.w3.org/2000/svg">
<path d="M12.9062 53.568C18.8204 57.5556 26.193 59.2418 33.1965 58.263C40.2353 57.3852 46.776 53.665 51.2645 48.3289C55.6199 43.1348 58.0318 36.426 57.9221 29.7669C57.9301 29.7591 57.9393 29.7522 57.9473 29.7444C58.2556 30.0925 58.5787 30.4299 58.9224 30.7523C59.6513 31.4143 60.4286 32.0411 61.418 32.5138C61.2735 31.4268 60.9169 30.4941 60.5118 29.5965C60.0937 28.7086 59.5959 27.8784 59.0302 27.0977C58.9736 27.0211 58.9006 26.9402 58.8246 26.8761C58.2964 26.4295 57.5062 26.4958 57.0597 27.0241C56.4336 27.7586 55.8749 28.5502 55.3909 29.4051C54.918 30.2696 54.4938 31.1752 54.2705 32.2514C55.2957 31.8553 56.1199 31.2889 56.8956 30.6813C57.2372 30.4055 57.5586 30.1128 57.871 29.8123C57.6559 33.0097 56.9565 36.151 55.7612 39.0802C54.4786 42.2044 52.6302 45.0751 50.3483 47.5195C45.8252 52.4419 39.5376 55.6735 32.9572 56.3276C26.3929 57.0148 19.6244 55.3901 14.2441 51.6134C8.83858 47.8964 4.87649 42.1691 3.32112 35.8255C1.70128 29.5053 2.3881 22.5668 5.42006 16.7477C8.35826 10.8831 13.5087 6.1796 19.6115 3.67787C25.7125 1.15142 32.7734 0.962013 39.1059 3.10827C45.4795 5.21235 50.9881 9.78706 54.5062 15.6504C51.4805 9.49844 46.0218 4.53548 39.5286 1.95345C33.0179 -0.574221 25.5172 -0.692807 18.8988 1.85462C12.2548 4.31615 6.62205 9.3581 3.30834 15.66C-0.0555174 21.9661 -0.840022 29.5269 0.890297 36.4396C2.63806 43.3596 6.98004 49.596 12.9062 53.568Z" fill="#38A3EE"/>
<path d="M15.9839 15.5896C12.3076 19.03 10.0643 24.0387 9.99935 29.1737C9.86406 34.3088 11.9564 39.4676 15.5843 43.1604C19.2097 46.8672 24.3732 49.0194 29.572 49.0176C34.7691 49.0128 39.9339 46.8639 43.5548 43.1522C47.1825 39.4593 49.2694 34.2998 49.1336 29.166C49.0676 24.0322 46.8221 19.0243 43.1442 15.5872C39.4622 12.1643 34.4482 10.2746 29.5642 10.5753C34.4314 10.8432 39.0911 12.9537 42.2797 16.4517C45.524 19.8835 47.2814 24.5489 47.1835 29.1664C47.0824 33.7838 45.1705 38.2983 41.8794 41.4779C38.6331 44.6901 34.1251 46.5466 29.571 46.5104C25.0185 46.5455 20.5082 44.6955 17.264 41.4808C13.9705 38.3038 12.0604 33.7893 11.957 29.1733C11.8574 24.557 13.6125 19.8918 16.8539 16.4587C20.0388 12.9583 24.697 10.8451 29.5642 10.5753C24.68 10.2726 19.6653 12.1651 15.9839 15.5896Z" fill="#38A3EE"/>
<path d="M29.5682 15.8998C30.0938 15.6776 30.3558 15.4554 30.5545 15.2333C30.7383 15.0112 30.8242 14.789 30.8222 14.5668C30.8208 14.3447 30.7351 14.1225 30.5512 13.9004C30.351 13.6782 30.0908 13.456 29.5682 13.2339C29.0457 13.456 28.7855 13.6782 28.5853 13.9004C28.4014 14.1225 28.3157 14.3447 28.3142 14.5668C28.3122 14.789 28.3981 15.0112 28.582 15.2333C28.7806 15.4554 29.0427 15.6776 29.5682 15.8998Z" fill="#38A3EE"/>
<path d="M29.5682 42.4399C29.0457 42.662 28.7855 42.8842 28.5853 43.1064C28.4014 43.3285 28.3157 43.5507 28.3142 43.7728C28.3122 43.995 28.3981 44.2172 28.582 44.4393C28.7806 44.6614 29.0427 44.8836 29.5682 45.1058C30.0938 44.8836 30.3558 44.6614 30.5545 44.4393C30.7383 44.2172 30.8242 43.995 30.8222 43.7728C30.8208 43.5507 30.7351 43.3285 30.5512 43.1064C30.351 42.8842 30.0908 42.662 29.5682 42.4399Z" fill="#38A3EE"/>
<path d="M40.1205 20.0126C40.4075 19.9855 40.6253 19.8891 40.781 19.7306C40.9371 19.5725 41.0336 19.3549 41.0606 19.0677C41.0762 18.7691 41.0493 18.428 40.8368 17.9014C40.3103 17.689 39.9691 17.6621 39.6705 17.6776C39.1312 17.7283 38.7807 18.0348 38.7256 18.6177C38.709 18.9153 38.7373 19.2578 38.9518 19.7864C39.4805 20.0009 39.8229 20.0292 40.1205 20.0126Z" fill="#38A3EE"/>
<path d="M19.4691 40.6645C19.7561 40.6373 19.974 40.541 20.1296 40.3824C20.2857 40.2243 20.3822 40.0067 20.4092 39.7195C20.4248 39.4209 20.3979 39.0798 20.1855 38.5532C19.6589 38.3408 19.3178 38.3139 19.0192 38.3295C18.4798 38.3801 18.1293 38.6868 18.0743 39.2697C18.0577 39.5672 18.0859 39.9096 18.3004 40.4383C18.8291 40.6528 19.1715 40.681 19.4691 40.6645Z" fill="#38A3EE"/>
<path d="M43.5046 30.1562C43.9429 30.5187 44.4066 30.5095 44.8375 30.1527C45.0597 29.9527 45.2819 29.6924 45.504 29.1699C45.2819 28.6473 45.0597 28.387 44.8375 28.1869C44.4203 27.8414 43.9557 27.8103 43.5046 28.1835C43.2825 28.3822 43.0603 28.6443 42.8381 29.1699C43.0603 29.6954 43.2825 29.9574 43.5046 30.1562Z" fill="#38A3EE"/>
<path d="M15.6312 28.1869C15.214 27.8414 14.7494 27.8103 14.2983 28.1835C14.0762 28.3822 13.854 28.6443 13.6318 29.1699C13.854 29.6954 14.0762 29.9574 14.2983 30.1562C14.7366 30.5187 15.2003 30.5095 15.6312 30.1527C15.8534 29.9527 16.0756 29.6924 16.2978 29.1699C16.0756 28.6473 15.8534 28.387 15.6312 28.1869Z" fill="#38A3EE"/>
<path d="M39.6705 40.662C39.9691 40.6776 40.3103 40.6506 40.8368 40.4383C41.0493 39.9117 41.0762 39.5706 41.0606 39.272C41.0082 38.7152 40.6868 38.3806 40.1205 38.327C39.8229 38.3105 39.4805 38.3386 38.9518 38.5532C38.7373 39.0819 38.709 39.4243 38.7256 39.7218C38.7528 40.0089 38.8491 40.2267 39.0076 40.3824C39.1657 40.5385 39.3834 40.635 39.6705 40.662Z" fill="#38A3EE"/>
<path d="M19.0192 20.0103C19.3178 20.0259 19.6589 19.9989 20.1855 19.7865C20.3979 19.2599 20.4248 18.9188 20.4092 18.6203C20.3822 18.3331 20.2857 18.1154 20.1296 17.9573C19.9739 17.7988 19.7561 17.7024 19.4691 17.6753C19.1715 17.6587 18.8291 17.6869 18.3004 17.9015C18.0859 18.4302 18.0577 18.7725 18.0743 19.0701C18.1014 19.3572 18.1978 19.575 18.3562 19.7307C18.5144 19.8868 18.732 19.9833 19.0192 20.0103Z" fill="#38A3EE"/>
<path d="M27.273 33.3365C27.3641 33.1218 27.4398 32.8918 27.5028 32.6491C28.1478 32.9832 28.8734 33.1475 29.5693 33.0781C30.5967 32.9934 31.5246 32.4284 32.0705 31.6715C32.6082 30.902 32.7765 29.9402 32.4938 29.1699C31.9545 30.7212 30.5731 31.3276 29.5689 31.1123C28.5379 30.9284 27.8846 30.0426 27.8984 29.1699C27.8883 28.2977 28.5396 27.4152 29.5689 27.2309C30.5707 27.0173 31.9509 27.6185 32.4938 29.1699C32.7786 28.3993 32.6101 27.4368 32.0729 26.666C31.6234 26.043 30.9103 25.5663 30.1009 25.3639C30.8863 23.7522 31.0218 21.7666 30.5513 19.9888C30.3511 19.2937 30.0909 18.5986 29.5683 17.9035C28.2157 19.7029 27.858 22.8337 28.9854 25.2658C28.143 25.324 27.2991 25.6656 26.6593 26.2603C25.8624 26.9861 25.3878 28.0771 25.3905 29.1699C25.3896 30.1262 25.7692 31.0661 26.3947 31.7753C26.221 31.8293 26.0427 31.8786 25.8829 31.9465C24.9534 32.3726 24.2145 33.0964 23.7791 34.0456C23.5693 34.5363 23.4044 35.0719 23.4257 35.7937C24.1476 35.8151 24.6832 35.6502 25.1739 35.4404C26.122 35.0055 26.8465 34.267 27.273 33.3365Z" fill="#38A3EE"/>
<path d="M30.5469 9.27905C30.7309 8.84695 30.8165 8.41493 30.8179 7.98282C30.8199 7.55073 30.7341 7.11863 30.5503 6.68652C30.5344 6.65216 30.5147 6.61778 30.4981 6.58341C30.8414 6.53938 31.1847 6.47309 31.528 6.37671C32.1827 6.17803 32.8376 5.91598 33.4923 5.39048C32.8376 4.8649 32.1827 4.60284 31.528 4.40416C30.8733 4.22034 30.2185 4.13444 29.5637 4.13651C28.909 4.13789 28.2543 4.22356 27.5995 4.40753C26.9448 4.60766 26.29 4.86787 25.6353 5.39047C26.29 5.91298 26.9448 6.1732 27.5995 6.37334C27.9434 6.46996 28.2873 6.53625 28.6312 6.58065C28.614 6.61595 28.5939 6.65124 28.5777 6.68653C28.3939 7.11863 28.308 7.55073 28.31 7.98284C28.3115 8.41493 28.3971 8.84695 28.5811 9.27906C28.7812 9.71116 29.0415 10.1433 29.564 10.5754C30.0865 10.1433 30.3468 9.71116 30.5469 9.27905Z" fill="#38A3EE"/>
</svg>
