<svg width="61" height="59" viewBox="0 0 61 59" fill="none" xmlns="http://www.w3.org/2000/svg">
<path d="M3.4313 43.0755C5.27332 44.5595 7.67768 45.2327 9.87359 44.9089C7.68101 44.5966 5.72518 43.5756 4.34414 42.0809C3.64781 41.3397 3.11543 40.4743 2.72298 39.5708C2.48932 39.0289 2.33512 38.4636 2.23116 37.8918C2.80638 37.9102 3.38158 37.9251 3.95686 37.9385C4.02397 37.9513 4.08532 37.9799 4.15605 37.9805L4.18528 37.9807L9.87359 38.0274C9.99566 38.0265 15.9744 37.9788 15.5956 37.9819C15.6959 37.9805 15.7977 37.9659 15.8988 37.9368C15.9013 37.9361 15.903 37.9341 15.9055 37.9333C16.4438 37.9204 16.9822 37.9065 17.5204 37.8893C17.4163 38.4626 17.261 39.0291 17.0271 39.5722C16.634 40.4757 16.1028 41.3425 15.405 42.0831C14.0235 43.5785 12.066 44.5981 9.87358 44.9089C12.0697 45.2313 14.4724 44.5566 16.3139 43.0733C18.1765 41.6132 19.4419 39.3403 19.7372 36.9057L19.7437 36.8235C19.7653 36.2675 19.3321 35.7992 18.7761 35.7776L18.6997 35.7747C17.9504 35.7455 17.201 35.7332 16.4517 35.7133C15.5166 32.4867 14.5429 29.2706 13.5176 26.0684C12.4855 22.9397 11.4186 19.8204 10.2352 16.7324C12.5537 16.6956 14.7469 15.8091 16.6001 14.7158C18.8128 13.4343 20.6517 11.8209 22.6614 10.8644C23.5769 10.4317 24.5713 10.2146 25.6266 10.2707C25.6791 10.331 25.727 10.3953 25.7817 10.4536C26.2235 10.9176 26.7395 11.3089 27.3006 11.6231C27.1003 14.2822 26.9487 16.9413 26.8157 19.6005C26.6821 22.5921 26.5458 25.5838 26.4703 28.5754C26.289 34.1794 26.2161 39.7832 26.1862 45.3872C23.1601 45.4723 21.6814 45.6044 20.8273 45.6536C20.5087 45.6758 20.0197 45.6884 19.5804 45.8273C18.7026 46.083 17.9573 46.6647 17.5008 47.3958C17.049 48.1233 16.8909 49.0347 17.0331 49.7806C17.0772 50.1209 17.1385 50.4614 17.1909 50.8017C17.0664 50.8036 13.8878 50.8512 14.0882 50.8482L13.6992 50.8562C13.5306 50.8683 13.3615 50.8684 13.1947 50.9012C12.8589 50.9457 12.5316 51.0444 12.2185 51.1705C10.9621 51.6846 10.0218 52.8436 9.76924 54.1636C9.7093 54.4744 9.69288 54.8676 9.70287 55.1153C9.70704 55.2775 9.76386 57.486 9.76066 57.3615L9.76177 57.4038C9.77317 57.9165 10.1981 58.323 10.7109 58.3117C19.1158 58.1254 28.7781 57.6712 32.9146 57.3616C29.0048 57.069 20.2164 56.6457 11.6846 56.4385C11.6877 56.3165 11.7218 54.9933 11.7187 55.1153C11.7233 54.8634 11.7471 54.758 11.778 54.5775C11.9259 53.9336 12.4111 53.3819 13.0197 53.1593C13.1715 53.1066 13.3267 53.0616 13.4874 53.0487C13.5661 53.0318 13.6485 53.0421 13.7285 53.035L14.0882 53.0389C14.2127 53.0407 18.8409 53.1093 18.5807 53.1054C19.9089 53.1088 33.2308 53.2265 42.5403 53.0385L45.5353 52.9916C45.6573 52.9896 47.5154 52.9597 47.3934 52.9616C47.4764 52.9673 47.562 52.9561 47.644 52.9721C47.8113 52.9833 47.9737 53.0275 48.133 53.0804C48.7714 53.3035 49.2908 53.874 49.4567 54.5541C49.4929 54.7413 49.515 54.8637 49.5202 55.1153C49.5234 55.2373 49.5608 56.682 49.5577 56.56C46.9259 56.6556 44.2941 56.729 41.6623 56.8772C38.7464 57.0294 35.8305 57.1442 32.9146 57.3616C35.8305 57.5791 38.7464 57.6938 41.6623 57.846C44.5782 58.0103 47.4941 58.0805 50.4101 58.1933L50.4203 58.1937C50.8618 58.2051 51.2291 57.8565 51.2405 57.4149C51.2437 57.2929 51.3033 54.9933 51.3001 55.1153C51.3107 54.8672 51.2925 54.4912 51.2379 54.1871C51.0035 52.9032 50.0973 51.763 48.8707 51.2495C48.565 51.1235 48.2449 51.024 47.9158 50.9778C47.7523 50.9442 47.5863 50.943 47.4207 50.9297L47.0327 50.9189C46.8607 50.9163 43.7243 50.8671 43.9205 50.8702C43.9772 50.507 44.0424 50.1438 44.0898 49.7806C44.2318 49.0345 44.0746 48.1223 43.6227 47.3939C43.1651 46.6628 42.4202 46.0796 41.5414 45.8236C41.1016 45.6842 40.6121 45.6737 40.2936 45.6504C39.4535 45.6021 37.95 45.4684 34.9333 45.3845C34.9032 39.7815 34.8286 34.1784 34.6473 28.5754C34.5722 25.5838 34.4354 22.5921 34.3023 19.6005C34.1697 16.9282 34.0176 14.2561 33.8172 11.5838C34.3691 11.2718 34.8913 10.9102 35.3259 10.4513C35.381 10.3927 35.4291 10.3282 35.4819 10.2676C36.5403 10.2097 37.5372 10.4276 38.4552 10.861C40.4651 11.8193 42.305 13.4305 44.5153 14.7158C46.1482 15.6828 48.0463 16.4925 50.0625 16.6959C48.8753 19.7962 47.8047 22.928 46.7699 26.0695C45.7434 29.2704 44.7712 32.486 43.8342 35.7111C43.0842 35.7309 42.334 35.7427 41.584 35.772L41.5058 35.7751L41.4264 35.7815C40.8722 35.8483 40.4771 36.3517 40.5439 36.9059C40.8375 39.3412 42.1044 41.6157 43.9678 43.0755C45.8099 44.5595 48.2143 45.2327 50.4102 44.9089C48.2176 44.5966 46.2618 43.5756 44.8807 42.0809C44.1843 41.3397 43.652 40.4742 43.2595 39.5708C43.0258 39.0289 42.8716 38.4636 42.7677 37.8917C43.3429 37.9102 43.9182 37.9251 44.4934 37.9385C44.5605 37.9513 44.6218 37.9798 44.6926 37.9804L44.7219 37.9807L50.4101 38.0274C50.5322 38.0264 56.5109 37.9788 56.1321 37.9818C56.2324 37.9804 56.3343 37.9659 56.4353 37.9368C56.4378 37.936 56.4395 37.934 56.442 37.9333C56.9803 37.9203 57.5188 37.9065 58.057 37.8893C57.9529 38.4626 57.7976 39.029 57.5636 39.5722C57.1706 40.4757 56.6395 41.3425 55.9416 42.0831C54.5601 43.5785 52.6026 44.5981 50.4102 44.9088C52.6062 45.2313 55.0089 44.5566 56.8505 43.0732C58.7131 41.6132 59.9785 39.3402 60.2738 36.9057L60.2803 36.8235C60.3019 36.2674 59.8687 35.7992 59.3127 35.7776L59.2363 35.7747C58.4869 35.7455 57.7376 35.7332 56.9882 35.7133C56.0532 32.4867 55.0794 29.2706 54.0543 26.0684C53.0219 22.939 51.9547 19.8189 50.771 16.7304C51.2204 16.7429 51.6728 16.7352 52.1304 16.679C53.4937 16.5058 54.7865 15.9917 55.8608 15.1692C56.9042 14.3409 57.7242 13.1729 57.8761 11.9104C56.5262 14.0435 54.151 14.8083 52.0085 14.7909C49.8403 14.7424 47.7423 13.7961 45.7397 12.6239C43.7144 11.4624 41.7027 9.91643 39.114 9.09512C38.2592 8.81914 37.3364 8.74862 36.4446 8.83675C36.9314 7.85223 37.1729 6.75604 37.0981 5.68028C37.0668 4.95109 36.8909 4.24256 36.6111 3.58507C38.2495 4.20511 39.7095 5.00881 41.0001 6.03558C44.3534 8.66117 46.7099 12.6233 50.7277 13.8153C51.8938 14.186 53.1574 14.1338 54.2846 13.784C55.4068 13.4147 56.4664 12.6246 56.9269 11.5321L56.9441 11.5011L56.9529 11.4741L56.9392 11.4992C56.9553 11.3536 57.1568 11.1644 57.4164 11.2215C57.6607 11.2541 57.9317 11.54 57.8761 11.9104C58.0795 11.6143 58.0177 11.0755 57.6067 10.8169C57.2286 10.5516 56.576 10.6063 56.2346 11.0826L56.2206 11.1081L56.2044 11.1312L56.2213 11.1006C55.6126 11.7788 54.7714 12.1138 53.9125 12.1971C53.0475 12.3077 52.1849 12.1446 51.4256 11.8213C48.2895 10.4835 45.7912 6.49702 41.9729 4.52002C40.2702 3.60068 38.318 3.09575 36.44 3.20379C36.0661 2.46691 35.5514 1.81216 34.9352 1.3C33.6786 0.263527 32.0269 -0.196107 30.5549 0.0795156C32.0206 0.345222 33.2844 1.08831 34.0979 2.13729C34.9326 3.16785 35.2969 4.46062 35.2133 5.6803C35.0677 8.15391 32.8903 10.1448 30.5549 10.0696C28.2204 10.1421 26.045 8.1517 25.9001 5.68037C25.8161 4.46166 26.1806 3.16962 27.0142 2.13958C27.8263 1.09024 29.0894 0.347368 30.555 0.0795156C29.0827 -0.198168 27.4304 0.261757 26.1724 1.29778C25.5707 1.79766 25.0682 2.43443 24.6965 3.14964C22.8843 3.06691 21.0059 3.53136 19.3495 4.39055C15.4528 6.33409 12.9135 10.4019 9.75226 11.7972C8.97564 12.1343 8.11556 12.3088 7.23484 12.2021C6.36441 12.1238 5.50929 11.7886 4.89272 11.1014L4.90959 11.132L4.89331 11.1087L4.87955 11.0835C4.53831 10.6081 3.88711 10.5529 3.50923 10.8178C3.09866 11.0761 3.03627 11.6141 3.2393 11.9104C3.18344 11.5404 3.4538 11.2536 3.69858 11.2206C3.95835 11.1632 4.16124 11.3517 4.17759 11.4984L4.16398 11.4735L4.17278 11.5004L4.18987 11.5313C4.65757 12.6365 5.73585 13.4303 6.87406 13.7945C8.01405 14.14 9.3055 14.1764 10.47 13.7879C12.7811 13.0721 14.4675 11.4818 15.9382 10.0351L18.0845 7.8536C18.7964 7.16266 19.5226 6.51361 20.2958 5.91613C21.5347 4.96748 22.9224 4.22261 24.4659 3.65184C24.2031 4.29054 24.0387 4.97599 24.0083 5.68039C23.933 6.75481 24.1741 7.84908 24.6597 8.83243C23.7709 8.74615 22.852 8.81711 22.0002 9.09184C19.4114 9.91484 17.3987 11.4587 15.3757 12.624C13.3749 13.8001 11.2759 14.7446 9.1066 14.7946C6.96314 14.8129 4.58617 14.0451 3.2393 11.9104C3.3932 13.172 4.21266 14.3395 5.25639 15.1665C6.33007 15.9883 7.62255 16.5027 8.98526 16.6754C9.16491 16.6976 9.34235 16.699 9.52081 16.7101C8.33583 19.8058 7.26658 22.9328 6.23337 26.0695C5.20682 29.2704 4.23464 32.486 3.29761 35.7111C2.5475 35.7309 1.79744 35.7427 1.04739 35.772L0.969185 35.7751L0.889866 35.7815C0.335674 35.8483 -0.0594428 36.3518 0.00736572 36.906C0.300882 39.3412 1.56783 41.6157 3.4313 43.0755ZM52.4545 26.5005C53.1308 29.5577 53.8552 32.6019 54.6098 35.638L50.4102 35.6044L46.2086 35.6389C46.9619 32.602 47.6871 29.5575 48.3621 26.4994C49.0521 23.2519 49.7065 19.9948 50.2425 16.7057C50.3545 16.715 50.4677 16.7161 50.5803 16.7215C51.1138 20.0057 51.7671 23.2577 52.4545 26.5005ZM41.1979 47.3752C41.7331 47.4191 42.2657 47.6849 42.6693 48.1069C43.0916 48.5299 43.3502 49.0856 43.4177 49.7806C43.4648 50.1421 43.5297 50.5035 43.5862 50.865L42.5404 50.8486C33.4224 50.6645 19.2626 50.7799 18.5807 50.7817L17.5444 50.7967C17.5966 50.458 17.6576 50.1193 17.7014 49.7806C17.7689 49.0856 18.0267 48.5289 18.4491 48.105C18.8539 47.683 19.386 47.4159 19.9222 47.3715C20.3665 47.3418 21.2208 47.4332 21.9088 47.4679C27.1651 47.8204 34.1122 47.8124 39.2122 47.4715C39.9001 47.437 40.755 47.3438 41.1979 47.3752ZM30.5551 12.4927C31.6459 12.4837 32.7193 12.1726 33.6796 11.6591C33.482 14.3062 33.331 16.9534 33.1997 19.6005C33.0665 22.5921 32.9298 25.5838 32.8547 28.5754C32.674 34.161 32.5996 39.7466 32.5693 45.3322C32.2803 45.3305 31.9915 45.333 31.7026 45.3319C31.3219 45.3278 30.9412 45.3167 30.5605 45.3139C30.2034 45.3169 29.8463 45.3274 29.4892 45.3315C29.1772 45.3324 28.8653 45.3295 28.5533 45.3313C28.5233 39.746 28.4503 34.1607 28.2696 28.5754C28.1941 25.5838 28.0579 22.5921 27.9243 19.6005C27.7926 16.9671 27.6419 14.3338 27.4447 11.7004C28.3982 12.2044 29.4745 12.4859 30.5551 12.4927ZM7.82551 26.4994C8.5143 23.2573 9.16757 20.0054 9.70312 16.7219C9.81766 16.7267 9.93316 16.7406 10.0472 16.7411C10.5802 20.0187 11.2318 23.2642 11.9178 26.5005C12.5942 29.5577 13.3186 32.6019 14.0732 35.638L9.87359 35.6044L5.67206 35.6389C6.4253 32.602 7.15049 29.5575 7.82551 26.4994Z" fill="#38A3EE"/>
</svg>
