<svg width="52" height="57" viewBox="0 0 52 57" fill="none" xmlns="http://www.w3.org/2000/svg">
<path d="M4.6533 41.563C1.73255 45.7431 0.100548 50.7806 0.000421828 55.8381L0 55.8569V55.8732C0.00389879 56.2051 0.276164 56.4711 0.608132 56.4672C4.81988 56.4177 9.03155 56.285 13.2433 56.198C17.455 56.1071 21.6668 56.0027 25.8785 55.8592C21.6668 55.7157 17.455 55.6113 13.2433 55.5204C9.25178 55.438 5.26025 55.3187 1.26873 55.2638C1.61065 50.6626 3.25704 46.1919 5.98346 42.5161C8.81613 38.659 12.7914 35.7107 17.2247 34.0313C17.3688 33.9762 17.5063 33.8847 17.6151 33.7606C17.9731 33.3527 17.9327 32.7319 17.5248 32.3739L17.5161 32.3663C15.5661 30.6546 14.1254 28.3625 13.5138 25.847C12.8822 23.3521 13.0261 20.6179 13.924 18.222C15.7655 13.2978 19.6884 10.4811 25.8653 10.0276C33.1231 10.0197 38.4449 15.9443 38.5926 22.0024C38.6975 23.291 38.5603 24.5967 38.2472 25.8485C38.1033 26.4278 37.9124 26.9946 37.6867 27.5473C37.2607 27.5221 36.8349 27.5072 36.4089 27.5057C35.4814 27.5066 34.5539 27.5578 33.6264 27.6932C32.7055 27.8176 31.7846 28.0035 30.8636 28.3545C31.0008 27.5967 30.4176 26.826 29.7794 26.4047C29.0944 25.9452 28.2875 25.7066 27.4689 25.6413C26.6488 25.5733 25.8012 25.6977 24.9839 26.0576C24.578 26.2455 24.1858 26.512 23.8456 26.896C23.5108 27.2763 23.2373 27.8277 23.2302 28.4336C23.2393 29.0392 23.5112 29.5905 23.8463 29.9706C24.1866 30.354 24.5777 30.6223 24.985 30.8076C25.8016 31.1686 26.6493 31.2907 27.4689 31.2234C28.2871 31.1584 29.0938 30.9195 29.7783 30.4606C30.4389 30.0254 31.0473 29.216 30.8537 28.4336C30.6379 29.1689 30.0178 29.5227 29.4004 29.7158C28.7788 29.9229 28.1074 29.9434 27.4703 29.8941C26.8347 29.8083 26.205 29.6708 25.7146 29.3673C25.2029 29.0931 24.9059 28.679 24.9393 28.4336C24.9081 28.1894 25.2023 27.7734 25.7156 27.5019C26.2053 27.1974 26.8352 27.0622 27.4703 26.9757C28.107 26.926 28.7781 26.9469 29.3994 27.1534C30.0169 27.3457 30.6363 27.6986 30.8537 28.4336C30.8593 28.4111 30.8579 28.3885 30.8622 28.3659C31.7836 28.7174 32.705 28.9032 33.6264 29.0276C34.554 29.1631 35.4815 29.2143 36.409 29.2151C36.5609 29.2146 36.7129 29.2036 36.8648 29.2003C36.1667 30.385 35.2837 31.4628 34.2419 32.3674L34.2338 32.3742C34.116 32.4772 34.0212 32.6101 33.9622 32.7668C33.7714 33.2741 34.0279 33.8399 34.5351 34.0307C38.9726 35.7 42.9548 38.6439 45.784 42.5064C48.5095 46.1861 50.1502 50.6616 50.4908 55.2659C46.4985 55.3223 42.506 55.4397 38.5137 55.5222C34.3019 55.6122 30.0902 55.7166 25.8785 55.8592C30.0903 56.0017 34.3019 56.1061 38.5137 56.1961C42.7254 56.2832 46.9372 56.4134 51.1489 56.465L51.1682 56.4649C51.4988 56.4583 51.7613 56.185 51.7548 55.8544L51.7545 55.8381C51.6539 50.7806 50.0286 45.7408 47.1092 41.5581C44.4923 37.7906 40.8509 34.6941 36.6354 32.7888C37.691 31.6766 38.5713 30.4003 39.2383 29.0167C39.9182 28.9231 40.5981 28.7718 41.2781 28.5693C41.3363 28.8194 41.5385 29.0204 41.8079 29.0542L41.974 29.075C42.3131 29.1174 42.6522 29.1546 42.9913 29.1794C43.3374 29.21 43.7822 29.21 44.1779 29.1635C44.9957 29.0743 45.7829 28.7366 46.4671 28.2608C47.8674 27.3271 48.7158 25.6198 48.7189 23.9218C48.7155 22.2201 47.8612 20.5196 46.4653 19.5851C46.0535 19.2972 45.6011 19.0702 45.1296 18.9081C45.2183 11.8034 41.0141 4.86295 33.6363 1.60424C31.1966 0.555396 28.5364 0.0224124 25.8785 0C14.5306 0.110534 6.51404 9.16239 6.62791 18.9036C6.15589 19.0658 5.70285 19.2933 5.28989 19.5804C3.88966 20.5141 3.04127 22.2214 3.03814 23.9194C3.04148 25.6211 3.89578 27.3216 5.29177 28.2561C5.97442 28.7334 6.76185 29.0692 7.57921 29.1597C7.97476 29.2067 8.41966 29.207 8.76575 29.1765C9.20007 29.1453 9.6154 29.0913 9.94548 29.0519C10.2861 29.0103 10.5311 28.7026 10.4943 28.3604C10.3352 26.8804 10.1162 25.4005 9.78315 23.9206C9.50811 25.1425 9.32317 26.3645 9.17322 27.5864C9.0374 27.5727 8.90158 27.5542 8.76576 27.5444C8.43317 27.5155 8.20063 27.466 7.92837 27.3902C7.41299 27.2219 6.93984 26.9682 6.54588 26.6238C5.75879 25.9295 5.31752 24.9302 5.31744 23.9199C5.31779 22.9063 5.76144 21.9119 6.54615 21.2181C6.93908 20.873 7.41333 20.6229 7.92836 20.4544C8.20055 20.3785 8.43316 20.3289 8.76575 20.2998C8.90074 20.2899 9.0358 20.2716 9.17078 20.2582C9.32142 21.479 9.50636 22.6998 9.78315 23.9206C10.1187 22.4407 10.3371 20.9608 10.4977 19.4809C10.5345 19.1396 10.291 18.83 9.94904 18.7871C9.65438 18.752 9.28305 18.6995 8.76576 18.6618C8.41967 18.6312 7.97484 18.6312 7.57915 18.6777C7.34794 18.703 7.12027 18.7525 6.8956 18.815C8.55779 8.86416 16.8058 2.21708 25.8785 2.27862C34.9449 2.2223 43.1942 8.85868 44.8611 18.8193C44.6365 18.7568 44.4089 18.7072 44.1779 18.6816C43.7823 18.6346 43.3374 18.6343 42.9913 18.6648C42.6523 18.6891 42.3131 18.7283 41.9741 18.7696L41.8116 18.7894C41.471 18.8311 41.2259 19.1387 41.2627 19.4809C41.4219 20.9608 41.6408 22.4407 41.9739 23.9206C42.2489 22.6987 42.4339 21.4768 42.5838 20.2549C42.7197 20.2686 42.8555 20.2872 42.9913 20.2969C43.3239 20.3258 43.5564 20.3753 43.8287 20.4511C44.344 20.6194 44.8172 20.8731 45.2112 21.2175C45.9982 21.9118 46.4395 22.9111 46.4396 23.9214C46.4393 24.935 45.9956 25.9294 45.2109 26.6232C44.818 26.9683 44.3437 27.2184 43.8287 27.387C43.5565 27.4628 43.3239 27.5123 42.9913 27.5415C42.8563 27.5513 42.7213 27.5697 42.5863 27.5831C42.4356 26.3623 42.2507 25.1414 41.9739 23.9206C41.654 25.3317 41.445 26.7429 41.2865 28.154C40.7779 28.002 40.2693 27.8815 39.7606 27.7968C39.9379 27.3238 40.0996 26.8451 40.2262 26.3554C40.6038 24.9036 40.7743 23.393 40.6718 21.8958C40.6428 20.3914 40.2794 18.9108 39.7968 17.4907C37.5105 11.3598 31.8756 7.79004 25.8612 7.75017C25.109 7.79352 24.3487 7.78253 23.6117 7.94054C17.6592 9.10264 13.6733 12.693 11.9296 17.488C10.9001 20.3387 10.7755 23.4395 11.5313 26.3547C12.1446 28.7701 13.4193 30.9888 15.1251 32.7891C10.9135 34.7016 7.27139 37.7946 4.6533 41.563Z" fill="#38A3EE"/>
</svg>
