<svg width="50" height="57" viewBox="0 0 50 57" fill="none" xmlns="http://www.w3.org/2000/svg">
<path d="M0.105631 50.5219C0.0275753 51.1254 0.0205423 51.781 0.00385515 52.3531C-0.0280831 53.0397 0.139382 53.8252 0.470595 54.4802C1.13527 55.8116 2.53453 56.7672 4.04357 56.8359C48.7666 57.1946 32.5853 56.8577 45.9796 56.829C47.4876 56.7523 48.8806 55.7905 49.5382 54.4569C49.8685 53.8029 50.0286 53.0123 49.9958 52.3331C49.9781 51.7589 49.9703 51.1061 49.892 50.502C49.4255 45.5581 46.4055 41.0219 42.3292 38.569C38.7731 36.1833 35.2392 33.7657 31.6529 31.4218C32.0971 31.123 32.5288 30.8056 32.9311 30.4516C34.8713 28.7873 36.1828 26.5484 36.9371 24.2008C37.2789 24.314 37.6418 24.3722 38.0139 24.328C38.8455 24.2448 39.5044 23.7768 39.9613 23.2673C40.8838 22.2199 41.246 20.9291 41.3084 19.675C41.3453 18.4232 41.0476 17.1129 40.1884 16.1211C39.765 15.6327 39.1173 15.2784 38.4517 15.2827C37.8628 15.2849 37.3457 15.5521 36.9493 15.909C36.8281 15.5216 36.6712 15.1501 36.4803 14.7976C38.6245 13.6815 40.429 11.9527 41.5479 9.8646C40.0293 11.9559 37.9522 13.5845 35.5819 14.3893C33.2262 15.2213 30.6751 15.3487 28.2003 15.11C25.7092 14.8685 23.3017 14.1449 20.8682 13.3649C18.674 12.6414 16.5152 11.829 14.4114 10.8993C15.8479 5.18698 21.1482 1.20951 26.5651 1.45225C29.4674 1.52601 32.3631 2.65661 34.6277 4.57681C35.7765 5.5421 36.6511 6.73083 37.5438 8.0321C38.0112 8.65749 38.5635 9.27475 39.2739 9.65306C39.9687 10.0265 40.8294 10.176 41.5479 9.86458C40.7964 10.0831 40.0191 9.82785 39.4159 9.41265C38.7937 9.00362 38.3415 8.3966 37.9458 7.75432C37.2072 6.44507 36.379 5.02336 35.2308 3.9142C32.9522 1.6792 29.8689 0.263862 26.6362 0.0378329C23.4007 -0.225506 20.0611 0.89992 17.5538 2.97618C15.0243 5.03001 13.1723 7.97825 12.6004 11.2557L12.5991 11.2622C12.5342 11.6342 12.7253 12.0169 13.0833 12.1771C13.3703 12.3056 13.6614 12.4233 13.9504 12.5467C13.5111 13.5141 13.1483 14.5214 12.8758 15.5634C12.486 15.2938 12.0146 15.1062 11.4915 15.1126C10.7685 15.1171 10.0874 15.5153 9.64471 16.0244C8.74907 17.0692 8.48164 18.4153 8.52492 19.688C8.58572 20.9665 8.96307 22.2815 9.92348 23.3402C10.398 23.8551 11.0771 24.329 11.9353 24.4168C12.2889 24.461 12.6398 24.4058 12.975 24.3041C13.7597 26.6283 15.0689 28.8094 16.9085 30.5163C17.3099 30.8858 17.7486 31.2222 18.2034 31.5393C14.6571 33.8416 11.1646 36.2206 7.6571 38.5783C3.58051 41.0352 0.567231 45.5767 0.105631 50.5219ZM14.4486 22.6446L14.4247 22.5667C14.3749 22.4046 14.2802 22.2547 14.1421 22.1372C13.7576 21.8101 13.1827 21.859 12.8582 22.2465C12.4234 22.7655 11.7803 22.779 11.113 22.162C10.4764 21.5561 10.0593 20.5684 9.9237 19.5734C9.78575 18.5765 9.94812 17.4924 10.4833 16.7175C10.7503 16.3355 11.1136 16.0677 11.5431 16.007C11.9668 15.9437 12.4398 16.1206 12.8424 16.4307L12.8811 16.4606C12.9286 16.4969 12.9864 16.5207 13.0501 16.5267C13.2319 16.5438 13.393 16.4092 13.41 16.226C13.5223 15.013 13.7613 13.8009 14.0809 12.6023C16.1505 13.4796 18.2651 14.2356 20.413 14.8584C21.6637 15.2201 22.8965 15.5675 24.1897 15.8533C28.0599 16.6558 32.236 16.7215 35.8665 15.1052C36.057 15.0191 36.2409 14.92 36.4266 14.8245C36.5792 15.2729 36.6865 15.7327 36.7365 16.1982C36.7392 16.2224 36.7481 16.2468 36.7635 16.2678C36.81 16.331 36.8986 16.3442 36.9613 16.2974L36.982 16.282C37.4173 15.9569 37.9378 15.7581 38.4202 15.8325C38.907 15.9018 39.3038 16.2131 39.5902 16.6156C40.1621 17.443 40.2949 18.5627 40.151 19.5804C40.0176 20.5996 39.586 21.6115 38.9123 22.2291C38.2143 22.8592 37.5067 22.8637 37.0343 22.3044C36.94 22.1934 36.8134 22.1032 36.6659 22.0535C36.2317 21.9072 35.762 22.1433 35.6168 22.5809L35.5887 22.6656C34.7902 25.0719 33.4862 27.3116 31.5729 28.8204C29.6743 30.338 27.3051 31.2918 24.9079 31.3238C23.7165 31.3361 22.5222 31.1717 21.4157 30.7436C20.3141 30.317 19.287 29.6888 18.3731 28.872C16.5412 27.2574 15.1928 25.0536 14.4486 22.6446ZM20.6202 32.8586C21.9991 33.405 23.4906 33.6564 24.9584 33.6039C27.3203 33.524 29.6221 32.7661 31.5714 31.4764C32.7317 32.4023 33.8981 33.3196 35.0676 34.2325C33.1016 35.5863 31.2738 37.0791 29.505 38.6313C27.946 39.9834 26.4602 41.4091 24.9901 42.8508C23.5243 41.4086 22.0419 39.983 20.4863 38.6309C18.7231 37.0799 16.8994 35.5894 14.9375 34.2383C16.0603 33.365 17.1801 32.4875 18.2958 31.6038C19.0206 32.0994 19.7972 32.5306 20.6202 32.8586ZM14.8749 34.2874C16.2129 36.2706 17.6902 38.114 19.2276 39.8967C20.8098 41.7534 22.4862 43.5154 24.1824 45.2575L24.1982 45.2735C24.6433 45.7136 25.358 45.7068 25.7947 45.2583C27.4929 43.5143 29.1729 41.752 30.7586 39.8945C32.3007 38.1094 33.7838 36.2647 35.1282 34.2803C37.3253 35.9948 39.5275 37.7021 41.7203 39.423C43.5936 40.7864 45.1551 42.3855 46.2641 44.3451C47.3697 46.2799 48.0402 48.4526 48.197 50.6567C48.2478 51.2168 48.2363 51.7383 48.23 52.3339C48.2303 52.8273 48.1146 53.2101 47.9119 53.5962C47.4955 54.3427 46.6956 54.8385 45.8681 54.8599C33.1152 54.8379 46.9298 54.5471 4.14648 54.8613C3.3188 54.8452 2.52076 54.3491 2.09938 53.6083C1.89727 53.2246 1.77643 52.8388 1.77651 52.3524C1.76886 51.7547 1.75682 51.2359 1.80719 50.6752C1.96018 48.471 2.62972 46.2986 3.73219 44.3627C4.83878 42.4029 6.39644 40.7988 8.26955 39.4372C10.4637 37.7099 12.6711 36.0013 14.8749 34.2874Z" fill="#38A3EE"/>
<path d="M36.1321 46.2704C36.734 46.272 37.3359 46.2035 37.9379 46.057C38.5398 45.8986 39.1417 45.6896 39.7436 45.2707C39.1417 44.8517 38.5398 44.6428 37.9379 44.4843C37.3359 44.3379 36.734 44.2694 36.1321 44.271C35.5302 44.2721 34.9282 44.3404 34.3263 44.4871C33.7244 44.6466 33.1224 44.8541 32.5205 45.2707C33.1224 45.6873 33.7244 45.8947 34.3263 46.0543C34.9282 46.201 35.5302 46.2693 36.1321 46.2704Z" fill="#38A3EE"/>
<path d="M24.9333 29.0595C26.1237 29.0649 27.3539 28.3584 27.6768 27.2094C26.5366 27.4543 25.7645 27.5624 24.9315 27.56C24.1006 27.567 23.326 27.4587 22.1885 27.2099C22.5126 28.3561 23.7405 29.0645 24.9333 29.0595Z" fill="#38A3EE"/>
<path d="M23.4341 19.9778C22.2938 20.2227 21.5219 20.3308 20.6888 20.3284C19.858 20.3354 19.0834 20.2271 17.9458 19.9783C18.2698 21.1245 19.4977 21.8329 20.6906 21.8279C21.881 21.8332 23.1113 21.1268 23.4341 19.9778Z" fill="#38A3EE"/>
<path d="M29.1359 21.8272C30.3264 21.8326 31.5566 21.1261 31.8794 19.9771C30.7392 20.222 29.9672 20.3301 29.1342 20.3277C28.3033 20.3347 27.5287 20.2264 26.3911 19.9776C26.7152 21.1238 27.9431 21.8323 29.1359 21.8272Z" fill="#38A3EE"/>
</svg>
