<?xml version="1.0" standalone="no"?>
<!DOCTYPE svg PUBLIC "-//W3C//DTD SVG 1.1//EN" "http://www.w3.org/Graphics/SVG/1.1/DTD/svg11.dtd" >
<svg>
<metadata>
Created by FontForge 20090914 at Wed Jun 30 08:16:23 2021
 By www-data
Copyright (c) 2019 by Oleh Lishchuk. All rights reserved. |DCNT
</metadata>
<defs>
<font id="MazzardH-Regular" horiz-adv-x="618" >
  <font-face 
    font-family="Mazzard H"
    font-weight="400"
    font-stretch="semi-condensed"
    units-per-em="1000"
    panose-1="0 0 0 0 0 0 0 0 0 0"
    ascent="755"
    descent="-245"
    x-height="520"
    cap-height="700"
    bbox="-112 -243.002 1186 982"
    underline-thickness="50"
    underline-position="-175"
    unicode-range="U+000D-U+FB04"
  />
<missing-glyph horiz-adv-x="333" 
 />
    <glyph glyph-name="f_f" unicode="ff" horiz-adv-x="658" 
d="M104 446l-87 0.00195312v74h87v77c0 43.333 14.667 79.666 44 108.999s65.666 44 108.999 44h69v-81h-63c-21.333 0 -39.166 -7.83301 -53.499 -23.5s-21.5 -35.167 -21.5 -58.5v-67h230v77c0 43.333 14.667 79.666 44 108.999s65.666 44 108.999 44h69v-81h-63
c-21.333 0 -39.166 -7.83301 -53.499 -23.5s-21.5 -35.167 -21.5 -58.5v-67h139v-74h-139v-446h-84v446h-230v-446h-84v446z" />
    <glyph glyph-name="fi" unicode="fi" horiz-adv-x="570" 
d="M188 587v-66.999h139v-74h-139v-446h-84v446h-87v74h87v77c0 43.333 14.667 79.666 44 108.999s65.666 44 108.999 44h69v-81h-63c-21.333 0 -39.166 -7.83301 -53.499 -23.5s-21.5 -35.167 -21.5 -58.5zM499 0.000976562h-84v520h84v-520zM415 605.001
c-10.667 11.333 -16 25.333 -16 42s5.33301 30.334 16 41.001c11.333 11.333 25.333 17 42 17s30.334 -5.66699 41.001 -17c11.333 -10.667 17 -24.334 17 -41.001s-5.66699 -30.667 -17 -42c-10.667 -10.667 -24.334 -16 -41.001 -16s-30.667 5.33301 -42 16z" />
    <glyph glyph-name="fl" unicode="fl" horiz-adv-x="570" 
d="M188 587v-66.999h139v-74h-139v-446h-84v446h-87v74h87v77c0 43.333 14.667 79.666 44 108.999s65.666 44 108.999 44h69v-81h-63c-21.333 0 -39.166 -7.83301 -53.499 -23.5s-21.5 -35.167 -21.5 -58.5zM499 0.000976562h-84v750h84v-750z" />
    <glyph glyph-name="f_f_i" unicode="ffi" horiz-adv-x="884" 
d="M104 0v446.002h-87v74h87v77c0 43.333 14.667 79.666 44 108.999s65.666 44 108.999 44h69v-81h-63c-21.333 0 -39.166 -7.83301 -53.499 -23.5s-21.5 -35.167 -21.5 -58.5v-67h230v77c0 43.333 14.667 79.666 44 108.999s65.666 44 108.999 44h69v-81h-63
c-21.333 0 -39.166 -7.83301 -53.499 -23.5s-21.5 -35.167 -21.5 -58.5v-67h311v-520h-84v446h-227v-446h-84v446h-230v-446h-84zM729 605.002c-10.667 11.333 -16 25.333 -16 42s5.33301 30.334 16 41.001c11.333 11.333 25.333 17 42 17s30.334 -5.66699 41.001 -17
c11.333 -10.667 17 -24.334 17 -41.001s-5.66699 -30.667 -17 -42c-10.667 -10.667 -24.334 -16 -41.001 -16s-30.667 5.33301 -42 16z" />
    <glyph glyph-name="f_f_l" unicode="ffl" horiz-adv-x="884" 
d="M104 0v446.002h-87v74h87v77c0 43.333 14.667 79.666 44 108.999s65.666 44 108.999 44h69v-81h-63c-21.333 0 -39.166 -7.83301 -53.499 -23.5s-21.5 -35.167 -21.5 -58.5v-67h230v77c0 43.333 14.667 79.666 44 108.999s65.666 44 108.999 44h69v-81h-63
c-21.333 0 -39.166 -7.83301 -53.499 -23.5s-21.5 -35.167 -21.5 -58.5v-67h139v-74h-139v-446h-84v446h-230v-446h-84zM729 0.00195312v750h84v-750h-84z" />
    <glyph glyph-name="afii10104_afii10104" unicode="&#x457;&#x457;" horiz-adv-x="453" 
d="M155 0h-84v520h84v-520zM-37 653c0 16 5.33301 29.167 16 39.5s24 15.5 40 15.5s29.333 -5.16699 40 -15.5s16 -23.5 16 -39.5s-5.33301 -29.333 -16 -40s-24 -16 -40 -16s-29.333 5.16699 -40 15.5s-16 23.833 -16 40.5zM382 0h-84v520h84v-520zM171 653
c0 16 5.33301 29.167 16 39.5s24 15.5 40 15.5s29.333 -5.16699 40 -15.5s16 -23.5 16 -39.5s-5.33301 -29.333 -16 -40s-24 -16 -40 -16s-29.333 5.16699 -40 15.5s-16 23.833 -16 40.5zM378 653c0 16 5.33301 29.167 16 39.5s24 15.5 40 15.5s29.333 -5.16699 40 -15.5
s16 -23.5 16 -39.5s-5.33301 -29.333 -16 -40s-24 -16 -40 -16s-29.333 5.16699 -40 15.5s-16 23.833 -16 40.5z" />
    <glyph glyph-name=".notdef" horiz-adv-x="333" 
 />
    <glyph glyph-name="uni0000" horiz-adv-x="0" 
 />
    <glyph glyph-name="uni0000" horiz-adv-x="0" 
 />
    <glyph glyph-name="uni000D" unicode="&#xd;" horiz-adv-x="250" 
 />
    <glyph glyph-name="space" unicode=" " horiz-adv-x="274" 
 />
    <glyph glyph-name="exclam" unicode="!" horiz-adv-x="246" 
d="M123 109c16.667 0 30.833 -5.83203 42.5 -17.499s17.5 -25.834 17.5 -42.501c2.66699 -26 -9.5 -44.333 -36.5 -55s-49.167 -6.66699 -66.5 12c-18.667 17.333 -22.667 39.5 -12 66.5s29 39.167 55 36.5zM159.999 209.001h-73l-9 491h90z" />
    <glyph glyph-name="quotedbl" unicode="&#x22;" horiz-adv-x="368" 
d="M138 469h-66l-8 231h81zM297 469h-67l-7 231h81z" />
    <glyph glyph-name="numbersign" unicode="#" horiz-adv-x="706" 
d="M172 191h-148v71h160l31 176h-149l1 71h160l34 191h73l-34 -191h162l34 191h73l-34 -191h148v-71h-160l-32 -176h149l1 -71h-162l-34 -191h-72l34 191h-163l-34 -191h-72zM288 438l-32 -176h163l31 176h-162z" />
    <glyph glyph-name="dollar" unicode="$" 
d="M277 -126l0.00292969 116.999c-57.333 5.33301 -106.333 23 -147 53s-67 67.333 -79 112l90 27c5.33301 -30.667 24.166 -56.167 56.499 -76.5s70.833 -30.5 115.5 -30.5c46.667 0 85.667 10.667 117 32c31.333 22 47 50 47 84c0 34.667 -16.667 60.667 -50 78
c-29.333 15.333 -63 27.666 -101 36.999l-42 11l-39 12l-41 14c-2 0.666992 -4.83301 1.83398 -8.5 3.50098l-13.5 6c-5.33301 2.33301 -10 4.5 -14 6.5c-16.667 8 -36.334 22.333 -59.001 43c-22.667 22.667 -36 58.667 -40 108c0 54.667 19 100 57 136
c38 37.333 87.333 58.333 148 63v116h65v-117c52 -5.33301 96.667 -22.166 134 -50.499s61.333 -62.833 72 -103.5l-89 -26c-6 26.667 -23.167 49.167 -51.5 67.5s-61.5 27.5 -99.5 27.5c-42 0 -76.667 -10.333 -104 -31c-27.333 -20 -41 -45.333 -41 -76
c0 -33.333 18.667 -59.333 56 -78c29.333 -14 74.333 -28.667 135 -44c49.333 -12.667 87.666 -25.667 114.999 -39c64 -30 97.667 -82.333 101 -157c0 -58.667 -21 -107 -63 -145s-96 -59.333 -162 -64v-116h-65z" />
    <glyph glyph-name="percent" unicode="%" horiz-adv-x="816" 
d="M154 0l-44 37l553 663l45 -38zM207 711c48.667 0 89.334 -16.333 122.001 -49c32.667 -32 49 -72.333 49 -121s-16.333 -89.334 -49 -122.001c-32.667 -32 -73.334 -48 -122.001 -48c-48 0 -88.333 16 -121 48c-32.667 32.667 -49 73.334 -49 122.001s16.333 89 49 121
c32.667 32.667 73 49 121 49zM207 446c27.333 0 50 9 68 27s27 40.667 27 68s-9 50 -27 68s-40.667 27 -68 27c-26.667 0 -49 -9.16699 -67 -27.5s-27 -40.833 -27 -67.5s9 -49.167 27 -67.5s40.333 -27.5 67 -27.5zM439 159c0 47.333 16 87.667 48 121
c32.667 32.667 73.334 49 122.001 49s89 -16.333 121 -49c32.667 -32.667 49 -73 49 -121c0 -48.667 -16.333 -89.334 -49 -122.001c-32 -32 -72.333 -48 -121 -48s-89.334 16 -122.001 48c-32 32.667 -48 73.334 -48 122.001zM609 64.001
c26.667 0 49.167 9.00098 67.5 27.001s27.5 40.333 27.5 67c0 27.333 -9.16699 50.166 -27.5 68.499s-40.833 27.5 -67.5 27.5c-27.333 0 -50 -9 -68 -27s-27 -40.667 -27 -68s9 -50 27 -68s40.667 -27 68 -27z" />
    <glyph glyph-name="ampersand" unicode="&#x26;" horiz-adv-x="698" 
d="M287 -11c-68 0 -124.334 20.332 -169.001 60.999s-67 90.667 -67 150c0 41.333 11.167 76.833 33.5 106.5s55.833 58.167 100.5 85.5c-41.333 57.333 -62 110.333 -62 159c0 46.667 16 85 48 115s72.667 45 122 45c51.333 0 93.333 -15 126 -45
c33.333 -30 50 -67.667 50 -113c0 -38 -12.167 -70.333 -36.5 -97s-62.833 -55 -115.5 -85c5.33301 -6.66699 10 -11.667 14 -15l150 -153c22 44.667 33 94.334 33 149.001h85c0 -80 -18.667 -150.667 -56 -212l138 -140h-122l-70 71
c-57.333 -54.667 -124.666 -82 -201.999 -82zM429.999 131.999l-155.998 158c-18.667 18.667 -30.334 30.667 -35.001 36c-66.667 -40.667 -100 -83.667 -100 -129c0 -34.667 14 -64 42 -88c29.333 -24 65 -36 107 -36c53.333 0 100.666 19.667 141.999 59zM262.001 433.999
c44.667 23.333 76.333 43.334 95 60.001s28 36 28 58c0 21.333 -8.5 39.166 -25.5 53.499s-38.167 21.5 -63.5 21.5s-45.833 -7 -61.5 -21s-23.5 -33 -23.5 -57c0 -34 17 -72.333 51 -115z" />
    <glyph glyph-name="quotesingle" unicode="'" horiz-adv-x="210" 
d="M138 469h-66l-8 231h81z" />
    <glyph glyph-name="parenleft" unicode="(" horiz-adv-x="297" 
d="M186 782l15.001 18.001h79l-17 -21c-6.66699 -8 -18.667 -28.667 -36 -62c-36.667 -66.667 -64.334 -145.334 -83.001 -236.001c-21.333 -111.333 -21.666 -223.333 -0.999023 -336c12 -58 24.667 -103.667 38 -137c33.333 -78 61 -132 83 -162l16 -21h-79l-1 1
c-54.667 65.333 -95.334 151 -122.001 257c-18 73.333 -27 150 -27 230c0 120.667 17.667 225 53 313c30 74.667 57.333 126.667 82 156z" />
    <glyph glyph-name="parenright" unicode=")" horiz-adv-x="297" 
d="M32 780l-14.998 20.001h80l16 -20c7.33301 -8.66699 19.333 -28 36 -58c19.333 -34 34.666 -66.333 45.999 -97c13.333 -36 25.333 -81.667 36 -137c10.667 -54 16 -112.333 16 -175c0 -112 -16 -212 -48 -300c-12 -34.667 -26.333 -67 -43 -97
c-14.667 -28.667 -26.667 -49.334 -36 -62.001c-10.667 -14.667 -18 -24 -22 -28l-1 -1h-80l16 22c8.66699 10.667 21 31.334 37 62.001c37.333 67.333 64.666 145.666 81.999 234.999c22.667 110 23 222 1 336c-9.33301 52 -22 97.667 -38 137
c-28 72 -55.667 126.333 -83 163z" />
    <glyph glyph-name="asterisk" unicode="*" horiz-adv-x="480" 
d="M216 479l-111 -83l-41 70l129 55l-129 54l41 70l112 -84l-17 139h81l-17 -139l112 84l40 -70l-128 -55l128 -54l-40 -70l-112 83l17 -138h-81z" />
    <glyph glyph-name="plus" unicode="+" horiz-adv-x="600" 
d="M261 321h-194v78h194v194h78v-194h194v-78h-194v-194h-78v194z" />
    <glyph glyph-name="comma" unicode="," horiz-adv-x="219" 
d="M174 23c0 -18 -3.33203 -35.501 -9.99902 -52.501s-14.334 -31 -23.001 -42s-18.167 -21.167 -28.5 -30.5s-18.166 -15.666 -23.499 -18.999l-11 -7l-28 28c4.66699 3.33301 9.33398 8.33301 14.001 15c6.66699 6.66699 14.334 17.667 23.001 33
c9.33301 16 13.666 29.667 12.999 41c-14.667 2 -27 8.83301 -37 20.5s-15 25.167 -15 40.5c0 16.667 5.66699 30.5 17 41.5s25.666 16.5 42.999 16.5c19.333 0 35.166 -7.83301 47.499 -23.5s18.5 -36.167 18.5 -61.5z" />
    <glyph glyph-name="hyphen" unicode="-" horiz-adv-x="400" 
d="M67 221v78h266v-78h-266z" />
    <glyph glyph-name="period" unicode="." horiz-adv-x="215" 
d="M168 49c0 -17.333 -5.66699 -31.6641 -17 -42.9971s-25.666 -17 -42.999 -17s-31.666 5.66699 -42.999 17s-17 25.666 -17 42.999s5.66699 31.666 17 42.999s25.666 17 42.999 17s31.666 -5.83301 42.999 -17.5s17 -25.834 17 -42.501z" />
    <glyph glyph-name="slash" unicode="/" horiz-adv-x="533" 
d="M78 -175h-78l455 974h78z" />
    <glyph glyph-name="zero" unicode="0" horiz-adv-x="647" 
d="M59 236v228c0 70.667 25 129.334 75 176.001c51.333 47.333 114.333 71 189 71s137.334 -23.667 188.001 -71c50.667 -46.667 76 -105.334 76 -176.001v-228c0 -70.667 -25.333 -129.334 -76 -176.001c-50.667 -47.333 -113.334 -71 -188.001 -71
c-74 0 -136.667 23.667 -188 71c-50.667 46.667 -76 105.334 -76 176.001zM146 465v-230c0 -46 17 -84.667 51 -116c33.333 -30.667 75.333 -46 126 -46s92.667 15.333 126 46c34 31.333 51 70 51 116v230c0 46 -17 84.333 -51 115c-34.667 31.333 -76.667 47 -126 47
s-91.333 -15.667 -126 -47c-34 -30.667 -51 -69 -51 -115z" />
    <glyph glyph-name="one" unicode="1" horiz-adv-x="437" 
d="M229 589l-141 -74l-38 77l206 108h60v-700h-87v589z" />
    <glyph glyph-name="two" unicode="2" horiz-adv-x="583" 
d="M429 499c0 35.333 -14.333 65.3291 -43 89.9961c-29.333 25.333 -64 38 -104 38c-36 0 -68 -10.5 -96 -31.5s-49 -49.5 -63 -85.5l-81 39c20.667 50 52.334 89.5 95.001 118.5s91 43.5 145 43.5c66.667 0 122.667 -20.333 168 -61c46 -40.667 69 -90 69 -148
c0 -37.333 -11.5 -74.166 -34.5 -110.499s-60.167 -79.166 -111.5 -128.499l-187 -179h343v-84h-479v65l265 256c41.333 40.667 70.666 73.834 87.999 99.501s26 51.834 26 78.501z" />
    <glyph glyph-name="three" unicode="3" horiz-adv-x="589" 
d="M431 514c0 32.667 -14.335 59.332 -43.002 79.999c-29.333 22 -65.333 33 -108 33c-35.333 0 -66.166 -7.16699 -92.499 -21.5s-45.5 -33.833 -57.5 -58.5l-79 38c19.333 38.667 49.5 69.334 90.5 92.001s87.167 34 138.5 34c68 0 125.333 -18.667 172 -56
c46 -36.667 69 -82.667 69 -138c0 -32.667 -9 -62.667 -27 -90s-42.667 -49 -74 -65c36.667 -16.667 65.5 -40 86.5 -70s31.5 -63.333 31.5 -100c0 -58 -24.333 -106.333 -73 -145s-109 -58 -181 -58c-57.333 0 -107.666 12.5 -150.999 37.5s-74 58.833 -92 101.5l85 31
c10.667 -26 30.167 -46.833 58.5 -62.5s61.5 -23.5 99.5 -23.5c46.667 0 85.667 11.667 117 35s47 52.666 47 87.999c0 34.667 -15.333 63.334 -46 86.001c-31.333 23.333 -69.333 35 -114 35h-53v81h38c44.667 0 82 11 112 33c30.667 22 46 49.667 46 83z" />
    <glyph glyph-name="four" unicode="4" horiz-adv-x="654" 
d="M428 0v144h-386v84l392 472h82v-471h100v-85h-100v-144h-88zM428 566l-280 -337h280v337z" />
    <glyph glyph-name="five" unicode="5" horiz-adv-x="604" 
d="M293 -11c-56 0 -106.166 14 -150.499 42s-76.5 65.667 -96.5 113l86 25c14.667 -30 36.167 -53.5 64.5 -70.5s60.5 -25.5 96.5 -25.5c48 0 88.333 14 121 42s49 62.667 49 104c0 42.667 -17 78 -51 106c-33.333 28.667 -76 43 -128 43h-187l34 332h366v-81h-293l-17 -170
h100c75.333 0 138.666 -22 189.999 -66c50.667 -44 76 -98.667 76 -164s-25 -120 -75 -164s-111.667 -66 -185 -66z" />
    <glyph glyph-name="six" unicode="6" horiz-adv-x="614" 
d="M553 588l-80.002 -40.002c-33.333 52.667 -83.666 79 -150.999 79c-49.333 0 -91.333 -15.667 -126 -47c-33.333 -31.333 -50 -69.666 -50 -114.999v-88c42.667 46 99 69 169 69c72.667 0 133.334 -22 182.001 -66s73 -98.667 73 -164c0 -64 -24.333 -118 -73 -162
c-49.333 -43.333 -110 -65 -182 -65c-72.667 0 -133.667 22 -183 66c-48.667 44 -73 98.333 -73 163v246c0 70.667 25 129.334 75 176.001c51.333 47.333 114.333 71 189 71c50 0 95.333 -11 136 -33s72 -52 94 -90zM149.998 217.998c0 -41.333 15.667 -76 47 -104
c32.667 -27.333 72 -41 118 -41c46.667 0 85.667 13.667 117 41c32 26.667 48 60.667 48 102s-16 76 -48 104c-30.667 28 -69.667 42 -117 42c-46.667 0 -86 -14 -118 -42c-31.333 -27.333 -47 -61.333 -47 -102z" />
    <glyph glyph-name="seven" unicode="7" horiz-adv-x="528" 
d="M142 0l254 619h-372v81h463v-85l-250 -615h-95z" />
    <glyph glyph-name="eight" unicode="8" horiz-adv-x="610" 
d="M51 191c0 37.333 10.667 71.334 32 102.001s51 54.667 89 72c-32 17.333 -57.167 40 -75.5 68s-27.5 58 -27.5 90c0 53.333 22.667 98 68 134s101.666 54 168.999 54c66.667 0 122.334 -18 167.001 -54c45.333 -36 68 -81 68 -135c0 -32 -9 -61.833 -27 -89.5
s-43 -49.834 -75 -66.501c38 -18 67.667 -42.333 89 -73s32 -64.667 32 -102c0 -57.333 -24.333 -105.333 -73 -144c-47.333 -38.667 -107.666 -58 -180.999 -58c-72.667 0 -133.334 19.333 -182.001 58s-73 86.667 -73 144zM141 199.001
c0 -36 15.668 -66.001 47.001 -90.001c30.667 -24 70 -36 118 -36c46 0 84.667 11.667 116 35c31.333 24 47 54 47 90s-15.667 65.667 -47 89c-30.667 24 -69.334 36 -116.001 36c-48 0 -87.333 -12 -118 -36c-31.333 -23.333 -47 -52.666 -47 -87.999zM160.001 516
c0 -32 13.833 -58.6689 41.5 -80.002s62.5 -32 104.5 -32c41.333 0 75.666 10.667 102.999 32c28 20.667 42 47.334 42 80.001c0 32 -14 58.333 -42 79c-27.333 21.333 -61.666 32 -102.999 32s-76.333 -10.667 -105 -32c-27.333 -21.333 -41 -47.666 -41 -78.999z" />
    <glyph glyph-name="nine" unicode="9" horiz-adv-x="610" 
d="M55 116l81.001 39.999c14.667 -25.333 35.667 -45.5 63 -60.5s58 -22.5 92 -22.5c52 0 94.667 15.333 128 46c34.667 30.667 52 69 52 115v82c-42 -50.667 -97.667 -76 -167 -76c-70.667 0 -130.667 22.667 -180 68c-48.667 44.667 -73 100.667 -73 168
c0 66.667 24.333 122.334 73 167.001c49.333 45.333 109.333 68 180 68c73.333 0 133.666 -22.333 180.999 -67c48.667 -44 73 -99 73 -165v-244c0 -70 -25.667 -128.667 -77 -176c-50.667 -46.667 -114 -70 -190 -70c-52 0 -98.833 11.333 -140.5 34s-73.5 53.667 -95.5 93
zM304.001 323.999c47.333 0 86.334 14.332 117.001 42.999c31.333 29.333 47 65.333 47 108s-15.667 78.667 -47 108s-70.333 44 -117 44s-85.334 -14.333 -116.001 -43c-31.333 -29.333 -47 -65 -47 -107c0 -43.333 15.667 -79.666 47 -108.999s70 -44 116 -44z" />
    <glyph glyph-name="colon" unicode=":" horiz-adv-x="215" 
d="M168 49c0 -17.333 -5.66699 -31.6641 -17 -42.9971s-25.666 -17 -42.999 -17s-31.666 5.66699 -42.999 17s-17 25.666 -17 42.999s5.66699 31.666 17 42.999s25.666 17 42.999 17s31.666 -5.83301 42.999 -17.5s17 -25.834 17 -42.501zM168 471.002
c0 -16.667 -5.66699 -30.832 -17 -42.499s-25.666 -17.5 -42.999 -17.5s-31.666 5.66699 -42.999 17s-17 25.666 -17 42.999s5.66699 31.666 17 42.999s25.666 17 42.999 17s31.666 -5.66699 42.999 -17s17 -25.666 17 -42.999z" />
    <glyph glyph-name="semicolon" unicode=";" horiz-adv-x="215" 
d="M168 471c0 -16.667 -5.66699 -30.832 -17 -42.499s-25.666 -17.5 -42.999 -17.5s-31.666 5.66699 -42.999 17s-17 25.666 -17 42.999s5.66699 31.666 17 42.999s25.666 17 42.999 17s31.666 -5.66699 42.999 -17s17 -25.666 17 -42.999zM174 23.002
c0 -18 -3.33203 -35.501 -9.99902 -52.501s-14.334 -31 -23.001 -42s-18.167 -21.167 -28.5 -30.5s-18.166 -15.666 -23.499 -18.999l-11 -7l-28 28c4.66699 3.33301 9.33398 8.33301 14.001 15c6.66699 6.66699 14.334 17.667 23.001 33
c9.33301 16 13.666 29.667 12.999 41c-14.667 2 -27 8.83301 -37 20.5s-15 25.167 -15 40.5c0 16.667 5.66699 30.5 17 41.5s25.666 16.5 42.999 16.5c19.333 0 35.166 -7.83301 47.499 -23.5s18.5 -36.167 18.5 -61.5z" />
    <glyph glyph-name="less" unicode="&#x3c;" horiz-adv-x="600" 
d="M523 99l-466 216v70l466 218v-85l-358 -168l358 -167v-84z" />
    <glyph glyph-name="equal" unicode="=" horiz-adv-x="600" 
d="M67 427v77h466v-77h-466zM67 196v77h466v-77h-466z" />
    <glyph glyph-name="greater" unicode="&#x3e;" horiz-adv-x="600" 
d="M543 385v-70l-466 -216v84l358 167l-358 168v85z" />
    <glyph glyph-name="question" unicode="?" horiz-adv-x="549" 
d="M415 507c0 34 -15.0029 62.335 -45.0029 85.002c-29.333 23.333 -65.666 35 -108.999 35c-36 0 -67.667 -8.33301 -95 -25s-46 -39 -56 -67l-86 25c15.333 45.333 44 81.666 86 108.999c42.667 28 92.334 42 149.001 42c68 0 125.667 -19.667 173 -59
s71 -87.666 71 -144.999c0 -28 -6.33301 -54.833 -19 -80.5s-29 -46.5 -49 -62.5c-38.667 -32.667 -73 -54.334 -103 -65.001l-20 -7l-4 -83h-73l-9 132c14.667 4 36.334 12.667 65.001 26c22.667 11.333 42 22.666 58 33.999c18 13.333 33.5 29.5 46.5 48.5
s19.5 38.167 19.5 57.5zM210.997 49.002c0 16.667 5.8291 30.834 17.4961 42.501s25.834 17.5 42.501 17.5s30.834 -5.83301 42.501 -17.5s17.5 -25.834 17.5 -42.501c0 -17.333 -5.66699 -31.666 -17 -42.999s-25.666 -17 -42.999 -17s-31.666 5.66699 -42.999 17
s-17 25.666 -17 42.999z" />
    <glyph glyph-name="at" unicode="@" horiz-adv-x="992" 
d="M496 711c126.667 0 233.666 -41.998 320.999 -125.998c87.333 -83.333 131 -184 131 -302c0 -70.667 -16.333 -129.334 -49 -176.001c-32.667 -46 -74.667 -69 -126 -69c-29.333 0 -55.5 7.5 -78.5 22.5s-39.833 35.167 -50.5 60.5
c-41.333 -55.333 -96.666 -83 -165.999 -83c-59.333 0 -109 21 -149 63c-40 43.333 -60 96.333 -60 159c0 63.333 20 116 60 158c40 42.667 89.667 64 149 64c62.667 0 114.334 -23 155.001 -69v59h68v-297c0 -20.667 7.16699 -37.834 21.5 -51.501s31.833 -20.5 52.5 -20.5
c30.667 0 55.834 16.333 75.501 49s29.5 74.667 29.5 126c0 101.333 -37 187.333 -111 258c-74.667 71.333 -166 107 -274 107c-108.667 0 -199.667 -36.667 -273 -110s-110 -164.333 -110 -273c0 -109.333 36.333 -200.333 109 -273
c73.333 -73.333 163.666 -110 270.999 -110c65.333 0 123.666 14.667 174.999 44l23 -61c-60 -34 -127 -51 -201 -51c-125.333 0 -231 43 -317 129c-85.333 86.667 -128 194 -128 322c0 128.667 43 236 129 322c87.333 86 195 129 323 129zM485.999 107.002
c42 0 77 14.667 105 44c28 28.667 42 65 42 109s-14 80.333 -42 109c-28 29.333 -63 44 -105 44c-41.333 0 -76 -14.667 -104 -44c-28 -28.667 -42 -65 -42 -109s14 -80.333 42 -109c28 -29.333 62.667 -44 104 -44z" />
    <glyph glyph-name="A" unicode="A" horiz-adv-x="721" 
d="M112 0h-95l307 700h73l307 -700h-95l-68 157h-361zM504 241l-143 330l-144 -330h287z" />
    <glyph glyph-name="B" unicode="B" horiz-adv-x="691" 
d="M430 0h-352v700h332c56 0 103.333 -17.667 142 -53c38.667 -34.667 58 -78 58 -130c0 -63.333 -26.333 -112.333 -79 -147c34.667 -16 62.167 -39.5 82.5 -70.5s30.5 -65.5 30.5 -103.5c0 -55.333 -20.667 -102 -62 -140c-41.333 -37.333 -92 -56 -152 -56zM430 322
h-262.001v-238h262c34 0 62.5 11.333 85.5 34s34.5 51 34.5 85c0 32.667 -11.667 60.667 -35 84s-51.666 35 -84.999 35zM409.999 616h-242v-210h242c30.667 0 56.167 10 76.5 30s30.5 45 30.5 75s-10.167 55 -30.5 75s-45.833 30 -76.5 30z" />
    <glyph glyph-name="C" unicode="C" horiz-adv-x="776" 
d="M412 711c68 0 129.834 -16.1689 185.501 -48.502s99.5 -76.833 131.5 -133.5l-88 -33c-24 40 -56 71.333 -96 94s-84.333 34 -133 34c-76.667 0 -140.334 -26.333 -191.001 -79c-51.333 -52.667 -77 -117.667 -77 -195s25.667 -142.666 77 -195.999
c51.333 -52 115 -78 191 -78c48.667 0 93 11.333 133 34s72 54 96 94l88 -33c-32 -56.667 -75.833 -101.167 -131.5 -133.5s-117.5 -48.5 -185.5 -48.5c-103.333 0 -189.333 34.333 -258 103s-103 154.667 -103 258c0 102.667 34.333 188.334 103 257.001
c69.333 69.333 155.333 104 258 104z" />
    <glyph glyph-name="D" unicode="D" horiz-adv-x="767" 
d="M355 0h-277v700h277c102 0 187.667 -33.667 257 -101s104 -150.333 104 -249s-34.667 -181.667 -104 -249s-155 -101 -257 -101zM355 616l-186.999 0.000976562v-532h187c75.333 0 138.666 25.667 189.999 77s77 114.333 77 189c0 75.333 -25.667 138.666 -77 189.999
c-50.667 50.667 -114 76 -190 76z" />
    <glyph glyph-name="E" unicode="E" horiz-adv-x="626" 
d="M78 700h504v-84h-414v-220h363v-84h-363v-228h419v-84h-509v700z" />
    <glyph glyph-name="F" unicode="F" 
d="M78 700h504v-84h-414v-216h363v-84h-363v-316h-90v700z" />
    <glyph glyph-name="G" unicode="G" horiz-adv-x="819" 
d="M51 350c0 102.667 35.002 188.667 105.002 258c69.333 68.667 156.666 103 261.999 103c69.333 0 132.166 -16.167 188.499 -48.5s100.5 -76.833 132.5 -133.5l-88 -33c-24 40 -56.5 71.333 -97.5 94s-86.167 34 -135.5 34c-77.333 0 -142.333 -26.333 -195 -79
c-52.667 -52 -79 -117 -79 -195s25.333 -143.333 76 -196c50.667 -52 113 -78 187 -78c63.333 0 119.666 19.667 168.999 59c49.333 40 79.333 91 90 153h-278v84h379c1.33301 -16 2 -26 2 -30c-2 -100.667 -37.333 -184.667 -106 -252
c-69.333 -67.333 -153.666 -101 -252.999 -101c-102 0 -187.333 34.333 -256 103s-103 154.667 -103 258z" />
    <glyph glyph-name="H" unicode="H" horiz-adv-x="752" 
d="M168 0h-90v700h90v-304h415v304h91v-700h-91v312h-415v-312z" />
    <glyph glyph-name="I" unicode="I" horiz-adv-x="246" 
d="M168 0h-90v700h90v-700z" />
    <glyph glyph-name="J" unicode="J" horiz-adv-x="595" 
d="M523 700v-449c0 -74.667 -25.667 -137 -77 -187c-50.667 -50 -114.667 -75 -192 -75c-48 0 -92 10.667 -132 32s-72 50.333 -96 87l75 49c15.333 -26 36.5 -46.5 63.5 -61.5s57.167 -22.5 90.5 -22.5c51.333 0 94.333 17 129 51s52 76.333 52 127v449h87z" />
    <glyph glyph-name="K" unicode="K" horiz-adv-x="643" 
d="M626 0h-116l-329 357l309 343h116l-309 -343zM78 0v700h90v-700h-90z" />
    <glyph glyph-name="L" unicode="L" horiz-adv-x="577" 
d="M78 700h90v-616h379v-84h-469v700z" />
    <glyph glyph-name="M" unicode="M" horiz-adv-x="899" 
d="M168 0h-90v700h90l282 -492l281 492h90v-700h-90v529l-252 -442h-59l-252 441v-528z" />
    <glyph glyph-name="N" unicode="N" horiz-adv-x="755" 
d="M165 0h-87v700h79l433 -544v544h87v-700h-79l-433 544v-544z" />
    <glyph glyph-name="O" unicode="O" horiz-adv-x="824" 
d="M412 711c102.667 0 188.667 -34.668 258 -104.001s104 -155 104 -257c0 -102.667 -34.667 -188.667 -104 -258c-68.667 -68.667 -154.667 -103 -258 -103s-189.333 34.333 -258 103s-103 154.667 -103 258c0 102.667 34.333 188.334 103 257.001
c69.333 69.333 155.333 104 258 104zM412 75.999c76 0 139.669 26 191.002 78c51.333 53.333 77 118.666 77 195.999s-25.667 142.333 -77 195c-50.667 52.667 -114.334 79 -191.001 79s-140.334 -26.333 -191.001 -79c-51.333 -52.667 -77 -117.667 -77 -195
s25.667 -142.666 77 -195.999c51.333 -52 115 -78 191 -78z" />
    <glyph glyph-name="P" unicode="P" horiz-adv-x="657" 
d="M168 268v-268.002h-90v700h307c64.667 0 118.667 -20.667 162 -62s65 -92.666 65 -153.999s-21.667 -112.666 -65 -153.999s-97.333 -62 -162 -62h-217zM385 615.998l-217 0.000976562v-264h217c38 0 69.667 12.667 95 38s38 56.666 38 93.999
c0 38 -12.667 69.5 -38 94.5s-57 37.5 -95 37.5z" />
    <glyph glyph-name="Q" unicode="Q" horiz-adv-x="824" 
d="M412 -11c-103.333 0 -189.333 34.332 -258 102.999s-103 154.667 -103 258c0 102.667 34.333 188.334 103 257.001c69.333 69.333 155.333 104 258 104s188.667 -34.667 258 -104s104 -155 104 -257c0 -96 -30.333 -177.333 -91 -244l95 -95l-62 -61l-99 99
c-60.667 -40 -129 -60 -205 -60zM412 623.999c-76.667 0 -140.333 -26.335 -191 -79.002c-51.333 -52.667 -77 -117.667 -77 -195s25.667 -142.666 77 -195.999c51.333 -52 115 -78 191 -78c50.667 0 97.334 12.667 140.001 38l-120 120l61 61l125 -124
c41.333 50.667 62 110.334 62 179.001c0 77.333 -25.667 142.333 -77 195c-50.667 52.667 -114.334 79 -191.001 79z" />
    <glyph glyph-name="R" unicode="R" horiz-adv-x="679" 
d="M78 700l317 -0.00292969c64.667 0 118.667 -20.667 162 -62s65 -92.666 65 -153.999c0 -47.333 -13.167 -89.166 -39.5 -125.499s-61.833 -62.166 -106.5 -77.499l172 -281h-101l-164 268h-215v-268h-90v700zM395 615.997l-227 0.000976562v-264h227
c38 0 69.667 12.667 95 38s38 56.666 38 93.999c0 38 -12.667 69.5 -38 94.5s-57 37.5 -95 37.5z" />
    <glyph glyph-name="S" unicode="S" 
d="M545 555l-88.9961 -25.999c-6 26.667 -23.167 49.167 -51.5 67.5s-61.5 27.5 -99.5 27.5c-42 0 -76.667 -10.333 -104 -31c-27.333 -20 -41 -45.333 -41 -76c0 -33.333 18.667 -59.333 56 -78c29.333 -14 74.333 -28.667 135 -44
c49.333 -12.667 87.666 -25.667 114.999 -39c64 -30 97.667 -82.333 101 -157c0 -62.667 -24 -113.334 -72 -152.001c-46.667 -38.667 -107.334 -58 -182.001 -58c-67.333 0 -124.666 15.667 -171.999 47c-47.333 30.667 -77.333 70.667 -90 120l90 27
c5.33301 -30.667 24.166 -56.167 56.499 -76.5s70.833 -30.5 115.5 -30.5c46.667 0 85.667 10.667 117 32c31.333 22 47 50 47 84c0 34.667 -16.667 60.667 -50 78c-29.333 15.333 -63 27.666 -101 36.999l-42 11l-39 12l-41 14c-2 0.666992 -4.83301 1.83398 -8.5 3.50098
l-13.5 6c-5.33301 2.33301 -10 4.5 -14 6.5c-16.667 8 -36.334 22.333 -59.001 43c-22.667 22.667 -36 58.667 -40 108c0 59.333 22 107.333 66 144c44.667 37.333 101 56 169 56c61.333 0 113.666 -14.667 156.999 -44c44 -28.667 72 -66 84 -112z" />
    <glyph glyph-name="T" unicode="T" horiz-adv-x="668" 
d="M289 616h-262v84h614v-84h-262v-616h-90v616z" />
    <glyph glyph-name="U" unicode="U" horiz-adv-x="732" 
d="M573 280l-0.000976562 419.999h91v-420c0 -82.667 -28.667 -152 -86 -208c-57.333 -55.333 -128 -83 -212 -83c-84.667 0 -155.667 27.667 -213 83c-56.667 56 -85 125.333 -85 208v420h90v-420c0 -59.333 19.667 -108.666 59 -147.999
c40.667 -39.333 90.334 -59 149.001 -59s107.667 19.667 147 59c40 40 60 89.333 60 148z" />
    <glyph glyph-name="V" unicode="V" horiz-adv-x="711" 
d="M392 0h-73l-302 700h95l244 -570l23 56l220 514h95z" />
    <glyph glyph-name="W" unicode="W" horiz-adv-x="1015" 
d="M330 0h-72l-241 700h93l183 -556l179 556h72l179 -554l183 554h92l-240 -700h-73l-177 544z" />
    <glyph glyph-name="X" unicode="X" horiz-adv-x="677" 
d="M284 357l-257 343h108l204 -271l203 271h108l-257 -343l267 -357h-108l-213 284l-214 -284h-108z" />
    <glyph glyph-name="Y" unicode="Y" horiz-adv-x="671" 
d="M289 285l-272 415h104l213 -329l215 329h104l-273 -411v-289h-91v285z" />
    <glyph glyph-name="Z" unicode="Z" horiz-adv-x="640" 
d="M601 84v-84h-556v69l428 547h-425v84h551v-69l-427 -547h429z" />
    <glyph glyph-name="bracketleft" unicode="[" horiz-adv-x="296" 
d="M142 -104h137v-71h-215v975h215v-71h-137v-833z" />
    <glyph glyph-name="backslash" unicode="\" horiz-adv-x="533" 
d="M78 799l455 -974h-79l-454 974h78z" />
    <glyph glyph-name="bracketright" unicode="]" horiz-adv-x="296" 
d="M232 -175h-215v71h137v833h-137v71h215v-975z" />
    <glyph glyph-name="asciicircum" unicode="^" horiz-adv-x="600" 
d="M67 413l198 287h70l198 -286h-91l-142 196l-142 -197h-91z" />
    <glyph glyph-name="underscore" unicode="_" horiz-adv-x="274" 
d="M0 -128v78h274v-78h-274z" />
    <glyph glyph-name="grave" unicode="`" horiz-adv-x="331" 
d="M247 708l-193 96l40 74l183 -118z" />
    <glyph glyph-name="a" unicode="a" horiz-adv-x="645" 
d="M300 531c78 0 141.333 -28.333 190 -85v74h84v-520h-84v74c-48.667 -56.667 -112 -85 -190 -85c-72.667 0 -133.667 25.667 -183 77c-48.667 51.333 -73 116 -73 194s24.333 142.333 73 193c48.667 52 109.667 78 183 78zM309 447
c-50 0 -92.332 -18.001 -126.999 -54.001c-34 -35.333 -51 -79.666 -51 -132.999s17 -98 51 -134c35.333 -35.333 77.666 -53 126.999 -53c50.667 0 93 17.667 127 53c34.667 35.333 52 80 52 134s-17.333 98.333 -52 133c-34 36 -76.333 54 -127 54z" />
    <glyph glyph-name="b" unicode="b" horiz-adv-x="645" 
d="M71 0v750h84v-304c48.667 56.667 111.667 85 189 85c73.333 0 134.333 -26 183 -78c49.333 -51.333 74 -115.666 74 -192.999c0 -76.667 -24.667 -141.334 -74 -194.001c-49.333 -51.333 -110.333 -77 -183 -77c-77.333 0 -140.333 28.333 -189 85v-74h-84zM335 447
c-50 0 -92.332 -18.001 -126.999 -54.001c-34 -35.333 -51 -79.666 -51 -132.999s17 -98 51 -134c35.333 -35.333 77.666 -53 126.999 -53c50.667 0 93 17.667 127 53c34.667 35.333 52 80 52 134s-17.333 98.333 -52 133c-34 36 -76.333 54 -127 54z" />
    <glyph glyph-name="c" unicode="c" horiz-adv-x="599" 
d="M563 374l-83.998 -25c-15.333 30 -37.5 53.833 -66.5 71.5s-61.5 26.5 -97.5 26.5c-52.667 0 -96.334 -18 -131.001 -54c-35.333 -35.333 -53 -79.666 -53 -132.999c0 -52.667 17.667 -97.334 53 -134.001c35.333 -35.333 79 -53 131 -53c36 0 68.5 8.83301 97.5 26.5
s51.167 41.5 66.5 71.5l84 -25c-21.333 -48.667 -54.166 -87 -98.499 -115s-94.166 -42 -149.499 -42c-76.667 0 -141.334 25.667 -194.001 77c-51.333 52.667 -77 117.334 -77 194.001c0 77.333 25.667 141.666 77 192.999c52 52 116.667 78 194 78
c55.333 0 105.166 -14 149.499 -42s77.166 -66.333 98.499 -115z" />
    <glyph glyph-name="d" unicode="d" horiz-adv-x="645" 
d="M300 531c78 0 141.333 -28.333 190 -85v304h84v-750h-84v74c-48.667 -56.667 -112 -85 -190 -85c-72.667 0 -133.667 25.667 -183 77c-48.667 51.333 -73 116 -73 194s24.333 142.333 73 193c48.667 52 109.667 78 183 78zM309 447
c-50 0 -92.332 -18.001 -126.999 -54.001c-34 -35.333 -51 -79.666 -51 -132.999s17 -98 51 -134c35.333 -35.333 77.666 -53 126.999 -53c50.667 0 93 17.667 127 53c34.667 35.333 52 80 52 134s-17.333 98.333 -52 133c-34 36 -76.333 54 -127 54z" />
    <glyph glyph-name="e" unicode="e" horiz-adv-x="616" 
d="M578 231h-447.002c6 -46.667 26.667 -85.667 62 -117c34.667 -30.667 77.334 -46 128.001 -46c66 0 117.333 25 154 75l82 -26c-24 -40 -56.833 -71.333 -98.5 -94s-87.5 -34 -137.5 -34c-78.667 0 -144.667 25.667 -198 77c-52.667 52 -79 116.667 -79 194
s25.667 141.666 77 192.999c51.333 52 115 78 191 78c76.667 0 140.334 -26 191.001 -78c51.333 -51.333 77 -115.666 77 -192.999c0 -2 -0.666992 -11.667 -2 -29zM131.998 299h361c-8 44.667 -29 81.667 -63 111c-33.333 28.667 -73.333 43 -120 43
c-45.333 0 -84.333 -14.333 -117 -43s-53 -65.667 -61 -111z" />
    <glyph glyph-name="f" unicode="f" horiz-adv-x="344" 
d="M188 587v-66.999h139v-74h-139v-446h-84v446h-87v74h87v77c0 43.333 14.667 79.666 44 108.999s65.666 44 108.999 44h69v-81h-63c-21.333 0 -39.166 -7.83301 -53.499 -23.5s-21.5 -35.167 -21.5 -58.5z" />
    <glyph glyph-name="g" unicode="g" horiz-adv-x="645" 
d="M300 -11c-72.667 0 -133.665 25.668 -182.998 77.001c-48.667 51.333 -73 116 -73 194s24.333 142.333 73 193c48.667 52 109.667 78 183 78c78 0 141.333 -28.333 190 -85v74h84v-498c0 -74 -25.333 -135.333 -76 -184c-51.333 -49.333 -113.666 -74 -186.999 -74
c-50.667 0 -98.334 12.667 -143.001 38c-43.333 25.333 -75 57.333 -95 96l84 27c14 -22.667 34.833 -41.167 62.5 -55.5s57.167 -21.5 88.5 -21.5c51.333 0 94.666 16.667 129.999 50s52.666 74.666 51.999 123.999v52c-48.667 -56.667 -112 -85 -190 -85zM309.002 447.001
c-50 0 -92.332 -18.001 -126.999 -54.001c-34 -35.333 -51 -79.666 -51 -132.999s17 -98 51 -134c35.333 -35.333 77.666 -53 126.999 -53c50.667 0 93 17.667 127 53c34.667 35.333 52 80 52 134s-17.333 98.333 -52 133c-34 36 -76.333 54 -127 54z" />
    <glyph glyph-name="h" unicode="h" horiz-adv-x="621" 
d="M71 0l0.000976562 750h84v-317c41.333 65.333 103.333 98 186 98c60 0 110.333 -19.667 151 -59c40 -38.667 60 -88 60 -148v-324h-84v302c0 42 -14.333 77.333 -43 106s-64.334 43 -107.001 43c-46 0 -84.667 -14.667 -116 -44s-47 -65 -47 -107v-300h-84z" />
    <glyph glyph-name="i" unicode="i" horiz-adv-x="226" 
d="M155 0h-84v520h84v-520zM71 605c-10.667 11.333 -16 25.333 -16 42s5.33301 30.334 16 41.001c11.333 11.333 25.333 17 42 17s30.667 -5.66699 42 -17c11.333 -10.667 17 -24.334 17 -41.001s-5.66699 -30.667 -17 -42c-11.333 -10.667 -25.333 -16 -42 -16
s-30.667 5.33301 -42 16z" />
    <glyph glyph-name="j" unicode="j" horiz-adv-x="234" 
d="M79 520l84 -0.000976562v-592c0 -43.333 -14.667 -79.666 -44 -108.999s-65.666 -44 -108.999 -44h-42v81h36c21.333 0 39.166 7.83301 53.499 23.5s21.5 35.167 21.5 58.5v582zM79 604.999c-11.333 11.333 -17 25.333 -17 42s5.66699 30.334 17 41.001
c11.333 11.333 25.333 17 42 17s30.334 -5.66699 41.001 -17c11.333 -10.667 17 -24.334 17 -41.001s-5.66699 -30.667 -17 -42c-10.667 -10.667 -24.334 -16 -41.001 -16s-30.667 5.33301 -42 16z" />
    <glyph glyph-name="k" unicode="k" horiz-adv-x="515" 
d="M71 0v750h84v-750h-84zM498 0h-105l-234 269l214 251h103l-213 -251z" />
    <glyph glyph-name="l" unicode="l" horiz-adv-x="226" 
d="M155 0h-84v750h84v-750z" />
    <glyph glyph-name="m" unicode="m" horiz-adv-x="958" 
d="M71 0v520h84v-76c39.333 58 96.333 87 171 87c37.333 0 71.5 -9 102.5 -27s54.833 -42.333 71.5 -73c11.333 20 29 40 53 60c32 26.667 75.667 40 131 40c58.667 0 107.334 -18.333 146.001 -55s58 -82.667 58 -138v-338h-84v315c0 38.667 -12.667 71 -38 97
s-57.333 39 -96 39c-42 0 -77.333 -13.333 -106 -40c-28 -26 -42 -58.333 -42 -97v-314h-84v315c0 38.667 -12.833 71 -38.5 97s-57.834 39 -96.501 39c-42 0 -77.333 -13.333 -106 -40c-28 -26 -42 -58.333 -42 -97v-314h-84z" />
    <glyph glyph-name="n" unicode="n" 
d="M71 0l-0.000976562 520h84v-87c41.333 65.333 103 98 185 98c60 0 109.667 -19.667 149 -59c40 -38.667 60 -88 60 -148v-324h-84v302c0 42 -14.333 77.333 -43 106c-28 28.667 -63 43 -105 43c-45.333 0 -83.666 -14.667 -114.999 -44s-47 -65 -47 -107v-300h-84z" />
    <glyph glyph-name="o" unicode="o" horiz-adv-x="631" 
d="M121 66c-51.333 52.667 -76.998 117.333 -76.998 194c0 77.333 25.667 141.666 77 192.999c52 52 116.667 78 194 78s142 -26 194 -78c52 -51.333 78 -115.666 78 -192.999s-26 -142 -78 -194c-52.667 -51.333 -117.334 -77 -194.001 -77s-141.334 25.667 -194.001 77z
M315.002 72.999c52.667 0 96.668 17.667 132.001 53c35.333 36.667 53 81.334 53 134.001c0 53.333 -17.667 97.666 -53 132.999c-35.333 36 -79.333 54 -132 54s-96.334 -18 -131.001 -54c-35.333 -35.333 -53 -79.666 -53 -132.999c0 -52.667 17.667 -97.334 53 -134.001
c35.333 -35.333 79 -53 131 -53z" />
    <glyph glyph-name="p" unicode="p" horiz-adv-x="645" 
d="M155 -225h-84v745h84v-74c48.667 56.667 111.667 85 189 85c73.333 0 134.333 -26 183 -78c49.333 -51.333 74 -115.666 74 -192.999c0 -76.667 -24.667 -141.334 -74 -194.001c-49.333 -51.333 -110.333 -77 -183 -77c-77.333 0 -140.333 28.333 -189 85v-299zM335 447
c-50 0 -92.332 -18.001 -126.999 -54.001c-34 -35.333 -51 -79.666 -51 -132.999s17 -98 51 -134c35.333 -35.333 77.666 -53 126.999 -53c50.667 0 93 17.667 127 53c34.667 35.333 52 80 52 134s-17.333 98.333 -52 133c-34 36 -76.333 54 -127 54z" />
    <glyph glyph-name="q" unicode="q" horiz-adv-x="645" 
d="M300 531c78 0 141.333 -28.333 190 -85v74h84v-745h-84v299c-48.667 -56.667 -112 -85 -190 -85c-72.667 0 -133.667 25.667 -183 77c-48.667 51.333 -73 116 -73 194s24.333 142.333 73 193c48.667 52 109.667 78 183 78zM309 447
c-50 0 -92.332 -18.001 -126.999 -54.001c-34 -35.333 -51 -79.666 -51 -132.999s17 -98 51 -134c35.333 -35.333 77.666 -53 126.999 -53c50.667 0 93 17.667 127 53c34.667 35.333 52 80 52 134s-17.333 98.333 -52 133c-34 36 -76.333 54 -127 54z" />
    <glyph glyph-name="r" unicode="r" horiz-adv-x="375" 
d="M155 294v-294h-84v520h84v-88c39.333 66 101 99 185 99h14v-93c-10.667 4 -23 6 -37 6c-46 0 -84.333 -14.333 -115 -43c-31.333 -29.333 -47 -65 -47 -107z" />
    <glyph glyph-name="s" unicode="s" horiz-adv-x="477" 
d="M424 407l-78.999 -14.002c-5.33301 20 -17.833 35.667 -37.5 47s-44.5 17 -74.5 17c-28.667 0 -52.5 -6.33301 -71.5 -19s-28.5 -29 -28.5 -49c0 -28 18.333 -48.333 55 -61l127 -45c79.333 -29.333 119 -76.666 119 -141.999c0 -47.333 -18 -84.5 -54 -111.5
s-83 -40.5 -141 -40.5c-55.333 0 -100.833 12.167 -136.5 36.5s-57.167 57.5 -64.5 99.5l79 14c5.33301 -22.667 19.166 -41 41.499 -55s49.833 -21 82.5 -21c32 0 58.833 7 80.5 21s32.5 32 32.5 54c0 31.333 -23 55 -69 71l-124 43
c-72.667 24.667 -109 68.334 -109 131.001c0 46.667 17.167 83 51.5 109s79.5 39 135.5 39c50 0 91.5 -11.167 124.5 -33.5s53.167 -52.5 60.5 -90.5z" />
    <glyph glyph-name="t" unicode="t" horiz-adv-x="362" 
d="M15 446v74.001h84v104h84v-104h145v-74h-145v-283c0 -23.333 7.16699 -42.833 21.5 -58.5s32.166 -23.5 53.499 -23.5h70v-81h-76c-43.333 0 -79.666 14.667 -108.999 44s-44 65.666 -44 108.999v293h-84z" />
    <glyph glyph-name="u" unicode="u" 
d="M69 196l-0.000976562 324h84v-302c0 -41.333 14 -76.666 42 -105.999c28.667 -28.667 64.334 -43 107.001 -43c45.333 0 83.333 14.333 114 43c31.333 29.333 47 65.333 47 108v300h84v-520h-84v86c-38.667 -64.667 -100 -97 -184 -97c-60 0 -110.333 19.667 -151 59
c-39.333 39.333 -59 88.666 -59 147.999z" />
    <glyph glyph-name="v" unicode="v" horiz-adv-x="552" 
d="M238 0l-224 520h87l175 -412l176 412h87l-224 -520h-77z" />
    <glyph glyph-name="w" unicode="w" horiz-adv-x="780" 
d="M264 0h-73l-177 520h85l127 -390l127 390h74l127 -391l128 391h85l-178 -520h-73l-126 380z" />
    <glyph glyph-name="x" unicode="x" horiz-adv-x="543" 
d="M424 0l-152 199l-153 -199h-100l203 266l-194 254h100l144 -187l143 187h100l-193 -254l202 -266h-100z" />
    <glyph glyph-name="y" unicode="y" horiz-adv-x="532" 
d="M190 -61l30.999 76l-207 505h87l163 -404l168 404h87l-256 -609c-19.333 -47.333 -44.166 -81.833 -74.499 -103.5s-68.833 -32.5 -115.5 -32.5h-24v81h24c54.667 0 93.667 27.667 117 83z" />
    <glyph glyph-name="z" unicode="z" horiz-adv-x="508" 
d="M40 0v65l308 377h-303v78h418v-65l-308 -377h313v-78h-428z" />
    <glyph glyph-name="braceleft" unicode="{" horiz-adv-x="323" 
d="M234 800l72 0.000976562v-71h-66c-17.333 0 -31.833 -6 -43.5 -18s-17.5 -27 -17.5 -45v-240c0 -30 -8 -54.833 -24 -74.5s-37.333 -32.5 -64 -38.5c26.667 -6.66699 48 -19.834 64 -39.501s24 -44.5 24 -74.5v-240c0 -18 5.83301 -33 17.5 -45s26.167 -18 43.5 -18h66
v-71h-72c-38 0 -69.667 12.833 -95 38.5s-38 57.5 -38 95.5v241c0 16.667 -6.83301 31.667 -20.5 45s-28.5 22.333 -44.5 27l-22 5v72c6.66699 0.666992 14.667 2.66699 24 6c11.333 3.33301 24.333 11 39 23c16 13.333 24 29.333 24 48v240c0 38 12.667 69.833 38 95.5
s57 38.5 95 38.5z" />
    <glyph glyph-name="bar" unicode="|" horiz-adv-x="200" 
d="M136 -175h-72v975h72v-975z" />
    <glyph glyph-name="braceright" unicode="}" horiz-adv-x="323" 
d="M17 729l-0.000976562 70.999h73c37.333 0 68.666 -13 93.999 -39c25.333 -25.333 38 -57 38 -95v-240c0 -17.333 6.83301 -32.5 20.5 -45.5s28.834 -21.833 45.501 -26.5l22 -5v-72c-6.66699 -1.33301 -17 -4.66602 -31 -9.99902c-38 -14.667 -57 -37 -57 -67v-241
c0 -38 -12.667 -69.667 -38 -95c-25.333 -26 -56.666 -39 -93.999 -39h-73v71h66c17.333 0 31.833 6 43.5 18s17.5 27 17.5 45v240c0 29.333 8 54 24 74s37.333 33.333 64 40c-26.667 6 -48 19 -64 39s-24 44.667 -24 74v240c0 18 -5.83301 33 -17.5 45s-26.167 18 -43.5 18
h-66z" />
    <glyph glyph-name="asciitilde" unicode="~" horiz-adv-x="600" 
d="M387 275c-21.333 -0.666992 -43.5 5.33301 -66.5 18s-44.167 25.334 -63.5 38.001s-35.333 18.667 -48 18c-18.667 0 -34.167 -6.5 -46.5 -19.5s-18.5 -29.167 -18.5 -48.5h-77c0 41.333 14 75.666 42 102.999c28.667 28 63 42 103 42c26 0 58.833 -12.333 98.5 -37
s66.5 -37 80.5 -37c18.667 0 34 6.5 46 19.5s18 29.167 18 48.5h78c-1.33301 -42 -16 -76.667 -44 -104c-28.667 -27.333 -62.667 -41 -102 -41z" />
    <glyph glyph-name="exclamdown" unicode="&#xa1;" horiz-adv-x="246" 
d="M183 471c0 -16.667 -5.83203 -30.833 -17.499 -42.5s-25.834 -17.5 -42.501 -17.5c-26 -2.66699 -44.333 9.5 -55 36.5s-6.66699 49.167 12 66.5c17.333 18.667 39.5 22.667 66.5 12s39.167 -29 36.5 -55zM78.001 -179.999l9 491h73l8 -491h-90z" />
    <glyph glyph-name="cent" unicode="&#xa2;" horiz-adv-x="599" 
d="M283 -30v111c-69.333 7.33301 -126.666 36 -171.999 86c-44.667 50.667 -67 111.667 -67 183c0 72 22.333 132.667 67 182c44.667 50.667 102 79.667 172 87v111h65v-111c49.333 -5.33301 92.666 -21.5 129.999 -48.5s65.666 -62.5 84.999 -106.5l-84 -25
c-15.333 30 -37.5 53.833 -66.5 71.5s-61.5 26.5 -97.5 26.5c-52.667 0 -96.334 -18 -131.001 -54c-35.333 -35.333 -53 -79.666 -53 -132.999c0 -52.667 17.667 -97.334 53 -134.001c35.333 -35.333 79 -53 131 -53c36 0 68.5 8.83301 97.5 26.5s51.167 41.5 66.5 71.5
l84 -25c-19.333 -44 -47.666 -79.5 -84.999 -106.5s-80.666 -43.167 -129.999 -48.5v-111h-65z" />
    <glyph glyph-name="sterling" unicode="&#xa3;" horiz-adv-x="584" 
d="M541 0h-506.999v84h87v216h-70v64h70v139c0 60 20.333 109.333 61 148c41.333 40 91.666 60 150.999 60c49.333 0 95.333 -14.667 138 -44s71.334 -66.333 86.001 -111l-87 -25c-10 28 -27.667 51 -53 69s-53 27 -83 27c-34.667 0 -64.334 -12 -89.001 -36
s-37 -53.333 -37 -88v-139h202v-64h-202v-216h333v-84z" />
    <glyph glyph-name="currency" unicode="&#xa4;" horiz-adv-x="596" 
d="M115 119l-50.998 50l76 76c-20.667 29.333 -31 64.333 -31 105c0 40 10.667 75.667 32 107l-76 77l50 50l77 -77c32.667 21.333 67.667 32 105 32c39.333 0 74.666 -10.667 105.999 -32l78 77l50 -50l-78 -77c22 -30 33 -65.667 33 -107
c0 -40.667 -10.667 -75.667 -32 -105l76 -77l-50 -49l-75 75c-31.333 -22 -67.333 -33 -108 -33s-76.334 11 -107.001 33zM297.002 468c-33.333 0 -61.166 -11.333 -83.499 -34s-33.5 -50.667 -33.5 -84s11.167 -61.333 33.5 -84s50.166 -34 83.499 -34s61.333 11.333 84 34
s34 50.667 34 84s-11.167 61.333 -33.5 84s-50.5 34 -84.5 34z" />
    <glyph glyph-name="yen" unicode="&#xa5;" horiz-adv-x="671" 
d="M289 267v19l-272 414h104l213 -329l215 329h104l-273 -412v-21h151v-65h-151v-62h151v-65h-151v-75h-91v75h-151v65h151v62h-151v65h151z" />
    <glyph glyph-name="brokenbar" unicode="&#xa6;" horiz-adv-x="200" 
d="M136 800v-406h-72v406h72zM64 -175v406h72v-406h-72z" />
    <glyph glyph-name="section" unicode="&#xa7;" horiz-adv-x="472" 
d="M238 -186c-50.667 0 -94.334 13.3311 -131.001 39.998c-37.333 27.333 -60.333 61.666 -69 102.999l77 29c6 -30 20.333 -54.167 43 -72.5s50 -27.5 82 -27.5s58.833 9.33301 80.5 28s32.5 42.334 32.5 71.001c0 41.333 -20.333 71.333 -61 90l-132 60
c-69.333 33.333 -104 85.333 -104 156c0 52.667 19.333 94.334 58 125.001c-38.667 30 -58 71 -58 123c0 49.333 17.333 90.333 52 123s78 49 130 49c46 0 86.167 -12.167 120.5 -36.5s56.5 -56.5 66.5 -96.5l-77 -29c-6 26.667 -19 48.334 -39 65.001s-44 25 -72 25
c-28.667 0 -52.5 -9.33301 -71.5 -28s-28.5 -42 -28.5 -70c0 -42 15.333 -70 46 -84l140 -60c34.667 -15.333 61.834 -37 81.501 -65s29.5 -59.333 29.5 -94c0 -50.667 -20 -93 -60 -127c40 -30 60 -70.667 60 -122c0 -50 -18.667 -91.667 -56 -125s-84 -50 -140 -50z
M286 332.998l-103 43.998c-12.667 -6 -23.5 -17.167 -32.5 -33.5s-13.5 -33.833 -13.5 -52.5c0 -42 17.667 -71.333 53 -88l112 -51c34 18.667 51 47.334 51 86.001c0 44.667 -22.333 76.334 -67 95.001z" />
    <glyph glyph-name="dieresis" unicode="&#xa8;" horiz-adv-x="429" 
d="M111 818c15.333 0 28.5 -5.33301 39.5 -16s16.5 -24 16.5 -40s-5.5 -29.333 -16.5 -40s-24.167 -16 -39.5 -16c-16 0 -29.5 5.33301 -40.5 16s-16.5 24 -16.5 40s5.5 29.333 16.5 40s24.5 16 40.5 16zM278 722c-10.667 10.667 -16 24 -16 40s5.33301 29.333 16 40
s24 16 40 16s29.333 -5.33301 40 -16s16 -24 16 -40s-5.33301 -29.333 -16 -40s-24 -16 -40 -16s-29.333 5.33301 -40 16z" />
    <glyph glyph-name="copyright" unicode="&#xa9;" horiz-adv-x="816" 
d="M155 97c-69.333 70.667 -104 155 -104 253c0 98.667 34.667 182.667 104 252c70 70 154.333 105 253 105s182.667 -35 252 -105c70 -69.333 105 -153.333 105 -252s-35 -183 -105 -253c-69.333 -69.333 -153.333 -104 -252 -104c-98 0 -182.333 34.667 -253 104zM90 350
c0 -86.667 31 -161.667 93 -225c63.333 -62 138.333 -93 225 -93c87.333 0 162 31 224 93c62.667 62.667 94 137.667 94 225c0 88 -31.333 163 -94 225c-62 62 -136.667 93 -224 93c-86.667 0 -161.667 -31 -225 -93c-62 -62 -93 -137 -93 -225zM413 539
c37.333 0 71.001 -8.66699 101.001 -26s53 -41 69 -71l-55 -21c-25.333 42 -63.666 63 -114.999 63c-38 0 -69.333 -13 -94 -39c-25.333 -25.333 -38 -57 -38 -95c0 -37.333 12.667 -69.333 38 -96c25.333 -25.333 56.666 -38 93.999 -38c51.333 0 89.666 21 114.999 63
l55 -21c-16.667 -30 -40 -53.667 -70 -71s-63.333 -26 -100 -26c-54 0 -99.667 18 -137 54c-36 36 -54 81 -54 135s18 99 54 135c37.333 36 83 54 137 54z" />
    <glyph glyph-name="ordfeminine" unicode="&#xaa;" horiz-adv-x="445" 
d="M201 705c54 0 97.333 -20.333 130 -61v56h69v-364h-69v56c-32.667 -40.667 -76 -61 -130 -61c-49.333 0 -90.666 17.667 -123.999 53c-33.333 36.667 -50 81.334 -50 134.001c0 53.333 16.667 97.666 50 132.999c33.333 36 74.666 54 123.999 54zM296 603
c-22 23.333 -49.334 35 -82.001 35c-32 0 -59.667 -11.667 -83 -35c-22 -23.333 -33 -51.666 -33 -84.999c0 -34.667 11 -63.334 33 -86.001c22.667 -22.667 50.334 -34 83.001 -34s60 11.333 82 34s33 51.334 33 86.001c0 33.333 -11 61.666 -33 84.999z" />
    <glyph glyph-name="guillemotleft" unicode="&#xab;" horiz-adv-x="528" 
d="M223 74l-186 186l186 186l50 -50l-136 -136l136 -136zM428 74l-186 186l186 186l50 -50l-137 -136l137 -136z" />
    <glyph glyph-name="logicalnot" unicode="&#xac;" horiz-adv-x="600" 
d="M458 164v147h-391v78h466v-225h-75z" />
    <glyph glyph-name="uni00AD" unicode="&#xad;" horiz-adv-x="400" 
d="M67 221v78h266v-78h-266z" />
    <glyph glyph-name="registered" unicode="&#xae;" horiz-adv-x="816" 
d="M155 97c-69.333 70.667 -104 155 -104 253c0 98.667 34.667 182.667 104 252c70 70 154.333 105 253 105s182.667 -35 252 -105c70 -69.333 105 -153.333 105 -252s-35 -183 -105 -253c-69.333 -69.333 -153.333 -104 -252 -104c-98 0 -182.333 34.667 -253 104zM726 350
c0 88 -31.333 163 -94 225c-62 62 -136.667 93 -224 93c-86.667 0 -161.667 -31 -225 -93c-62 -62 -93 -137 -93 -225c0 -86.667 31 -161.667 93 -225c63.333 -62 138.333 -93 225 -93c87.333 0 162 31 224 93c62.667 62.667 94 137.667 94 225zM328 165h-58v370h169
c35.333 0 65 -11.333 89 -34s36 -50.667 36 -84c0 -24 -6.66699 -45.833 -20 -65.5s-31 -34.167 -53 -43.5l85 -143h-64l-79 133h-105v-133zM439 482h-111v-130h111c18.667 0 34.334 6.16699 47.001 18.5s19 27.833 19 46.5s-6.33301 34.167 -19 46.5
s-28.334 18.5 -47.001 18.5z" />
    <glyph glyph-name="overscore" unicode="&#xaf;" horiz-adv-x="397" 
d="M343 733h-289v71h289v-71z" />
    <glyph glyph-name="degree" unicode="&#xb0;" horiz-adv-x="393" 
d="M83 488c-30.667 30.667 -46 68.667 -46 114s15.333 83 46 113c30.667 30.667 68.667 46 114 46s83 -15.333 113 -46c30.667 -30 46 -67.667 46 -113s-15.333 -83.333 -46 -114c-30 -30 -67.667 -45 -113 -45c-44.667 0 -82.667 15 -114 45zM113 602
c0 -23.333 8 -43.166 24 -59.499s35.667 -24.5 59 -24.5c24 0 44 8.16699 60 24.5s24 36.166 24 59.499c0 24 -8 44 -24 60s-36 24 -60 24c-23.333 0 -43 -8 -59 -24s-24 -36 -24 -60z" />
    <glyph glyph-name="plusminus" unicode="&#xb1;" horiz-adv-x="600" 
d="M261 384h-194v78h194v194h78v-194h194v-78h-194v-167h-78v167zM67 68v78h466v-78h-466z" />
    <glyph glyph-name="twosuperior" unicode="&#xb2;" horiz-adv-x="320" 
d="M230 636c0 18 -7.33203 33.332 -21.999 45.999s-32.334 19 -53.001 19c-38 0 -65.667 -20.667 -83 -62l-52 25c12 28 30 50 54 66s51 24 81 24c37.333 0 68.333 -11.333 93 -34c26 -22.667 39 -50 39 -82c0 -37.333 -27 -80.666 -81 -129.999l-93 -90h180v-53h-267v40
l144 138c40 38 60 69 60 93z" />
    <glyph glyph-name="threesuperior" unicode="&#xb3;" horiz-adv-x="326" 
d="M232 643c0 16 -7.33301 29.667 -22 41s-32.667 17 -54 17c-39.333 0 -65.666 -14.667 -78.999 -44l-49 19c10.667 24 27.667 43 51 57s50 21 80 21c37.333 0 68.5 -10.5 93.5 -31.5s37.5 -47.167 37.5 -78.5c0 -36 -19 -62.667 -57 -80c44 -17.333 66 -46.666 66 -87.999
c0 -32.667 -13.333 -60 -40 -82s-60 -33 -100 -33c-32 0 -60.167 7.33301 -84.5 22s-41.5 34 -51.5 58l53 19c10.667 -30 37.667 -45 81 -45c24.667 0 45 6 61 18s24 27 24 45c0 17.333 -7.83301 32 -23.5 44s-35.167 18 -58.5 18h-29v43h20
c23.333 0 42.666 5.66699 57.999 17s23 25.666 23 42.999z" />
    <glyph glyph-name="acute" unicode="&#xb4;" horiz-adv-x="331" 
d="M84 708l-30 52l183 118l40 -74z" />
    <glyph glyph-name="mu" unicode="&#xb5;" 
d="M69 -225l-0.000976562 744.999h84v-302c0 -41.333 14 -76.666 42 -105.999c28.667 -28.667 64.334 -43 107.001 -43c45.333 0 83.333 14.333 114 43c31.333 29.333 47 65.333 47 108v300h84v-520h-84v86c-38.667 -64.667 -100 -97 -184 -97
c-47.333 0 -89.333 12.667 -126 38v-252h-84z" />
    <glyph glyph-name="paragraph" unicode="&#xb6;" horiz-adv-x="679" 
d="M247 700h398v-65h-107v-810h-71v810h-149v-810h-71v478c-56 0 -103.333 18.667 -142 56c-38 38 -57 85.333 -57 142s19 104 57 142s85.333 57 142 57z" />
    <glyph glyph-name="middot" unicode="&#xb7;" horiz-adv-x="215" 
d="M65 307c-11.333 11.333 -17 25.666 -17 42.999s5.66699 31.666 17 42.999s25.666 17 42.999 17s31.666 -5.66699 42.999 -17s17 -25.666 17 -42.999s-5.66699 -31.666 -17 -42.999s-25.666 -17 -42.999 -17s-31.666 5.66699 -42.999 17z" />
    <glyph glyph-name="cedilla" unicode="&#xb8;" horiz-adv-x="279" 
d="M102 -86l20.0029 86h65l-12 -53c2 0 4.66699 -0.5 8 -1.5s9.16602 -3.33301 17.499 -7s15.666 -8 21.999 -13s12.166 -12.167 17.499 -21.5s8 -20 8 -32c0 -25.333 -10.667 -46.5 -32 -63.5s-48.333 -25.5 -81 -25.5c-34 0 -62.333 8.33301 -85 25l-12 8l14 46
c17.333 -18 40.333 -27 69 -27c17.333 0 32 3.66699 44 11s18 16 18 26s-6.33301 18.667 -19 26s-26.667 12 -42 14z" />
    <glyph glyph-name="onesuperior" unicode="&#xb9;" horiz-adv-x="236" 
d="M121 683l-77 -39l-21 47l115 59h39v-385h-56v318z" />
    <glyph glyph-name="ordmasculine" unicode="&#xba;" horiz-adv-x="436" 
d="M81 384c-36 36 -54 80.668 -54 134.001s18 97.666 54 132.999c37.333 36 83 54 137 54c54.667 0 100 -18 136 -54c36.667 -34.667 55 -79 55 -133c0 -53.333 -18.333 -98 -55 -134c-36.667 -35.333 -82 -53 -136 -53s-99.667 17.667 -137 53zM219 398.001
c32.667 0 60.666 11.668 83.999 35.001s35 51.666 35 84.999s-11.667 61.666 -35 84.999s-51.666 35 -84.999 35c-34.667 0 -63.667 -11.667 -87 -35c-22.667 -22.667 -34 -51 -34 -85c0 -33.333 11.667 -61.666 35 -84.999s52.333 -35 87 -35z" />
    <glyph glyph-name="guillemotright" unicode="&#xbb;" horiz-adv-x="528" 
d="M305 446l186 -186l-186 -186l-50 50l137 136l-137 136zM101 446l186 -186l-186 -186l-50 50l136 136l-136 136z" />
    <glyph glyph-name="onequarter" unicode="&#xbc;" horiz-adv-x="783" 
d="M654 301l-141 -170h141v170zM654 0v77h-207v54l211 254h52v-254h54v-54h-54v-77h-56zM121 315v318l-77 -39l-21 47l115 59h39v-385h-56zM653 700l-492 -700h-76l492 700h76z" />
    <glyph glyph-name="onehalf" unicode="&#xbd;" horiz-adv-x="807" 
d="M121 315v318l-77 -39l-21 47l115 59h39v-385h-56zM653 700l-492 -700h-76l492 700h76zM716 271c0 18 -7.16699 33.333 -21.5 46s-31.833 19 -52.5 19c-38 0 -66 -20.667 -84 -62l-51 25c12 28 30 50 54 66s51 24 81 24c37.333 0 68.333 -11.333 93 -34
c26 -22.667 39 -50 39 -82c0 -36.667 -27 -80 -81 -130l-94 -90h180v-53h-266v40l144 138c39.333 38 59 69 59 93z" />
    <glyph glyph-name="threequarters" unicode="&#xbe;" horiz-adv-x="871" 
d="M535 77v54l212 254h52v-254h53v-54h-53v-77h-56v77h-208zM243 0h-76l493 700h75zM159 311c-32 0 -60.167 7.33301 -84.5 22s-41.5 34 -51.5 58l53 19c10.667 -30 37.667 -45 81 -45c24.667 0 45 6 61 18s24 27 24 45c0 17.333 -7.83301 32 -23.5 44s-35.167 18 -58.5 18
h-29v43h20c23.333 0 42.666 5.66699 57.999 17s23 25.666 23 42.999c0 16 -7.33301 29.667 -22 41s-32.667 17 -54 17c-39.333 0 -65.666 -14.667 -78.999 -44l-49 19c10.667 24 27.667 43 51 57s50 21 80 21c37.333 0 68.5 -10.5 93.5 -31.5s37.5 -47.167 37.5 -78.5
c0 -36 -19 -62.667 -57 -80c44 -17.333 66 -46.666 66 -87.999c0 -32.667 -13.333 -60 -40 -82s-60 -33 -100 -33zM743 301l-141 -170h141v170z" />
    <glyph glyph-name="questiondown" unicode="&#xbf;" horiz-adv-x="543" 
d="M128 13c0 -33.333 14.666 -61.667 43.999 -85c30.667 -23.333 67.334 -35 110.001 -35c36 0 67.667 8.33301 95 25s46 39 56 67l86 -25c-15.333 -46 -44.333 -82.333 -87 -109c-42 -28 -91.333 -42 -148 -42c-68.667 0 -126.667 19.667 -174 59
c-46.667 38.667 -70 87.334 -70 146.001c0 28 6.33301 54.667 19 80s29 46.333 49 63s38.5 30.167 55.5 40.5s33.167 18.166 48.5 23.499l19 7l4 83h73l9 -132c-14.667 -4 -36.667 -13 -66 -27c-20.667 -10 -39.667 -21 -57 -33c-18 -13.333 -33.5 -29.5 -46.5 -48.5
s-19.5 -38.167 -19.5 -57.5zM211.999 470.999c0 17.333 5.66699 31.6641 17 42.9971s25.666 17 42.999 17s31.666 -5.66699 42.999 -17s17 -25.666 17 -42.999s-5.66699 -31.666 -17 -42.999s-25.666 -17 -42.999 -17s-31.666 5.83301 -42.999 17.5s-17 25.834 -17 42.501z
" />
    <glyph glyph-name="Agrave" unicode="&#xc0;" horiz-adv-x="721" 
d="M112 0h-95l307 700h73l307 -700h-95l-68 157h-361zM504 241l-143 330l-144 -330h287zM396 766l-192 95l39 75l183 -119z" />
    <glyph glyph-name="Aacute" unicode="&#xc1;" horiz-adv-x="721" 
d="M112 0h-95l307 700h73l307 -700h-95l-68 157h-361zM504 241l-143 330l-144 -330h287zM323 766l-29 51l182 119l40 -75z" />
    <glyph glyph-name="Acircumflex" unicode="&#xc2;" horiz-adv-x="721" 
d="M112 0h-95l307 700h73l307 -700h-95l-68 157h-361zM504 241l-143 330l-144 -330h287zM232 765l-36 48l161 122h6l161 -122l-36 -47l-128 83z" />
    <glyph glyph-name="Atilde" unicode="&#xc3;" horiz-adv-x="721" 
d="M180 157l-68 -157h-95l307 700h73l307 -700h-95l-68 157h-361zM504 241l-143 330l-144 -330h287zM273 777h-67.001c0 28 9.66699 52.333 29 73c20 20.667 43.667 31 71 31c20 0 39.667 -8 59 -24c20.667 -15.333 35.334 -23 44.001 -23c10.667 0 19.667 4 27 12
s11 18 11 30h67c0 -29.333 -9.5 -53.833 -28.5 -73.5s-42.5 -29.5 -70.5 -29.5c-20.667 0 -40.667 7.66699 -60 23c-19.333 16 -33.666 24 -42.999 24c-10.667 0 -19.834 -4.16699 -27.501 -12.5s-11.5 -18.5 -11.5 -30.5z" />
    <glyph glyph-name="Adieresis" unicode="&#xc4;" horiz-adv-x="721" 
d="M180 157l-68 -157h-95l307 700h73l307 -700h-95l-68 157h-361zM504 241l-143 330l-144 -330h287zM424 859c10.667 10.667 24 16 40 16s29.333 -5.33301 40 -16s16 -24 16 -40s-5.33301 -29.333 -16 -40s-24 -16 -40 -16s-29.333 5.33301 -40 16s-16 24 -16 40
s5.33301 29.333 16 40zM257 875c15.333 0 28.333 -5.33301 39 -16s16 -24 16 -40s-5.33301 -29.333 -16 -40s-23.667 -16 -39 -16c-16.667 0 -30.334 5.33301 -41.001 16s-16 24 -16 40s5.33301 29.333 16 40s24.334 16 41.001 16z" />
    <glyph glyph-name="Aring" unicode="&#xc5;" horiz-adv-x="721" 
d="M180 157l-68 -157h-95l307 700h73l307 -700h-95l-68 157h-361zM504 241l-143 330l-144 -330h287zM361 967c28.667 0 53.667 -10.667 75 -32s32 -46.333 32 -75c0 -30 -10.667 -55.667 -32 -77c-20.667 -20.667 -45.667 -31 -75 -31c-30 0 -55.5 10.5 -76.5 31.5
s-31.5 46.5 -31.5 76.5c0 29.333 10.333 54.333 31 75c21.333 21.333 47 32 77 32zM361 906c-13.333 0 -24.5 -4.33301 -33.5 -13s-13.5 -19.667 -13.5 -33s4.5 -24.5 13.5 -33.5s20.167 -13.5 33.5 -13.5s24.333 4.5 33 13.5s13 20.167 13 33.5s-4.5 24.333 -13.5 33
s-19.833 13 -32.5 13z" />
    <glyph glyph-name="AE" unicode="&#xc6;" horiz-adv-x="1009" 
d="M221 157l-100 -157h-104l452 700h496v-84h-369v-220h318v-84h-318v-228h374v-84h-464v157h-285zM275 241h231v362z" />
    <glyph glyph-name="Ccedilla" unicode="&#xc7;" horiz-adv-x="776" 
d="M51 350c0 102.667 34.3379 188.333 103.005 257c69.333 69.333 155.333 104 258 104c68 0 129.833 -16.167 185.5 -48.5s99.5 -76.833 131.5 -133.5l-88 -33c-24 40 -56 71.333 -96 94s-84.333 34 -133 34c-76.667 0 -140.334 -26.333 -191.001 -79
c-51.333 -52.667 -77 -117.667 -77 -195s25.667 -142.666 77 -195.999c51.333 -52 115 -78 191 -78c48.667 0 93 11.333 133 34s72 54 96 94l88 -33c-28 -50.667 -66.333 -91.834 -115 -123.501s-103 -50.5 -163 -56.5l-10 -44c2 0 4.66699 -0.5 8 -1.5
s9.16602 -3.33301 17.499 -7s15.666 -8 21.999 -13s12.166 -12.167 17.499 -21.5s8 -20 8 -32c0 -25.333 -10.833 -46.5 -32.5 -63.5s-48.834 -25.5 -81.501 -25.5c-33.333 0 -62 8.33301 -86 25l-11 8l14 46c18 -18 41.333 -27 70 -27c17.333 0 32 3.66699 44 11
s18 16 18 26s-6.33301 18.667 -19 26s-26.667 12 -42 14l-20 2l18 76c-97.333 6 -177.333 43 -240 111c-63.333 68.667 -95 151.667 -95 249z" />
    <glyph glyph-name="Egrave" unicode="&#xc8;" horiz-adv-x="626" 
d="M78 700h504v-84h-414v-220h363v-84h-363v-228h419v-84h-509v700zM391 817l-30 -51l-193 95l40 75z" />
    <glyph glyph-name="Eacute" unicode="&#xc9;" horiz-adv-x="626" 
d="M78 700h504v-84h-414v-220h363v-84h-363v-228h419v-84h-509v700zM288 766l-30 51l183 119l40 -75z" />
    <glyph glyph-name="Ecircumflex" unicode="&#xca;" horiz-adv-x="626" 
d="M78 700h504v-84h-414v-220h363v-84h-363v-228h419v-84h-509v700zM197 765l-36 48l161 122h6l161 -122l-36 -47l-128 83z" />
    <glyph glyph-name="Edieresis" unicode="&#xcb;" horiz-adv-x="626" 
d="M78 700h504v-84h-414v-220h363v-84h-363v-228h419v-84h-509v700zM469 779c-10.667 -10.667 -24 -16 -40 -16s-29.333 5.33301 -40 16s-16 24 -16 40s5.33301 29.333 16 40s24 16 40 16s29.333 -5.33301 40 -16s16 -24 16 -40s-5.33301 -29.333 -16 -40zM181 779
c-10.667 10.667 -16 24 -16 40s5.33301 29.333 16 40s24 16 40 16s29.333 -5.33301 40 -16s16 -24 16 -40s-5.33301 -29.333 -16 -40s-24 -16 -40 -16s-29.333 5.33301 -40 16z" />
    <glyph glyph-name="Igrave" unicode="&#xcc;" horiz-adv-x="246" 
d="M168 0h-90v700h90v-700zM159 766l-193 95l40 75l183 -119z" />
    <glyph glyph-name="Iacute" unicode="&#xcd;" horiz-adv-x="246" 
d="M168 0h-90v700h90v-700zM86 766l-30 51l183 119l40 -75z" />
    <glyph glyph-name="Icircumflex" unicode="&#xce;" horiz-adv-x="246" 
d="M168 0h-90v700h90v-700zM123 849l-128 -84l-36 48l161 122h6l160 -122l-35 -47z" />
    <glyph glyph-name="Idieresis" unicode="&#xcf;" horiz-adv-x="246" 
d="M168 0h-90v700h90v-700zM-21 779c-10.667 10.667 -16 24 -16 40s5.33301 29.333 16 40s24 16 40 16s29.333 -5.33301 40 -16s16 -24 16 -40s-5.33301 -29.333 -16 -40s-24 -16 -40 -16s-29.333 5.33301 -40 16zM187 779c-10.667 10.667 -16 24 -16 40
s5.33301 29.333 16 40s24 16 40 16s29.333 -5.33301 40 -16s16 -24 16 -40s-5.33301 -29.333 -16 -40s-24 -16 -40 -16s-29.333 5.33301 -40 16z" />
    <glyph glyph-name="Eth" unicode="&#xd0;" horiz-adv-x="780" 
d="M10 311v78h81v311h276c102.667 0 188.667 -33.667 258 -101s104 -150.333 104 -249s-34.667 -181.667 -104 -249s-155.333 -101 -258 -101h-276v311h-81zM181 616v-227h210v-78h-210v-227h186c76 0 139.667 25.667 191 77s77 114.333 77 189s-25.667 137.667 -77 189
s-115 77 -191 77h-186z" />
    <glyph glyph-name="Ntilde" unicode="&#xd1;" horiz-adv-x="755" 
d="M165 0h-87v700h79l433 -544v544h87v-700h-79l-433 544v-544zM290 777h-67c0 28 9.66699 52.333 29 73c20 20.667 43.667 31 71 31c20 0 40 -8 60 -24c20.667 -15.333 35.334 -23 44.001 -23c10 0 18.667 4 26 12s11 18 11 30h68c0 -29.333 -9.5 -53.833 -28.5 -73.5
s-42.5 -29.5 -70.5 -29.5c-20 0 -40.333 7.66699 -61 23c-18.667 16 -33 24 -43 24c-10.667 0 -19.834 -4.16699 -27.501 -12.5s-11.5 -18.5 -11.5 -30.5z" />
    <glyph glyph-name="Ograve" unicode="&#xd2;" horiz-adv-x="824" 
d="M412 711c102.667 0 188.667 -34.668 258 -104.001s104 -155 104 -257c0 -102.667 -34.667 -188.667 -104 -258c-68.667 -68.667 -154.667 -103 -258 -103s-189.333 34.333 -258 103s-103 154.667 -103 258c0 102.667 34.333 188.334 103 257.001
c69.333 69.333 155.333 104 258 104zM412 75.999c76 0 139.669 26 191.002 78c51.333 53.333 77 118.666 77 195.999s-25.667 142.333 -77 195c-50.667 52.667 -114.334 79 -191.001 79s-140.334 -26.333 -191.001 -79c-51.333 -52.667 -77 -117.667 -77 -195
s25.667 -142.666 77 -195.999c51.333 -52 115 -78 191 -78zM448.002 765.999l-193 95l40 75l183 -119z" />
    <glyph glyph-name="Oacute" unicode="&#xd3;" horiz-adv-x="824" 
d="M412 711c102.667 0 188.667 -34.668 258 -104.001s104 -155 104 -257c0 -102.667 -34.667 -188.667 -104 -258c-68.667 -68.667 -154.667 -103 -258 -103s-189.333 34.333 -258 103s-103 154.667 -103 258c0 102.667 34.333 188.334 103 257.001
c69.333 69.333 155.333 104 258 104zM412 75.999c76 0 139.669 26 191.002 78c51.333 53.333 77 118.666 77 195.999s-25.667 142.333 -77 195c-50.667 52.667 -114.334 79 -191.001 79s-140.334 -26.333 -191.001 -79c-51.333 -52.667 -77 -117.667 -77 -195
s25.667 -142.666 77 -195.999c51.333 -52 115 -78 191 -78zM375.002 765.999l-30 51l183 119l40 -75z" />
    <glyph glyph-name="Ocircumflex" unicode="&#xd4;" horiz-adv-x="824" 
d="M412 711c102.667 0 188.667 -34.668 258 -104.001s104 -155 104 -257c0 -102.667 -34.667 -188.667 -104 -258c-68.667 -68.667 -154.667 -103 -258 -103s-189.333 34.333 -258 103s-103 154.667 -103 258c0 102.667 34.333 188.334 103 257.001
c69.333 69.333 155.333 104 258 104zM412 75.999c76 0 139.669 26 191.002 78c51.333 53.333 77 118.666 77 195.999s-25.667 142.333 -77 195c-50.667 52.667 -114.334 79 -191.001 79s-140.334 -26.333 -191.001 -79c-51.333 -52.667 -77 -117.667 -77 -195
s25.667 -142.666 77 -195.999c51.333 -52 115 -78 191 -78zM412.002 848.999l-128 -84l-36 48l161 122h6l160 -122l-35 -47z" />
    <glyph glyph-name="Otilde" unicode="&#xd5;" horiz-adv-x="824" 
d="M412 711c102.667 0 188.667 -34.668 258 -104.001s104 -155 104 -257c0 -102.667 -34.667 -188.667 -104 -258c-68.667 -68.667 -154.667 -103 -258 -103s-189.333 34.333 -258 103s-103 154.667 -103 258c0 102.667 34.333 188.334 103 257.001
c69.333 69.333 155.333 104 258 104zM412 75.999c76 0 139.669 26 191.002 78c51.333 53.333 77 118.666 77 195.999s-25.667 142.333 -77 195c-50.667 52.667 -114.334 79 -191.001 79s-140.334 -26.333 -191.001 -79c-51.333 -52.667 -77 -117.667 -77 -195
s25.667 -142.666 77 -195.999c51.333 -52 115 -78 191 -78zM325.002 776.999h-68.001c0 28.667 10 53 30 73c20 20.667 43.667 31 71 31c20 0 39.667 -8 59 -24c20.667 -15.333 35.334 -23 44.001 -23c10.667 0 19.667 4 27 12s11 18 11 30h67
c0 -29.333 -9.5 -53.833 -28.5 -73.5s-42.5 -29.5 -70.5 -29.5c-20.667 0 -40.667 7.66699 -60 23c-19.333 16 -33.666 24 -42.999 24c-10.667 0 -19.834 -4.16699 -27.501 -12.5s-11.5 -18.5 -11.5 -30.5z" />
    <glyph glyph-name="Odieresis" unicode="&#xd6;" horiz-adv-x="824" 
d="M412 711c102.667 0 188.667 -34.668 258 -104.001s104 -155 104 -257c0 -102.667 -34.667 -188.667 -104 -258c-68.667 -68.667 -154.667 -103 -258 -103s-189.333 34.333 -258 103s-103 154.667 -103 258c0 102.667 34.333 188.334 103 257.001
c69.333 69.333 155.333 104 258 104zM412 75.999c76 0 139.669 26 191.002 78c51.333 53.333 77 118.666 77 195.999s-25.667 142.333 -77 195c-50.667 52.667 -114.334 79 -191.001 79s-140.334 -26.333 -191.001 -79c-51.333 -52.667 -77 -117.667 -77 -195
s25.667 -142.666 77 -195.999c51.333 -52 115 -78 191 -78zM268.002 778.999c-10.667 10.667 -16 24 -16 40s5.33301 29.333 16 40s24 16 40 16s29.333 -5.33301 40 -16s16 -24 16 -40s-5.33301 -29.333 -16 -40s-24 -16 -40 -16s-29.333 5.33301 -40 16zM476.002 778.999
c-10.667 10.667 -16 24 -16 40s5.33301 29.333 16 40s24 16 40 16s29.333 -5.33301 40 -16s16 -24 16 -40s-5.33301 -29.333 -16 -40s-24 -16 -40 -16s-29.333 5.33301 -40 16z" />
    <glyph glyph-name="multiply" unicode="&#xd7;" horiz-adv-x="600" 
d="M245 350l-157 156l55 55l157 -156l157 157l55 -55l-157 -157l157 -156l-55 -55l-157 156l-157 -156l-55 55z" />
    <glyph glyph-name="Oslash" unicode="&#xd8;" horiz-adv-x="824" 
d="M146 29l31 43.999c-84 70.667 -126 163 -126 277c0 102.667 34.333 188.334 103 257.001c69.333 69.333 155.333 104 258 104c64 0 123.667 -14.667 179 -44l31 44l59 -40l-31 -45c82.667 -70 124 -162 124 -276c0 -102.667 -34.667 -188.667 -104 -258
c-68.667 -68.667 -154.667 -103 -258 -103c-64.667 0 -123.667 14.667 -177 44l-32 -44zM597 549.999l-311 -442.999c37.333 -20.667 79.333 -31 126 -31c76 0 139.667 26 191 78c51.333 53.333 77 118.666 77 195.999c0 81.333 -27.667 148 -83 200zM229 148l310 445
c-37.333 20.667 -79.666 31 -126.999 31c-76.667 0 -140.334 -26.333 -191.001 -79c-51.333 -52.667 -77 -117.667 -77 -195c0 -82 28.333 -149.333 85 -202z" />
    <glyph glyph-name="Ugrave" unicode="&#xd9;" horiz-adv-x="732" 
d="M573 280l-0.000976562 419.999h91v-420c0 -82.667 -28.667 -152 -86 -208c-57.333 -55.333 -128 -83 -212 -83c-84.667 0 -155.667 27.667 -213 83c-56.667 56 -85 125.333 -85 208v420h90v-420c0 -59.333 19.667 -108.666 59 -147.999
c40.667 -39.333 90.334 -59 149.001 -59s107.667 19.667 147 59c40 40 60 89.333 60 148zM401.999 765.999l-193 95l40 75l182 -119z" />
    <glyph glyph-name="Uacute" unicode="&#xda;" horiz-adv-x="732" 
d="M573 280l-0.000976562 419.999h91v-420c0 -82.667 -28.667 -152 -86 -208c-57.333 -55.333 -128 -83 -212 -83c-84.667 0 -155.667 27.667 -213 83c-56.667 56 -85 125.333 -85 208v420h90v-420c0 -59.333 19.667 -108.666 59 -147.999
c40.667 -39.333 90.334 -59 149.001 -59s107.667 19.667 147 59c40 40 60 89.333 60 148zM328.999 765.999l-30 51l183 119l39 -75z" />
    <glyph glyph-name="Ucircumflex" unicode="&#xdb;" horiz-adv-x="732" 
d="M573 280l-0.000976562 419.999h91v-420c0 -82.667 -28.667 -152 -86 -208c-57.333 -55.333 -128 -83 -212 -83c-84.667 0 -155.667 27.667 -213 83c-56.667 56 -85 125.333 -85 208v420h90v-420c0 -59.333 19.667 -108.666 59 -147.999
c40.667 -39.333 90.334 -59 149.001 -59s107.667 19.667 147 59c40 40 60 89.333 60 148zM364.999 848.999l-127 -84l-36 48l161 122h5l161 -122l-36 -47z" />
    <glyph glyph-name="Udieresis" unicode="&#xdc;" horiz-adv-x="732" 
d="M573 280l-0.000976562 419.999h91v-420c0 -82.667 -28.667 -152 -86 -208c-57.333 -55.333 -128 -83 -212 -83c-84.667 0 -155.667 27.667 -213 83c-56.667 56 -85 125.333 -85 208v420h90v-420c0 -59.333 19.667 -108.666 59 -147.999
c40.667 -39.333 90.334 -59 149.001 -59s107.667 19.667 147 59c40 40 60 89.333 60 148zM261.999 874.999c15.333 0 28.5 -5.33301 39.5 -16s16.5 -24 16.5 -40s-5.5 -29.333 -16.5 -40s-24.167 -16 -39.5 -16c-16 0 -29.333 5.33301 -40 16s-16 24 -16 40
s5.33301 29.333 16 40s24 16 40 16zM468.999 874.999c16 0 29.5 -5.33301 40.5 -16s16.5 -24 16.5 -40s-5.5 -29.333 -16.5 -40s-24.5 -16 -40.5 -16c-15.333 0 -28.333 5.33301 -39 16s-16 24 -16 40s5.33301 29.333 16 40s23.667 16 39 16z" />
    <glyph glyph-name="Yacute" unicode="&#xdd;" horiz-adv-x="671" 
d="M289 0v285l-272 415h104l213 -329l215 329h104l-273 -411v-289h-91zM491 861l-192 -95l-30 51l183 119z" />
    <glyph glyph-name="Thorn" unicode="&#xde;" horiz-adv-x="657" 
d="M78 0v699.998h90v-134h217c64.667 0 118.667 -20.667 162 -62s65 -92.666 65 -153.999s-21.667 -112.666 -65 -153.999s-97.333 -62 -162 -62h-217v-134h-90zM385 481.998l-217 0.000976562v-264h217c38 0 69.667 12.667 95 38s38 56.666 38 93.999
c0 38 -12.667 69.5 -38 94.5s-57 37.5 -95 37.5z" />
    <glyph glyph-name="germandbls" unicode="&#xdf;" horiz-adv-x="588" 
d="M266 677c-32 0 -58.499 -9.99805 -79.499 -29.998s-31.5 -45.333 -31.5 -76v-571h-84v584c0 51.333 18.333 93.333 55 126c36.667 34 82.334 51 137.001 51c53.333 0 97.666 -15.667 132.999 -47s53 -69.333 53 -114c0 -20.667 -4.5 -39.5 -13.5 -56.5
s-18.667 -30.5 -29 -40.5s-20 -21.333 -29 -34s-13.5 -25.334 -13.5 -38.001c0 -15.333 6.33301 -29.5 19 -42.5s28 -25.5 46 -37.5s36.167 -25.167 54.5 -39.5s33.833 -34 46.5 -59s19 -53.5 19 -85.5c0 -116.667 -84.667 -175 -254 -175v84c58 0 100.167 7.5 126.5 22.5
s39.5 38.833 39.5 71.5c0 41.333 -21.667 76.333 -65 105l-26 18c-15.333 10.667 -25 17.667 -29 21l-23 20c-11.333 10 -19 18.833 -23 26.5s-8 17.334 -12 29.001s-6 23.834 -6 36.501c0 20.667 4.5 39.667 13.5 57s18.667 31.166 29 41.499s20 22.166 29 35.499
s13.5 26.333 13.5 39c0 21.333 -9.33301 39.666 -28 54.999s-41.334 23 -68.001 23z" />
    <glyph glyph-name="agrave" unicode="&#xe0;" horiz-adv-x="645" 
d="M300 -11c-72.667 0 -133.667 25.667 -183 77c-48.667 51.333 -73 116 -73 194s24.333 142.333 73 193c48.667 52 109.667 78 183 78c78 0 141.333 -28.333 190 -85v74h84v-520h-84v74c-48.667 -56.667 -112 -85 -190 -85zM309 73c50.667 0 93.001 17.666 127.001 52.999
c34.667 35.333 52 80 52 134s-17.333 98.333 -52 133c-34 36 -76.333 54 -127 54c-50 0 -92.333 -18 -127 -54c-34 -35.333 -51 -79.666 -51 -132.999s17 -98 51 -134c35.333 -35.333 77.666 -53 126.999 -53zM388.001 650.999l-29 -52l-193 95l40 75z" />
    <glyph glyph-name="aacute" unicode="&#xe1;" horiz-adv-x="645" 
d="M300 -11c-72.667 0 -133.667 25.667 -183 77c-48.667 51.333 -73 116 -73 194s24.333 142.333 73 193c48.667 52 109.667 78 183 78c78 0 141.333 -28.333 190 -85v74h84v-520h-84v74c-48.667 -56.667 -112 -85 -190 -85zM309 73c50.667 0 93.001 17.666 127.001 52.999
c34.667 35.333 52 80 52 134s-17.333 98.333 -52 133c-34 36 -76.333 54 -127 54c-50 0 -92.333 -18 -127 -54c-34 -35.333 -51 -79.666 -51 -132.999s17 -98 51 -134c35.333 -35.333 77.666 -53 126.999 -53zM478.001 693.999l-193 -95l-29 52l182 118z" />
    <glyph glyph-name="acircumflex" unicode="&#xe2;" horiz-adv-x="645" 
d="M300 -11c-72.667 0 -133.667 25.667 -183 77c-48.667 51.333 -73 116 -73 194s24.333 142.333 73 193c48.667 52 109.667 78 183 78c78 0 141.333 -28.333 190 -85v74h84v-520h-84v74c-48.667 -56.667 -112 -85 -190 -85zM309 73c50.667 0 93.001 17.666 127.001 52.999
c34.667 35.333 52 80 52 134s-17.333 98.333 -52 133c-34 36 -76.333 54 -127 54c-50 0 -92.333 -18 -127 -54c-34 -35.333 -51 -79.666 -51 -132.999s17 -98 51 -134c35.333 -35.333 77.666 -53 126.999 -53zM194.001 598.999l-35 47l160 122h6l161 -122l-36 -46l-128 82z
" />
    <glyph glyph-name="atilde" unicode="&#xe3;" horiz-adv-x="645" 
d="M300 -11c-72.667 0 -133.667 25.667 -183 77c-48.667 51.333 -73 116 -73 194s24.333 142.333 73 193c48.667 52 109.667 78 183 78c78 0 141.333 -28.333 190 -85v74h84v-520h-84v74c-48.667 -56.667 -112 -85 -190 -85zM309 447
c-50 0 -92.332 -18.001 -126.999 -54.001c-34 -35.333 -51 -79.666 -51 -132.999s17 -98 51 -134c35.333 -35.333 77.666 -53 126.999 -53c50.667 0 93 17.667 127 53c34.667 35.333 52 80 52 134s-17.333 98.333 -52 133c-34 36 -76.333 54 -127 54zM235.001 610.999
h-67.002c0 28.667 9.83301 53 29.5 73s43.167 30 70.5 30c20 0 40 -8 60 -24c20.667 -15.333 35.334 -23 44.001 -23c10 0 18.667 4.16699 26 12.5s11 18.5 11 30.5h68c0 -29.333 -9.66699 -54 -29 -74s-42.666 -30 -69.999 -30c-20 0 -40.333 7.66699 -61 23
c-19.333 16 -33.666 24 -42.999 24c-10.667 0 -19.834 -4 -27.501 -12s-11.5 -18 -11.5 -30z" />
    <glyph glyph-name="adieresis" unicode="&#xe4;" horiz-adv-x="645" 
d="M300 531c78 0 141.333 -28.333 190 -85v74h84v-520h-84v74c-48.667 -56.667 -112 -85 -190 -85c-72.667 0 -133.667 25.667 -183 77c-48.667 51.333 -73 116 -73 194s24.333 142.333 73 193c48.667 52 109.667 78 183 78zM309 73c50.667 0 93.001 17.666 127.001 52.999
c34.667 35.333 52 80 52 134s-17.333 98.333 -52 133c-34 36 -76.333 54 -127 54c-50 0 -92.333 -18 -127 -54c-34 -35.333 -51 -79.666 -51 -132.999s17 -98 51 -134c35.333 -35.333 77.666 -53 126.999 -53zM371.001 652.999c0 16 5.33398 29.165 16.001 39.498
s23.667 15.5 39 15.5c24.667 2 42.167 -9.33301 52.5 -34s6.16602 -45 -12.501 -61c-17.333 -17.333 -37.5 -21.166 -60.5 -11.499s-34.5 26.834 -34.5 51.501zM163.002 652.997c0 16 5.33301 29.167 16 39.5s24 15.5 40 15.5s29.333 -5.16699 40 -15.5s16 -23.5 16 -39.5
s-5.33301 -29.333 -16 -40s-24 -16 -40 -16s-29.333 5.16699 -40 15.5s-16 23.833 -16 40.5z" />
    <glyph glyph-name="aring" unicode="&#xe5;" horiz-adv-x="645" 
d="M300 531c78 0 141.333 -28.333 190 -85v74h84v-520h-84v74c-48.667 -56.667 -112 -85 -190 -85c-72.667 0 -133.667 25.667 -183 77c-48.667 51.333 -73 116 -73 194s24.333 142.333 73 193c48.667 52 109.667 78 183 78zM309 73c50.667 0 93.001 17.666 127.001 52.999
c34.667 35.333 52 80 52 134s-17.333 98.333 -52 133c-34 36 -76.333 54 -127 54c-50 0 -92.333 -18 -127 -54c-34 -35.333 -51 -79.666 -51 -132.999s17 -98 51 -134c35.333 -35.333 77.666 -53 126.999 -53zM323.001 800.999c28.667 0 53.668 -10.6689 75.001 -32.002
s32 -46.666 32 -75.999s-10.667 -54.666 -32 -75.999c-20.667 -20.667 -45.667 -31 -75 -31c-30.667 0 -56.334 10.333 -77.001 31s-31 46 -31 76s10.333 55.333 31 76c21.333 21.333 47 32 77 32zM323.002 646.997c12.667 0 23.5 4.5 32.5 13.5s13.5 19.833 13.5 32.5
c0 20.667 -9.5 35 -28.5 43s-35.833 4.66699 -50.5 -10s-18 -31.5 -10 -50.5s22.333 -28.5 43 -28.5z" />
    <glyph glyph-name="ae" unicode="&#xe6;" horiz-adv-x="1061" 
d="M300 -11c-72.667 0 -133.667 25.666 -183 76.999c-48.667 51.333 -73 116 -73 194s24.333 142.333 73 193c48.667 52 109.667 78 183 78c78 0 141.333 -28.333 190 -85v74h84v-74c50 56.667 114 85 192 85c73.333 0 135 -26 185 -78c50 -51.333 75 -115.666 75 -192.999
c0 -2 -0.666992 -11.667 -2 -29h-448c6 -46.667 26.667 -85.667 62 -117c34.667 -30.667 77.667 -46 129 -46c66 0 117.333 25 154 75l82 -26c-24 -40 -56 -71.333 -96 -94s-84.667 -34 -134 -34c-82 0 -148.333 29 -199 87v-76h-84v74c-48.667 -56.667 -112 -85 -190 -85z
M309 72.999c50.667 0 93.001 17.666 127.001 52.999c34.667 35.333 52 80 52 134s-17.333 98.333 -52 133c-34 36 -76.333 54 -127 54c-50 0 -92.333 -18 -127 -54c-34 -35.333 -51 -79.666 -51 -132.999s17 -98 51 -134c35.333 -35.333 77.666 -53 126.999 -53z
M577.001 298.998h362c-8 44.667 -29 81.667 -63 111c-33.333 28.667 -73.333 43 -120 43c-45.333 0 -84.333 -14.333 -117 -43c-33.333 -29.333 -54 -66.333 -62 -111z" />
    <glyph glyph-name="ccedilla" unicode="&#xe7;" horiz-adv-x="599" 
d="M271 -86l18.0068 76c-70.667 6.66699 -129.334 35 -176.001 85c-46 50.667 -69 112.334 -69 185.001c0 77.333 25.667 141.666 77 192.999c52 52 116.667 78 194 78c55.333 0 105.166 -14 149.499 -42s77.166 -66.333 98.499 -115l-84 -25
c-15.333 30 -37.5 53.833 -66.5 71.5s-61.5 26.5 -97.5 26.5c-52.667 0 -96.334 -18 -131.001 -54c-35.333 -35.333 -53 -79.666 -53 -132.999c0 -52.667 17.667 -97.334 53 -134.001c35.333 -35.333 79 -53 131 -53c36 0 68.5 8.83301 97.5 26.5s51.167 41.5 66.5 71.5
l84 -25c-18.667 -42.667 -46.334 -77.5 -83.001 -104.5s-78.667 -43.5 -126 -49.5l-10 -45c2 0 4.66699 -0.5 8 -1.5s9.16602 -3.33301 17.499 -7s15.666 -8 21.999 -13s12.166 -12.167 17.499 -21.5s8 -20 8 -32c0 -25.333 -10.667 -46.5 -32 -63.5
s-48.333 -25.5 -81 -25.5c-33.333 0 -62 8.33301 -86 25l-11 8l14 46c16.667 -18 39.667 -27 69 -27c17.333 0 32 3.66699 44 11s18 16 18 26s-6.16699 18.667 -18.5 26s-26.166 12 -41.499 14z" />
    <glyph glyph-name="egrave" unicode="&#xe8;" horiz-adv-x="616" 
d="M578 231h-447.002c6 -46.667 26.667 -85.667 62 -117c34.667 -30.667 77.334 -46 128.001 -46c66 0 117.333 25 154 75l82 -26c-24 -40 -56.833 -71.333 -98.5 -94s-87.5 -34 -137.5 -34c-78.667 0 -144.667 25.667 -198 77c-52.667 52 -79 116.667 -79 194
s25.667 141.666 77 192.999c51.333 52 115 78 191 78c76.667 0 140.334 -26 191.001 -78c51.333 -51.333 77 -115.666 77 -192.999c0 -2 -0.666992 -11.667 -2 -29zM131.998 299h361c-8 44.667 -29 81.667 -63 111c-33.333 28.667 -73.333 43 -120 43
c-45.333 0 -84.333 -14.333 -117 -43s-53 -65.667 -61 -111zM349.998 599l-193 95l40 75l183 -118z" />
    <glyph glyph-name="eacute" unicode="&#xe9;" horiz-adv-x="616" 
d="M578 231h-447.002c6 -46.667 26.667 -85.667 62 -117c34.667 -30.667 77.334 -46 128.001 -46c66 0 117.333 25 154 75l82 -26c-24 -40 -56.833 -71.333 -98.5 -94s-87.5 -34 -137.5 -34c-78.667 0 -144.667 25.667 -198 77c-52.667 52 -79 116.667 -79 194
s25.667 141.666 77 192.999c51.333 52 115 78 191 78c76.667 0 140.334 -26 191.001 -78c51.333 -51.333 77 -115.666 77 -192.999c0 -2 -0.666992 -11.667 -2 -29zM131.998 299h361c-8 44.667 -29 81.667 -63 111c-33.333 28.667 -73.333 43 -120 43
c-45.333 0 -84.333 -14.333 -117 -43s-53 -65.667 -61 -111zM276.998 599l-30 52l183 118l40 -75z" />
    <glyph glyph-name="ecircumflex" unicode="&#xea;" horiz-adv-x="616" 
d="M578 231h-447.002c6 -46.667 26.667 -85.667 62 -117c34.667 -30.667 77.334 -46 128.001 -46c66 0 117.333 25 154 75l82 -26c-24 -40 -56.833 -71.333 -98.5 -94s-87.5 -34 -137.5 -34c-78.667 0 -144.667 25.667 -198 77c-52.667 52 -79 116.667 -79 194
s25.667 141.666 77 192.999c51.333 52 115 78 191 78c76.667 0 140.334 -26 191.001 -78c51.333 -51.333 77 -115.666 77 -192.999c0 -2 -0.666992 -11.667 -2 -29zM131.998 299h361c-8 44.667 -29 81.667 -63 111c-33.333 28.667 -73.333 43 -120 43
c-45.333 0 -84.333 -14.333 -117 -43s-53 -65.667 -61 -111zM313.998 682l-128 -83l-36 47l161 122h6l160 -122l-35 -46z" />
    <glyph glyph-name="edieresis" unicode="&#xeb;" horiz-adv-x="616" 
d="M578 231h-447.002c6 -46.667 26.667 -85.667 62 -117c34.667 -30.667 77.334 -46 128.001 -46c66 0 117.333 25 154 75l82 -26c-24 -40 -56.833 -71.333 -98.5 -94s-87.5 -34 -137.5 -34c-78.667 0 -144.667 25.667 -198 77c-52.667 52 -79 116.667 -79 194
s25.667 141.666 77 192.999c51.333 52 115 78 191 78c76.667 0 140.334 -26 191.001 -78c51.333 -51.333 77 -115.666 77 -192.999c0 -2 -0.666992 -11.667 -2 -29zM131.998 299h361c-8 44.667 -29 81.667 -63 111c-33.333 28.667 -73.333 43 -120 43
c-45.333 0 -84.333 -14.333 -117 -43s-53 -65.667 -61 -111zM153.998 653c0 16 5.33203 29.167 15.999 39.5s24 15.5 40 15.5s29.333 -5.16699 40 -15.5s16 -23.5 16 -39.5c1.33301 -22.667 -7.66699 -38.834 -27 -48.501s-38.666 -9.66699 -57.999 0
s-28.333 25.834 -27 48.501zM361.997 653c0 16 5.33203 29.167 15.999 39.5s24 15.5 40 15.5s29.333 -5.16699 40 -15.5s16 -23.5 16 -39.5c1.33301 -22.667 -7.66699 -38.834 -27 -48.501s-38.666 -9.66699 -57.999 0s-28.333 25.834 -27 48.501z" />
    <glyph glyph-name="igrave" unicode="&#xec;" horiz-adv-x="226" 
d="M155 0h-84v520h84v-520zM-34 694l40 75l182 -118l-29 -51z" />
    <glyph glyph-name="iacute" unicode="&#xed;" horiz-adv-x="226" 
d="M155 0h-84v520h84v-520zM37 651l182 118l40 -75l-193 -94z" />
    <glyph glyph-name="icircumflex" unicode="&#xee;" horiz-adv-x="226" 
d="M155 0h-84v520h84v-520zM-15 599l-36 47l161 122h6l161 -122l-36 -46l-128 82z" />
    <glyph glyph-name="idieresis" unicode="&#xef;" horiz-adv-x="226" 
d="M155 0h-84v520h84v-520zM-37 653c0 16 5.33301 29.167 16 39.5s24 15.5 40 15.5s29.333 -5.16699 40 -15.5s16 -23.5 16 -39.5s-5.33301 -29.333 -16 -40s-24 -16 -40 -16s-29.333 5.16699 -40 15.5s-16 23.833 -16 40.5zM151 653c0 16 5.33203 29.167 15.999 39.5
s24 15.5 40 15.5s29.333 -5.16699 40 -15.5s16 -23.5 16 -39.5c1.33301 -22.667 -7.66699 -38.834 -27 -48.501s-38.666 -9.66699 -57.999 0s-28.333 25.834 -27 48.501z" />
    <glyph glyph-name="eth" unicode="&#xf0;" horiz-adv-x="631" 
d="M315 531c57.333 0 109.336 -15.333 156.003 -46c-30.667 86.667 -87 143.334 -169 170.001l-54 -86l-55 35l42 66c-28.667 4.66699 -64.334 7 -107.001 7v84c58 0 109.667 -4.66699 155 -14l50 79l55 -36l-39 -62c80 -30 139.667 -82.833 179 -158.5
s59 -178.834 59 -309.501c0 -77.333 -26 -142 -78 -194c-52.667 -51.333 -117.334 -77 -194.001 -77s-141.334 25.667 -194.001 77c-51.333 52.667 -77 117.334 -77 194.001c0 77.333 25.667 141.666 77 192.999c52 52 116.667 78 194 78zM315.003 73
c52.667 0 96.668 17.667 132.001 53c35.333 36.667 53 81.334 53 134.001c0 53.333 -17.667 97.666 -53 132.999c-35.333 36 -79.333 54 -132 54s-96.334 -18 -131.001 -54c-35.333 -35.333 -53 -79.666 -53 -132.999c0 -52.667 17.667 -97.334 53 -134.001
c35.333 -35.333 79 -53 131 -53z" />
    <glyph glyph-name="ntilde" unicode="&#xf1;" 
d="M155 0h-84.001v520h84v-87c41.333 65.333 103 98 185 98c60 0 109.667 -19.667 149 -59c40 -38.667 60 -88 60 -148v-324h-84v302c0 42 -14.333 77.333 -43 106c-28 28.667 -63 43 -105 43c-45.333 0 -83.666 -14.667 -114.999 -44s-47 -65 -47 -107v-300zM225.999 611
h-67.001c0 28.667 9.83301 53 29.5 73s43.167 30 70.5 30c20 0 40 -8 60 -24c20.667 -15.333 35.334 -23 44.001 -23c10 0 18.667 4.16699 26 12.5s11 18.5 11 30.5h68c0 -29.333 -9.66699 -54 -29 -74s-42.666 -30 -69.999 -30c-20 0 -40.333 7.66699 -61 23
c-18.667 16 -33 24 -43 24c-10.667 0 -19.834 -4 -27.501 -12s-11.5 -18 -11.5 -30z" />
    <glyph glyph-name="ograve" unicode="&#xf2;" horiz-adv-x="631" 
d="M121 66c-51.333 52.667 -76.998 117.333 -76.998 194c0 77.333 25.667 141.666 77 192.999c52 52 116.667 78 194 78s142 -26 194 -78c52 -51.333 78 -115.666 78 -192.999s-26 -142 -78 -194c-52.667 -51.333 -117.334 -77 -194.001 -77s-141.334 25.667 -194.001 77z
M315.002 72.999c52.667 0 96.668 17.667 132.001 53c35.333 36.667 53 81.334 53 134.001c0 53.333 -17.667 97.666 -53 132.999c-35.333 36 -79.333 54 -132 54s-96.334 -18 -131.001 -54c-35.333 -35.333 -53 -79.666 -53 -132.999c0 -52.667 17.667 -97.334 53 -134.001
c35.333 -35.333 79 -53 131 -53zM351.003 598.999l-192 95l39 75l183 -118z" />
    <glyph glyph-name="oacute" unicode="&#xf3;" horiz-adv-x="631" 
d="M121 66c-51.333 52.667 -76.998 117.333 -76.998 194c0 77.333 25.667 141.666 77 192.999c52 52 116.667 78 194 78s142 -26 194 -78c52 -51.333 78 -115.666 78 -192.999s-26 -142 -78 -194c-52.667 -51.333 -117.334 -77 -194.001 -77s-141.334 25.667 -194.001 77z
M315.002 72.999c52.667 0 96.668 17.667 132.001 53c35.333 36.667 53 81.334 53 134.001c0 53.333 -17.667 97.666 -53 132.999c-35.333 36 -79.333 54 -132 54s-96.334 -18 -131.001 -54c-35.333 -35.333 -53 -79.666 -53 -132.999c0 -52.667 17.667 -97.334 53 -134.001
c35.333 -35.333 79 -53 131 -53zM278.003 598.999l-29 52l182 118l40 -75z" />
    <glyph glyph-name="ocircumflex" unicode="&#xf4;" horiz-adv-x="631" 
d="M121 66c-51.333 52.667 -76.998 117.333 -76.998 194c0 77.333 25.667 141.666 77 192.999c52 52 116.667 78 194 78s142 -26 194 -78c52 -51.333 78 -115.666 78 -192.999s-26 -142 -78 -194c-52.667 -51.333 -117.334 -77 -194.001 -77s-141.334 25.667 -194.001 77z
M315.002 72.999c52.667 0 96.668 17.667 132.001 53c35.333 36.667 53 81.334 53 134.001c0 53.333 -17.667 97.666 -53 132.999c-35.333 36 -79.333 54 -132 54s-96.334 -18 -131.001 -54c-35.333 -35.333 -53 -79.666 -53 -132.999c0 -52.667 17.667 -97.334 53 -134.001
c35.333 -35.333 79 -53 131 -53zM315.003 681.999l-128 -83l-36 47l161 122h6l161 -122l-36 -46z" />
    <glyph glyph-name="otilde" unicode="&#xf5;" horiz-adv-x="631" 
d="M121 66c-51.333 52.667 -76.998 117.333 -76.998 194c0 77.333 25.667 141.666 77 192.999c52 52 116.667 78 194 78s142 -26 194 -78c52 -51.333 78 -115.666 78 -192.999s-26 -142 -78 -194c-52.667 -51.333 -117.334 -77 -194.001 -77s-141.334 25.667 -194.001 77z
M315.002 72.999c52.667 0 96.668 17.667 132.001 53c35.333 36.667 53 81.334 53 134.001c0 53.333 -17.667 97.666 -53 132.999c-35.333 36 -79.333 54 -132 54s-96.334 -18 -131.001 -54c-35.333 -35.333 -53 -79.666 -53 -132.999c0 -52.667 17.667 -97.334 53 -134.001
c35.333 -35.333 79 -53 131 -53zM228.003 610.999h-67.0029c0 28.667 9.83301 53 29.5 73s43.167 30 70.5 30c20.667 0 40.334 -8 59.001 -24c20.667 -15.333 35.334 -23 44.001 -23c10.667 0 19.667 4 27 12s11 18.333 11 31h67c0 -29.333 -9.66699 -54 -29 -74
s-42.666 -30 -69.999 -30c-20.667 0 -40.667 7.66699 -60 23c-19.333 16 -33.666 24 -42.999 24c-10.667 0 -19.834 -4 -27.501 -12s-11.5 -18 -11.5 -30z" />
    <glyph glyph-name="odieresis" unicode="&#xf6;" horiz-adv-x="631" 
d="M121 66c-51.333 52.667 -76.998 117.333 -76.998 194c0 77.333 25.667 141.666 77 192.999c52 52 116.667 78 194 78s142 -26 194 -78c52 -51.333 78 -115.666 78 -192.999s-26 -142 -78 -194c-52.667 -51.333 -117.334 -77 -194.001 -77s-141.334 25.667 -194.001 77z
M315.002 72.999c52.667 0 96.668 17.667 132.001 53c35.333 36.667 53 81.334 53 134.001c0 53.333 -17.667 97.666 -53 132.999c-35.333 36 -79.333 54 -132 54s-96.334 -18 -131.001 -54c-35.333 -35.333 -53 -79.666 -53 -132.999c0 -52.667 17.667 -97.334 53 -134.001
c35.333 -35.333 79 -53 131 -53zM155.003 652.999c0 16 5.33301 29.167 16 39.5s24.334 15.5 41.001 15.5c15.333 0 28.333 -5.16699 39 -15.5s16 -23.5 16 -39.5c0 -16.667 -5.16699 -30.167 -15.5 -40.5s-23.5 -15.5 -39.5 -15.5c-16.667 0 -30.334 5.16699 -41.001 15.5
s-16 23.833 -16 40.5zM363.003 652.999c0 16 5.33203 29.167 15.999 39.5s24 15.5 40 15.5s29.333 -5.16699 40 -15.5s16 -23.5 16 -39.5c1.33301 -22.667 -7.66699 -38.834 -27 -48.501s-38.666 -9.66699 -57.999 0s-28.333 25.834 -27 48.501z" />
    <glyph glyph-name="divide" unicode="&#xf7;" horiz-adv-x="600" 
d="M67 311v78h466v-78h-466zM257 116c-11.333 12 -17 26.667 -17 44s5.66699 31.666 17 42.999s25.666 17 42.999 17s31.666 -5.66699 42.999 -17s17 -25.666 17 -42.999s-5.66699 -32 -17 -44c-11.333 -11.333 -25.666 -17 -42.999 -17s-31.666 5.66699 -42.999 17z
M240 541c0 16.667 5.66699 30.834 17 42.501s25.666 17.5 42.999 17.5s31.666 -5.83301 42.999 -17.5s17 -25.834 17 -42.501c0 -17.333 -5.66699 -31.833 -17 -43.5s-25.666 -17.5 -42.999 -17.5s-31.666 5.83301 -42.999 17.5s-17 26.167 -17 43.5z" />
    <glyph glyph-name="oslash" unicode="&#xf8;" horiz-adv-x="631" 
d="M315 531c46.667 0 88.668 -9.66602 126.001 -28.999l21 29l58 -40l-20 -29c58 -50.667 87 -118 87 -202c0 -77.333 -26 -142 -78 -194c-52.667 -51.333 -117.334 -77 -194.001 -77c-46.667 0 -88.667 9.66699 -126 29l-20 -29l-58 40l20 30
c-58 51.333 -87 118.333 -87 201c0 77.333 25.667 141.666 77 192.999c52 52 116.667 78 194 78zM448.001 389.001l-209 -299.001c24.667 -11.333 50 -17 76 -17c52.667 0 96.667 17.667 132 53c35.333 36.667 53 81.334 53 134.001c0 51.333 -17.333 94.333 -52 129z
M182.001 132l209.001 297.999c-24.667 11.333 -50 17 -76 17c-52.667 0 -96.334 -18 -131.001 -54c-35.333 -35.333 -53 -79.666 -53 -132.999c0 -51.333 17 -94 51 -128z" />
    <glyph glyph-name="ugrave" unicode="&#xf9;" 
d="M279 -11c-60 0 -110.334 19.667 -151.001 59c-39.333 39.333 -59 88.666 -59 147.999v324h84v-302c0 -41.333 14 -76.666 42 -105.999c28.667 -28.667 64.334 -43 107.001 -43c45.333 0 83.333 14.333 114 43c31.333 29.333 47 65.333 47 108v300h84v-520h-84v86
c-38.667 -64.667 -100 -97 -184 -97zM373.999 651l-29 -52l-193 95l40 75z" />
    <glyph glyph-name="uacute" unicode="&#xfa;" 
d="M69 196l-0.000976562 324h84v-302c0 -41.333 14 -76.666 42 -105.999c28.667 -28.667 64.334 -43 107.001 -43c45.333 0 83.333 14.333 114 43c31.333 29.333 47 65.333 47 108v300h84v-520h-84v86c-38.667 -64.667 -100 -97 -184 -97c-60 0 -110.333 19.667 -151 59
c-39.333 39.333 -59 88.666 -59 147.999zM463.999 694l-192 -95l-30 52l183 118z" />
    <glyph glyph-name="ucircumflex" unicode="&#xfb;" 
d="M69 196l-0.000976562 324h84v-302c0 -41.333 14 -76.666 42 -105.999c28.667 -28.667 64.334 -43 107.001 -43c45.333 0 83.333 14.333 114 43c31.333 29.333 47 65.333 47 108v300h84v-520h-84v86c-38.667 -64.667 -100 -97 -184 -97c-60 0 -110.333 19.667 -151 59
c-39.333 39.333 -59 88.666 -59 147.999zM307.999 682l-127 -83l-36 47l161 122h5l161 -122l-36 -46z" />
    <glyph glyph-name="udieresis" unicode="&#xfc;" 
d="M69 196l-0.000976562 324h84v-302c0 -41.333 14 -76.666 42 -105.999c28.667 -28.667 64.334 -43 107.001 -43c45.333 0 83.333 14.333 114 43c31.333 29.333 47 65.333 47 108v300h84v-520h-84v86c-38.667 -64.667 -100 -97 -184 -97c-60 0 -110.333 19.667 -151 59
c-39.333 39.333 -59 88.666 -59 147.999zM356.999 653c0 16 5.33398 29.165 16.001 39.498s23.667 15.5 39 15.5c24.667 2 42.167 -9.33301 52.5 -34s6.16602 -45 -12.501 -61c-17.333 -17.333 -37.5 -21.166 -60.5 -11.499s-34.5 26.834 -34.5 51.501zM149 652.998
c0 16 5.33301 29.167 16 39.5s24 15.5 40 15.5s29.333 -5.16699 40 -15.5s16 -23.5 16 -39.5s-5.33301 -29.333 -16 -40s-24 -16 -40 -16s-29.333 5.16699 -40 15.5s-16 23.833 -16 40.5z" />
    <glyph glyph-name="yacute" unicode="&#xfd;" horiz-adv-x="532" 
d="M221 15l-207.001 505h87l163 -404l168 404h87l-256 -609c-19.333 -47.333 -44.166 -81.833 -74.499 -103.5s-68.833 -32.5 -115.5 -32.5h-24v81h24c54.667 0 93.667 27.667 117 83zM421.999 694l-193 -95l-30 52l183 118z" />
    <glyph glyph-name="thorn" unicode="&#xfe;" horiz-adv-x="645" 
d="M155 -225h-84v975h84v-304c48.667 56.667 111.667 85 189 85c73.333 0 134.333 -26 183 -78c49.333 -51.333 74 -115.666 74 -192.999c0 -76.667 -24.667 -141.334 -74 -194.001c-49.333 -51.333 -110.333 -77 -183 -77c-77.333 0 -140.333 28.333 -189 85v-299zM335 447
c-50 0 -92.332 -18.001 -126.999 -54.001c-34 -35.333 -51 -79.666 -51 -132.999s17 -98 51 -134c35.333 -35.333 77.666 -53 126.999 -53c50.667 0 93 17.667 127 53c34.667 35.333 52 80 52 134s-17.333 98.333 -52 133c-34 36 -76.333 54 -127 54z" />
    <glyph glyph-name="ydieresis" unicode="&#xff;" horiz-adv-x="532" 
d="M221 15l-207.001 505h87l163 -404l168 404h87l-256 -609c-19.333 -47.333 -44.166 -81.833 -74.499 -103.5s-68.833 -32.5 -115.5 -32.5h-24v81h24c54.667 0 93.667 27.667 117 83zM313.999 653c0 16 5.33203 29.167 15.999 39.5s24 15.5 40 15.5
s29.333 -5.16699 40 -15.5s16 -23.5 16 -39.5c1.33301 -22.667 -7.66699 -38.834 -27 -48.501s-38.666 -9.66699 -57.999 0s-28.333 25.834 -27 48.501zM105.998 653c0 16 5.33203 29.167 15.999 39.5s24 15.5 40 15.5s29.333 -5.16699 40 -15.5s16 -23.5 16 -39.5
c1.33301 -22.667 -7.66699 -38.834 -27 -48.501s-38.666 -9.66699 -57.999 0s-28.333 25.834 -27 48.501z" />
    <glyph glyph-name="Amacron" unicode="&#x100;" horiz-adv-x="721" 
d="M112 0h-95l307 700h73l307 -700h-95l-68 157h-361zM504 241l-143 330l-144 -330h287zM216 790v72h289v-72h-289z" />
    <glyph glyph-name="amacron" unicode="&#x101;" horiz-adv-x="645" 
d="M300 531c78 0 141.333 -28.333 190 -85v74h84v-520h-84v74c-48.667 -56.667 -112 -85 -190 -85c-72.667 0 -133.667 25.667 -183 77c-48.667 51.333 -73 116 -73 194s24.333 142.333 73 193c48.667 52 109.667 78 183 78zM309 447
c-50 0 -92.332 -18.001 -126.999 -54.001c-34 -35.333 -51 -79.666 -51 -132.999s17 -98 51 -134c35.333 -35.333 77.666 -53 126.999 -53c50.667 0 93 17.667 127 53c34.667 35.333 52 80 52 134s-17.333 98.333 -52 133c-34 36 -76.333 54 -127 54zM467.001 694.999v-71
h-288v71h288z" />
    <glyph glyph-name="Abreve" unicode="&#x102;" horiz-adv-x="721" 
d="M180 157l-68 -157h-95l307 700h73l307 -700h-95l-68 157h-361zM504 241l-143 330l-144 -330h287zM212 901h68.001c0 -24.667 7.66699 -45.167 23 -61.5s34.666 -24.5 57.999 -24.5s42.5 8.16699 57.5 24.5s22.5 36.833 22.5 61.5h68c0 -42 -14 -77 -42 -105
s-63.333 -42 -106 -42c-42 0 -77.667 14 -107 42c-28 28 -42 63 -42 105z" />
    <glyph glyph-name="abreve" unicode="&#x103;" horiz-adv-x="645" 
d="M300 -11c-72.667 0 -133.667 25.667 -183 77c-48.667 51.333 -73 116 -73 194s24.333 142.333 73 193c48.667 52 109.667 78 183 78c78 0 141.333 -28.333 190 -85v74h84v-520h-84v74c-48.667 -56.667 -112 -85 -190 -85zM309 73c50.667 0 93.001 17.666 127.001 52.999
c34.667 35.333 52 80 52 134s-17.333 98.333 -52 133c-34 36 -76.333 54 -127 54c-50 0 -92.333 -18 -127 -54c-34 -35.333 -51 -79.666 -51 -132.999s17 -98 51 -134c35.333 -35.333 77.666 -53 126.999 -53zM174.001 734.999h68.001c0 -24.667 7.66699 -45.167 23 -61.5
s34.666 -24.5 57.999 -24.5s42.5 8.16699 57.5 24.5s22.5 36.833 22.5 61.5h68c0 -42.667 -14 -78 -42 -106s-63.333 -42 -106 -42c-42 0 -77.667 14 -107 42c-28 28 -42 63.333 -42 106z" />
    <glyph glyph-name="Aogonek" unicode="&#x104;" horiz-adv-x="721" 
d="M112 0h-94.999l307 700h73l307 -700h-11l-18 -15c-7.33301 -7.33301 -16.333 -19.333 -27 -36c-11.333 -18.667 -17 -35.334 -17 -50.001c0 -13.333 4 -23.833 12 -31.5s18.333 -11.5 31 -11.5c17.333 0 33.666 6.66699 48.999 20l7 7l30 -37l-14 -13
c-4.66699 -5.33301 -16.667 -12.666 -36 -21.999c-18.667 -9.33301 -36.667 -14 -54 -14c-26 0 -47.667 8.16699 -65 24.5s-26 36.833 -26 61.5c0 17.333 5 35.833 15 55.5s20.667 35.167 32 46.5l16 15h-19l-68 157h-361zM504.001 241l-143 330l-144 -330h287z" />
    <glyph glyph-name="aogonek" unicode="&#x105;" horiz-adv-x="645" 
d="M300 -11c-72.667 0 -133.667 25.6689 -183 77.002c-48.667 51.333 -73 116 -73 194s24.333 142.333 73 193c48.667 52 109.667 78 183 78c78 0 141.333 -28.333 190 -85v74h84v-520h-10l-17 -15c-7.33301 -7.33301 -16.333 -19.333 -27 -36
c-11.333 -18.667 -17 -35.334 -17 -50.001c0 -13.333 4 -23.833 12 -31.5s18 -11.5 30 -11.5c18 0 34.333 6.66699 49 20l7 7l31 -37l-14 -13c-4.66699 -5.33301 -16.667 -12.666 -36 -21.999c-18.667 -9.33301 -36.667 -14 -54 -14c-26 0 -47.833 8.16699 -65.5 24.5
s-26.5 36.833 -26.5 61.5c0 17.333 5 35.666 15 54.999s21 34.666 33 45.999l15 16h-9v74c-48.667 -56.667 -112 -85 -190 -85zM309 73.002c50.667 0 93.001 17.666 127.001 52.999c34.667 35.333 52 80 52 134s-17.333 98.333 -52 133c-34 36 -76.333 54 -127 54
c-50 0 -92.333 -18 -127 -54c-34 -35.333 -51 -79.666 -51 -132.999s17 -98 51 -134c35.333 -35.333 77.666 -53 126.999 -53z" />
    <glyph glyph-name="Cacute" unicode="&#x106;" horiz-adv-x="776" 
d="M412 711c68 0 129.834 -16.1689 185.501 -48.502s99.5 -76.833 131.5 -133.5l-88 -33c-24 40 -56 71.333 -96 94s-84.333 34 -133 34c-76.667 0 -140.334 -26.333 -191.001 -79c-51.333 -52.667 -77 -117.667 -77 -195s25.667 -142.666 77 -195.999
c51.333 -52 115 -78 191 -78c48.667 0 93 11.333 133 34s72 54 96 94l88 -33c-32 -56.667 -75.833 -101.167 -131.5 -133.5s-117.5 -48.5 -185.5 -48.5c-103.333 0 -189.333 34.333 -258 103s-103 154.667 -103 258c0 102.667 34.333 188.334 103 257.001
c69.333 69.333 155.333 104 258 104zM370.001 765.998l-29 51l182 119l40 -75z" />
    <glyph glyph-name="cacute" unicode="&#x107;" horiz-adv-x="599" 
d="M563 374l-83.998 -25c-15.333 30 -37.5 53.833 -66.5 71.5s-61.5 26.5 -97.5 26.5c-52.667 0 -96.334 -18 -131.001 -54c-35.333 -35.333 -53 -79.666 -53 -132.999c0 -52.667 17.667 -97.334 53 -134.001c35.333 -35.333 79 -53 131 -53c36 0 68.5 8.83301 97.5 26.5
s51.167 41.5 66.5 71.5l84 -25c-21.333 -48.667 -54.166 -87 -98.499 -115s-94.166 -42 -149.499 -42c-76.667 0 -141.334 25.667 -194.001 77c-51.333 52.667 -77 117.334 -77 194.001c0 77.333 25.667 141.666 77 192.999c52 52 116.667 78 194 78
c55.333 0 105.166 -14 149.499 -42s77.166 -66.333 98.499 -115zM280.002 599l-29 52l182 118l40 -75z" />
    <glyph glyph-name="Ccircumflex" unicode="&#x108;" horiz-adv-x="776" 
d="M412 711c68 0 129.834 -16.1689 185.501 -48.502s99.5 -76.833 131.5 -133.5l-88 -33c-24 40 -56 71.333 -96 94s-84.333 34 -133 34c-76.667 0 -140.334 -26.333 -191.001 -79c-51.333 -52.667 -77 -117.667 -77 -195s25.667 -142.666 77 -195.999
c51.333 -52 115 -78 191 -78c48.667 0 93 11.333 133 34s72 54 96 94l88 -33c-32 -56.667 -75.833 -101.167 -131.5 -133.5s-117.5 -48.5 -185.5 -48.5c-103.333 0 -189.333 34.333 -258 103s-103 154.667 -103 258c0 102.667 34.333 188.334 103 257.001
c69.333 69.333 155.333 104 258 104zM407.001 848.998l-128 -84l-36 48l161 122h6l161 -122l-36 -47z" />
    <glyph glyph-name="ccircumflex" unicode="&#x109;" horiz-adv-x="599" 
d="M563 374l-83.998 -25c-15.333 30 -37.5 53.833 -66.5 71.5s-61.5 26.5 -97.5 26.5c-52.667 0 -96.334 -18 -131.001 -54c-35.333 -35.333 -53 -79.666 -53 -132.999c0 -52.667 17.667 -97.334 53 -134.001c35.333 -35.333 79 -53 131 -53c36 0 68.5 8.83301 97.5 26.5
s51.167 41.5 66.5 71.5l84 -25c-21.333 -48.667 -54.166 -87 -98.499 -115s-94.166 -42 -149.499 -42c-76.667 0 -141.334 25.667 -194.001 77c-51.333 52.667 -77 117.334 -77 194.001c0 77.333 25.667 141.666 77 192.999c52 52 116.667 78 194 78
c55.333 0 105.166 -14 149.499 -42s77.166 -66.333 98.499 -115zM317.002 682l-128 -83l-36 47l161 122h6l161 -122l-36 -46z" />
    <glyph glyph-name="Cdotaccent" unicode="&#x10a;" horiz-adv-x="776" 
d="M412 711c68 0 129.834 -16.1689 185.501 -48.502s99.5 -76.833 131.5 -133.5l-88 -33c-24 40 -56 71.333 -96 94s-84.333 34 -133 34c-76.667 0 -140.334 -26.333 -191.001 -79c-51.333 -52.667 -77 -117.667 -77 -195s25.667 -142.666 77 -195.999
c51.333 -52 115 -78 191 -78c48.667 0 93 11.333 133 34s72 54 96 94l88 -33c-32 -56.667 -75.833 -101.167 -131.5 -133.5s-117.5 -48.5 -185.5 -48.5c-103.333 0 -189.333 34.333 -258 103s-103 154.667 -103 258c0 102.667 34.333 188.334 103 257.001
c69.333 69.333 155.333 104 258 104zM466.001 821.998c0 -16.667 -5.66699 -30.5 -17 -41.5s-25.333 -16.5 -42 -16.5s-30.5 5.5 -41.5 16.5s-16.5 24.833 -16.5 41.5s5.5 30.667 16.5 42s24.833 17 41.5 17s30.667 -5.5 42 -16.5s17 -25.167 17 -42.5z" />
    <glyph glyph-name="cdotaccent" unicode="&#x10b;" horiz-adv-x="599" 
d="M563 374l-83.998 -25c-15.333 30 -37.5 53.833 -66.5 71.5s-61.5 26.5 -97.5 26.5c-52.667 0 -96.334 -18 -131.001 -54c-35.333 -35.333 -53 -79.666 -53 -132.999c0 -52.667 17.667 -97.334 53 -134.001c35.333 -35.333 79 -53 131 -53c36 0 68.5 8.83301 97.5 26.5
s51.167 41.5 66.5 71.5l84 -25c-21.333 -48.667 -54.166 -87 -98.499 -115s-94.166 -42 -149.499 -42c-76.667 0 -141.334 25.667 -194.001 77c-51.333 52.667 -77 117.334 -77 194.001c0 77.333 25.667 141.666 77 192.999c52 52 116.667 78 194 78
c55.333 0 105.166 -14 149.499 -42s77.166 -66.333 98.499 -115zM317.002 598c-16.667 0 -30.5 5.5 -41.5 16.5s-16.5 24.833 -16.5 41.5s5.5 30.5 16.5 41.5s24.833 16.5 41.5 16.5s30.667 -5.5 42 -16.5s17 -24.833 17 -41.5s-5.5 -30.5 -16.5 -41.5
s-25.167 -16.5 -42.5 -16.5z" />
    <glyph glyph-name="Ccaron" unicode="&#x10c;" horiz-adv-x="776" 
d="M412 711c68 0 129.834 -16.1689 185.501 -48.502s99.5 -76.833 131.5 -133.5l-88 -33c-24 40 -56 71.333 -96 94s-84.333 34 -133 34c-76.667 0 -140.334 -26.333 -191.001 -79c-51.333 -52.667 -77 -117.667 -77 -195s25.667 -142.666 77 -195.999
c51.333 -52 115 -78 191 -78c48.667 0 93 11.333 133 34s72 54 96 94l88 -33c-32 -56.667 -75.833 -101.167 -131.5 -133.5s-117.5 -48.5 -185.5 -48.5c-103.333 0 -189.333 34.333 -258 103s-103 154.667 -103 258c0 102.667 34.333 188.334 103 257.001
c69.333 69.333 155.333 104 258 104zM407.001 851.998l128 82l36 -46l-161 -122h-6l-161 122l36 47z" />
    <glyph glyph-name="ccaron" unicode="&#x10d;" horiz-adv-x="599" 
d="M563 374l-83.998 -25c-15.333 30 -37.5 53.833 -66.5 71.5s-61.5 26.5 -97.5 26.5c-52.667 0 -96.334 -18 -131.001 -54c-35.333 -35.333 -53 -79.666 -53 -132.999c0 -52.667 17.667 -97.334 53 -134.001c35.333 -35.333 79 -53 131 -53c36 0 68.5 8.83301 97.5 26.5
s51.167 41.5 66.5 71.5l84 -25c-21.333 -48.667 -54.166 -87 -98.499 -115s-94.166 -42 -149.499 -42c-76.667 0 -141.334 25.667 -194.001 77c-51.333 52.667 -77 117.334 -77 194.001c0 77.333 25.667 141.666 77 192.999c52 52 116.667 78 194 78
c55.333 0 105.166 -14 149.499 -42s77.166 -66.333 98.499 -115zM317.002 685l128 83l36 -47l-161 -122h-6l-161 122l36 48z" />
    <glyph glyph-name="Dcaron" unicode="&#x10e;" horiz-adv-x="767" 
d="M355 0h-277v700h277c102 0 187.667 -33.667 257 -101s104 -150.333 104 -249s-34.667 -181.667 -104 -249s-155 -101 -257 -101zM355 616h-187v-532h187c75.333 0 138.666 25.667 189.999 77s77 114.333 77 189s-25.667 137.667 -77 189s-114.666 77 -189.999 77z
M259 766l-160 122l35 47l128 -83l128 82l36 -46l-161 -122h-6z" />
    <glyph glyph-name="dcaron" unicode="&#x10f;" horiz-adv-x="757" 
d="M300 531c39.333 0 75.666 -8.5 108.999 -25.5s60.333 -40.5 81 -70.5v315h84v-750h-84v85c-20.667 -30 -47.667 -53.5 -81 -70.5s-69.666 -25.5 -108.999 -25.5c-72.667 0 -133.667 25.667 -183 77c-48.667 51.333 -73 116 -73 194s24.333 142.333 73 193
c48.667 52 109.667 78 183 78zM310 73c51.333 0 94.001 17.666 128.001 52.999c34.667 35.333 52 80 52 134s-17.333 98.333 -52 133c-34 36 -76.667 54 -128 54c-50.667 0 -93.334 -18 -128.001 -54c-34 -35.333 -51 -79.666 -51 -132.999s17 -98 51 -134
c35.333 -35.333 78 -53 128 -53zM642.001 712.999c0 13.333 4.66699 24.666 14 33.999s21.333 14 36 14c16 0 29.167 -6 39.5 -18s15.5 -28 15.5 -48c0 -46 -25.333 -84.333 -76 -115l-5 -3l-22 24l12 10c6 5.33301 12.5 13.5 19.5 24.5s10.167 20.167 9.5 27.5
c-12 1.33301 -22.167 6.83301 -30.5 16.5s-12.5 20.834 -12.5 33.501z" />
    <glyph glyph-name="Dcroat" unicode="&#x110;" horiz-adv-x="780" 
d="M10 311v78h81v311h276c102.667 0 188.667 -33.667 258 -101s104 -150.333 104 -249s-34.667 -181.667 -104 -249s-155.333 -101 -258 -101h-276v311h-81zM181 616v-227h210v-78h-210v-227h186c76 0 139.667 25.667 191 77s77 114.333 77 189s-25.667 137.667 -77 189
s-115 77 -191 77h-186z" />
    <glyph glyph-name="dslash" unicode="&#x111;" horiz-adv-x="645" 
d="M300 531c78 0 141.333 -28.333 190 -85v148h-196v65h196v91h84v-91h60v-65h-60v-594h-84v74c-48.667 -56.667 -112 -85 -190 -85c-72.667 0 -133.667 25.667 -183 77c-48.667 51.333 -73 116 -73 194s24.333 142.333 73 193c48.667 52 109.667 78 183 78zM309 447
c-50 0 -92.332 -18.001 -126.999 -54.001c-34 -35.333 -51 -79.666 -51 -132.999s17 -98 51 -134c35.333 -35.333 77.666 -53 126.999 -53c50.667 0 93 17.667 127 53c34.667 35.333 52 80 52 134s-17.333 98.333 -52 133c-34 36 -76.333 54 -127 54z" />
    <glyph glyph-name="Emacron" unicode="&#x112;" horiz-adv-x="626" 
d="M78 700h504v-84h-414v-220h363v-84h-363v-228h419v-84h-509v700zM181 790v72h289v-72h-289z" />
    <glyph glyph-name="emacron" unicode="&#x113;" horiz-adv-x="616" 
d="M578 231h-447.002c6 -46.667 26.667 -85.667 62 -117c34.667 -30.667 77.334 -46 128.001 -46c66 0 117.333 25 154 75l82 -26c-24 -40 -56.833 -71.333 -98.5 -94s-87.5 -34 -137.5 -34c-78.667 0 -144.667 25.667 -198 77c-52.667 52 -79 116.667 -79 194
s25.667 141.666 77 192.999c51.333 52 115 78 191 78c76.667 0 140.334 -26 191.001 -78c51.333 -51.333 77 -115.666 77 -192.999c0 -2 -0.666992 -11.667 -2 -29zM131.998 299h361c-8 44.667 -29 81.667 -63 111c-33.333 28.667 -73.333 43 -120 43
c-45.333 0 -84.333 -14.333 -117 -43s-53 -65.667 -61 -111zM457.998 624h-288v71h288v-71z" />
    <glyph glyph-name="Ebreve" unicode="&#x114;" horiz-adv-x="626" 
d="M78 700h504v-84h-414v-220h363v-84h-363v-228h419v-84h-509v700zM177 901h68.001c0 -24.667 7.66699 -45.167 23 -61.5s34.666 -24.5 57.999 -24.5s42.5 8.16699 57.5 24.5s22.5 36.833 22.5 61.5h68c0 -42 -14.333 -77 -43 -105c-28 -28 -63.333 -42 -106 -42
s-78 14 -106 42s-42 63 -42 105z" />
    <glyph glyph-name="ebreve" unicode="&#x115;" horiz-adv-x="616" 
d="M578 231h-447.002c6 -46.667 26.667 -85.667 62 -117c34.667 -30.667 77.334 -46 128.001 -46c66 0 117.333 25 154 75l82 -26c-24 -40 -56.833 -71.333 -98.5 -94s-87.5 -34 -137.5 -34c-78.667 0 -144.667 25.667 -198 77c-52.667 52 -79 116.667 -79 194
s25.667 141.666 77 192.999c51.333 52 115 78 191 78c76.667 0 140.334 -26 191.001 -78c51.333 -51.333 77 -115.666 77 -192.999c0 -2 -0.666992 -11.667 -2 -29zM131.998 299h361c-8 44.667 -29 81.667 -63 111c-33.333 28.667 -73.333 43 -120 43
c-45.333 0 -84.333 -14.333 -117 -43s-53 -65.667 -61 -111zM164.998 735h68.001c0 -24.667 7.83301 -45.167 23.5 -61.5s35.167 -24.5 58.5 -24.5c22.667 0 41.667 8.16699 57 24.5s23 36.833 23 61.5h68c0 -42.667 -14.333 -78 -43 -106c-28 -28 -63.333 -42 -106 -42
s-78.334 14 -107.001 42c-28 28 -42 63.333 -42 106z" />
    <glyph glyph-name="Edotaccent" unicode="&#x116;" horiz-adv-x="626" 
d="M78 700h504v-84h-414v-220h363v-84h-363v-228h419v-84h-509v700zM384 822c0 -16.667 -5.66699 -30.5 -17 -41.5s-25.333 -16.5 -42 -16.5s-30.5 5.5 -41.5 16.5s-16.5 24.833 -16.5 41.5s5.5 30.667 16.5 42s24.833 17 41.5 17s30.667 -5.5 42 -16.5s17 -25.167 17 -42.5
z" />
    <glyph glyph-name="edotaccent" unicode="&#x117;" horiz-adv-x="616" 
d="M578 231h-447.002c6 -46.667 26.667 -85.667 62 -117c34.667 -30.667 77.334 -46 128.001 -46c66 0 117.333 25 154 75l82 -26c-24 -40 -56.833 -71.333 -98.5 -94s-87.5 -34 -137.5 -34c-78.667 0 -144.667 25.667 -198 77c-52.667 52 -79 116.667 -79 194
s25.667 141.666 77 192.999c51.333 52 115 78 191 78c76.667 0 140.334 -26 191.001 -78c51.333 -51.333 77 -115.666 77 -192.999c0 -2 -0.666992 -11.667 -2 -29zM131.998 299h361c-8 44.667 -29 81.667 -63 111c-33.333 28.667 -73.333 43 -120 43
c-45.333 0 -84.333 -14.333 -117 -43s-53 -65.667 -61 -111zM271.998 614c-10.667 11.333 -16 25.333 -16 42s5.33301 30.334 16 41.001c11.333 11.333 25.333 17 42 17s30.334 -5.66699 41.001 -17c11.333 -10.667 17 -24.334 17 -41.001s-5.66699 -30.667 -17 -42
c-10.667 -10.667 -24.334 -16 -41.001 -16s-30.667 5.33301 -42 16z" />
    <glyph glyph-name="Eogonek" unicode="&#x118;" horiz-adv-x="626" 
d="M491 0l-413 0.00195312v700h504v-84h-414v-220h363v-84h-363v-228h419v-84h-31l-17 -15c-7.33301 -7.33301 -16.333 -19.333 -27 -36c-11.333 -18.667 -17 -35.334 -17 -50.001c0 -13.333 4 -23.833 12 -31.5s18 -11.5 30 -11.5c18 0 34.333 6.66699 49 20l7 7l31 -37
l-14 -13c-4.66699 -5.33301 -16.667 -12.666 -36 -21.999c-18.667 -9.33301 -36.667 -14 -54 -14c-26 0 -47.833 8.16699 -65.5 24.5s-26.5 36.833 -26.5 61.5c0 17.333 5 35.666 15 54.999s21 34.666 33 45.999z" />
    <glyph glyph-name="eogonek" unicode="&#x119;" horiz-adv-x="616" 
d="M307 -11c-75.333 2.66699 -138.334 29.999 -189.001 81.999c-49.333 51.333 -74 114.333 -74 189c0 77.333 25.667 141.666 77 192.999c51.333 52 115 78 191 78c76.667 0 140.334 -26 191.001 -78c51.333 -51.333 77 -115.666 77 -192.999
c0 -2 -0.666992 -11.667 -2 -29h-447c6 -46.667 26.667 -85.667 62 -117c34.667 -30.667 77.334 -46 128.001 -46c66 0 117.333 25 154 75l82 -26c-40 -67.333 -100.333 -108.333 -181 -123c-36 -34 -54 -65.667 -54 -95c0 -13.333 4 -23.833 12 -31.5s18 -11.5 30 -11.5
c17.333 0 33.666 6.66699 48.999 20l7 7l30 -37l-14 -13c-4.66699 -5.33301 -16.667 -12.666 -36 -21.999c-18.667 -9.33301 -36.667 -14 -54 -14c-26 0 -47.667 8.16699 -65 24.5s-26 36.833 -26 61.5c0 36 17.333 71.333 52 106zM131.999 298.999h361
c-8 44.667 -29 81.667 -63 111c-33.333 28.667 -73.333 43 -120 43c-45.333 0 -84.333 -14.333 -117 -43s-53 -65.667 -61 -111z" />
    <glyph glyph-name="Ecaron" unicode="&#x11a;" horiz-adv-x="626" 
d="M78 700h504v-84h-414v-220h363v-84h-363v-228h419v-84h-509v700zM322 766l-161 122l36 47l128 -83l128 82l36 -46l-161 -122h-6z" />
    <glyph glyph-name="ecaron" unicode="&#x11b;" horiz-adv-x="616" 
d="M578 231h-447.002c6 -46.667 26.667 -85.667 62 -117c34.667 -30.667 77.334 -46 128.001 -46c66 0 117.333 25 154 75l82 -26c-24 -40 -56.833 -71.333 -98.5 -94s-87.5 -34 -137.5 -34c-78.667 0 -144.667 25.667 -198 77c-52.667 52 -79 116.667 -79 194
s25.667 141.666 77 192.999c51.333 52 115 78 191 78c76.667 0 140.334 -26 191.001 -78c51.333 -51.333 77 -115.666 77 -192.999c0 -2 -0.666992 -11.667 -2 -29zM131.998 299h361c-8 44.667 -29 81.667 -63 111c-33.333 28.667 -73.333 43 -120 43
c-45.333 0 -84.333 -14.333 -117 -43s-53 -65.667 -61 -111zM313.998 685l128 83l35 -47l-160 -122h-6l-161 122l36 48z" />
    <glyph glyph-name="Gcircumflex" unicode="&#x11c;" horiz-adv-x="819" 
d="M51 350c0 102.667 35.002 188.667 105.002 258c69.333 68.667 156.666 103 261.999 103c69.333 0 132.166 -16.167 188.499 -48.5s100.5 -76.833 132.5 -133.5l-88 -33c-24 40 -56.5 71.333 -97.5 94s-86.167 34 -135.5 34c-77.333 0 -142.333 -26.333 -195 -79
c-52.667 -52 -79 -117 -79 -195s25.333 -143.333 76 -196c50.667 -52 113 -78 187 -78c63.333 0 119.666 19.667 168.999 59c49.333 40 79.333 91 90 153h-278v84h379c1.33301 -16 2 -26 2 -30c-2 -100.667 -37.333 -184.667 -106 -252
c-69.333 -67.333 -153.666 -101 -252.999 -101c-102 0 -187.333 34.333 -256 103s-103 154.667 -103 258zM407.002 849l-128 -84l-36 48l161 122h6l161 -122l-36 -47z" />
    <glyph glyph-name="gcircumflex" unicode="&#x11d;" horiz-adv-x="645" 
d="M300 531c78 0 141.335 -28.332 190.002 -84.999v74h84v-498c0 -74 -25.333 -135.333 -76 -184c-51.333 -49.333 -113.666 -74 -186.999 -74c-50.667 0 -98.334 12.667 -143.001 38c-43.333 25.333 -75 57.333 -95 96l84 27c14 -22.667 34.833 -41.167 62.5 -55.5
s57.167 -21.5 88.5 -21.5c51.333 0 94.666 16.667 129.999 50s52.666 74.666 51.999 123.999v52c-48.667 -56.667 -112 -85 -190 -85c-72.667 0 -133.667 25.667 -183 77c-48.667 51.333 -73 116 -73 194s24.333 142.333 73 193c48.667 52 109.667 78 183 78z
M309.002 73.001c50.667 0 93.001 17.666 127.001 52.999c34.667 35.333 52 80 52 134s-17.333 98.333 -52 133c-34 36 -76.333 54 -127 54c-50 0 -92.333 -18 -127 -54c-34 -35.333 -51 -79.666 -51 -132.999s17 -98 51 -134c35.333 -35.333 77.666 -53 126.999 -53z
M186.003 599l-35 47l160 122h6l161 -122l-36 -46l-128 82z" />
    <glyph glyph-name="Gbreve" unicode="&#x11e;" horiz-adv-x="819" 
d="M51 350c0 102.667 35.002 188.667 105.002 258c69.333 68.667 156.666 103 261.999 103c69.333 0 132.166 -16.167 188.499 -48.5s100.5 -76.833 132.5 -133.5l-88 -33c-24 40 -56.5 71.333 -97.5 94s-86.167 34 -135.5 34c-77.333 0 -142.333 -26.333 -195 -79
c-52.667 -52 -79 -117 -79 -195s25.333 -143.333 76 -196c50.667 -52 113 -78 187 -78c63.333 0 119.666 19.667 168.999 59c49.333 40 79.333 91 90 153h-278v84h379c1.33301 -16 2 -26 2 -30c-2 -100.667 -37.333 -184.667 -106 -252
c-69.333 -67.333 -153.666 -101 -252.999 -101c-102 0 -187.333 34.333 -256 103s-103 154.667 -103 258zM259.002 901h68.001c0 -24.667 7.66699 -45.167 23 -61.5s34.666 -24.5 57.999 -24.5s42.5 8.16699 57.5 24.5s22.5 36.833 22.5 61.5h68c0 -42 -14.333 -77 -43 -105
c-28 -28 -63.333 -42 -106 -42s-78 14 -106 42s-42 63 -42 105z" />
    <glyph glyph-name="gbreve" unicode="&#x11f;" horiz-adv-x="645" 
d="M300 -11c-72.667 0 -133.665 25.668 -182.998 77.001c-48.667 51.333 -73 116 -73 194s24.333 142.333 73 193c48.667 52 109.667 78 183 78c78 0 141.333 -28.333 190 -85v74h84v-498c0 -74 -25.333 -135.333 -76 -184c-51.333 -49.333 -113.666 -74 -186.999 -74
c-50.667 0 -98.334 12.667 -143.001 38c-43.333 25.333 -75 57.333 -95 96l84 27c14 -22.667 34.833 -41.167 62.5 -55.5s57.167 -21.5 88.5 -21.5c51.333 0 94.666 16.667 129.999 50s52.666 74.666 51.999 123.999v52c-48.667 -56.667 -112 -85 -190 -85zM309.002 447.001
c-50 0 -92.332 -18.001 -126.999 -54.001c-34 -35.333 -51 -79.666 -51 -132.999s17 -98 51 -134c35.333 -35.333 77.666 -53 126.999 -53c50.667 0 93 17.667 127 53c34.667 35.333 52 80 52 134s-17.333 98.333 -52 133c-34 36 -76.333 54 -127 54zM166.003 735h68.001
c0 -24.667 7.66699 -45.167 23 -61.5s34.666 -24.5 57.999 -24.5s42.5 8.16699 57.5 24.5s22.5 36.833 22.5 61.5h68c0 -42.667 -14 -78 -42 -106s-63.333 -42 -106 -42c-42 0 -77.667 14 -107 42c-28 28 -42 63.333 -42 106z" />
    <glyph glyph-name="Gdotaccent" unicode="&#x120;" horiz-adv-x="819" 
d="M51 350c0 102.667 35.002 188.667 105.002 258c69.333 68.667 156.666 103 261.999 103c69.333 0 132.166 -16.167 188.499 -48.5s100.5 -76.833 132.5 -133.5l-88 -33c-24 40 -56.5 71.333 -97.5 94s-86.167 34 -135.5 34c-77.333 0 -142.333 -26.333 -195 -79
c-52.667 -52 -79 -117 -79 -195s25.333 -143.333 76 -196c50.667 -52 113 -78 187 -78c63.333 0 119.666 19.667 168.999 59c49.333 40 79.333 91 90 153h-278v84h379c1.33301 -16 2 -26 2 -30c-2 -100.667 -37.333 -184.667 -106 -252
c-69.333 -67.333 -153.666 -101 -252.999 -101c-102 0 -187.333 34.333 -256 103s-103 154.667 -103 258zM466.002 822c0 -16.667 -5.66699 -30.5 -17 -41.5s-25.333 -16.5 -42 -16.5s-30.5 5.5 -41.5 16.5s-16.5 24.833 -16.5 41.5s5.5 30.667 16.5 42s24.833 17 41.5 17
s30.667 -5.5 42 -16.5s17 -25.167 17 -42.5z" />
    <glyph glyph-name="gdotaccent" unicode="&#x121;" horiz-adv-x="645" 
d="M300 -11c-72.667 0 -133.665 25.668 -182.998 77.001c-48.667 51.333 -73 116 -73 194s24.333 142.333 73 193c48.667 52 109.667 78 183 78c78 0 141.333 -28.333 190 -85v74h84v-498c0 -74 -25.333 -135.333 -76 -184c-51.333 -49.333 -113.666 -74 -186.999 -74
c-50.667 0 -98.334 12.667 -143.001 38c-43.333 25.333 -75 57.333 -95 96l84 27c14 -22.667 34.833 -41.167 62.5 -55.5s57.167 -21.5 88.5 -21.5c51.333 0 94.666 16.667 129.999 50s52.666 74.666 51.999 123.999v52c-48.667 -56.667 -112 -85 -190 -85zM309.002 73.001
c50.667 0 93.001 17.666 127.001 52.999c34.667 35.333 52 80 52 134s-17.333 98.333 -52 133c-34 36 -76.333 54 -127 54c-50 0 -92.333 -18 -127 -54c-34 -35.333 -51 -79.666 -51 -132.999s17 -98 51 -134c35.333 -35.333 77.666 -53 126.999 -53zM315.003 598
c-17.333 0 -31.5 5.5 -42.5 16.5s-16.5 24.833 -16.5 41.5s5.66699 30.5 17 41.5s25.333 16.5 42 16.5s30.5 -5.5 41.5 -16.5s16.5 -24.833 16.5 -41.5s-5.5 -30.5 -16.5 -41.5s-24.833 -16.5 -41.5 -16.5z" />
    <glyph glyph-name="uni0122" unicode="&#x122;" horiz-adv-x="819" 
d="M51 350c0 102.667 35.002 188.667 105.002 258c69.333 68.667 156.666 103 261.999 103c69.333 0 132.166 -16.167 188.499 -48.5s100.5 -76.833 132.5 -133.5l-88 -33c-24 40 -56.5 71.333 -97.5 94s-86.167 34 -135.5 34c-77.333 0 -142.333 -26.333 -195 -79
c-52.667 -52 -79 -117 -79 -195s25.333 -143.333 76 -196c50.667 -52 113 -78 187 -78c63.333 0 119.666 19.667 168.999 59c49.333 40 79.333 91 90 153h-278v84h379c1.33301 -16 2 -26 2 -30c-2 -100.667 -37.333 -184.667 -106 -252
c-69.333 -67.333 -153.666 -101 -252.999 -101c-102 0 -187.333 34.333 -256 103s-103 154.667 -103 258zM477.002 -125c0 -46 -25.334 -84.333 -76.001 -115l-5 -3l-22 24l12 10c6 5.33301 12.5 13.5 19.5 24.5s10.167 20.167 9.5 27.5
c-12 1.33301 -22.333 6.83301 -31 16.5s-13 20.834 -13 33.501c0 13.333 4.83301 24.666 14.5 33.999s21.834 14 36.501 14c16 0 29.167 -6 39.5 -18s15.5 -28 15.5 -48z" />
    <glyph glyph-name="uni0123" unicode="&#x123;" horiz-adv-x="645" 
d="M300 -11c-72.667 0 -133.666 25.667 -182.999 77c-48.667 51.333 -73 116 -73 194s24.333 142.333 73 193c48.667 52 109.667 78 183 78c78 0 141.333 -28.333 190 -85v74h84v-498c0 -74 -25.333 -135.333 -76 -184c-51.333 -49.333 -113.666 -74 -186.999 -74
c-50.667 0 -98.334 12.667 -143.001 38c-43.333 25.333 -75 57.333 -95 96l84 27c14 -22.667 34.833 -41.167 62.5 -55.5s57.167 -21.5 88.5 -21.5c51.333 0 94.666 16.667 129.999 50c34.667 32.667 52 74 52 124v52c-48.667 -56.667 -112 -85 -190 -85zM309.001 447
c-50 0 -92.332 -18.001 -126.999 -54.001c-34 -35.333 -51 -79.666 -51 -132.999s17 -98 51 -134c35.333 -35.333 77.666 -53 126.999 -53c50.667 0 93 17.667 127 53c34.667 35.333 52 80 52 134s-17.333 98.333 -52 133c-34 36 -76.333 54 -127 54zM260.002 651.999
c0 46 25.333 84.333 76 115l5 3l22 -24l-12 -10c-6 -5.33301 -12.5 -13.5 -19.5 -24.5s-10.167 -20.167 -9.5 -27.5c12 -1.33301 22.167 -6.83301 30.5 -16.5s12.5 -20.834 12.5 -33.501c0 -13.333 -4.66699 -24.666 -14 -33.999s-21.333 -14 -36 -14
c-16 0 -29.167 6 -39.5 18s-15.5 28 -15.5 48z" />
    <glyph glyph-name="Hcircumflex" unicode="&#x124;" horiz-adv-x="752" 
d="M168 0h-90v700h90v-304h415v304h91v-700h-91v312h-415v-312zM248 765l-36 48l161 122h5l161 -122l-36 -47l-128 83z" />
    <glyph glyph-name="hcircumflex" unicode="&#x125;" horiz-adv-x="621" 
d="M155 300l0.000976562 -300h-84v750h84v-317c41.333 65.333 103.333 98 186 98c60 0 110.333 -19.667 151 -59c40 -38.667 60 -88 60 -148v-324h-84v302c0 42 -14.333 77.333 -43 106s-64.334 43 -107.001 43c-46 0 -84.667 -14.667 -116 -44s-47 -65 -47 -107z
M114.001 892l-128 -83l-36 47l161 122h6l160 -122l-35 -46z" />
    <glyph glyph-name="Hbar" unicode="&#x126;" horiz-adv-x="764" 
d="M674 700v-113h80v-78h-80v-509h-91v312h-415v-312h-90v509h-68v78h68v113h90v-113h415v113h91zM583 396v113h-415v-113h415z" />
    <glyph glyph-name="hbar" unicode="&#x127;" horiz-adv-x="621" 
d="M155 750l0.000976562 -91h195v-65h-195v-161c41.333 65.333 103.333 98 186 98c60 0 110.333 -19.667 151 -59c40 -38.667 60 -88 60 -148v-324h-84v302c0 42 -14.333 77.333 -43 106s-64.334 43 -107.001 43c-46 0 -84.667 -14.667 -116 -44s-47 -65 -47 -107v-300h-84
v594h-61v65h61v91h84z" />
    <glyph glyph-name="Itilde" unicode="&#x128;" horiz-adv-x="246" 
d="M168 0h-90v700h90v-700zM36 777h-68.002c0 28.667 10 53 30 73c20 20.667 43.667 31 71 31c20.667 0 40.334 -8 59.001 -24c20.667 -15.333 35.334 -23 44.001 -23c10.667 0 19.667 4 27 12s11 18 11 30h67c0 -29.333 -9.5 -53.833 -28.5 -73.5s-42.5 -29.5 -70.5 -29.5
c-20.667 0 -40.667 7.66699 -60 23c-19.333 16 -33.666 24 -42.999 24c-10.667 0 -19.834 -4.16699 -27.501 -12.5s-11.5 -18.5 -11.5 -30.5z" />
    <glyph glyph-name="itilde" unicode="&#x129;" horiz-adv-x="232" 
d="M158 0h-84v520h84v-520zM29 611h-68.001c0 28.667 10 53 30 73s43.667 30 71 30c20 0 39.667 -8 59 -24c20.667 -15.333 35.334 -23 44.001 -23c10.667 0 19.667 4 27 12s11 18.333 11 31h67c0 -29.333 -9.66699 -54 -29 -74s-42.666 -30 -69.999 -30
c-20.667 0 -40.667 7.66699 -60 23c-18.667 16 -33 24 -43 24c-10.667 0 -19.834 -4 -27.501 -12s-11.5 -18 -11.5 -30z" />
    <glyph glyph-name="Imacron" unicode="&#x12a;" horiz-adv-x="246" 
d="M168 0h-90v700h90v-700zM267 790h-288v72h288v-72z" />
    <glyph glyph-name="imacron" unicode="&#x12b;" horiz-adv-x="226" 
d="M155 0h-84v520h84v-520zM-31 624v71h288v-71h-288z" />
    <glyph glyph-name="Ibreve" unicode="&#x12c;" horiz-adv-x="246" 
d="M168 0h-90v700h90v-700zM-26 901h69.001c0 -24.667 7.66699 -45.167 23 -61.5s34.666 -24.5 57.999 -24.5c22.667 0 41.667 8.16699 57 24.5s23 36.833 23 61.5h68c0 -42 -14.333 -77 -43 -105c-28 -28 -63.333 -42 -106 -42c-42 0 -77.667 14 -107 42
c-28 28 -42 63 -42 105z" />
    <glyph glyph-name="ibreve" unicode="&#x12d;" horiz-adv-x="226" 
d="M155 0h-84v520h84v-520zM-36 735h69.001c0 -24.667 7.66699 -45.167 23 -61.5s34.666 -24.5 57.999 -24.5c22.667 0 41.667 8.16699 57 24.5s23 36.833 23 61.5h68c0 -42.667 -14.333 -78 -43 -106c-28 -28 -63.333 -42 -106 -42c-42 0 -77.667 14 -107 42
c-28 28 -42 63.333 -42 106z" />
    <glyph glyph-name="Iogonek" unicode="&#x12e;" horiz-adv-x="246" 
d="M32 -117c0 17.333 4.83301 35.668 14.5 55.001s20.5 34.666 32.5 45.999l16 16h-17v700h90v-700h-8l-17 -15c-7.33301 -7.33301 -16.333 -19.333 -27 -36c-11.333 -18.667 -17 -35.334 -17 -50.001c0 -12 3.5 -21.833 10.5 -29.5s15.833 -12.167 26.5 -13.5
c24 0 44.333 9 61 27l31 -37l-14 -13c-4.66699 -5.33301 -16.667 -12.666 -36 -21.999c-18.667 -9.33301 -36.667 -14 -54 -14c-26 0 -47.833 8.16699 -65.5 24.5s-26.5 36.833 -26.5 61.5z" />
    <glyph glyph-name="iogonek" unicode="&#x12f;" horiz-adv-x="226" 
d="M115 -203c-26.667 0 -48.666 8.16895 -65.999 24.502s-26 36.833 -26 61.5c0 17.333 4.83301 35.666 14.5 54.999s20.5 34.666 32.5 45.999l16 16h-15v520h84v-520h-4l-17 -15c-6.66699 -7.33301 -15.667 -19.333 -27 -36c-11.333 -18.667 -17 -35.334 -17 -50.001
c0 -13.333 4 -23.833 12 -31.5s18 -11.5 30 -11.5c17.333 0 33.666 6.66699 48.999 20l7 7l31 -37l-14 -13c-4.66699 -5.33301 -16.667 -12.666 -36 -21.999c-18.667 -9.33301 -36.667 -14 -54 -14zM113.001 589.002c-16.667 0 -30.5 5.49902 -41.5 16.499
s-16.5 24.833 -16.5 41.5s5.5 30.5 16.5 41.5s24.833 16.5 41.5 16.5c15.333 0 28.5 -4.66699 39.5 -14s17.5 -21.666 19.5 -36.999c0 -18.667 -5.33301 -34.167 -16 -46.5s-25 -18.5 -43 -18.5z" />
    <glyph glyph-name="Idot" unicode="&#x130;" horiz-adv-x="246" 
d="M168 0h-90v700h90v-700zM81 780c-10.667 11.333 -16 25.333 -16 42s5.33301 30.667 16 42c11.333 11.333 25.333 17 42 17s30.667 -5.66699 42 -17s17 -25.333 17 -42s-5.66699 -30.667 -17 -42c-11.333 -10.667 -25.333 -16 -42 -16s-30.667 5.33301 -42 16z" />
    <glyph glyph-name="dotlessi" unicode="&#x131;" horiz-adv-x="226" 
d="M155 0h-84v520h84v-520z" />
    <glyph glyph-name="IJ" unicode="&#x132;" horiz-adv-x="841" 
d="M168 0h-90v700h90v-700zM769 700l0.00195312 -449c0 -74.667 -25.667 -137 -77 -187c-50.667 -50 -114.667 -75 -192 -75c-48 0 -92 10.667 -132 32s-72 50.333 -96 87l75 49c15.333 -26 36.666 -46.5 63.999 -61.5s57.666 -22.5 90.999 -22.5c51.333 0 94 17 128 51
c34.667 34 52 76.333 52 127v449h87z" />
    <glyph glyph-name="ij" unicode="&#x133;" horiz-adv-x="460" 
d="M155 0h-84v520h84v-520zM71 605c-10.667 11.333 -16 25.333 -16 42s5.33301 30.334 16 41.001c11.333 11.333 25.333 17 42 17s30.667 -5.66699 42 -17c11.333 -10.667 17 -24.334 17 -41.001s-5.66699 -30.667 -17 -42c-11.333 -10.667 -25.333 -16 -42 -16
s-30.667 5.33301 -42 16zM305 520l84 -0.000976562v-592c0 -43.333 -14.667 -79.666 -44 -108.999s-65.666 -44 -108.999 -44h-42v81h36c21.333 0 39.166 7.83301 53.499 23.5s21.5 35.167 21.5 58.5v582zM305 604.999c-10.667 11.333 -16 25.333 -16 42
s5.33301 30.334 16 41.001c11.333 11.333 25.333 17 42 17s30.334 -5.66699 41.001 -17c11.333 -10.667 17 -24.334 17 -41.001s-5.66699 -30.667 -17 -42c-10.667 -10.667 -24.334 -16 -41.001 -16s-30.667 5.33301 -42 16z" />
    <glyph glyph-name="Jcircumflex" unicode="&#x134;" horiz-adv-x="595" 
d="M523 700v-449c0 -74.667 -25.667 -137 -77 -187c-50.667 -50 -114.667 -75 -192 -75c-48 0 -92 10.667 -132 32s-72 50.333 -96 87l75 49c15.333 -26 36.5 -46.5 63.5 -61.5s57.167 -22.5 90.5 -22.5c51.333 0 94.333 17 129 51s52 76.333 52 127v449h87zM476 849
l-128 -84l-35 48l160 122h6l161 -122l-36 -47z" />
    <glyph glyph-name="jcircumflex" unicode="&#x135;" horiz-adv-x="234" 
d="M79 520l84 -0.000976562v-592c0 -43.333 -14.667 -79.666 -44 -108.999s-65.666 -44 -108.999 -44h-42v81h36c21.333 0 39.166 7.83301 53.499 23.5s21.5 35.167 21.5 58.5v582zM121 681.999l-128 -83l-36 47l161 122h6l161 -122l-36 -46z" />
    <glyph glyph-name="uni0136" unicode="&#x136;" horiz-adv-x="643" 
d="M510 0l-329 357l309 343h116l-309 -343l329 -357h-116zM78 0v700h90v-700h-90zM284 -107c0 13.333 4.83301 24.666 14.5 33.999s21.834 14 36.501 14c16 0 29.167 -6 39.5 -18s15.5 -28 15.5 -48c0 -46 -25.333 -84.333 -76 -115l-5 -3l-23 24l12 10
c6 5.33301 12.667 13.5 20 24.5s10.666 20.167 9.99902 27.5c-12 1.33301 -22.333 6.83301 -31 16.5s-13 20.834 -13 33.501z" />
    <glyph glyph-name="uni0137" unicode="&#x137;" horiz-adv-x="515" 
d="M155 0h-84v750h84v-750zM393 0l-234 269l214 251h103l-213 -251l235 -269h-105zM221 -107c0 13.333 4.66699 24.666 14 33.999s21.333 14 36 14c16 0 29.167 -6 39.5 -18s15.5 -28 15.5 -48c0 -46 -25.333 -84.333 -76 -115l-5 -3l-22 24l12 10
c6 5.33301 12.5 13.5 19.5 24.5s10.167 20.167 9.5 27.5c-12 1.33301 -22.167 6.83301 -30.5 16.5s-12.5 20.834 -12.5 33.501z" />
    <glyph glyph-name="Lacute" unicode="&#x139;" horiz-adv-x="577" 
d="M547 0h-469v700h90v-616h379v-84zM55 817l183 119l40 -75l-193 -95z" />
    <glyph glyph-name="lacute" unicode="&#x13a;" horiz-adv-x="226" 
d="M155 0h-84v750h84v-750zM76 809l-30 52l183 118l40 -75z" />
    <glyph glyph-name="uni013B" unicode="&#x13b;" horiz-adv-x="577" 
d="M78 0v700h90v-616h379v-84h-469zM267 -107c0 13.333 4.66699 24.666 14 33.999s21.333 14 36 14c16 0 29.167 -6 39.5 -18s15.5 -28 15.5 -48c0 -46 -25.333 -84.333 -76 -115l-5 -3l-22 24l12 10c6 5.33301 12.5 13.5 19.5 24.5s10.167 20.167 9.5 27.5
c-12 1.33301 -22.167 6.83301 -30.5 16.5s-12.5 20.834 -12.5 33.501z" />
    <glyph glyph-name="uni013C" unicode="&#x13c;" horiz-adv-x="226" 
d="M155 0h-84v750h84v-750zM167 -125c0 -46 -25.334 -84.333 -76.001 -115l-5 -3l-22 24l12 10c6 5.33301 12.5 13.5 19.5 24.5s10.167 20.167 9.5 27.5c-12 1.33301 -22.333 6.83301 -31 16.5s-13 20.834 -13 33.501c0 13.333 4.83301 24.666 14.5 33.999
s21.834 14 36.501 14c16 0 29.167 -6 39.5 -18s15.5 -28 15.5 -48z" />
    <glyph glyph-name="Lcaron" unicode="&#x13d;" horiz-adv-x="577" 
d="M78 0v700h90v-616h379v-84h-469zM321 663c0 13.333 4.66797 24.666 14.001 33.999s21.333 14 36 14c16 0 29.167 -6 39.5 -18s15.5 -28 15.5 -48c0 -46 -25.333 -84.333 -76 -115l-5 -3l-22 24l12 10c6 5.33301 12.667 13.5 20 24.5s10.666 20.167 9.99902 27.5
c-12.667 1.33301 -23.167 6.83301 -31.5 16.5s-12.5 20.834 -12.5 33.501z" />
    <glyph glyph-name="lcaron" unicode="&#x13e;" horiz-adv-x="339" 
d="M155 0h-84v750h84v-750zM223 713c0 13.333 4.83301 24.666 14.5 33.999s21.834 14 36.501 14c16 0 29.167 -6 39.5 -18s15.5 -28 15.5 -48c0 -46 -25.333 -84.333 -76 -115l-5 -3l-23 24l12 10c6 5.33301 12.667 13.5 20 24.5s10.666 20.167 9.99902 27.5
c-12 1.33301 -22.333 6.83301 -31 16.5s-13 20.834 -13 33.501z" />
    <glyph glyph-name="Ldot" unicode="&#x13f;" horiz-adv-x="577" 
d="M78 0v700h90v-616h379v-84h-469zM455 307c-11.333 -11.333 -25.666 -17 -42.999 -17s-31.666 5.66699 -42.999 17s-17 25.666 -17 42.999s5.66699 31.666 17 42.999s25.666 17 42.999 17s31.666 -5.66699 42.999 -17s17 -25.666 17 -42.999s-5.66699 -31.666 -17 -42.999
z" />
    <glyph glyph-name="ldot" unicode="&#x140;" horiz-adv-x="442" 
d="M155 0h-84v750h84v-750zM291 307c-11.333 11.333 -17 25.666 -17 42.999s5.66699 31.666 17 42.999s25.666 17 42.999 17s31.666 -5.66699 42.999 -17s17 -25.666 17 -42.999s-5.66699 -31.666 -17 -42.999s-25.666 -17 -42.999 -17s-31.666 5.66699 -42.999 17z" />
    <glyph glyph-name="Lslash" unicode="&#x141;" horiz-adv-x="602" 
d="M102 238l-51 -31l-38 67l89 54v372h91v-318l137 83l39 -67l-176 -106v-208h378v-84h-469v238z" />
    <glyph glyph-name="lslash" unicode="&#x142;" horiz-adv-x="226" 
d="M155 750v-344l71 41v-74l-71 -41v-332h-84v283l-71 -41v75l71 41v392h84z" />
    <glyph glyph-name="Nacute" unicode="&#x143;" horiz-adv-x="755" 
d="M78 0v700h79l433 -544v544h87v-700h-79l-433 544v-544h-87zM533 861l-193 -95l-29 51l182 119z" />
    <glyph glyph-name="nacute" unicode="&#x144;" 
d="M155 300l-0.000976562 -300h-84v520h84v-87c41.333 65.333 103 98 185 98c60 0 109.667 -19.667 149 -59c40 -38.667 60 -88 60 -148v-324h-84v302c0 42 -14.333 77.333 -43 106c-28 28.667 -63 43 -105 43c-45.333 0 -83.666 -14.667 -114.999 -44s-47 -65 -47 -107z
M468.999 694l-192 -95l-30 52l183 118z" />
    <glyph glyph-name="uni0145" unicode="&#x145;" horiz-adv-x="755" 
d="M165 0h-87v700h79l433 -544v544h87v-700h-79l-433 544v-544zM375 -157c-12.667 1.33301 -23.166 6.83301 -31.499 16.5s-12.5 20.834 -12.5 33.501c0 13.333 4.83301 24.666 14.5 33.999s21.5 14 35.5 14c16 0 29.167 -6 39.5 -18s15.5 -28 15.5 -48
c0 -46 -25.333 -84.333 -76 -115l-5 -3l-22 24l12 10c6 5.33301 12.667 13.5 20 24.5s10.666 20.167 9.99902 27.5z" />
    <glyph glyph-name="uni0146" unicode="&#x146;" 
d="M155 0h-84.001v520h84v-87c41.333 65.333 103 98 185 98c60 0 109.667 -19.667 149 -59c40 -38.667 60 -88 60 -148v-324h-84v302c0 42 -14.333 77.333 -43 106c-28 28.667 -63 43 -105 43c-45.333 0 -83.666 -14.667 -114.999 -44s-47 -65 -47 -107v-300zM309.999 -157
c-12.667 1.33301 -23.166 6.83301 -31.499 16.5s-12.5 20.834 -12.5 33.501c0 13.333 4.66699 24.666 14 33.999s21.333 14 36 14c16 0 29.167 -6 39.5 -18s15.5 -28 15.5 -48c0 -46 -25.333 -84.333 -76 -115l-5 -3l-22 24l12 10c6 5.33301 12.667 13.5 20 24.5
s10.666 20.167 9.99902 27.5z" />
    <glyph glyph-name="Ncaron" unicode="&#x147;" horiz-adv-x="755" 
d="M165 0h-87v700h79l433 -544v544h87v-700h-79l-433 544v-544zM374 766l-160 122l35 47l128 -83l128 82l36 -46l-161 -122h-6z" />
    <glyph glyph-name="ncaron" unicode="&#x148;" 
d="M71 0l-0.000976562 520h84v-87c41.333 65.333 103 98 185 98c60 0 109.667 -19.667 149 -59c40 -38.667 60 -88 60 -148v-324h-84v302c0 42 -14.333 77.333 -43 106c-28 28.667 -63 43 -105 43c-45.333 0 -83.666 -14.667 -114.999 -44s-47 -65 -47 -107v-300h-84z
M310.999 599l-161 122l36 48l127 -84l128 83l36 -47l-161 -122h-5z" />
    <glyph glyph-name="Eng" unicode="&#x14a;" horiz-adv-x="755" 
d="M590 700h87v-674c0 -74.667 -25.667 -137 -77 -187c-50.667 -50 -114.667 -75 -192 -75l1 84c49.333 0 90.666 15.333 123.999 46c34.667 31.333 53.334 70.333 56.001 117l-424 532v-543h-87v700h79l433 -544v544z" />
    <glyph glyph-name="eng" unicode="&#x14b;" 
d="M71 0l-0.000976562 519.999h84v-87c41.333 65.333 103 98 185 98c60 0 109.667 -19.667 149 -59c40 -38.667 60 -88 60 -148v-396c0 -43.333 -14.667 -79.666 -44 -108.999s-65.666 -44 -108.999 -44h-42v81h36c21.333 0 39.166 7.83301 53.499 23.5
s21.5 35.167 21.5 58.5v364c0 42 -14.333 77.333 -43 106c-28 28.667 -63 43 -105 43c-45.333 0 -83.666 -14.667 -114.999 -44s-47 -65 -47 -107v-300h-84z" />
    <glyph glyph-name="Omacron" unicode="&#x14c;" horiz-adv-x="824" 
d="M412 711c102.667 0 188.667 -34.668 258 -104.001s104 -155 104 -257c0 -102.667 -34.667 -188.667 -104 -258c-68.667 -68.667 -154.667 -103 -258 -103s-189.333 34.333 -258 103s-103 154.667 -103 258c0 102.667 34.333 188.334 103 257.001
c69.333 69.333 155.333 104 258 104zM412 75.999c76 0 139.669 26 191.002 78c51.333 53.333 77 118.666 77 195.999s-25.667 142.333 -77 195c-50.667 52.667 -114.334 79 -191.001 79s-140.334 -26.333 -191.001 -79c-51.333 -52.667 -77 -117.667 -77 -195
s25.667 -142.666 77 -195.999c51.333 -52 115 -78 191 -78zM556.002 789.999h-288v72h288v-72z" />
    <glyph glyph-name="omacron" unicode="&#x14d;" horiz-adv-x="631" 
d="M121 66c-51.333 52.667 -76.998 117.333 -76.998 194c0 77.333 25.667 141.666 77 192.999c52 52 116.667 78 194 78s142 -26 194 -78c52 -51.333 78 -115.666 78 -192.999s-26 -142 -78 -194c-52.667 -51.333 -117.334 -77 -194.001 -77s-141.334 25.667 -194.001 77z
M315.002 72.999c52.667 0 96.668 17.667 132.001 53c35.333 36.667 53 81.334 53 134.001c0 53.333 -17.667 97.666 -53 132.999c-35.333 36 -79.333 54 -132 54s-96.334 -18 -131.001 -54c-35.333 -35.333 -53 -79.666 -53 -132.999c0 -52.667 17.667 -97.334 53 -134.001
c35.333 -35.333 79 -53 131 -53zM460.003 623.999h-289v71h289v-71z" />
    <glyph glyph-name="Obreve" unicode="&#x14e;" horiz-adv-x="824" 
d="M412 711c102.667 0 188.667 -34.668 258 -104.001s104 -155 104 -257c0 -102.667 -34.667 -188.667 -104 -258c-68.667 -68.667 -154.667 -103 -258 -103s-189.333 34.333 -258 103s-103 154.667 -103 258c0 102.667 34.333 188.334 103 257.001
c69.333 69.333 155.333 104 258 104zM412 75.999c76 0 139.669 26 191.002 78c51.333 53.333 77 118.666 77 195.999s-25.667 142.333 -77 195c-50.667 52.667 -114.334 79 -191.001 79s-140.334 -26.333 -191.001 -79c-51.333 -52.667 -77 -117.667 -77 -195
s25.667 -142.666 77 -195.999c51.333 -52 115 -78 191 -78zM264.002 900.999h68.001c0 -24.667 7.66699 -45.167 23 -61.5s34.666 -24.5 57.999 -24.5c22.667 0 41.667 8.16699 57 24.5s23 36.833 23 61.5h68c0 -42 -14.333 -77 -43 -105c-28 -28 -63.333 -42 -106 -42
s-78 14 -106 42s-42 63 -42 105z" />
    <glyph glyph-name="obreve" unicode="&#x14f;" horiz-adv-x="631" 
d="M121 66c-51.333 52.667 -76.998 117.333 -76.998 194c0 77.333 25.667 141.666 77 192.999c52 52 116.667 78 194 78s142 -26 194 -78c52 -51.333 78 -115.666 78 -192.999s-26 -142 -78 -194c-52.667 -51.333 -117.334 -77 -194.001 -77s-141.334 25.667 -194.001 77z
M315.002 72.999c52.667 0 96.668 17.667 132.001 53c35.333 36.667 53 81.334 53 134.001c0 53.333 -17.667 97.666 -53 132.999c-35.333 36 -79.333 54 -132 54s-96.334 -18 -131.001 -54c-35.333 -35.333 -53 -79.666 -53 -132.999c0 -52.667 17.667 -97.334 53 -134.001
c35.333 -35.333 79 -53 131 -53zM167.003 734.999h68.001c0 -24.667 7.66699 -45.167 23 -61.5s34.666 -24.5 57.999 -24.5s42.5 8.16699 57.5 24.5s22.5 36.833 22.5 61.5h68c0 -42.667 -14.333 -78 -43 -106c-28 -28 -63.333 -42 -106 -42s-78 14 -106 42
s-42 63.333 -42 106z" />
    <glyph glyph-name="Ohungarumlaut" unicode="&#x150;" horiz-adv-x="824" 
d="M412 711c102.667 0 188.667 -34.668 258 -104.001s104 -155 104 -257c0 -102.667 -34.667 -188.667 -104 -258c-68.667 -68.667 -154.667 -103 -258 -103s-189.333 34.333 -258 103s-103 154.667 -103 258c0 102.667 34.333 188.334 103 257.001
c69.333 69.333 155.333 104 258 104zM412 75.999c76 0 139.669 26 191.002 78c51.333 53.333 77 118.666 77 195.999s-25.667 142.333 -77 195c-50.667 52.667 -114.334 79 -191.001 79s-140.334 -26.333 -191.001 -79c-51.333 -52.667 -77 -117.667 -77 -195
s25.667 -142.666 77 -195.999c51.333 -52 115 -78 191 -78zM321.002 750.999l-43 42l133 157l59 -61zM505.002 750.999l-43 42l133 157l60 -61z" />
    <glyph glyph-name="ohungarumlaut" unicode="&#x151;" horiz-adv-x="631" 
d="M121 66c-51.333 52.667 -76.998 117.333 -76.998 194c0 77.333 25.667 141.666 77 192.999c52 52 116.667 78 194 78s142 -26 194 -78c52 -51.333 78 -115.666 78 -192.999s-26 -142 -78 -194c-52.667 -51.333 -117.334 -77 -194.001 -77s-141.334 25.667 -194.001 77z
M315.002 72.999c52.667 0 96.668 17.667 132.001 53c35.333 36.667 53 81.334 53 134.001c0 53.333 -17.667 97.666 -53 132.999c-35.333 36 -79.333 54 -132 54s-96.334 -18 -131.001 -54c-35.333 -35.333 -53 -79.666 -53 -132.999c0 -52.667 17.667 -97.334 53 -134.001
c35.333 -35.333 79 -53 131 -53zM224.003 584.999l-43 41l133 158l60 -61zM408.003 584.999l-43 41l133 158l60 -61z" />
    <glyph glyph-name="OE" unicode="&#x152;" horiz-adv-x="1224" 
d="M412 -11c-103.333 0 -189.333 34.332 -258 102.999s-103 154.667 -103 258c0 102.667 34.333 188.334 103 257.001c69.333 69.333 155.333 104 258 104c112 0 203.667 -40.333 275 -121v110h494v-84h-403v-220h351v-84h-351v-228h408v-84h-499v110
c-71.333 -80.667 -163 -121 -275 -121zM412 75.999c76 0 139.669 26 191.002 78c51.333 53.333 77 118.666 77 195.999s-25.667 142.333 -77 195c-50.667 52.667 -114.334 79 -191.001 79s-140.334 -26.333 -191.001 -79c-51.333 -52.667 -77 -117.667 -77 -195
s25.667 -142.666 77 -195.999c51.333 -52 115 -78 191 -78z" />
    <glyph glyph-name="oe" unicode="&#x153;" horiz-adv-x="1071" 
d="M315 531c48 0 92.168 -10.667 132.501 -32s72.5 -51 96.5 -89c24 38 55.833 67.667 95.5 89s83.167 32 130.5 32c76 0 139.333 -26 190 -78c50.667 -50.667 76 -115 76 -193c0 -2 -0.666992 -11.667 -2 -29h-448c6 -46.667 26.667 -85.667 62 -117
c34.667 -30.667 77.667 -46 129 -46c66 0 117.333 25 154 75l82 -26c-24 -40 -56.5 -71.333 -97.5 -94s-86.5 -34 -136.5 -34s-95.5 10.833 -136.5 32.5s-73.5 51.5 -97.5 89.5c-24.667 -38 -57.167 -67.833 -97.5 -89.5s-84.5 -32.5 -132.5 -32.5
c-76.667 0 -141.334 25.667 -194.001 77c-51.333 52.667 -77 117.334 -77 194.001c0 77.333 25.667 141.666 77 192.999c52 52 116.667 78 194 78zM315.001 73c52.667 0 96.668 17.667 132.001 53c35.333 36.667 53 81.334 53 134.001c0 53.333 -17.667 97.666 -53 132.999
c-35.333 36 -79.333 54 -132 54s-96.334 -18 -131.001 -54c-35.333 -35.333 -53 -79.666 -53 -132.999c0 -52.667 17.667 -97.334 53 -134.001c35.333 -35.333 79 -53 131 -53zM587.002 299h362c-8 44.667 -29 81.667 -63 111c-33.333 28.667 -73.333 43 -120 43
c-45.333 0 -84.333 -14.333 -117 -43c-33.333 -29.333 -54 -66.333 -62 -111z" />
    <glyph glyph-name="Racute" unicode="&#x154;" horiz-adv-x="679" 
d="M78 700l317 -0.00292969c64.667 0 118.667 -20.667 162 -62s65 -92.666 65 -153.999c0 -47.333 -13.167 -89.166 -39.5 -125.499s-61.833 -62.166 -106.5 -77.499l172 -281h-101l-164 268h-215v-268h-90v700zM395 615.997l-227 0.000976562v-264h227
c38 0 69.667 12.667 95 38s38 56.666 38 93.999c0 38 -12.667 69.5 -38 94.5s-57 37.5 -95 37.5zM455 860.998l-193 -95l-30 51l183 119z" />
    <glyph glyph-name="racute" unicode="&#x155;" horiz-adv-x="375" 
d="M71 0v520h84v-88c39.333 66 101 99 185 99h14v-93c-10.667 4 -23 6 -37 6c-46 0 -84.333 -14.333 -115 -43c-31.333 -29.333 -47 -65 -47 -107v-294h-84zM354 694l-192 -95l-30 52l183 118z" />
    <glyph glyph-name="uni0156" unicode="&#x156;" horiz-adv-x="679" 
d="M78 700l317 -0.00292969c64.667 0 118.667 -20.667 162 -62s65 -92.666 65 -153.999c0 -47.333 -13.167 -89.166 -39.5 -125.499s-61.833 -62.166 -106.5 -77.499l172 -281h-101l-164 268h-215v-268h-90v700zM395 615.997l-227 0.000976562v-264h227
c38 0 69.667 12.667 95 38s38 56.666 38 93.999c0 38 -12.667 69.5 -38 94.5s-57 37.5 -95 37.5zM352 -157.002c-12 1.33301 -22.167 6.83301 -30.5 16.5s-12.5 20.834 -12.5 33.501c0 13.333 4.66699 24.666 14 33.999s21.333 14 36 14c16 0 29.167 -6 39.5 -18
s15.5 -28 15.5 -48c0 -46 -25.333 -84.333 -76 -115l-5 -3l-22 24l12 10c6 5.33301 12.5 13.5 19.5 24.5s10.167 20.167 9.5 27.5z" />
    <glyph glyph-name="uni0157" unicode="&#x157;" horiz-adv-x="375" 
d="M155 0h-84v520h84v-88c39.333 66 101 99 185 99h14v-93c-10.667 4 -23 6 -37 6c-46 0 -84.333 -14.333 -115 -43c-31.333 -29.333 -47 -65 -47 -107v-294zM66 -107c0 13.333 4.83398 24.666 14.501 33.999s21.5 14 35.5 14c16 0 29.167 -6 39.5 -18s15.5 -28 15.5 -48
c0 -46 -25.333 -84.333 -76 -115l-5 -3l-22 24l12 10c6 5.33301 12.667 13.5 20 24.5s10.666 20.167 9.99902 27.5c-12.667 1.33301 -23.167 6.83301 -31.5 16.5s-12.5 20.834 -12.5 33.501z" />
    <glyph glyph-name="Rcaron" unicode="&#x158;" horiz-adv-x="679" 
d="M78 700l317 -0.00292969c64.667 0 118.667 -20.667 162 -62s65 -92.666 65 -153.999c0 -47.333 -13.167 -89.166 -39.5 -125.499s-61.833 -62.166 -106.5 -77.499l172 -281h-101l-164 268h-215v-268h-90v700zM395 615.997l-227 0.000976562v-264h227
c38 0 69.667 12.667 95 38s38 56.666 38 93.999c0 38 -12.667 69.5 -38 94.5s-57 37.5 -95 37.5zM296 765.998l-161 122l36 47l128 -83l128 82l36 -46l-161 -122h-6z" />
    <glyph glyph-name="rcaron" unicode="&#x159;" horiz-adv-x="375" 
d="M155 0h-84v520h84v-88c39.333 66 101 99 185 99h14v-93c-10.667 4 -23 6 -37 6c-46 0 -84.333 -14.333 -115 -43c-31.333 -29.333 -47 -65 -47 -107v-294zM201 599h-5l-161 122l36 48l127 -84l128 83l36 -47z" />
    <glyph glyph-name="Sacute" unicode="&#x15a;" 
d="M545 555l-88.9961 -25.999c-6 26.667 -23.167 49.167 -51.5 67.5s-61.5 27.5 -99.5 27.5c-42 0 -76.667 -10.333 -104 -31c-27.333 -20 -41 -45.333 -41 -76c0 -33.333 18.667 -59.333 56 -78c29.333 -14 74.333 -28.667 135 -44
c49.333 -12.667 87.666 -25.667 114.999 -39c64 -30 97.667 -82.333 101 -157c0 -62.667 -24 -113.334 -72 -152.001c-46.667 -38.667 -107.334 -58 -182.001 -58c-67.333 0 -124.666 15.667 -171.999 47c-47.333 30.667 -77.333 70.667 -90 120l90 27
c5.33301 -30.667 24.166 -56.167 56.499 -76.5s70.833 -30.5 115.5 -30.5c46.667 0 85.667 10.667 117 32c31.333 22 47 50 47 84c0 34.667 -16.667 60.667 -50 78c-29.333 15.333 -63 27.666 -101 36.999l-42 11l-39 12l-41 14c-2 0.666992 -4.83301 1.83398 -8.5 3.50098
l-13.5 6c-5.33301 2.33301 -10 4.5 -14 6.5c-16.667 8 -36.334 22.333 -59.001 43c-22.667 22.667 -36 58.667 -40 108c0 59.333 22 107.333 66 144c44.667 37.333 101 56 169 56c61.333 0 113.666 -14.667 156.999 -44c44 -28.667 72 -66 84 -112zM272.004 766.001l-29 51
l182 119l40 -75z" />
    <glyph glyph-name="sacute" unicode="&#x15b;" horiz-adv-x="477" 
d="M424 407l-78.999 -14.002c-5.33301 20 -17.833 35.667 -37.5 47s-44.5 17 -74.5 17c-28.667 0 -52.5 -6.33301 -71.5 -19s-28.5 -29 -28.5 -49c0 -28 18.333 -48.333 55 -61l127 -45c79.333 -29.333 119 -76.666 119 -141.999c0 -47.333 -18 -84.5 -54 -111.5
s-83 -40.5 -141 -40.5c-55.333 0 -100.833 12.167 -136.5 36.5s-57.167 57.5 -64.5 99.5l79 14c5.33301 -22.667 19.166 -41 41.499 -55s49.833 -21 82.5 -21c32 0 58.833 7 80.5 21s32.5 32 32.5 54c0 31.333 -23 55 -69 71l-124 43
c-72.667 24.667 -109 68.334 -109 131.001c0 46.667 17.167 83 51.5 109s79.5 39 135.5 39c50 0 91.5 -11.167 124.5 -33.5s53.167 -52.5 60.5 -90.5zM199.001 598.998l-29 52l182 118l40 -75z" />
    <glyph glyph-name="Scircumflex" unicode="&#x15c;" 
d="M545 555l-88.9961 -25.999c-6 26.667 -23.167 49.167 -51.5 67.5s-61.5 27.5 -99.5 27.5c-42 0 -76.667 -10.333 -104 -31c-27.333 -20 -41 -45.333 -41 -76c0 -33.333 18.667 -59.333 56 -78c29.333 -14 74.333 -28.667 135 -44
c49.333 -12.667 87.666 -25.667 114.999 -39c64 -30 97.667 -82.333 101 -157c0 -62.667 -24 -113.334 -72 -152.001c-46.667 -38.667 -107.334 -58 -182.001 -58c-67.333 0 -124.666 15.667 -171.999 47c-47.333 30.667 -77.333 70.667 -90 120l90 27
c5.33301 -30.667 24.166 -56.167 56.499 -76.5s70.833 -30.5 115.5 -30.5c46.667 0 85.667 10.667 117 32c31.333 22 47 50 47 84c0 34.667 -16.667 60.667 -50 78c-29.333 15.333 -63 27.666 -101 36.999l-42 11l-39 12l-41 14c-2 0.666992 -4.83301 1.83398 -8.5 3.50098
l-13.5 6c-5.33301 2.33301 -10 4.5 -14 6.5c-16.667 8 -36.334 22.333 -59.001 43c-22.667 22.667 -36 58.667 -40 108c0 59.333 22 107.333 66 144c44.667 37.333 101 56 169 56c61.333 0 113.666 -14.667 156.999 -44c44 -28.667 72 -66 84 -112zM309.004 849.001
l-128 -84l-35 48l160 122h6l161 -122l-36 -47z" />
    <glyph glyph-name="scircumflex" unicode="&#x15d;" horiz-adv-x="477" 
d="M424 407l-78.999 -14.002c-5.33301 20 -17.833 35.667 -37.5 47s-44.5 17 -74.5 17c-28.667 0 -52.5 -6.33301 -71.5 -19s-28.5 -29 -28.5 -49c0 -28 18.333 -48.333 55 -61l127 -45c79.333 -29.333 119 -76.666 119 -141.999c0 -47.333 -18 -84.5 -54 -111.5
s-83 -40.5 -141 -40.5c-55.333 0 -100.833 12.167 -136.5 36.5s-57.167 57.5 -64.5 99.5l79 14c5.33301 -22.667 19.166 -41 41.499 -55s49.833 -21 82.5 -21c32 0 58.833 7 80.5 21s32.5 32 32.5 54c0 31.333 -23 55 -69 71l-124 43
c-72.667 24.667 -109 68.334 -109 131.001c0 46.667 17.167 83 51.5 109s79.5 39 135.5 39c50 0 91.5 -11.167 124.5 -33.5s53.167 -52.5 60.5 -90.5zM236.001 681.998l-128 -83l-36 47l161 122h6l161 -122l-36 -46z" />
    <glyph glyph-name="Scedilla" unicode="&#x15e;" 
d="M51 156l90.0068 26.999c5.33301 -30.667 24.166 -56.167 56.499 -76.5s70.833 -30.5 115.5 -30.5c46.667 0 85.667 10.667 117 32c31.333 22 47 50 47 84c0 34.667 -16.667 60.667 -50 78c-29.333 15.333 -63 27.666 -101 36.999l-42 11l-39 12l-41 14
c-2 0.666992 -4.83301 1.83398 -8.5 3.50098l-13.5 6c-5.33301 2.33301 -10 4.5 -14 6.5c-16.667 8 -36.334 22.333 -59.001 43c-22.667 22.667 -36 58.667 -40 108c0 59.333 22 107.333 66 144c44.667 37.333 101 56 169 56c61.333 0 113.666 -14.667 156.999 -44
c44 -28.667 72 -66 84 -112l-89 -26c-6 26.667 -23.167 49.167 -51.5 67.5s-61.5 27.5 -99.5 27.5c-42 0 -76.667 -10.333 -104 -31c-27.333 -20 -41 -45.333 -41 -76c0 -33.333 18.667 -59.333 56 -78c29.333 -14 74.333 -28.667 135 -44
c49.333 -12.667 87.666 -25.667 114.999 -39c64 -30 97.667 -82.333 101 -157c0 -55.333 -18.667 -101.5 -56 -138.5s-87 -59.833 -149 -68.5l-11 -45c2 0 4.66699 -0.5 8 -1.5s9.16602 -3.33301 17.499 -7s15.666 -8 21.999 -13s12.166 -12.167 17.499 -21.5s8 -20 8 -32
c0 -25.333 -10.667 -46.5 -32 -63.5s-48.333 -25.5 -81 -25.5c-34 0 -62.333 8.33301 -85 25l-12 8l14 46c17.333 -18 40.333 -27 69 -27c17.333 0 32 3.66699 44 11s18 16 18 26s-6.33301 18.667 -19 26s-26.667 12 -42 14l-20 2l18 75
c-62 2.66699 -115.667 19.667 -161 51c-44 30.667 -72 69.334 -84 116.001z" />
    <glyph glyph-name="scedilla" unicode="&#x15f;" horiz-adv-x="477" 
d="M38 125l79.0039 13.998c5.33301 -22.667 19.166 -41 41.499 -55s49.833 -21 82.5 -21c32 0 58.833 7 80.5 21s32.5 32 32.5 54c0 31.333 -23 55 -69 71l-124 43c-72.667 24.667 -109 68.334 -109 131.001c0 46.667 17.167 83 51.5 109s79.5 39 135.5 39
c50 0 91.5 -11.167 124.5 -33.5s53.167 -52.5 60.5 -90.5l-79 -14c-5.33301 20 -17.833 35.667 -37.5 47s-44.5 17 -74.5 17c-28.667 0 -52.5 -6.33301 -71.5 -19s-28.5 -29 -28.5 -49c0 -28 18.333 -48.333 55 -61l127 -45c79.333 -29.333 119 -76.666 119 -141.999
c0 -40 -13.333 -73 -40 -99s-62.667 -42.333 -108 -49l-11 -46c2 0 4.66699 -0.5 8 -1.5s9.16602 -3.33301 17.499 -7s15.666 -8 21.999 -13s12.166 -12.167 17.499 -21.5s8 -20 8 -32c0 -25.333 -10.667 -46.5 -32 -63.5s-48.333 -25.5 -81 -25.5
c-34 0 -62.333 8.33301 -85 25l-12 8l14 46c17.333 -18 40.333 -27 69 -27c17.333 0 32 3.66699 44 11s18 16 18 26s-6.33301 18.667 -19 26s-26.667 12 -42 14l-20 2l18 76c-50.667 2.66699 -92 16 -124 40s-51.333 55.667 -58 95z" />
    <glyph glyph-name="Scaron" unicode="&#x160;" 
d="M545 555l-88.9961 -25.999c-6 26.667 -23.167 49.167 -51.5 67.5s-61.5 27.5 -99.5 27.5c-42 0 -76.667 -10.333 -104 -31c-27.333 -20 -41 -45.333 -41 -76c0 -33.333 18.667 -59.333 56 -78c29.333 -14 74.333 -28.667 135 -44
c49.333 -12.667 87.666 -25.667 114.999 -39c64 -30 97.667 -82.333 101 -157c0 -62.667 -24 -113.334 -72 -152.001c-46.667 -38.667 -107.334 -58 -182.001 -58c-67.333 0 -124.666 15.667 -171.999 47c-47.333 30.667 -77.333 70.667 -90 120l90 27
c5.33301 -30.667 24.166 -56.167 56.499 -76.5s70.833 -30.5 115.5 -30.5c46.667 0 85.667 10.667 117 32c31.333 22 47 50 47 84c0 34.667 -16.667 60.667 -50 78c-29.333 15.333 -63 27.666 -101 36.999l-42 11l-39 12l-41 14c-2 0.666992 -4.83301 1.83398 -8.5 3.50098
l-13.5 6c-5.33301 2.33301 -10 4.5 -14 6.5c-16.667 8 -36.334 22.333 -59.001 43c-22.667 22.667 -36 58.667 -40 108c0 59.333 22 107.333 66 144c44.667 37.333 101 56 169 56c61.333 0 113.666 -14.667 156.999 -44c44 -28.667 72 -66 84 -112zM309.004 852.001l128 82
l36 -46l-161 -122h-6l-160 122l35 47z" />
    <glyph glyph-name="scaron" unicode="&#x161;" horiz-adv-x="477" 
d="M424 407l-78.999 -14.002c-5.33301 20 -17.833 35.667 -37.5 47s-44.5 17 -74.5 17c-28.667 0 -52.5 -6.33301 -71.5 -19s-28.5 -29 -28.5 -49c0 -28 18.333 -48.333 55 -61l127 -45c79.333 -29.333 119 -76.666 119 -141.999c0 -47.333 -18 -84.5 -54 -111.5
s-83 -40.5 -141 -40.5c-55.333 0 -100.833 12.167 -136.5 36.5s-57.167 57.5 -64.5 99.5l79 14c5.33301 -22.667 19.166 -41 41.499 -55s49.833 -21 82.5 -21c32 0 58.833 7 80.5 21s32.5 32 32.5 54c0 31.333 -23 55 -69 71l-124 43
c-72.667 24.667 -109 68.334 -109 131.001c0 46.667 17.167 83 51.5 109s79.5 39 135.5 39c50 0 91.5 -11.167 124.5 -33.5s53.167 -52.5 60.5 -90.5zM236.001 684.998l128 83l36 -47l-161 -122h-6l-161 122l36 48z" />
    <glyph glyph-name="uni0162" unicode="&#x162;" horiz-adv-x="668" 
d="M27 700h614v-84h-262v-616h-90v616h-262v84zM287 -107c0 13.333 4.83301 24.666 14.5 33.999s21.834 14 36.501 14c16 0 29.167 -6 39.5 -18s15.5 -28 15.5 -48c0 -46 -25.333 -84.333 -76 -115l-5 -3l-23 24l12 10c6 5.33301 12.667 13.5 20 24.5
s10.666 20.167 9.99902 27.5c-12 1.33301 -22.333 6.83301 -31 16.5s-13 20.834 -13 33.501z" />
    <glyph glyph-name="uni0163" unicode="&#x163;" horiz-adv-x="362" 
d="M15 446v74.001h84v104h84v-104h145v-74h-145v-283c0 -23.333 7.16699 -42.833 21.5 -58.5s32.166 -23.5 53.499 -23.5h70v-81h-76c-43.333 0 -79.666 14.667 -108.999 44s-44 65.666 -44 108.999v293h-84zM262 -124.999c0 -46 -25.333 -84.333 -76 -115l-4 -3l-23 24
l12 10c6 5.33301 12.667 13.5 20 24.5s10.666 20.167 9.99902 27.5c-12 1.33301 -22.333 6.83301 -31 16.5s-13 20.834 -13 33.501c0 13.333 4.83301 24.666 14.5 33.999s21.834 14 36.501 14c16 0 29 -6 39 -18s15 -28 15 -48z" />
    <glyph glyph-name="Tcaron" unicode="&#x164;" horiz-adv-x="668" 
d="M289 616h-262v84h614v-84h-262v-616h-90v616zM331 766l-161 122l36 47l128 -83l128 82l35 -46l-160 -122h-6z" />
    <glyph glyph-name="tcaron" unicode="&#x165;" horiz-adv-x="377" 
d="M15 446v74.001h84v104h84v-104h145v-74h-145v-283c0 -23.333 7.16699 -42.833 21.5 -58.5s32.166 -23.5 53.499 -23.5h70v-81h-76c-43.333 0 -79.666 14.667 -108.999 44s-44 65.666 -44 108.999v293h-84zM350 673.001c0 -46 -25.334 -84.333 -76.001 -115l-5 -3l-23 24
l12 10c20.667 18.667 30.667 35.667 30 51c-12 2 -22.333 7.83301 -31 17.5s-13 20.834 -13 33.501c0 13.333 4.83301 24.666 14.5 33.999s21.834 14 36.501 14c16 0 29.167 -6 39.5 -18s15.5 -28 15.5 -48z" />
    <glyph glyph-name="Tbar" unicode="&#x166;" horiz-adv-x="668" 
d="M517 296h-138v-296h-90v296h-138v84h138v236h-262v84h614v-84h-262v-236h138v-84z" />
    <glyph glyph-name="tbar" unicode="&#x167;" horiz-adv-x="362" 
d="M99 446l-84 0.000976562v74h84v104h84v-104h145v-74h-145v-124h101v-65h-101v-94c0 -23.333 7.16699 -42.833 21.5 -58.5s32.166 -23.5 53.499 -23.5h70v-81h-76c-43.333 0 -79.666 14.667 -108.999 44s-44 65.666 -44 108.999v104h-67v65h67v124z" />
    <glyph glyph-name="Utilde" unicode="&#x168;" horiz-adv-x="732" 
d="M573 280l-0.000976562 419.999h91v-420c0 -82.667 -28.667 -152 -86 -208c-57.333 -55.333 -128 -83 -212 -83c-84.667 0 -155.667 27.667 -213 83c-56.667 56 -85 125.333 -85 208v420h90v-420c0 -59.333 19.667 -108.666 59 -147.999
c40.667 -39.333 90.334 -59 149.001 -59s107.667 19.667 147 59c40 40 60 89.333 60 148zM277.999 776.999h-67c0 28 9.66699 52.333 29 73c20 20.667 43.667 31 71 31c20 0 40 -8 60 -24c20.667 -15.333 35.334 -23 44.001 -23c10 0 18.667 4 26 12s11 18 11 30h68
c0 -29.333 -9.5 -53.833 -28.5 -73.5s-42.5 -29.5 -70.5 -29.5c-20 0 -40.333 7.66699 -61 23c-18.667 16 -33 24 -43 24c-10.667 0 -19.834 -4.16699 -27.501 -12.5s-11.5 -18.5 -11.5 -30.5z" />
    <glyph glyph-name="utilde" unicode="&#x169;" 
d="M69 196l-0.000976562 324h84v-302c0 -41.333 14 -76.666 42 -105.999c28.667 -28.667 64.334 -43 107.001 -43c45.333 0 83.333 14.333 114 43c31.333 29.333 47 65.333 47 108v300h84v-520h-84v86c-38.667 -64.667 -100 -97 -184 -97c-60 0 -110.333 19.667 -151 59
c-39.333 39.333 -59 88.666 -59 147.999zM220.999 611h-67.002c0 28.667 9.83301 53 29.5 73s43.167 30 70.5 30c20 0 40 -8 60 -24c20.667 -15.333 35.334 -23 44.001 -23c10 0 18.667 4.16699 26 12.5s11 18.5 11 30.5h68c0 -29.333 -9.66699 -54 -29 -74
s-42.666 -30 -69.999 -30c-20 0 -40.333 7.66699 -61 23c-19.333 16 -33.666 24 -42.999 24c-10.667 0 -19.834 -4 -27.501 -12s-11.5 -18 -11.5 -30z" />
    <glyph glyph-name="Umacron" unicode="&#x16a;" horiz-adv-x="732" 
d="M573 280l-0.000976562 419.999h91v-420c0 -82.667 -28.667 -152 -86 -208c-57.333 -55.333 -128 -83 -212 -83c-84.667 0 -155.667 27.667 -213 83c-56.667 56 -85 125.333 -85 208v420h90v-420c0 -59.333 19.667 -108.666 59 -147.999
c40.667 -39.333 90.334 -59 149.001 -59s107.667 19.667 147 59c40 40 60 89.333 60 148zM509.999 789.999h-288v72h288v-72z" />
    <glyph glyph-name="umacron" unicode="&#x16b;" 
d="M69 196l-0.000976562 324h84v-302c0 -41.333 14 -76.666 42 -105.999c28.667 -28.667 64.334 -43 107.001 -43c45.333 0 83.333 14.333 114 43c31.333 29.333 47 65.333 47 108v300h84v-520h-84v86c-38.667 -64.667 -100 -97 -184 -97c-60 0 -110.333 19.667 -151 59
c-39.333 39.333 -59 88.666 -59 147.999zM452.999 695v-71h-288v71h288z" />
    <glyph glyph-name="Ubreve" unicode="&#x16c;" horiz-adv-x="732" 
d="M573 280l-0.000976562 419.999h91v-420c0 -82.667 -28.667 -152 -86 -208c-57.333 -55.333 -128 -83 -212 -83c-84.667 0 -155.667 27.667 -213 83c-56.667 56 -85 125.333 -85 208v420h90v-420c0 -59.333 19.667 -108.666 59 -147.999
c40.667 -39.333 90.334 -59 149.001 -59s107.667 19.667 147 59c40 40 60 89.333 60 148zM216.999 900.999h68.0029c0 -24.667 7.66699 -45.167 23 -61.5s34.666 -24.5 57.999 -24.5s42.666 8.16699 57.999 24.5s23 36.833 23 61.5h68c0 -42 -14.333 -77 -43 -105
c-28 -28 -63.333 -42 -106 -42s-78.334 14 -107.001 42c-28 28 -42 63 -42 105z" />
    <glyph glyph-name="ubreve" unicode="&#x16d;" 
d="M69 196l-0.000976562 324h84v-302c0 -41.333 14 -76.666 42 -105.999c28.667 -28.667 64.334 -43 107.001 -43c45.333 0 83.333 14.333 114 43c31.333 29.333 47 65.333 47 108v300h84v-520h-84v86c-38.667 -64.667 -100 -97 -184 -97c-60 0 -110.333 19.667 -151 59
c-39.333 39.333 -59 88.666 -59 147.999zM159.999 735h68.002c0 -24.667 7.66699 -45.167 23 -61.5s34.666 -24.5 57.999 -24.5s42.666 8.16699 57.999 24.5s23 36.833 23 61.5h68c0 -42.667 -14.333 -78 -43 -106c-28 -28 -63.333 -42 -106 -42c-42 0 -77.667 14 -107 42
c-28 28 -42 63.333 -42 106z" />
    <glyph glyph-name="Uring" unicode="&#x16e;" horiz-adv-x="732" 
d="M573 280l-0.000976562 419.999h91v-420c0 -82.667 -28.667 -152 -86 -208c-57.333 -55.333 -128 -83 -212 -83c-84.667 0 -155.667 27.667 -213 83c-56.667 56 -85 125.333 -85 208v420h90v-420c0 -59.333 19.667 -108.666 59 -147.999
c40.667 -39.333 90.334 -59 149.001 -59s107.667 19.667 147 59c40 40 60 89.333 60 148zM258.999 859.999c0 29.333 10.333 54.5 31 75.5s46 31.5 76 31.5c28.667 0 53.667 -10.667 75 -32s32 -46.333 32 -75c0 -30 -10.667 -55.667 -32 -77
c-20.667 -20.667 -45.667 -31 -75 -31c-30 0 -55.333 10.5 -76 31.5s-31 46.5 -31 76.5zM332.999 892.999c-8.66699 -8.66699 -13 -19.667 -13 -33s4.33301 -24.666 13 -33.999c8.66699 -8.66699 19.667 -13 33 -13s24.333 4.33301 33 13
c8.66699 9.33301 13 20.666 13 33.999s-4.33301 24.333 -13 33s-19.667 13 -33 13s-24.333 -4.33301 -33 -13z" />
    <glyph glyph-name="uring" unicode="&#x16f;" 
d="M279 -11c-60 0 -110.334 19.667 -151.001 59c-39.333 39.333 -59 88.666 -59 147.999v324h84v-302c0 -41.333 14 -76.666 42 -105.999c28.667 -28.667 64.334 -43 107.001 -43c45.333 0 83.333 14.333 114 43c31.333 29.333 47 65.333 47 108v300h84v-520h-84v86
c-38.667 -64.667 -100 -97 -184 -97zM308.999 586c-30 0 -55.333 10.498 -76 31.498s-31 46.167 -31 75.5c0 30 10.333 55.5 31 76.5s46 31.5 76 31.5c28.667 0 53.667 -10.667 75 -32s32 -46.666 32 -75.999s-10.667 -54.666 -32 -75.999
c-20.667 -20.667 -45.667 -31 -75 -31zM262.999 692.998c0 -12.667 4.5 -23.5 13.5 -32.5s19.833 -13.5 32.5 -13.5s23.5 4.5 32.5 13.5s13.5 19.833 13.5 32.5c0 13.333 -4.5 24.5 -13.5 33.5s-19.833 13.5 -32.5 13.5s-23.5 -4.5 -32.5 -13.5s-13.5 -20.167 -13.5 -33.5z
" />
    <glyph glyph-name="Uhungarumlaut" unicode="&#x170;" horiz-adv-x="732" 
d="M573 280l-0.000976562 419.999h91v-420c0 -82.667 -28.667 -152 -86 -208c-57.333 -55.333 -128 -83 -212 -83c-84.667 0 -155.667 27.667 -213 83c-56.667 56 -85 125.333 -85 208v420h90v-420c0 -59.333 19.667 -108.666 59 -147.999
c40.667 -39.333 90.334 -59 149.001 -59s107.667 19.667 147 59c40 40 60 89.333 60 148zM273.999 750.999l-43 42l133 157l60 -61zM458.999 750.999l-44 42l134 157l60 -61z" />
    <glyph glyph-name="uhungarumlaut" unicode="&#x171;" 
d="M69 196l-0.000976562 324h84v-302c0 -41.333 14 -76.666 42 -105.999c28.667 -28.667 64.334 -43 107.001 -43c45.333 0 83.333 14.333 114 43c31.333 29.333 47 65.333 47 108v300h84v-520h-84v86c-38.667 -64.667 -100 -97 -184 -97c-60 0 -110.333 19.667 -151 59
c-39.333 39.333 -59 88.666 -59 147.999zM551.999 723l-150 -138l-44 41l134 158zM216.999 585l-43 41l133 158l60 -61z" />
    <glyph glyph-name="Uogonek" unicode="&#x172;" horiz-adv-x="732" 
d="M68 280l-0.000976562 419.999h90v-420c0 -59.333 19.667 -108.666 59 -147.999c40.667 -39.333 90.334 -59 149.001 -59s107.667 19.667 147 59c40 40 60 89.333 60 148v420h91v-420c0 -70.667 -22 -132.667 -66 -186c-44 -52.667 -100.667 -85.667 -170 -99
c-36.667 -34 -55 -66 -55 -96c0 -13.333 4 -23.833 12 -31.5s18 -11.5 30 -11.5c18 0 34.333 6.66699 49 20l7 7l30 -37l-14 -13c-4.66699 -5.33301 -16.667 -12.666 -36 -21.999c-18.667 -9.33301 -36.667 -14 -54 -14c-26 0 -47.667 8.16699 -65 24.5s-26 36.833 -26 61.5
c0 34 17.333 69.333 52 106c-82.667 2 -151.667 30.667 -207 86s-83 123.666 -83 204.999z" />
    <glyph glyph-name="uogonek" unicode="&#x173;" 
d="M69 196l-0.000976562 324.002h84v-302c0 -41.333 14 -76.666 42 -105.999c28.667 -28.667 64.334 -43 107.001 -43c45.333 0 83.333 14.333 114 43c31.333 29.333 47 65.333 47 108v300h84v-520h-6l-17 -15c-6.66699 -7.33301 -15.667 -19.333 -27 -36
c-11.333 -18.667 -17 -35.334 -17 -50.001c0 -13.333 4 -23.833 12 -31.5s18.333 -11.5 31 -11.5c16.667 0 32.667 6.66699 48 20l7 7l31 -37l-14 -13c-4.66699 -5.33301 -16.667 -12.666 -36 -21.999c-18.667 -9.33301 -36.667 -14 -54 -14c-26 0 -47.667 8.16699 -65 24.5
s-26 36.833 -26 61.5c0 17.333 5 35.666 15 54.999s21 34.666 33 45.999l15 16h-14v86c-38.667 -64.667 -100 -97 -184 -97c-60 0 -110.333 19.667 -151 59c-39.333 39.333 -59 88.666 -59 147.999z" />
    <glyph glyph-name="Wcircumflex" unicode="&#x174;" horiz-adv-x="1015" 
d="M330 0h-72l-241 700h93l183 -556l179 556h72l179 -554l183 554h92l-240 -700h-73l-177 544zM379 765l-35 48l160 122h6l161 -122l-36 -47l-128 83z" />
    <glyph glyph-name="wcircumflex" unicode="&#x175;" horiz-adv-x="780" 
d="M191 0l-177 520h85l127 -390l127 390h74l127 -391l128 391h85l-178 -520h-73l-126 380l-126 -380h-73zM390 682l-128 -83l-36 47l161 122h6l161 -122l-36 -46z" />
    <glyph glyph-name="Ycircumflex" unicode="&#x176;" horiz-adv-x="671" 
d="M289 0v285l-272 415h104l213 -329l215 329h104l-273 -411v-289h-91zM208 765l-36 48l161 122h5l161 -122l-36 -47l-128 83z" />
    <glyph glyph-name="ycircumflex" unicode="&#x177;" horiz-adv-x="532" 
d="M221 15l-207.001 505h87l163 -404l168 404h87l-256 -609c-19.333 -47.333 -44.166 -81.833 -74.499 -103.5s-68.833 -32.5 -115.5 -32.5h-24v81h24c54.667 0 93.667 27.667 117 83zM137.999 599l-36 47l161 122h6l161 -122l-36 -46l-128 82z" />
    <glyph glyph-name="Ydieresis" unicode="&#x178;" horiz-adv-x="671" 
d="M289 285l-272 415h104l213 -329l215 329h104l-273 -411v-289h-91v285zM439 875c16 0 29.5 -5.33301 40.5 -16s16.5 -24 16.5 -40s-5.5 -29.333 -16.5 -40s-24.5 -16 -40.5 -16c-15.333 0 -28.333 5.33301 -39 16s-16 24 -16 40s5.33301 29.333 16 40s23.667 16 39 16z
M232 875c15.333 0 28.5 -5.33301 39.5 -16s16.5 -24 16.5 -40s-5.5 -29.333 -16.5 -40s-24.167 -16 -39.5 -16c-16 0 -29.333 5.33301 -40 16s-16 24 -16 40s5.33301 29.333 16 40s24 16 40 16z" />
    <glyph glyph-name="Zacute" unicode="&#x179;" horiz-adv-x="640" 
d="M601 84v-84h-556v69l428 547h-425v84h551v-69l-427 -547h429zM479 861l-193 -95l-29 51l182 119z" />
    <glyph glyph-name="zacute" unicode="&#x17a;" horiz-adv-x="508" 
d="M468 78v-78h-428v65l308 377h-303v78h418v-65l-308 -377h313zM410 694l-193 -95l-29 52l182 118z" />
    <glyph glyph-name="Zdotaccent" unicode="&#x17b;" horiz-adv-x="640" 
d="M601 0h-556v69l428 547h-425v84h551v-69l-427 -547h429v-84zM265 822c0 17.333 5.50195 31.501 16.502 42.501s25.167 16.5 42.5 16.5c25.333 2 43.166 -10 53.499 -36s6.16602 -47.667 -12.501 -65c-16 -18 -37.167 -21.833 -63.5 -11.5s-38.5 28.166 -36.5 53.499z" />
    <glyph glyph-name="zdotaccent" unicode="&#x17c;" horiz-adv-x="508" 
d="M40 0v65l308 377h-303v78h418v-65l-308 -377h313v-78h-428zM255 598c-17.333 0 -31.5 5.5 -42.5 16.5s-16.5 24.833 -16.5 41.5s5.66699 30.5 17 41.5s25.333 16.5 42 16.5s30.5 -5.5 41.5 -16.5s16.5 -24.833 16.5 -41.5s-5.5 -30.5 -16.5 -41.5
s-24.833 -16.5 -41.5 -16.5z" />
    <glyph glyph-name="Zcaron" unicode="&#x17d;" horiz-adv-x="640" 
d="M601 0h-556v69l428 547h-425v84h551v-69l-427 -547h429v-84zM320 766l-160 122l35 47l128 -83l128 82l36 -46l-161 -122h-6z" />
    <glyph glyph-name="zcaron" unicode="&#x17e;" horiz-adv-x="508" 
d="M468 78v-78h-428v65l308 377h-303v78h418v-65l-308 -377h313zM257 599h-6l-160 122l35 48l128 -84l128 83l36 -47z" />
    <glyph glyph-name="uni018F" unicode="&#x18f;" horiz-adv-x="824" 
d="M412 711c102.667 0 188.668 -34.668 258.001 -104.001s104 -155 104 -257c0 -102.667 -34.667 -188.667 -104 -258c-68.667 -68.667 -154.667 -103 -258 -103c-102.667 0 -188.334 34.333 -257.001 103c-69.333 69.333 -104 155.333 -104 258
c0 14.667 0.666992 27.334 2 38.001h624c-8.66699 68.667 -37.667 125 -87 169c-48.667 44.667 -108 67 -178 67c-44 0 -84.833 -9.5 -122.5 -28.5s-68.5 -45.5 -92.5 -79.5l-90 34c32.667 50.667 75.667 90.167 129 118.5s112 42.5 176 42.5zM412.001 75.999
c68.667 0 127.333 21.334 176 64.001c49.333 43.333 78.333 98 87 164h-525c9.33301 -66.667 38.333 -121.334 87 -164.001s107 -64 175 -64z" />
    <glyph glyph-name="florin" unicode="&#x192;" horiz-adv-x="357" 
d="M-44 -225h-68l14 81h63c21.333 0 40.5 7.83301 57.5 23.5s27.5 35.167 31.5 58.5l74 420h-87l13 75h87l29 164c8 44 29 80.333 63 109c35.333 29.333 74.333 44 117 44h69l-14 -81h-63c-21.333 0 -40.5 -7.83301 -57.5 -23.5s-27.5 -35.167 -31.5 -58.5l-28 -154h139
l-13 -75h-139l-75 -430c-8 -44 -29.333 -80.333 -64 -109c-34.667 -29.333 -73.667 -44 -117 -44z" />
    <glyph glyph-name="uni01DD" unicode="&#x1dd;" horiz-adv-x="616" 
d="M38 289h447c-6 46.667 -26.667 85.667 -62 117s-78 47 -128 47c-66 0 -117.333 -25.333 -154 -76l-82 26c24 40 56.833 71.333 98.5 94s87.5 34 137.5 34c79.333 0 145.333 -26 198 -78c52.667 -50.667 79 -115 79 -193c0 -76.667 -25.667 -141.334 -77 -194.001
c-51.333 -51.333 -115 -77 -191 -77s-139.667 25.667 -191 77c-51.333 52.667 -77 117.334 -77 194.001c0 10 0.666992 19.667 2 29zM484 221h-361c8 -44.667 28.667 -81.667 62 -111c34 -28 74 -42 120 -42c44.667 0 83.667 14 117 42c33.333 29.333 54 66.333 62 111z" />
    <glyph glyph-name="Aringacute" unicode="&#x1fa;" horiz-adv-x="721" 
d="M180 157l-67.999 -157h-95l303 690c-20 8 -36.167 21 -48.5 39s-18.5 38.333 -18.5 61c0 29.333 10.333 54.333 31 75c21.333 21.333 47 32 77 32c23.333 0 43.666 -6.66699 60.999 -20l163 105l40 -75l-164 -80c4.66699 -10 7 -22.333 7 -37
c0 -22 -6.16699 -42.167 -18.5 -60.5s-28.5 -31.5 -48.5 -39.5l303 -690h-95l-68 157h-361zM504.001 241l-143 330l-144 -330h287zM361.001 836c-13.333 0 -24.5 -4.33301 -33.5 -13s-13.5 -19.667 -13.5 -33s4.5 -24.5 13.5 -33.5s20.167 -13.5 33.5 -13.5
s24.333 4.5 33 13.5s13 20.167 13 33.5s-4.5 24.333 -13.5 33s-19.833 13 -32.5 13z" />
    <glyph glyph-name="aringacute" unicode="&#x1fb;" horiz-adv-x="645" 
d="M300 531c78 0 141.333 -28.333 190 -85v74h84v-520h-84v74c-48.667 -56.667 -112 -85 -190 -85c-72.667 0 -133.667 25.667 -183 77c-48.667 51.333 -73 116 -73 194s24.333 142.333 73 193c48.667 52 109.667 78 183 78zM309 73c50.667 0 93.001 17.666 127.001 52.999
c34.667 35.333 52 80 52 134s-17.333 98.333 -52 133c-34 36 -76.333 54 -127 54c-50 0 -92.333 -18 -127 -54c-34 -35.333 -51 -79.666 -51 -132.999s17 -98 51 -134c35.333 -35.333 77.666 -53 126.999 -53zM323.001 800.999c21.333 0 40.668 -5.66699 58.001 -17l158 102
l40 -74l-157 -78c5.33301 -14.667 8 -28.334 8 -41.001c0 -29.333 -10.667 -54.666 -32 -75.999c-20.667 -20.667 -45.667 -31 -75 -31c-30.667 0 -56.334 10.333 -77.001 31s-31 46 -31 76s10.333 55.333 31 76c21.333 21.333 47 32 77 32zM323.003 646.999
c12.667 0 23.5 4.5 32.5 13.5s13.5 19.833 13.5 32.5c0 20.667 -9.5 35 -28.5 43s-35.833 4.66699 -50.5 -10s-18 -31.5 -10 -50.5s22.333 -28.5 43 -28.5z" />
    <glyph glyph-name="AEacute" unicode="&#x1fc;" horiz-adv-x="1009" 
d="M121 0h-104l452 700h496v-84h-369v-220h318v-84h-318v-228h374v-84h-464v157h-285zM275 241h231v362zM723 861l-193 -95l-30 51l183 119z" />
    <glyph glyph-name="aeacute" unicode="&#x1fd;" horiz-adv-x="1061" 
d="M300 -11c-72.667 0 -133.667 25.666 -183 76.999c-48.667 51.333 -73 116 -73 194s24.333 142.333 73 193c48.667 52 109.667 78 183 78c78 0 141.333 -28.333 190 -85v74h84v-74c50 56.667 114 85 192 85c73.333 0 135 -26 185 -78c50 -51.333 75 -115.666 75 -192.999
c0 -2 -0.666992 -11.667 -2 -29h-448c6 -46.667 26.667 -85.667 62 -117c34.667 -30.667 77.667 -46 129 -46c66 0 117.333 25 154 75l82 -26c-24 -40 -56 -71.333 -96 -94s-84.667 -34 -134 -34c-82 0 -148.333 29 -199 87v-76h-84v74c-48.667 -56.667 -112 -85 -190 -85z
M309 72.999c50.667 0 93.001 17.666 127.001 52.999c34.667 35.333 52 80 52 134s-17.333 98.333 -52 133c-34 36 -76.333 54 -127 54c-50 0 -92.333 -18 -127 -54c-34 -35.333 -51 -79.666 -51 -132.999s17 -98 51 -134c35.333 -35.333 77.666 -53 126.999 -53z
M577.001 298.998h362c-8 44.667 -29 81.667 -63 111c-33.333 28.667 -73.333 43 -120 43c-45.333 0 -84.333 -14.333 -117 -43c-33.333 -29.333 -54 -66.333 -62 -111zM684.001 693.998l-193 -95l-29 52l182 118z" />
    <glyph glyph-name="Oslashacute" unicode="&#x1fe;" horiz-adv-x="824" 
d="M146 29l31 43.999c-84 70.667 -126 163 -126 277c0 102.667 34.333 188.334 103 257.001c69.333 69.333 155.333 104 258 104c64 0 123.667 -14.667 179 -44l31 44l59 -40l-31 -45c82.667 -70 124 -162 124 -276c0 -102.667 -34.667 -188.667 -104 -258
c-68.667 -68.667 -154.667 -103 -258 -103c-64.667 0 -123.667 14.667 -177 44l-32 -44zM597 549.999l-311 -442.999c37.333 -20.667 79.333 -31 126 -31c76 0 139.667 26 191 78c51.333 53.333 77 118.666 77 195.999c0 81.333 -27.667 148 -83 200zM229 148l310 445
c-37.333 20.667 -79.666 31 -126.999 31c-76.667 0 -140.334 -26.333 -191.001 -79c-51.333 -52.667 -77 -117.667 -77 -195c0 -82 28.333 -149.333 85 -202zM375 766l-30 51l183 119l40 -75z" />
    <glyph glyph-name="oslashacute" unicode="&#x1ff;" horiz-adv-x="631" 
d="M315 531c46.667 0 88.668 -9.66602 126.001 -28.999l21 29l58 -40l-20 -29c58 -50.667 87 -118 87 -202c0 -77.333 -26 -142 -78 -194c-52.667 -51.333 -117.334 -77 -194.001 -77c-46.667 0 -88.667 9.66699 -126 29l-20 -29l-58 40l20 30
c-58 51.333 -87 118.333 -87 201c0 77.333 25.667 141.666 77 192.999c52 52 116.667 78 194 78zM448.001 389.001l-209 -299.001c24.667 -11.333 50 -17 76 -17c52.667 0 96.667 17.667 132 53c35.333 36.667 53 81.334 53 134.001c0 51.333 -17.333 94.333 -52 129z
M182.001 132l209.001 297.999c-24.667 11.333 -50 17 -76 17c-52.667 0 -96.334 -18 -131.001 -54c-35.333 -35.333 -53 -79.666 -53 -132.999c0 -51.333 17 -94 51 -128zM278.002 598.999l-29 52l182 118l40 -75z" />
    <glyph glyph-name="uni0218" unicode="&#x218;" 
d="M545 555l-88.9961 -25.999c-6 26.667 -23.167 49.167 -51.5 67.5s-61.5 27.5 -99.5 27.5c-42 0 -76.667 -10.333 -104 -31c-27.333 -20 -41 -45.333 -41 -76c0 -33.333 18.667 -59.333 56 -78c29.333 -14 74.333 -28.667 135 -44
c49.333 -12.667 87.666 -25.667 114.999 -39c64 -30 97.667 -82.333 101 -157c0 -62.667 -24 -113.334 -72 -152.001c-46.667 -38.667 -107.334 -58 -182.001 -58c-67.333 0 -124.666 15.667 -171.999 47c-47.333 30.667 -77.333 70.667 -90 120l90 27
c5.33301 -30.667 24.166 -56.167 56.499 -76.5s70.833 -30.5 115.5 -30.5c46.667 0 85.667 10.667 117 32c31.333 22 47 50 47 84c0 34.667 -16.667 60.667 -50 78c-29.333 15.333 -63 27.666 -101 36.999l-42 11l-39 12l-41 14c-2 0.666992 -4.83301 1.83398 -8.5 3.50098
l-13.5 6c-5.33301 2.33301 -10 4.5 -14 6.5c-16.667 8 -36.334 22.333 -59.001 43c-22.667 22.667 -36 58.667 -40 108c0 59.333 22 107.333 66 144c44.667 37.333 101 56 169 56c61.333 0 113.666 -14.667 156.999 -44c44 -28.667 72 -66 84 -112zM389.004 -124.999
c0 -46 -25.332 -84.333 -75.999 -115l-5 -3l-22 24l12 10c6 5.33301 12.667 13.5 20 24.5s10.666 20.167 9.99902 27.5c-12.667 1.33301 -23.167 6.83301 -31.5 16.5s-12.5 20.834 -12.5 33.501c0 13.333 4.83301 24.666 14.5 33.999s21.5 14 35.5 14
c16 0 29.167 -6 39.5 -18s15.5 -28 15.5 -48z" />
    <glyph glyph-name="uni0219" unicode="&#x219;" horiz-adv-x="477" 
d="M424 407l-78.999 -14.002c-5.33301 20 -17.833 35.667 -37.5 47s-44.5 17 -74.5 17c-28.667 0 -52.5 -6.33301 -71.5 -19s-28.5 -29 -28.5 -49c0 -28 18.333 -48.333 55 -61l127 -45c79.333 -29.333 119 -76.666 119 -141.999c0 -47.333 -18 -84.5 -54 -111.5
s-83 -40.5 -141 -40.5c-55.333 0 -100.833 12.167 -136.5 36.5s-57.167 57.5 -64.5 99.5l79 14c5.33301 -22.667 19.166 -41 41.499 -55s49.833 -21 82.5 -21c32 0 58.833 7 80.5 21s32.5 32 32.5 54c0 31.333 -23 55 -69 71l-124 43
c-72.667 24.667 -109 68.334 -109 131.001c0 46.667 17.167 83 51.5 109s79.5 39 135.5 39c50 0 91.5 -11.167 124.5 -33.5s53.167 -52.5 60.5 -90.5zM313.001 -125.002c0 -46 -25.332 -84.333 -75.999 -115l-5 -3l-22 24l12 10c6 5.33301 12.667 13.5 20 24.5
s10.666 20.167 9.99902 27.5c-12.667 1.33301 -23.167 6.83301 -31.5 16.5s-12.5 20.834 -12.5 33.501c0 13.333 4.83301 24.666 14.5 33.999s21.5 14 35.5 14c16 0 29.167 -6 39.5 -18s15.5 -28 15.5 -48z" />
    <glyph glyph-name="uni021A" unicode="&#x21a;" horiz-adv-x="668" 
d="M27 700h614v-84h-262v-616h-90v616h-262v84zM287 -107c0 13.333 4.83301 24.666 14.5 33.999s21.834 14 36.501 14c16 0 29.167 -6 39.5 -18s15.5 -28 15.5 -48c0 -46 -25.333 -84.333 -76 -115l-5 -3l-23 24l12 10c6 5.33301 12.667 13.5 20 24.5
s10.666 20.167 9.99902 27.5c-12 1.33301 -22.333 6.83301 -31 16.5s-13 20.834 -13 33.501z" />
    <glyph glyph-name="uni021B" unicode="&#x21b;" horiz-adv-x="362" 
d="M15 446v74.001h84v104h84v-104h145v-74h-145v-283c0 -23.333 7.16699 -42.833 21.5 -58.5s32.166 -23.5 53.499 -23.5h70v-81h-76c-43.333 0 -79.666 14.667 -108.999 44s-44 65.666 -44 108.999v293h-84zM262 -124.999c0 -46 -25.333 -84.333 -76 -115l-4 -3l-23 24
l12 10c6 5.33301 12.667 13.5 20 24.5s10.666 20.167 9.99902 27.5c-12 1.33301 -22.333 6.83301 -31 16.5s-13 20.834 -13 33.501c0 13.333 4.83301 24.666 14.5 33.999s21.834 14 36.501 14c16 0 29 -6 39 -18s15 -28 15 -48z" />
    <glyph glyph-name="uni0237" unicode="&#x237;" horiz-adv-x="234" 
d="M79 520l84 -0.000976562v-592c0 -43.333 -14.667 -79.666 -44 -108.999s-65.666 -44 -108.999 -44h-42v81h36c21.333 0 39.166 7.83301 53.499 23.5s21.5 35.167 21.5 58.5v582z" />
    <glyph glyph-name="uni0259" unicode="&#x259;" horiz-adv-x="616" 
d="M38 289h447c-6 46.667 -26.667 85.667 -62 117s-78 47 -128 47c-66 0 -117.333 -25.333 -154 -76l-82 26c24 40 56.833 71.333 98.5 94s87.5 34 137.5 34c79.333 0 145.333 -26 198 -78c52.667 -50.667 79 -115 79 -193c0 -76.667 -25.667 -141.334 -77 -194.001
c-51.333 -51.333 -115 -77 -191 -77s-139.667 25.667 -191 77c-51.333 52.667 -77 117.334 -77 194.001c0 10 0.666992 19.667 2 29zM484 221h-361c8 -44.667 28.667 -81.667 62 -111c34 -28 74 -42 120 -42c44.667 0 83.667 14 117 42c33.333 29.333 54 66.333 62 111z" />
    <glyph glyph-name="circumflex" unicode="&#x2c6;" horiz-adv-x="436" 
d="M218 791l-128 -83l-36 47l161 122h6l161 -122l-36 -46z" />
    <glyph glyph-name="caron" unicode="&#x2c7;" horiz-adv-x="436" 
d="M218 794l128 83l36 -46l-161 -123h-6l-161 123l36 47z" />
    <glyph glyph-name="breve" unicode="&#x2d8;" horiz-adv-x="406" 
d="M54 844l68.001 0.000976562c0 -24.667 7.83301 -45.167 23.5 -61.5s35.167 -24.5 58.5 -24.5c22.667 0 41.667 8.16699 57 24.5s23 36.833 23 61.5h68c0 -42 -14.333 -77.333 -43 -106c-28 -28 -63.333 -42 -106 -42s-78.334 14 -107.001 42
c-28 29.333 -42 64.666 -42 105.999z" />
    <glyph glyph-name="dotaccent" unicode="&#x2d9;" horiz-adv-x="225" 
d="M71 723c-11.333 11.333 -17 25.333 -17 42s5.66699 30.334 17 41.001c11.333 11.333 25.333 17 42 17s30.334 -5.66699 41.001 -17c11.333 -10.667 17 -24.334 17 -41.001s-5.66699 -30.667 -17 -42c-10.667 -10.667 -24.334 -16 -41.001 -16s-30.667 5.33301 -42 16z
" />
    <glyph glyph-name="ring" unicode="&#x2da;" horiz-adv-x="323" 
d="M162 910c28.667 0 53.668 -10.6689 75.001 -32.002s32 -46.666 32 -75.999s-10.667 -54.666 -32 -75.999c-20.667 -20.667 -45.667 -31 -75 -31c-30.667 0 -56.334 10.333 -77.001 31s-31 46 -31 76s10.333 55.333 31 76c21.333 21.333 47 32 77 32zM115.001 801.998
c0 -12.667 4.5 -23.5 13.5 -32.5s20.167 -13.5 33.5 -13.5s24.333 4.33301 33 13s13 19.667 13 33s-4.33301 24.5 -13 33.5s-19.667 13.5 -33 13.5s-24.5 -4.5 -33.5 -13.5s-13.5 -20.167 -13.5 -33.5z" />
    <glyph glyph-name="ogonek" unicode="&#x2db;" horiz-adv-x="304" 
d="M101 -16l16 16.002h65l-17 -15c-7.33301 -7.33301 -16.333 -19.333 -27 -36c-11.333 -18.667 -17 -35.334 -17 -50.001c0 -13.333 4 -23.833 12 -31.5s18 -11.5 30 -11.5c18 0 34.333 6.66699 49 20l7 7l31 -37l-14 -13c-4.66699 -5.33301 -16.667 -12.666 -36 -21.999
c-18.667 -9.33301 -36.667 -14 -54 -14c-26 0 -47.833 8.16699 -65.5 24.5s-26.5 36.833 -26.5 61.5c0 17.333 4.83301 35.666 14.5 54.999s20.5 34.666 32.5 45.999z" />
    <glyph glyph-name="tilde" unicode="&#x2dc;" horiz-adv-x="418" 
d="M122 720h-68.001c0 28.667 10 53 30 73s43.667 30 71 30c20 0 39.667 -8 59 -24c20.667 -15.333 35.334 -23 44.001 -23c10.667 0 19.667 4 27 12s11 18.333 11 31h67c0 -29.333 -9.66699 -54 -29 -74s-42.666 -30 -69.999 -30c-20.667 0 -40.667 7.66699 -60 23
c-18.667 16 -33 24 -43 24c-10.667 0 -19.834 -4 -27.501 -12s-11.5 -18 -11.5 -30z" />
    <glyph glyph-name="hungarumlaut" unicode="&#x2dd;" horiz-adv-x="486" 
d="M98 694l-44 41l134 158l59 -61zM282 694l-43 41l133 158l60 -61z" />
    <glyph glyph-name="uni0394" unicode="&#x394;" horiz-adv-x="708" 
d="M691 0h-674l301 700h72zM560 84l-206 487l-206 -487h412z" />
    <glyph glyph-name="uni03A9" unicode="&#x3a9;" horiz-adv-x="824" 
d="M51 358c0 101.333 34.333 185.334 103 252.001c69.333 67.333 155.333 101 258 101s188.667 -34 258 -102c69.333 -67.333 104 -151.333 104 -252c0 -112.667 -42 -203.667 -126 -273h126v-84h-271v84c51.333 16.667 94 49 128 97c32.667 47.333 49 102 49 164
c0 79.333 -25.667 145.666 -77 198.999s-115 80 -191 80s-139.667 -26.667 -191 -80s-77 -119 -77 -197c0 -62.667 17 -118 51 -166c33.333 -47.333 78 -79.666 134 -96.999v-84h-270v84h120c-85.333 69.333 -128 160.666 -128 273.999z" />
    <glyph glyph-name="uni0400" unicode="&#x400;" horiz-adv-x="626" 
d="M78 700h504v-84h-414v-220h363v-84h-363v-228h419v-84h-509v700zM391 817l-30 -51l-193 95l40 75z" />
    <glyph glyph-name="uni0401" unicode="&#x401;" horiz-adv-x="626" 
d="M78 700h504v-84h-414v-220h363v-84h-363v-228h419v-84h-509v700zM469 779c-10.667 -10.667 -24 -16 -40 -16s-29.333 5.33301 -40 16s-16 24 -16 40s5.33301 29.333 16 40s24 16 40 16s29.333 -5.33301 40 -16s16 -24 16 -40s-5.33301 -29.333 -16 -40zM181 779
c-10.667 10.667 -16 24 -16 40s5.33301 29.333 16 40s24 16 40 16s29.333 -5.33301 40 -16s16 -24 16 -40s-5.33301 -29.333 -16 -40s-24 -16 -40 -16s-29.333 5.33301 -40 16z" />
    <glyph glyph-name="uni0402" unicode="&#x402;" horiz-adv-x="895" 
d="M289 0l-0.000976562 616h-262v84h614v-84h-262v-199c54.667 13.333 106.667 20 156 20c90.667 0 161 -19.833 211 -59.5s75 -96.167 75 -169.5c0 -72 -24.667 -126.667 -74 -164c-48.667 -36.667 -113.667 -55 -195 -55l1 84c118 0 177 44.667 177 134
c0 97.333 -65.667 146 -197 146c-51.333 0 -102.666 -7 -153.999 -21v-332h-90z" />
    <glyph glyph-name="uni0403" unicode="&#x403;" horiz-adv-x="553" 
d="M168 616v-616h-90v700h448v-84h-358zM447 861l-192 -95l-30 51l183 119z" />
    <glyph glyph-name="uni0404" unicode="&#x404;" horiz-adv-x="776" 
d="M412 711c68 0 129.835 -16.167 185.502 -48.5s99.5 -76.833 131.5 -133.5l-88 -33c-24 40 -56 71.333 -96 94s-84.333 34 -133 34c-68.667 0 -127.334 -21.333 -176.001 -64s-78.334 -97.334 -89.001 -164.001h357v-84h-358c8.66699 -68 37.667 -124.667 87 -170
c50 -44 109.667 -66 179 -66c48.667 0 93 11.333 133 34s72 54 96 94l88 -33c-32 -56.667 -75.833 -101.167 -131.5 -133.5s-117.5 -48.5 -185.5 -48.5c-103.333 0 -189.333 34.333 -258 103s-103 154.667 -103 258c0 102.667 34.333 188.334 103 257.001
c69.333 69.333 155.333 104 258 104z" />
    <glyph glyph-name="uni0405" unicode="&#x405;" 
d="M545 555l-88.9961 -25.999c-6 26.667 -23.167 49.167 -51.5 67.5s-61.5 27.5 -99.5 27.5c-42 0 -76.667 -10.333 -104 -31c-27.333 -20 -41 -45.333 -41 -76c0 -33.333 18.667 -59.333 56 -78c29.333 -14 74.333 -28.667 135 -44
c49.333 -12.667 87.666 -25.667 114.999 -39c64 -30 97.667 -82.333 101 -157c0 -62.667 -24 -113.334 -72 -152.001c-46.667 -38.667 -107.334 -58 -182.001 -58c-67.333 0 -124.666 15.667 -171.999 47c-47.333 30.667 -77.333 70.667 -90 120l90 27
c5.33301 -30.667 24.166 -56.167 56.499 -76.5s70.833 -30.5 115.5 -30.5c46.667 0 85.667 10.667 117 32c31.333 22 47 50 47 84c0 34.667 -16.667 60.667 -50 78c-29.333 15.333 -63 27.666 -101 36.999l-42 11l-39 12l-41 14c-2 0.666992 -4.83301 1.83398 -8.5 3.50098
l-13.5 6c-5.33301 2.33301 -10 4.5 -14 6.5c-16.667 8 -36.334 22.333 -59.001 43c-22.667 22.667 -36 58.667 -40 108c0 59.333 22 107.333 66 144c44.667 37.333 101 56 169 56c61.333 0 113.666 -14.667 156.999 -44c44 -28.667 72 -66 84 -112z" />
    <glyph glyph-name="uni0406" unicode="&#x406;" horiz-adv-x="246" 
d="M168 0h-90v700h90v-700z" />
    <glyph glyph-name="uni0407" unicode="&#x407;" horiz-adv-x="246" 
d="M168 0h-90v700h90v-700zM-21 779c-10.667 10.667 -16 24 -16 40s5.33301 29.333 16 40s24 16 40 16s29.333 -5.33301 40 -16s16 -24 16 -40s-5.33301 -29.333 -16 -40s-24 -16 -40 -16s-29.333 5.33301 -40 16zM187 779c-10.667 10.667 -16 24 -16 40
s5.33301 29.333 16 40s24 16 40 16s29.333 -5.33301 40 -16s16 -24 16 -40s-5.33301 -29.333 -16 -40s-24 -16 -40 -16s-29.333 5.33301 -40 16z" />
    <glyph glyph-name="uni0408" unicode="&#x408;" horiz-adv-x="595" 
d="M523 700v-449c0 -74.667 -25.667 -137 -77 -187c-50.667 -50 -114.667 -75 -192 -75c-48 0 -92 10.667 -132 32s-72 50.333 -96 87l75 49c15.333 -26 36.5 -46.5 63.5 -61.5s57.167 -22.5 90.5 -22.5c51.333 0 94.333 17 129 51s52 76.333 52 127v449h87z" />
    <glyph glyph-name="uni0409" unicode="&#x409;" horiz-adv-x="1140" 
d="M43 0h-26v84h26c22.667 0 42 7 58 21c37.333 34 56 119 56 255v340h498v-272h214c64.667 0 118.334 -20.333 161.001 -61c43.333 -41.333 65 -92.333 65 -153s-21.667 -111.667 -65 -153c-42.667 -40.667 -96.334 -61 -161.001 -61h-304v616h-318v-256
c0 -240 -68 -360 -204 -360zM655 344v-260h214c37.333 0 68.5 12.333 93.5 37s37.5 55.667 37.5 93s-12.5 68.333 -37.5 93s-56.167 37 -93.5 37h-214z" />
    <glyph glyph-name="uni040A" unicode="&#x40a;" horiz-adv-x="1159" 
d="M168 0h-90v700h90v-288h415v288h91v-288h214c64 0 117.667 -19.667 161 -59s65 -88.333 65 -147s-21.667 -107.667 -65 -147s-97 -59 -161 -59h-305v328h-415v-328zM888 328h-214v-244h214c37.333 0 68.666 11.667 93.999 35s38 52.333 38 87s-12.667 63.667 -38 87
s-56.666 35 -93.999 35z" />
    <glyph glyph-name="uni040B" unicode="&#x40b;" horiz-adv-x="895" 
d="M289 0v616h-262v84h614v-84h-262v-196c49.333 11.333 98.666 17 147.999 17c94 0 166.5 -20 217.5 -60s76.5 -97 76.5 -171v-206h-91v206c0 98 -67.667 147 -203 147c-51.333 0 -100.666 -6 -147.999 -18v-335h-90z" />
    <glyph glyph-name="uni040C" unicode="&#x40c;" horiz-adv-x="643" 
d="M626 0h-116l-329 357l309 343h116l-309 -343zM78 0v700h90v-700h-90zM478 861l-193 -95l-30 51l183 119z" />
    <glyph glyph-name="uni040D" unicode="&#x40d;" horiz-adv-x="755" 
d="M78 0v700h90v-547l427 547h82v-700h-91v544l-426 -544h-82zM443 817l-29 -51l-193 95l40 75z" />
    <glyph glyph-name="uni040E" unicode="&#x40e;" horiz-adv-x="684" 
d="M319 175l-302.001 525h100l247 -432l206 432h97l-256 -538c-51.333 -108 -122.666 -162 -213.999 -162h-72v84h65c51.333 0 94.333 30.333 129 91zM342.999 768c-50 0 -91.667 14.667 -125 44c-32.667 28.667 -49 65.334 -49 110.001h75c0 -23.333 9.33301 -43 28 -59
s42 -24 70 -24s51.333 8 70 24s28 35.667 28 59h74c0 -44.667 -16.333 -81.334 -49 -110.001c-33.333 -29.333 -74 -44 -122 -44z" />
    <glyph glyph-name="uni040F" unicode="&#x40f;" horiz-adv-x="734" 
d="M78 0v700h90v-616h398v616h90v-700h-244v-170h-90v170h-244z" />
    <glyph glyph-name="uni0410" unicode="&#x410;" horiz-adv-x="721" 
d="M112 0h-95l307 700h73l307 -700h-95l-68 157h-361zM504 241l-143 330l-144 -330h287z" />
    <glyph glyph-name="uni0411" unicode="&#x411;" horiz-adv-x="662" 
d="M78 700h467.001v-84h-377v-188h215c63.333 0 116.666 -20.667 159.999 -62s65 -92 65 -152c0 -60.667 -21.667 -111.667 -65 -153c-42.667 -40.667 -96 -61 -160 -61h-305v700zM168.001 344v-260h215c38 0 69.333 12.333 94 37c25.333 25.333 38 56.333 38 93
s-12.667 67.667 -38 93c-24.667 24.667 -56 37 -94 37h-215z" />
    <glyph glyph-name="uni0412" unicode="&#x412;" horiz-adv-x="691" 
d="M430 0h-352v700h332c56 0 103.333 -17.667 142 -53c38.667 -34.667 58 -78 58 -130c0 -63.333 -26.333 -112.333 -79 -147c34.667 -16 62.167 -39.5 82.5 -70.5s30.5 -65.5 30.5 -103.5c0 -55.333 -20.667 -102 -62 -140c-41.333 -37.333 -92 -56 -152 -56zM430 322
h-262.001v-238h262c34 0 62.5 11.333 85.5 34s34.5 51 34.5 85c0 32.667 -11.667 60.667 -35 84s-51.666 35 -84.999 35zM409.999 616h-242v-210h242c30.667 0 56.167 10 76.5 30s30.5 45 30.5 75s-10.167 55 -30.5 75s-45.833 30 -76.5 30z" />
    <glyph glyph-name="uni0413" unicode="&#x413;" horiz-adv-x="553" 
d="M168 616v-616h-90v700h448v-84h-358z" />
    <glyph glyph-name="uni0414" unicode="&#x414;" horiz-adv-x="831" 
d="M114 -170h-90v254h79c58 18.667 87 109.667 87 273v343h502v-616h115v-254h-90v170h-603v-170zM223 84l378 -0.000976562v532h-321v-255c0 -123.333 -19 -215.666 -57 -276.999z" />
    <glyph glyph-name="uni0415" unicode="&#x415;" horiz-adv-x="626" 
d="M78 700h504v-84h-414v-220h363v-84h-363v-228h419v-84h-509v700z" />
    <glyph glyph-name="uni0416" unicode="&#x416;" horiz-adv-x="995" 
d="M130 0h-113l312 357l-292 343h113l293 -343zM978 0h-113l-312 357l292 343h113l-292 -343zM544 700v-700h-91v700h91z" />
    <glyph glyph-name="uni0417" unicode="&#x417;" horiz-adv-x="641" 
d="M320 -11c-133.333 0 -226.002 56.668 -278.002 170.001l87 33c36 -77.333 99.333 -116 190 -116c53.333 0 96.833 11.833 130.5 35.5s50.5 54.5 50.5 92.5c0 31.333 -12 58.666 -36 81.999c-23.333 22.667 -52.666 34 -87.999 34h-135v84h133c30 0 55.5 10.167 76.5 30.5
s31.5 44.833 31.5 73.5c0 34.667 -15.167 62.667 -45.5 84s-70.166 32 -119.499 32c-88 0 -149.333 -38.333 -184 -115l-88 33c52 112.667 143 169 273 169c76 0 137.667 -18.333 185 -55c48.667 -36.667 73 -83.334 73 -140.001c0 -31.333 -8 -60.5 -24 -87.5
s-37.667 -48.5 -65 -64.5c33.333 -17.333 59.5 -40.833 78.5 -70.5s28.5 -62.5 28.5 -98.5c0 -59.333 -26 -108.666 -78 -147.999c-50.667 -38.667 -116 -58 -196 -58z" />
    <glyph glyph-name="uni0418" unicode="&#x418;" horiz-adv-x="755" 
d="M160 0h-82v700h90v-547l427 547h82v-700h-91v544z" />
    <glyph glyph-name="uni0419" unicode="&#x419;" horiz-adv-x="755" 
d="M586 544l-426 -544h-82v700h90v-547l427 547h82v-700h-91v544zM382 768c-49.333 0 -90.668 14.667 -124.001 44c-32.667 28.667 -49 65.334 -49 110.001h74c0 -23.333 9.33301 -43 28 -59s42.334 -24 71.001 -24c27.333 0 50.333 8 69 24s28 35.667 28 59h74
c0 -44.667 -16.333 -81.334 -49 -110.001c-33.333 -29.333 -74 -44 -122 -44z" />
    <glyph glyph-name="uni041A" unicode="&#x41a;" horiz-adv-x="643" 
d="M626 0h-116l-329 357l309 343h116l-309 -343zM78 0v700h90v-700h-90z" />
    <glyph glyph-name="uni041B" unicode="&#x41b;" horiz-adv-x="733" 
d="M43 0h-26v84h26c22.667 0 42 7 58 21c37.333 34 56 119 56 255v340h499v-700h-91v616h-318v-256c0 -240 -68 -360 -204 -360z" />
    <glyph glyph-name="uni041C" unicode="&#x41c;" horiz-adv-x="899" 
d="M168 0h-90v700h90l282 -492l281 492h90v-700h-90v529l-252 -442h-59l-252 441v-528z" />
    <glyph glyph-name="uni041D" unicode="&#x41d;" horiz-adv-x="752" 
d="M168 0h-90v700h90v-304h415v304h91v-700h-91v312h-415v-312z" />
    <glyph glyph-name="uni041E" unicode="&#x41e;" horiz-adv-x="824" 
d="M412 711c102.667 0 188.667 -34.668 258 -104.001s104 -155 104 -257c0 -102.667 -34.667 -188.667 -104 -258c-68.667 -68.667 -154.667 -103 -258 -103s-189.333 34.333 -258 103s-103 154.667 -103 258c0 102.667 34.333 188.334 103 257.001
c69.333 69.333 155.333 104 258 104zM412 75.999c76 0 139.669 26 191.002 78c51.333 53.333 77 118.666 77 195.999s-25.667 142.333 -77 195c-50.667 52.667 -114.334 79 -191.001 79s-140.334 -26.333 -191.001 -79c-51.333 -52.667 -77 -117.667 -77 -195
s25.667 -142.666 77 -195.999c51.333 -52 115 -78 191 -78z" />
    <glyph glyph-name="uni041F" unicode="&#x41f;" horiz-adv-x="752" 
d="M168 616v-616h-90v700h596v-700h-91v616h-415z" />
    <glyph glyph-name="uni0420" unicode="&#x420;" horiz-adv-x="657" 
d="M168 268v-268.002h-90v700h307c64.667 0 118.667 -20.667 162 -62s65 -92.666 65 -153.999s-21.667 -112.666 -65 -153.999s-97.333 -62 -162 -62h-217zM385 615.998l-217 0.000976562v-264h217c38 0 69.667 12.667 95 38s38 56.666 38 93.999
c0 38 -12.667 69.5 -38 94.5s-57 37.5 -95 37.5z" />
    <glyph glyph-name="uni0421" unicode="&#x421;" horiz-adv-x="776" 
d="M412 711c68 0 129.834 -16.1689 185.501 -48.502s99.5 -76.833 131.5 -133.5l-88 -33c-24 40 -56 71.333 -96 94s-84.333 34 -133 34c-76.667 0 -140.334 -26.333 -191.001 -79c-51.333 -52.667 -77 -117.667 -77 -195s25.667 -142.666 77 -195.999
c51.333 -52 115 -78 191 -78c48.667 0 93 11.333 133 34s72 54 96 94l88 -33c-32 -56.667 -75.833 -101.167 -131.5 -133.5s-117.5 -48.5 -185.5 -48.5c-103.333 0 -189.333 34.333 -258 103s-103 154.667 -103 258c0 102.667 34.333 188.334 103 257.001
c69.333 69.333 155.333 104 258 104z" />
    <glyph glyph-name="uni0422" unicode="&#x422;" horiz-adv-x="668" 
d="M289 616h-262v84h614v-84h-262v-616h-90v616z" />
    <glyph glyph-name="uni0423" unicode="&#x423;" horiz-adv-x="684" 
d="M319 175l-302.001 525h100l247 -432l206 432h97l-256 -538c-51.333 -108 -122.666 -162 -213.999 -162h-72v84h65c51.333 0 94.333 30.333 129 91z" />
    <glyph glyph-name="uni0424" unicode="&#x424;" horiz-adv-x="858" 
d="M384 638l0.00195312 73h90v-73c97.333 -1.33301 177 -29 239 -83c62.667 -54 94 -122.333 94 -205s-31.333 -151.334 -94 -206.001c-62.667 -54 -142.334 -81.333 -239.001 -82v-73h-90v73c-96.667 0.666992 -176.334 28 -239.001 82
c-62.667 54.667 -94 123.334 -94 206.001s31.333 151 94 205c62 54 141.667 81.667 239 83zM384.002 149v402c-69.333 0 -126.666 -19 -171.999 -57c-45.333 -37.333 -68 -85.333 -68 -144s22.667 -107 68 -145c45.333 -37.333 102.666 -56 171.999 -56zM474.002 551v-402
c68.667 0 125.667 18.667 171 56c45.333 38 68 86.333 68 145s-22.667 106.667 -68 144c-44.667 38 -101.667 57 -171 57z" />
    <glyph glyph-name="uni0425" unicode="&#x425;" horiz-adv-x="677" 
d="M284 357l-257 343h108l204 -271l203 271h108l-257 -343l267 -357h-108l-213 284l-214 -284h-108z" />
    <glyph glyph-name="uni0426" unicode="&#x426;" horiz-adv-x="795" 
d="M78 0v700h90v-616h398v616h90v-616h116v-254h-91v170h-603z" />
    <glyph glyph-name="uni0427" unicode="&#x427;" horiz-adv-x="691" 
d="M354 263c-97.333 0 -172.668 20 -226.001 60s-80 97 -80 171v206h90v-206c0 -98 71.667 -147 215 -147c58.667 0 115.334 7 170.001 21v332h90v-700h-90v284c-52.667 -14 -109 -21 -169 -21z" />
    <glyph glyph-name="uni0428" unicode="&#x428;" horiz-adv-x="1082" 
d="M78 0v700h90v-616h325v616h90v-616h331v616h90v-700h-926z" />
    <glyph glyph-name="uni0429" unicode="&#x429;" horiz-adv-x="1143" 
d="M78 700h90v-616h325v616h90v-616h331v616h90v-616h116v-254h-91v170h-951v700z" />
    <glyph glyph-name="uni042A" unicode="&#x42a;" horiz-adv-x="851" 
d="M275 0v616h-248v84h339v-272h214c64.667 0 118.334 -20.333 161.001 -61c43.333 -41.333 65 -92.333 65 -153s-21.667 -111.667 -65 -153c-42.667 -40.667 -96.334 -61 -161.001 -61h-305zM366 344v-260h214c38 0 69.333 12.333 94 37c25.333 25.333 38 56.333 38 93
s-12.667 67.667 -38 93c-24.667 24.667 -56 37 -94 37h-214z" />
    <glyph glyph-name="uni042B" unicode="&#x42b;" horiz-adv-x="886" 
d="M383 0h-304.999v700h90v-272h215c63.333 0 116.666 -20.667 159.999 -62s65 -92 65 -152c0 -60.667 -21.667 -111.667 -65 -153c-42.667 -40.667 -96 -61 -160 -61zM168.001 344l0.000976562 -260h215c38 0 69.333 12.333 94 37c25.333 25.333 38 56.333 38 93
c0 32 -9.33301 59.5 -28 82.5s-43.334 37.833 -74.001 44.5l-22 3h-8h-215zM808.002 0h-91v700h91v-700z" />
    <glyph glyph-name="uni042C" unicode="&#x42c;" horiz-adv-x="654" 
d="M78 0l0.000976562 700h90v-272h215c63.333 0 116.666 -20.667 159.999 -62s65 -92 65 -152c0 -60.667 -21.667 -111.667 -65 -153c-42.667 -40.667 -96 -61 -160 -61h-305zM168.001 344l-0.00195312 -260.001h215c32 0 59.833 9.33301 83.5 28s38.834 42.667 45.501 72
l3 22c0 40.667 -12.167 73.834 -36.5 99.501s-56.166 38.5 -95.499 38.5h-215z" />
    <glyph glyph-name="uni042D" unicode="&#x42d;" horiz-adv-x="776" 
d="M48 171l87.001 33c24 -40 56 -71.333 96 -94s84.333 -34 133 -34c70.667 0 130.334 22 179.001 66c49.333 45.333 78.333 102 87 170h-321v84h320c-11.333 68 -41 122.667 -89 164c-48.667 42.667 -107.334 64 -176.001 64c-48.667 0 -93 -11.333 -133 -34
s-72 -54 -96 -94l-87 33c30.667 56.667 74 101.167 130 133.5s118 48.5 186 48.5c102 0 187.667 -34.667 257 -104s104 -155 104 -257c0 -102.667 -34.667 -188.667 -104 -258c-68.667 -68.667 -154.334 -103 -257.001 -103c-68 0 -130 16.167 -186 48.5
s-99.333 76.833 -130 133.5z" />
    <glyph glyph-name="uni042E" unicode="&#x42e;" horiz-adv-x="1076" 
d="M78 0l0.000976562 700h90v-304h138c10.667 92 49 167.333 115 226c67.333 59.333 148.333 89 243 89c102 0 187.667 -34.667 257 -104s104 -155 104 -257c0 -102.667 -34.667 -188.667 -104 -258c-68.667 -68.667 -154.334 -103 -257.001 -103
c-97.333 0 -179.333 30.333 -246 91c-66 60 -103.667 137.333 -113 232h-137v-312h-90zM664.001 76c76 0 139.668 26.001 191.001 78.001c51.333 53.333 77 118.666 77 195.999s-25.667 142.333 -77 195c-50.667 52.667 -114.334 79 -191.001 79
c-77.333 0 -141.333 -26.333 -192 -79c-50.667 -51.333 -76 -116.333 -76 -195c0 -78 25.333 -143.333 76 -196c50.667 -52 114.667 -78 192 -78z" />
    <glyph glyph-name="uni042F" unicode="&#x42f;" horiz-adv-x="679" 
d="M314 270l-165 -269.998h-102l169 279c-48 13.333 -86.5 38.666 -115.5 75.999s-43.5 80.666 -43.5 129.999c0 60.667 21.667 111.667 65 153s97.333 62 162 62h317v-700h-91v270h-196zM284 354.002l226 -0.000976562v262h-226c-37.333 0 -69.333 -12.667 -96 -38
c-25.333 -25.333 -38 -56.333 -38 -93c0 -37.333 12.667 -68.666 38 -93.999c25.333 -24.667 57.333 -37 96 -37z" />
    <glyph glyph-name="uni0430" unicode="&#x430;" horiz-adv-x="645" 
d="M300 531c78 0 141.333 -28.333 190 -85v74h84v-520h-84v74c-48.667 -56.667 -112 -85 -190 -85c-72.667 0 -133.667 25.667 -183 77c-48.667 51.333 -73 116 -73 194s24.333 142.333 73 193c48.667 52 109.667 78 183 78zM309 447
c-50 0 -92.332 -18.001 -126.999 -54.001c-34 -35.333 -51 -79.666 -51 -132.999s17 -98 51 -134c35.333 -35.333 77.666 -53 126.999 -53c50.667 0 93 17.667 127 53c34.667 35.333 52 80 52 134s-17.333 98.333 -52 133c-34 36 -76.333 54 -127 54z" />
    <glyph glyph-name="uni0431" unicode="&#x431;" horiz-adv-x="649" 
d="M47 378c0 114.667 25.166 201.498 75.499 260.498s127.833 93.5 232.5 103.5c110 11.333 173.333 17.666 190 18.999v-84c-94 -9.33301 -155.333 -15.666 -184 -18.999c-81.333 -8 -140.166 -34.167 -176.499 -78.5s-53.5 -108.166 -51.5 -191.499
c14.667 43.333 40.667 78 78 104s81 39 131 39c74 0 136.333 -26 187 -78c50.667 -51.333 76 -116 76 -194c0 -77.333 -25.667 -141.666 -77 -192.999s-115 -77 -191 -77c-82.667 0 -151.667 32.667 -207 98s-83 162.333 -83 291zM338.999 72.998c50.667 0 93 17.667 127 53
c34 36 51 80.667 51 134s-17 97.666 -51 132.999c-34 36 -76.333 54 -127 54c-51.333 0 -94.333 -18 -129 -54c-34 -35.333 -51 -79.666 -51 -132.999s17 -98 51 -134c35.333 -35.333 78.333 -53 129 -53z" />
    <glyph glyph-name="uni0432" unicode="&#x432;" horiz-adv-x="558" 
d="M71 520h268.001c38 0 71.167 -9.83301 99.5 -29.5s46.166 -45.5 53.499 -77.5c2.66699 -12.667 4 -19.667 4 -21c0 -49.333 -18 -88 -54 -116c24 -12 43.167 -29.167 57.5 -51.5s21.5 -46.5 21.5 -72.5c0 -44 -15.333 -80.333 -46 -109s-69 -43 -115 -43h-289v520z
M155.001 234v-153h205c20.667 0 38 7.33301 52 22s21 32.667 21 54c0 22 -7 40.333 -21 55s-31.333 22 -52 22h-205zM339.001 439h-184v-134h184c20.667 0 37.5 6.33301 50.5 19s19.5 28.667 19.5 48s-6.5 35.333 -19.5 48s-29.833 19 -50.5 19z" />
    <glyph glyph-name="uni0433" unicode="&#x433;" horiz-adv-x="423" 
d="M155 439v-439h-84v520h335v-81h-251z" />
    <glyph glyph-name="uni0434" unicode="&#x434;" horiz-adv-x="670" 
d="M106 0v-150h-84v231h78c30 27.333 45 85.333 45 174v265h408v-439h95v-231h-84v150h-458zM193 81l276 -0.000976562v358h-240v-186c0 -71.333 -12 -128.666 -36 -171.999z" />
    <glyph glyph-name="uni0435" unicode="&#x435;" horiz-adv-x="616" 
d="M578 231h-447.002c6 -46.667 26.667 -85.667 62 -117c34.667 -30.667 77.334 -46 128.001 -46c66 0 117.333 25 154 75l82 -26c-24 -40 -56.833 -71.333 -98.5 -94s-87.5 -34 -137.5 -34c-78.667 0 -144.667 25.667 -198 77c-52.667 52 -79 116.667 -79 194
s25.667 141.666 77 192.999c51.333 52 115 78 191 78c76.667 0 140.334 -26 191.001 -78c51.333 -51.333 77 -115.666 77 -192.999c0 -2 -0.666992 -11.667 -2 -29zM131.998 299h361c-8 44.667 -29 81.667 -63 111c-33.333 28.667 -73.333 43 -120 43
c-45.333 0 -84.333 -14.333 -117 -43s-53 -65.667 -61 -111z" />
    <glyph glyph-name="uni0436" unicode="&#x436;" horiz-adv-x="752" 
d="M118 0h-101l213 269l-193 251h100l194 -251zM735 0h-101l-212 269l193 251h100l-193 -251zM418 520v-520h-84v520h84z" />
    <glyph glyph-name="uni0437" unicode="&#x437;" horiz-adv-x="540" 
d="M41 132l84.999 22.998c23.333 -57.333 70.333 -86 141 -86c40.667 0 74.334 8.83301 101.001 26.5s40 39.5 40 65.5c0 20.667 -7.83301 37.834 -23.5 51.501s-35.167 20.5 -58.5 20.5h-128v71h122c22.667 0 41.334 6.16699 56.001 18.5s22 27.5 22 45.5
c0 23.333 -12.333 43 -37 59s-55.334 24 -92.001 24c-70 0 -116.667 -28.667 -140 -86l-85 23c16 44.667 44.333 79.667 85 105s88.667 38 144 38c60 0 110.333 -14.667 151 -44c40.667 -28.667 61 -64.667 61 -108c0 -45.333 -21.667 -81.666 -65 -108.999
c50 -26.667 75 -66.667 75 -120c0 -46 -21.333 -84.333 -64 -115s-96.667 -46 -162 -46c-56 0 -104 12.5 -144 37.5s-68 60.167 -84 105.5z" />
    <glyph glyph-name="uni0438" unicode="&#x438;" horiz-adv-x="622" 
d="M466 379l-324 -379h-71v520h84v-381l324 381h71v-520h-84v379z" />
    <glyph glyph-name="uni0439" unicode="&#x439;" horiz-adv-x="622" 
d="M466 379l-324 -379h-71v520h84v-381l324 381h71v-520h-84v379zM145 738h72c0 -24.667 8.83301 -45 26.5 -61s40.167 -24 67.5 -24s49.833 8 67.5 24s26.5 36.333 26.5 61h71c0 -44 -15.667 -80.667 -47 -110c-30.667 -28.667 -70 -43 -118 -43s-87.667 14.333 -119 43
c-31.333 29.333 -47 66 -47 110z" />
    <glyph glyph-name="uni043A" unicode="&#x43a;" horiz-adv-x="525" 
d="M508 0h-105l-234 269l214 251h103l-213 -251zM155 520v-520h-84v520h84z" />
    <glyph glyph-name="uni043B" unicode="&#x43b;" horiz-adv-x="599" 
d="M56 0h-34v81h28c50 0 75 54.667 75 164v275h403v-520h-84v439h-235v-210c0 -76 -13.5 -133.167 -40.5 -171.5s-64.5 -57.5 -112.5 -57.5z" />
    <glyph glyph-name="uni043C" unicode="&#x43c;" horiz-adv-x="708" 
d="M155 362v-362h-84v520h84l199 -346l198 346h84v-520h-84v360l-172 -300h-52z" />
    <glyph glyph-name="uni043D" unicode="&#x43d;" horiz-adv-x="620" 
d="M155 224v-224h-84v520h84v-215h310v215h84v-520h-84v224h-310z" />
    <glyph glyph-name="uni043E" unicode="&#x43e;" horiz-adv-x="631" 
d="M121 66c-51.333 52.667 -76.998 117.333 -76.998 194c0 77.333 25.667 141.666 77 192.999c52 52 116.667 78 194 78s142 -26 194 -78c52 -51.333 78 -115.666 78 -192.999s-26 -142 -78 -194c-52.667 -51.333 -117.334 -77 -194.001 -77s-141.334 25.667 -194.001 77z
M315.002 72.999c52.667 0 96.668 17.667 132.001 53c35.333 36.667 53 81.334 53 134.001c0 53.333 -17.667 97.666 -53 132.999c-35.333 36 -79.333 54 -132 54s-96.334 -18 -131.001 -54c-35.333 -35.333 -53 -79.666 -53 -132.999c0 -52.667 17.667 -97.334 53 -134.001
c35.333 -35.333 79 -53 131 -53z" />
    <glyph glyph-name="uni043F" unicode="&#x43f;" horiz-adv-x="612" 
d="M155 439v-439h-84v520h469v-520h-84v439h-301z" />
    <glyph glyph-name="uni0440" unicode="&#x440;" horiz-adv-x="645" 
d="M155 -225h-84v745h84v-74c48.667 56.667 111.667 85 189 85c73.333 0 134.333 -26 183 -78c49.333 -51.333 74 -115.666 74 -192.999c0 -76.667 -24.667 -141.334 -74 -194.001c-49.333 -51.333 -110.333 -77 -183 -77c-77.333 0 -140.333 28.333 -189 85v-299zM335 447
c-50 0 -92.332 -18.001 -126.999 -54.001c-34 -35.333 -51 -79.666 -51 -132.999s17 -98 51 -134c35.333 -35.333 77.666 -53 126.999 -53c50.667 0 93 17.667 127 53c34.667 35.333 52 80 52 134s-17.333 98.333 -52 133c-34 36 -76.333 54 -127 54z" />
    <glyph glyph-name="uni0441" unicode="&#x441;" horiz-adv-x="599" 
d="M563 374l-83.998 -25c-15.333 30 -37.5 53.833 -66.5 71.5s-61.5 26.5 -97.5 26.5c-52.667 0 -96.334 -18 -131.001 -54c-35.333 -35.333 -53 -79.666 -53 -132.999c0 -52.667 17.667 -97.334 53 -134.001c35.333 -35.333 79 -53 131 -53c36 0 68.5 8.83301 97.5 26.5
s51.167 41.5 66.5 71.5l84 -25c-21.333 -48.667 -54.166 -87 -98.499 -115s-94.166 -42 -149.499 -42c-76.667 0 -141.334 25.667 -194.001 77c-51.333 52.667 -77 117.334 -77 194.001c0 77.333 25.667 141.666 77 192.999c52 52 116.667 78 194 78
c55.333 0 105.166 -14 149.499 -42s77.166 -66.333 98.499 -115z" />
    <glyph glyph-name="uni0442" unicode="&#x442;" horiz-adv-x="508" 
d="M212 0v439h-195v81h474v-81h-195v-439h-84z" />
    <glyph glyph-name="uni0443" unicode="&#x443;" horiz-adv-x="532" 
d="M190 -61l30.999 76l-207 505h87l163 -404l168 404h87l-256 -609c-19.333 -47.333 -44.166 -81.833 -74.499 -103.5s-68.833 -32.5 -115.5 -32.5h-24v81h24c54.667 0 93.667 27.667 117 83z" />
    <glyph glyph-name="uni0444" unicode="&#x444;" horiz-adv-x="786" 
d="M467 -11c-16.667 0 -27.334 0.333984 -32.001 1.00098v-215h-84v215c-4.66699 -0.666992 -15.334 -1 -32.001 -1c-76.667 0 -141.334 25.667 -194.001 77c-52 52 -78 116.667 -78 194s26 141.666 78 192.999c52 52 116.667 78 194 78
c16.667 0 27.334 -0.333008 32.001 -1v220h84v-220c4.66699 0.666992 15.334 1 32.001 1c78 0 142.333 -26 193 -78c52 -50.667 78 -115 78 -193c0 -77.333 -26 -142 -78 -194c-51.333 -51.333 -115.666 -77 -192.999 -77zM319 447.001c-52.667 0 -96.667 -18 -132 -54
c-35.333 -35.333 -53 -79.666 -53 -132.999c0 -52.667 17.667 -97.334 53 -134.001c35.333 -35.333 79.333 -53 132 -53c1.33301 0 12 0.666992 32 2v370c-20 1.33301 -30.667 2 -32 2zM467 447.001c-4 0 -14.666 -0.666992 -31.999 -2v-370c17.333 -1.33301 28 -2 32 -2
c52 0 95.667 17.667 131 53c35.333 36.667 53 81.334 53 134.001c0 53.333 -17.667 97.666 -53 132.999c-34.667 36 -78.334 54 -131.001 54z" />
    <glyph glyph-name="uni0445" unicode="&#x445;" horiz-adv-x="543" 
d="M424 0l-152 199l-153 -199h-100l203 266l-194 254h100l144 -187l143 187h100l-193 -254l202 -266h-100z" />
    <glyph glyph-name="uni0446" unicode="&#x446;" horiz-adv-x="653" 
d="M71 0v520h84v-439h296v439h84v-439h96v-231h-84v150h-476z" />
    <glyph glyph-name="uni0447" unicode="&#x447;" horiz-adv-x="555" 
d="M46 356v164h87v-164c0 -26 10 -46.667 30 -62s49 -23 87 -23c29.333 0 79.333 4 150 12v237h84v-520h-84v202c-70.667 -8 -122.667 -12 -156 -12c-60 0 -108.333 15.667 -145 47c-35.333 31.333 -53 71 -53 119z" />
    <glyph glyph-name="uni0448" unicode="&#x448;" horiz-adv-x="872" 
d="M71 0v520h84v-439h239v439h84v-439h238v439h84v-520h-729z" />
    <glyph glyph-name="uni0449" unicode="&#x449;" horiz-adv-x="918" 
d="M71 520h84v-439h239v439h84v-439h238v439h84v-439h96v-231h-84v150h-741v520z" />
    <glyph glyph-name="uni044A" unicode="&#x44a;" horiz-adv-x="665" 
d="M205 0v438.999h-188v81h272v-188h173c48 0 87.667 -16 119 -48c32 -31.333 48 -70.666 48 -117.999s-16 -87 -48 -119c-31.333 -31.333 -71 -47 -119 -47h-257zM462 250.999h-173v-170h173c22.667 0 41.667 8.16699 57 24.5s23 36.5 23 60.5s-7.66699 44.167 -23 60.5
s-34.333 24.5 -57 24.5z" />
    <glyph glyph-name="uni044B" unicode="&#x44b;" horiz-adv-x="735" 
d="M328 0l-257 -0.000976562v520h84v-188h173c48 0 88 -16 120 -48c32 -31.333 48 -70.666 48 -117.999c0 -45.333 -14.333 -83.333 -43 -114s-66 -48 -112 -52h-13zM664 -0.000976562h-84v520h84v-520zM328 250.999h-173v-170h173c22.667 0 41.834 8.16699 57.501 24.5
s23.5 36.5 23.5 60.5s-7.83301 44.167 -23.5 60.5s-34.834 24.5 -57.501 24.5z" />
    <glyph glyph-name="uni044C" unicode="&#x44c;" horiz-adv-x="532" 
d="M328 0h-257.001v520h84v-188h173c46 0 84.333 -14.333 115 -43c31.333 -29.333 49 -66 53 -110c0 -53.333 -15.167 -96.5 -45.5 -129.5s-71.166 -49.5 -122.499 -49.5zM154.999 251v-170h173c22.667 0 41.834 8.16699 57.501 24.5s23.5 36.5 23.5 60.5
s-7.83301 44.167 -23.5 60.5s-34.834 24.5 -57.501 24.5h-173z" />
    <glyph glyph-name="uni044D" unicode="&#x44d;" horiz-adv-x="599" 
d="M36 146l84 24.998c15.333 -30.667 37.333 -54.667 66 -72s61 -26 97 -26c47.333 0 87.333 14 120 42c34 30 54.333 67 61 111h-236v77h235c-9.33301 42.667 -30.666 77.334 -63.999 104.001s-72 40 -116 40c-36 0 -68.333 -8.66699 -97 -26s-50.667 -41.333 -66 -72
l-84 25c20.667 48 53 86.167 97 114.5s94 42.5 150 42.5c77.333 0 142 -26 194 -78c52 -51.333 78 -115.666 78 -192.999s-26 -142 -78 -194c-52.667 -51.333 -117.334 -77 -194.001 -77c-56 0 -106 14.167 -150 42.5s-76.333 66.5 -97 114.5z" />
    <glyph glyph-name="uni044E" unicode="&#x44e;" horiz-adv-x="847" 
d="M71 0l-0.000976562 520h84v-215h118c10 66 39.333 120 88 162c48.667 42.667 107.334 64 176.001 64c75.333 0 138.666 -26 189.999 -78c50.667 -50.667 76 -115 76 -193s-25.333 -142.667 -76 -194c-51.333 -51.333 -114.666 -77 -189.999 -77
c-70 0 -129.667 22 -179 66c-49.333 44.667 -78 101 -86 169h-117v-224h-84zM664.999 393c-34 36 -76.667 54 -128 54s-94 -18 -128 -54c-34 -35.333 -51 -79.666 -51 -132.999s17 -98 51 -134c34 -35.333 76.667 -53 128 -53s94 17.667 128 53c34 36 51 80.667 51 134
s-17 97.666 -51 132.999z" />
    <glyph glyph-name="uni044F" unicode="&#x44f;" horiz-adv-x="572" 
d="M280 189l-132.001 -188.999h-99l134 192c-38.667 8 -70.167 27 -94.5 57s-36.5 65.333 -36.5 106c0 47.333 15.667 86.666 47 117.999c32.667 31.333 72.334 47 119.001 47h283v-520h-84v189h-137zM217.999 270.001h199v169h-199c-22.667 0 -41.5 -8 -56.5 -24
s-22.5 -36 -22.5 -60s7.5 -44.167 22.5 -60.5s33.833 -24.5 56.5 -24.5z" />
    <glyph glyph-name="uni0450" unicode="&#x450;" horiz-adv-x="616" 
d="M578 231h-447.002c6 -46.667 26.667 -85.667 62 -117c34.667 -30.667 77.334 -46 128.001 -46c66 0 117.333 25 154 75l82 -26c-24 -40 -56.833 -71.333 -98.5 -94s-87.5 -34 -137.5 -34c-78.667 0 -144.667 25.667 -198 77c-52.667 52 -79 116.667 -79 194
s25.667 141.666 77 192.999c51.333 52 115 78 191 78c76.667 0 140.334 -26 191.001 -78c51.333 -51.333 77 -115.666 77 -192.999c0 -2 -0.666992 -11.667 -2 -29zM131.998 299h361c-8 44.667 -29 81.667 -63 111c-33.333 28.667 -73.333 43 -120 43
c-45.333 0 -84.333 -14.333 -117 -43s-53 -65.667 -61 -111zM349.998 599l-193 95l40 75l183 -118z" />
    <glyph glyph-name="uni0451" unicode="&#x451;" horiz-adv-x="616" 
d="M578 231h-447.002c6 -46.667 26.667 -85.667 62 -117c34.667 -30.667 77.334 -46 128.001 -46c66 0 117.333 25 154 75l82 -26c-24 -40 -56.833 -71.333 -98.5 -94s-87.5 -34 -137.5 -34c-78.667 0 -144.667 25.667 -198 77c-52.667 52 -79 116.667 -79 194
s25.667 141.666 77 192.999c51.333 52 115 78 191 78c76.667 0 140.334 -26 191.001 -78c51.333 -51.333 77 -115.666 77 -192.999c0 -2 -0.666992 -11.667 -2 -29zM131.998 299h361c-8 44.667 -29 81.667 -63 111c-33.333 28.667 -73.333 43 -120 43
c-45.333 0 -84.333 -14.333 -117 -43s-53 -65.667 -61 -111zM153.998 653c0 16 5.33203 29.167 15.999 39.5s24 15.5 40 15.5s29.333 -5.16699 40 -15.5s16 -23.5 16 -39.5c1.33301 -22.667 -7.66699 -38.834 -27 -48.501s-38.666 -9.66699 -57.999 0
s-28.333 25.834 -27 48.501zM361.997 653c0 16 5.33203 29.167 15.999 39.5s24 15.5 40 15.5s29.333 -5.16699 40 -15.5s16 -23.5 16 -39.5c1.33301 -22.667 -7.66699 -38.834 -27 -48.501s-38.666 -9.66699 -57.999 0s-28.333 25.834 -27 48.501z" />
    <glyph glyph-name="uni0452" unicode="&#x452;" horiz-adv-x="621" 
d="M155 750l0.000976562 -91.001h195v-65h-195v-161c41.333 65.333 103.333 98 186 98c60 0 110.333 -19.667 151 -59c40 -38.667 60 -88 60 -148v-396c0 -43.333 -14.667 -79.666 -44 -108.999s-65.666 -44 -108.999 -44h-42v81h36c21.333 0 39.166 7.83301 53.499 23.5
s21.5 35.167 21.5 58.5v364c0 42 -14.333 77.333 -43 106s-64.334 43 -107.001 43c-46 0 -84.667 -14.667 -116 -44s-47 -65 -47 -107v-300h-84v594h-61v65h61v91h84z" />
    <glyph glyph-name="uni0453" unicode="&#x453;" horiz-adv-x="423" 
d="M155 439v-439h-84v520h335v-81h-251zM393 694l-193 -95l-30 52l183 118z" />
    <glyph glyph-name="uni0454" unicode="&#x454;" horiz-adv-x="599" 
d="M315 -11c-76.667 0 -141.333 25.668 -194 77.001c-51.333 52.667 -77 117.334 -77 194.001c0 77.333 25.667 141.666 77 192.999c52 52 116.667 78 194 78c55.333 0 105.166 -14 149.499 -42s77.166 -66.333 98.499 -115l-84 -25c-15.333 30 -37.5 53.833 -66.5 71.5
s-61.5 26.5 -97.5 26.5c-44 0 -82.5 -13.333 -115.5 -40s-54.167 -61.334 -63.5 -104.001h254v-77h-256c6.66699 -44 27 -81 61 -111c34 -28 74 -42 120 -42c36 0 68.5 8.83301 97.5 26.5s51.167 41.5 66.5 71.5l84 -25c-21.333 -48.667 -54.166 -87 -98.499 -115
s-94.166 -42 -149.499 -42z" />
    <glyph glyph-name="uni0455" unicode="&#x455;" horiz-adv-x="477" 
d="M424 407l-78.999 -14.002c-5.33301 20 -17.833 35.667 -37.5 47s-44.5 17 -74.5 17c-28.667 0 -52.5 -6.33301 -71.5 -19s-28.5 -29 -28.5 -49c0 -28 18.333 -48.333 55 -61l127 -45c79.333 -29.333 119 -76.666 119 -141.999c0 -47.333 -18 -84.5 -54 -111.5
s-83 -40.5 -141 -40.5c-55.333 0 -100.833 12.167 -136.5 36.5s-57.167 57.5 -64.5 99.5l79 14c5.33301 -22.667 19.166 -41 41.499 -55s49.833 -21 82.5 -21c32 0 58.833 7 80.5 21s32.5 32 32.5 54c0 31.333 -23 55 -69 71l-124 43
c-72.667 24.667 -109 68.334 -109 131.001c0 46.667 17.167 83 51.5 109s79.5 39 135.5 39c50 0 91.5 -11.167 124.5 -33.5s53.167 -52.5 60.5 -90.5z" />
    <glyph glyph-name="uni0456" unicode="&#x456;" horiz-adv-x="226" 
d="M155 0h-84v520h84v-520zM71 605c-10.667 11.333 -16 25.333 -16 42s5.33301 30.334 16 41.001c11.333 11.333 25.333 17 42 17s30.667 -5.66699 42 -17c11.333 -10.667 17 -24.334 17 -41.001s-5.66699 -30.667 -17 -42c-11.333 -10.667 -25.333 -16 -42 -16
s-30.667 5.33301 -42 16z" />
    <glyph glyph-name="uni0457" unicode="&#x457;" horiz-adv-x="226" 
d="M155 0h-84v520h84v-520zM-37 653c0 16 5.33301 29.167 16 39.5s24 15.5 40 15.5s29.333 -5.16699 40 -15.5s16 -23.5 16 -39.5s-5.33301 -29.333 -16 -40s-24 -16 -40 -16s-29.333 5.16699 -40 15.5s-16 23.833 -16 40.5zM151 653c0 16 5.33203 29.167 15.999 39.5
s24 15.5 40 15.5s29.333 -5.16699 40 -15.5s16 -23.5 16 -39.5c1.33301 -22.667 -7.66699 -38.834 -27 -48.501s-38.666 -9.66699 -57.999 0s-28.333 25.834 -27 48.501z" />
    <glyph glyph-name="uni0458" unicode="&#x458;" horiz-adv-x="234" 
d="M79 520l84 -0.000976562v-592c0 -43.333 -14.667 -79.666 -44 -108.999s-65.666 -44 -108.999 -44h-42v81h36c21.333 0 39.166 7.83301 53.499 23.5s21.5 35.167 21.5 58.5v582zM79 604.999c-11.333 11.333 -17 25.333 -17 42s5.66699 30.334 17 41.001
c11.333 11.333 25.333 17 42 17s30.334 -5.66699 41.001 -17c11.333 -10.667 17 -24.334 17 -41.001s-5.66699 -30.667 -17 -42c-10.667 -10.667 -24.334 -16 -41.001 -16s-30.667 5.33301 -42 16z" />
    <glyph glyph-name="uni0459" unicode="&#x459;" horiz-adv-x="904" 
d="M56 0l-34 -0.000976562v81h28c50 0 75 54.667 75 164v275h403v-188h172c49.333 0 89.333 -16 120 -48c32 -31.333 48 -70.666 48 -117.999s-16 -87 -48 -119c-31.333 -31.333 -71.333 -47 -120 -47h-256v439h-235v-210c0 -76 -13.5 -133.167 -40.5 -171.5
s-64.5 -57.5 -112.5 -57.5zM700 250.999h-172v-170h172c22.667 0 41.834 8.16699 57.501 24.5s23.5 36.5 23.5 60.5s-7.83301 44.167 -23.5 60.5s-34.834 24.5 -57.501 24.5z" />
    <glyph glyph-name="uni045A" unicode="&#x45a;" horiz-adv-x="925" 
d="M155 238v-238.001h-84v520h84v-202h310v202h84v-202h173c48 0 87.667 -15 119 -45c32 -30 48 -67.667 48 -113s-16 -83.666 -48 -114.999c-31.333 -30 -71 -45 -119 -45h-257v238h-310zM722 237.999h-173v-157h173c22.667 0 41.667 7.5 57 22.5s23 33.833 23 56.5
c0 22 -7.66699 40.5 -23 55.5s-34.333 22.5 -57 22.5z" />
    <glyph glyph-name="uni045B" unicode="&#x45b;" horiz-adv-x="621" 
d="M155 750l0.000976562 -91h195v-65h-195v-161c41.333 65.333 103.333 98 186 98c60 0 110.333 -19.667 151 -59c40 -38.667 60 -88 60 -148v-324h-84v302c0 42 -14.333 77.333 -43 106s-64.334 43 -107.001 43c-46 0 -84.667 -14.667 -116 -44s-47 -65 -47 -107v-300h-84
v594h-61v65h61v91h84z" />
    <glyph glyph-name="uni045C" unicode="&#x45c;" horiz-adv-x="525" 
d="M403 0l-234 269l214 251h103l-213 -251l235 -269h-105zM155 520v-520h-84v520h84zM419 694l-193 -95l-29 52l182 118z" />
    <glyph glyph-name="uni045D" unicode="&#x45d;" horiz-adv-x="622" 
d="M466 379l-324 -379h-71v520h84v-381l324 381h71v-520h-84v379zM375 651l-30 -52l-193 95l40 75z" />
    <glyph glyph-name="uni045E" unicode="&#x45e;" horiz-adv-x="532" 
d="M221 15l-207.001 505h87l163 -404l168 404h87l-256 -609c-19.333 -47.333 -44.166 -81.833 -74.499 -103.5s-68.833 -32.5 -115.5 -32.5h-24v81h24c54.667 0 93.667 27.667 117 83zM100.999 738h71c0 -24.667 9 -45 27 -61s40.667 -24 68 -24c26.667 0 49 8 67 24
s27 36.333 27 61h71c0 -44 -15.667 -80.667 -47 -110c-30.667 -28.667 -70 -43 -118 -43s-87.667 14.333 -119 43c-31.333 29.333 -47 66 -47 110z" />
    <glyph glyph-name="uni045F" unicode="&#x45f;" horiz-adv-x="607" 
d="M71 0v520h84v-439h296v439h84v-520h-191v-150h-84v150h-189z" />
    <glyph glyph-name="uni0490" unicode="&#x490;" horiz-adv-x="533" 
d="M168 616v-616h-90v700h337v152h91v-236h-338z" />
    <glyph glyph-name="uni0491" unicode="&#x491;" horiz-adv-x="420" 
d="M155 439v-439h-84v520h248v131h84v-212h-248z" />
    <glyph glyph-name="uni04D8" unicode="&#x4d8;" horiz-adv-x="824" 
d="M412 711c102.667 0 188.668 -34.668 258.001 -104.001s104 -155 104 -257c0 -102.667 -34.667 -188.667 -104 -258c-68.667 -68.667 -154.667 -103 -258 -103c-102.667 0 -188.334 34.333 -257.001 103c-69.333 69.333 -104 155.333 -104 258
c0 14.667 0.666992 27.334 2 38.001h624c-8.66699 68.667 -37.667 125 -87 169c-48.667 44.667 -108 67 -178 67c-44 0 -84.833 -9.5 -122.5 -28.5s-68.5 -45.5 -92.5 -79.5l-90 34c32.667 50.667 75.667 90.167 129 118.5s112 42.5 176 42.5zM412.001 75.999
c68.667 0 127.333 21.334 176 64.001c49.333 43.333 78.333 98 87 164h-525c9.33301 -66.667 38.333 -121.334 87 -164.001s107 -64 175 -64z" />
    <glyph glyph-name="uni04D9" unicode="&#x4d9;" horiz-adv-x="616" 
d="M38 289h447c-6 46.667 -26.667 85.667 -62 117s-78 47 -128 47c-66 0 -117.333 -25.333 -154 -76l-82 26c24 40 56.833 71.333 98.5 94s87.5 34 137.5 34c79.333 0 145.333 -26 198 -78c52.667 -50.667 79 -115 79 -193c0 -76.667 -25.667 -141.334 -77 -194.001
c-51.333 -51.333 -115 -77 -191 -77s-139.667 25.667 -191 77c-51.333 52.667 -77 117.334 -77 194.001c0 10 0.666992 19.667 2 29zM484 221h-361c8 -44.667 28.667 -81.667 62 -111c34 -28 74 -42 120 -42c44.667 0 83.667 14 117 42c33.333 29.333 54 66.333 62 111z" />
    <glyph glyph-name="Wgrave" unicode="&#x1e80;" horiz-adv-x="1015" 
d="M330 0h-72l-241 700h93l183 -556l179 556h72l179 -554l183 554h92l-240 -700h-73l-177 544zM573 817l-29 -51l-193 95l40 75z" />
    <glyph glyph-name="wgrave" unicode="&#x1e81;" horiz-adv-x="780" 
d="M191 0l-177 520h85l127 -390l127 390h74l127 -391l128 391h85l-178 -520h-73l-126 380l-126 -380h-73zM273 769l183 -118l-30 -52l-192 95z" />
    </font>
</defs>
</svg>
