<svg width="29" height="29" viewBox="0 0 29 29" fill="none" xmlns="http://www.w3.org/2000/svg">
<path d="M14.6157 7.28125C10.6785 7.28125 7.48901 10.4723 7.48901 14.4079C7.48901 18.3451 10.6785 21.5362 14.6157 21.5362C18.5498 21.5362 21.7424 18.3451 21.7424 14.4079C21.7424 10.4723 18.5498 7.28125 14.6157 7.28125ZM14.6157 19.0388C12.0582 19.0388 9.98482 16.9654 9.98482 14.4095C9.98482 11.852 12.0582 9.78014 14.6157 9.78014C17.1732 9.78014 19.2435 11.852 19.2435 14.4095C19.2435 16.9654 17.1732 19.0388 14.6157 19.0388Z" fill="#38A3EE"/>
<path d="M22.0261 8.68105C22.9439 8.68105 23.6879 7.93703 23.6879 7.01924C23.6879 6.10144 22.9439 5.35742 22.0261 5.35742C21.1083 5.35742 20.3643 6.10144 20.3643 7.01924C20.3643 7.93703 21.1083 8.68105 22.0261 8.68105Z" fill="#38A3EE"/>
<path d="M27.7714 5.32963C27.0484 3.46587 25.5762 1.99212 23.7124 1.27221C22.6349 0.866776 21.4957 0.649414 20.3426 0.624749C18.858 0.560003 18.3878 0.541504 14.6233 0.541504C10.8588 0.541504 10.3763 0.541504 8.90409 0.624749C7.75408 0.647872 6.61486 0.865234 5.5373 1.27221C3.672 1.99212 2.1998 3.46587 1.47834 5.32963C1.07291 6.40873 0.855545 7.54641 0.832422 8.6995C0.766134 10.1825 0.746094 10.6527 0.746094 14.4187C0.746094 18.1833 0.746094 18.6627 0.832422 20.138C0.855545 21.2911 1.07291 22.4287 1.47834 23.5094C2.20134 25.3716 3.67354 26.8453 5.53884 27.5668C6.61178 27.9861 7.751 28.2235 8.90718 28.2605C10.3917 28.3253 10.8619 28.3453 14.6264 28.3453C18.3909 28.3453 18.8734 28.3453 20.3456 28.2605C21.4972 28.2374 22.6364 28.0185 23.7155 27.6146C25.5793 26.8916 27.0515 25.4194 27.7745 23.5556C28.1799 22.4765 28.3973 21.3389 28.4204 20.1858C28.4867 18.7028 28.5067 18.2326 28.5067 14.4665C28.5067 10.7005 28.5067 10.2226 28.4204 8.74729C28.4004 7.57878 28.1845 6.42106 27.7714 5.32963ZM25.8938 20.0239C25.883 20.9118 25.7226 21.7921 25.4143 22.6261C24.9441 23.8393 23.9868 24.7981 22.7752 25.2637C21.9504 25.5705 21.081 25.7308 20.2007 25.7431C18.7362 25.811 18.3231 25.8279 14.5678 25.8279C10.8095 25.8279 10.4256 25.8279 8.93338 25.7431C8.05623 25.7323 7.1837 25.5705 6.3605 25.2637C5.1442 24.7997 4.18072 23.8408 3.71054 22.6261C3.40839 21.8029 3.24498 20.9319 3.23111 20.0532C3.16482 18.5887 3.1494 18.1755 3.1494 14.4203C3.1494 10.6635 3.1494 10.2796 3.23111 8.78583C3.2419 7.89789 3.40222 7.01919 3.71054 6.1852C4.18072 4.9689 5.1442 4.01158 6.3605 3.54603C7.1837 3.2408 8.05623 3.07893 8.93338 3.0666C10.3994 3.00031 10.811 2.98181 14.5678 2.98181C18.3246 2.98181 18.71 2.98181 20.2007 3.0666C21.081 3.07739 21.9504 3.23926 22.7752 3.54603C23.9868 4.01312 24.9441 4.97198 25.4143 6.1852C25.7165 7.0084 25.8799 7.87939 25.8938 8.75808C25.96 10.2241 25.977 10.6357 25.977 14.3925C25.977 18.1478 25.977 18.5517 25.9107 20.0254H25.8938V20.0239Z" fill="#38A3EE"/>
</svg>
