<svg width="27" height="30" viewBox="0 0 27 30" fill="none" xmlns="http://www.w3.org/2000/svg">
<path d="M26.3253 7.40386C24.6351 7.40386 23.0757 6.84394 21.8234 5.89937C20.3871 4.81656 19.3552 3.2282 18.9908 1.39748C18.9006 0.945149 18.852 0.478359 18.8474 0H14.0192V13.1927L14.0135 20.419C14.0135 22.351 12.7554 23.9891 11.0114 24.5652C10.5053 24.7324 9.95869 24.8116 9.38952 24.7804C8.66302 24.7404 7.98221 24.5212 7.39048 24.1672C6.13124 23.4141 5.27749 22.0479 5.25435 20.485C5.21791 18.0423 7.19266 16.0508 9.63361 16.0508C10.1154 16.0508 10.5782 16.1294 11.0114 16.2723V12.6664V11.3701C10.5545 11.3025 10.0894 11.2672 9.61915 11.2672C6.9474 11.2672 4.4486 12.3777 2.66242 14.3785C1.31237 15.8905 0.502578 17.8196 0.377638 19.8423C0.213943 22.4996 1.18628 25.0256 3.07195 26.8893C3.34901 27.1629 3.63996 27.4168 3.94421 27.6511C5.56091 28.8953 7.5374 29.5697 9.61915 29.5697C10.0894 29.5697 10.5545 29.535 11.0114 29.4673C12.9561 29.1793 14.7504 28.2891 16.1664 26.8893C17.9063 25.1696 18.8676 22.8866 18.878 20.4566L18.8532 9.6655C19.6832 10.3058 20.5907 10.8357 21.5648 11.2469C23.0797 11.8861 24.686 12.21 26.3391 12.2094V8.70358V7.4027C26.3403 7.40386 26.3264 7.40386 26.3253 7.40386Z" fill="#38A3EE"/>
</svg>
