<svg width="32" height="19" viewBox="0 0 32 19" fill="none" xmlns="http://www.w3.org/2000/svg">
<path d="M31.0379 1.40877C31.2537 0.691936 31.0379 0.16626 30.0174 0.16626H26.6367C25.7765 0.16626 25.3834 0.621024 25.1676 1.12049C25.1676 1.12049 23.4487 5.31203 21.0131 8.02982C20.2269 8.82064 19.8677 9.07038 19.4391 9.07038C19.2248 9.07038 18.9134 8.82064 18.9134 8.10381V1.40877C18.9134 0.54857 18.6652 0.16626 17.9484 0.16626H12.6362C12.0997 0.16626 11.776 0.563986 11.776 0.943212C11.776 1.75716 12.9938 1.94523 13.1187 4.23909V9.21529C13.1187 10.3052 12.9229 10.504 12.4913 10.504C11.3459 10.504 8.5587 6.29709 6.9046 1.48122C6.58241 0.545487 6.25714 0.167802 5.39386 0.167802H2.01473C1.04817 0.167802 0.855469 0.622566 0.855469 1.12203C0.855469 2.01923 2.00086 6.45895 6.19085 12.3308C8.98418 16.3404 12.9167 18.514 16.4993 18.514C18.6467 18.514 18.9119 18.0315 18.9119 17.1991V14.1684C18.9119 13.2033 19.1169 13.0091 19.7968 13.0091C20.2962 13.0091 21.1564 13.2619 23.162 15.1935C25.4528 17.4843 25.832 18.5125 27.1192 18.5125H30.4984C31.4634 18.5125 31.9459 18.03 31.6684 17.0773C31.3647 16.1292 30.2702 14.7495 28.818 13.117C28.0288 12.1859 26.8495 11.1839 26.4903 10.6829C25.9893 10.0369 26.1342 9.75175 26.4903 9.17829C26.4918 9.17983 30.6093 3.38044 31.0379 1.40877Z" fill="#38A3EE"/>
</svg>
