<svg width="32" height="23" viewBox="0 0 32 23" fill="none" xmlns="http://www.w3.org/2000/svg">
<path d="M30.7324 4.02085C30.3779 2.69818 29.3373 1.65454 28.0162 1.29843C25.6021 0.635558 15.9441 0.624768 15.9441 0.624768C15.9441 0.624768 6.28773 0.613976 3.87209 1.24756C2.57717 1.60058 1.50732 2.66735 1.14967 3.98848C0.513005 6.40258 0.506838 11.4096 0.506838 11.4096C0.506838 11.4096 0.500672 16.4413 1.13272 18.8307C1.48728 20.1519 2.52784 21.1955 3.85051 21.5516C6.28927 22.2145 15.921 22.2253 15.921 22.2253C15.921 22.2253 25.579 22.2361 27.9931 21.604C29.3127 21.2495 30.3578 20.2074 30.717 18.8862C31.3552 16.4737 31.3599 11.4682 31.3599 11.4682C31.3599 11.4682 31.3907 6.43495 30.7324 4.02085ZM12.8548 16.0482L12.8625 6.79876L20.8895 11.4312L12.8548 16.0482Z" fill="#38A3EE"/>
</svg>
