<svg width="28" height="28" viewBox="0 0 28 28" fill="none" xmlns="http://www.w3.org/2000/svg">
<path d="M14.75 7C14.75 6.58579 14.4142 6.25 14 6.25C13.5858 6.25 13.25 6.58579 13.25 7H14.75ZM13.25 9.33333C13.25 9.74755 13.5858 10.0833 14 10.0833C14.4142 10.0833 14.75 9.74755 14.75 9.33333H13.25ZM14.75 18.6667C14.75 18.2525 14.4142 17.9167 14 17.9167C13.5858 17.9167 13.25 18.2525 13.25 18.6667H14.75ZM13.25 21C13.25 21.4142 13.5858 21.75 14 21.75C14.4142 21.75 14.75 21.4142 14.75 21H13.25ZM17.5 10.0833C17.9142 10.0833 18.25 9.74755 18.25 9.33333C18.25 8.91912 17.9142 8.58333 17.5 8.58333V10.0833ZM12.8333 9.33333V8.58333V9.33333ZM15.1667 18.6667V17.9167V18.6667ZM10.5 17.9167C10.0858 17.9167 9.75 18.2525 9.75 18.6667C9.75 19.0809 10.0858 19.4167 10.5 19.4167V17.9167ZM15.1667 14V13.25V14ZM12.8333 14V13.25V14ZM11.9404 9.51095L11.6534 8.81804L11.9404 9.51095ZM10.6776 10.7737L9.9847 10.4867L10.6776 10.7737ZM10.6776 12.5596L9.9847 12.8466L10.6776 12.5596ZM11.1834 13.3166L11.7137 12.7863V12.7863L11.1834 13.3166ZM11.9404 13.8224L11.6534 14.5153L11.9404 13.8224ZM16.0596 18.4891L16.3466 19.182L16.0596 18.4891ZM17.3224 17.2263L18.0153 17.5133L17.3224 17.2263ZM17.3224 15.4404L18.0153 15.1534L17.3224 15.4404ZM16.8166 14.6834L16.2863 15.2137V15.2137L16.8166 14.6834ZM16.0596 14.1776L16.3466 13.4847L16.0596 14.1776ZM23.75 14C23.75 19.3848 19.3848 23.75 14 23.75V25.25C20.2132 25.25 25.25 20.2132 25.25 14H23.75ZM14 23.75C8.61522 23.75 4.25 19.3848 4.25 14H2.75C2.75 20.2132 7.7868 25.25 14 25.25V23.75ZM4.25 14C4.25 8.61522 8.61522 4.25 14 4.25V2.75C7.7868 2.75 2.75 7.7868 2.75 14H4.25ZM14 4.25C19.3848 4.25 23.75 8.61522 23.75 14H25.25C25.25 7.7868 20.2132 2.75 14 2.75V4.25ZM13.25 7V9.33333H14.75V7H13.25ZM13.25 18.6667V21H14.75V18.6667H13.25ZM17.5 8.58333H12.8333V10.0833H17.5V8.58333ZM15.1667 17.9167H10.5V19.4167H15.1667V17.9167ZM15.1667 13.25H12.8333V14.75H15.1667V13.25ZM12.8333 8.58333C12.4284 8.58333 12.0275 8.66309 11.6534 8.81804L12.2274 10.2039C12.4195 10.1243 12.6254 10.0833 12.8333 10.0833V8.58333ZM11.6534 8.81804C11.2793 8.97299 10.9394 9.20011 10.6531 9.48642L11.7137 10.5471C11.8608 10.4001 12.0353 10.2834 12.2274 10.2039L11.6534 8.81804ZM10.6531 9.48642C10.3668 9.77273 10.1397 10.1126 9.9847 10.4867L11.3705 11.0608C11.4501 10.8687 11.5667 10.6941 11.7137 10.5471L10.6531 9.48642ZM9.9847 10.4867C9.82975 10.8608 9.75 11.2618 9.75 11.6667H11.25C11.25 11.4587 11.291 11.2528 11.3705 11.0608L9.9847 10.4867ZM9.75 11.6667C9.75 12.0716 9.82975 12.4725 9.9847 12.8466L11.3705 12.2726C11.291 12.0805 11.25 11.8746 11.25 11.6667H9.75ZM9.9847 12.8466C10.1397 13.2207 10.3668 13.5606 10.6531 13.8469L11.7137 12.7863C11.5667 12.6392 11.4501 12.4647 11.3705 12.2726L9.9847 12.8466ZM10.6531 13.8469C10.9394 14.1332 11.2793 14.3603 11.6534 14.5153L12.2274 13.1295C12.0353 13.0499 11.8608 12.9333 11.7137 12.7863L10.6531 13.8469ZM11.6534 14.5153C12.0275 14.6702 12.4284 14.75 12.8333 14.75V13.25C12.6254 13.25 12.4195 13.209 12.2274 13.1295L11.6534 14.5153ZM15.1667 19.4167C15.5716 19.4167 15.9725 19.3369 16.3466 19.182L15.7726 17.7961C15.5805 17.8757 15.3746 17.9167 15.1667 17.9167V19.4167ZM16.3466 19.182C16.7207 19.027 17.0606 18.7999 17.3469 18.5136L16.2863 17.4529C16.1392 17.5999 15.9647 17.7166 15.7726 17.7961L16.3466 19.182ZM17.3469 18.5136C17.6332 18.2273 17.8603 17.8874 18.0153 17.5133L16.6295 16.9392C16.5499 17.1313 16.4333 17.3059 16.2863 17.4529L17.3469 18.5136ZM18.0153 17.5133C18.1702 17.1392 18.25 16.7382 18.25 16.3333H16.75C16.75 16.5413 16.709 16.7471 16.6295 16.9392L18.0153 17.5133ZM18.25 16.3333C18.25 15.9284 18.1702 15.5275 18.0153 15.1534L16.6295 15.7274C16.709 15.9195 16.75 16.1254 16.75 16.3333H18.25ZM18.0153 15.1534C17.8603 14.7793 17.6332 14.4394 17.3469 14.1531L16.2863 15.2137C16.4333 15.3608 16.5499 15.5353 16.6295 15.7274L18.0153 15.1534ZM17.3469 14.1531C17.0606 13.8668 16.7207 13.6397 16.3466 13.4847L15.7726 14.8705C15.9647 14.9501 16.1392 15.0667 16.2863 15.2137L17.3469 14.1531ZM16.3466 13.4847C15.9725 13.3298 15.5716 13.25 15.1667 13.25V14.75C15.3746 14.75 15.5805 14.791 15.7726 14.8705L16.3466 13.4847Z" fill="#031421"/>
</svg>
