<svg width="24" height="24" viewBox="0 0 24 24" fill="none" xmlns="http://www.w3.org/2000/svg">
<path d="M22.8002 17.4001V6.60005C22.8002 5.60405 21.9962 4.80005 21.0002 4.80005H4.18818C3.19218 4.80005 2.38818 5.60405 2.38818 6.60005V17.4001C2.38818 18.3961 3.19218 19.2001 4.18818 19.2001H21.0002C21.9962 19.2001 22.8002 18.3961 22.8002 17.4001ZM21.2282 6.46805C21.6242 6.86405 21.4082 7.27205 21.1922 7.47605L16.3202 11.94L21.0002 16.8121C21.1442 16.9801 21.2402 17.2441 21.0722 17.4241C20.9162 17.6161 20.5562 17.6041 20.4002 17.484L15.1562 13.008L12.5882 15.3481L10.0322 13.008L4.78818 17.484C4.63218 17.6041 4.27218 17.6161 4.11618 17.4241C3.94818 17.2441 4.04418 16.9801 4.18818 16.8121L8.86818 11.94L3.99618 7.47605C3.78018 7.27205 3.56418 6.86405 3.96018 6.46805C4.35618 6.07205 4.76418 6.26405 5.10018 6.55205L12.5882 12.6L20.0882 6.55205C20.4242 6.26405 20.8322 6.07205 21.2282 6.46805Z" fill="#38A3EE"/>
</svg>
