<svg width="24" height="24" viewBox="0 0 24 24" fill="none" xmlns="http://www.w3.org/2000/svg">
<path d="M15.6299 14.4L13.1099 16.9C10.6099 15.47 8.5399 13.4 7.1099 10.9L9.6099 8.38C9.8399 8.14 9.9399 7.81 9.8799 7.48L9.1299 3.8C9.0399 3.34 8.6299 3 8.1499 3H3.9999C3.4399 3 2.9699 3.47 2.9999 4.03C3.1699 6.92 4.0499 9.63 5.4299 12C7.0099 14.73 9.2799 16.99 11.9999 18.57C14.3699 19.94 17.0799 20.83 19.9699 21C20.5299 21.03 20.9999 20.56 20.9999 20V15.85C20.9999 15.37 20.6599 14.96 20.1999 14.87L16.5299 14.14C16.3701 14.1052 16.2041 14.1108 16.047 14.1562C15.8899 14.2015 15.7465 14.2853 15.6299 14.4Z" fill="#38A3EE"/>
</svg>
