<svg width="24" height="24" viewBox="0 0 24 24" fill="none" xmlns="http://www.w3.org/2000/svg">
<path d="M14.3008 5.9061C13.8485 4.73252 13.28 3.74413 12.6267 2.98628C12.4121 2.97112 12.1962 2.96326 11.9791 2.96326C11.762 2.96326 11.546 2.97112 11.3316 2.98628C10.6781 3.74413 10.1096 4.73238 9.65749 5.9061C9.51146 6.28502 9.38019 6.67787 9.26367 7.08217H14.6946C14.5779 6.67787 14.4467 6.28502 14.3008 5.9061Z" fill="#38A3EE"/>
<path d="M8.99791 15.8589H14.9601C15.1881 14.7996 15.3204 13.6786 15.3516 12.5295H8.60645C8.63761 13.6787 8.76998 14.7996 8.99791 15.8589Z" fill="#38A3EE"/>
<path d="M14.9601 8.14111H8.99791C8.76998 9.20038 8.63761 10.3214 8.60645 11.4705H15.3516C15.3204 10.3213 15.1881 9.20038 14.9601 8.14111Z" fill="#38A3EE"/>
<path d="M9.65735 18.0939C10.1096 19.2675 10.6781 20.2559 11.3315 21.0137C11.546 21.0289 11.762 21.0368 11.9791 21.0368C12.1962 21.0368 12.4121 21.0289 12.6267 21.0137C13.28 20.2559 13.8485 19.2676 14.3007 18.0939C14.4467 17.715 14.578 17.3221 14.6945 16.9178H9.26367C9.38019 17.3221 9.51146 17.715 9.65735 18.0939Z" fill="#38A3EE"/>
<path d="M16.04 8.14121C16.2536 9.19855 16.381 10.3179 16.411 11.4706H21.0001C20.9331 10.3025 20.6451 9.17607 20.1554 8.14038C20.1503 8.14052 20.1453 8.14121 20.1402 8.14121H16.04Z" fill="#38A3EE"/>
<path d="M7.91818 15.8589C7.70445 14.8016 7.57704 13.6822 7.54712 12.5295H2.95801C3.02502 13.6976 3.31294 14.824 3.80272 15.8597C3.80782 15.8596 3.81279 15.8589 3.81789 15.8589H7.91818Z" fill="#38A3EE"/>
<path d="M15.7915 16.9178C15.3973 18.3879 14.8287 19.7057 14.1196 20.7826C15.7152 20.3968 17.1789 19.5801 18.369 18.39C18.8225 17.9364 19.2213 17.4429 19.5632 16.9178H15.7915Z" fill="#38A3EE"/>
<path d="M8.16672 7.08219C8.56109 5.61214 9.12961 4.29433 9.83864 3.21741C8.24325 3.60322 6.77941 4.41995 5.58915 5.61007C5.13576 6.06359 4.73699 6.5571 4.39502 7.08219H8.16672Z" fill="#38A3EE"/>
<path d="M8.16672 16.9178H4.39502C4.73699 17.4429 5.13576 17.9364 5.58915 18.39C6.77941 19.5801 8.24311 20.3968 9.8385 20.7826C9.12961 19.7057 8.56109 18.3879 8.16672 16.9178Z" fill="#38A3EE"/>
<path d="M15.7915 7.08219H19.5632C19.2213 6.5571 18.8226 6.06359 18.3691 5.61007C17.1789 4.41995 15.7152 3.60322 14.1196 3.21741C14.8287 4.29433 15.3973 5.61214 15.7915 7.08219Z" fill="#38A3EE"/>
<path d="M16.411 12.5295C16.381 13.6822 16.2538 14.8016 16.04 15.8589H20.1402C20.1453 15.8589 20.1503 15.8596 20.1554 15.8597C20.6451 14.824 20.9331 13.6976 21.0001 12.5295H16.411Z" fill="#38A3EE"/>
<path d="M7.54712 11.4706C7.57704 10.3179 7.70445 9.19855 7.91818 8.14121H3.81789C3.81279 8.14121 3.80782 8.14052 3.80272 8.14038C3.31294 9.17607 3.02502 10.3025 2.95801 11.4706H7.54712Z" fill="#38A3EE"/>
</svg>
