<?xml version="1.0" encoding="utf-8"?>
<!-- Generator: Adobe Illustrator 24.3.0, SVG Export Plug-In . SVG Version: 6.00 Build 0)  -->
<svg version="1.1" xmlns="http://www.w3.org/2000/svg" xmlns:xlink="http://www.w3.org/1999/xlink" x="0px" y="0px"
	 viewBox="0 0 380.36 96.79" style="enable-background:new 0 0 380.36 96.79;" xml:space="preserve">
<style type="text/css">
	.st0{fill-rule:evenodd;clip-rule:evenodd;fill:#38A3ED;}
	.st1{fill-rule:evenodd;clip-rule:evenodd;fill:#38A2EE;}
	.st2{fill-rule:evenodd;clip-rule:evenodd;fill:#37A2ED;}
	.st3{fill-rule:evenodd;clip-rule:evenodd;fill:#37A3EF;}
</style>
<g id="Слой_2">
</g>
<g id="Слой_1">
	<g>
		<path class="st0" d="M249.01,35.57c0,0.73,1.36,0.36,1.36,1.63v19.96c0,1.35-1.36,0.79-1.36,1.63c0,0.31,0.09,0.41,0.41,0.41h7.74
			c0-1.23-0.04-0.62-0.84-1.19c-0.51-0.36-0.53-0.69-0.52-1.52l0.12-12.48c1.21,1.85,5.27,9.48,6.36,11.43l1.59,2.89
			c0.27,0.47,0.29,0.75,0.76,0.87c0.14-0.59,0.72-1.4,1.04-1.94c0.4-0.67,0.71-1.23,1.1-1.88l6.82-11.52v11.81
			c0,1.83,0.21,2.35-1.36,2.72v0.81h8.69c0-1.68-1.36-0.46-1.36-2.04V37.2c0-1.51,1.36-0.46,1.36-2.04h-10.05v0.81
			c0.75,0.18,0.95,0.24,0.95,1.09c0,1.12-2.63,5.2-3.3,6.47c-0.59,1.1-1.17,2-1.77,3.12l-1.33,2.33c-0.27,0.48-0.16,0.57-0.66,0.7
			c-0.15-0.65-5.02-9.31-5.84-10.73c-0.51-0.89-1.02-2.16-0.08-2.79c0.63-0.42,0.48,0.01,0.48-1.01h-9.91
			C249.1,35.16,249.01,35.26,249.01,35.57z"/>
		<path class="st1" d="M129.91,37.61l4.75,9.91h-9.23c1.15-2.17,2.79-6.24,3.94-8.56C129.58,38.54,129.86,38.17,129.91,37.61
			L129.91,37.61z M126.24,31.77c0,1.08-0.19,1.29-0.54,2.04c-0.06,0.14-0.09,0.23-0.17,0.38l-6.37,13.32
			c-0.53,1.15-4.43,9.52-5.04,10.17c-1.05,1.13-1.47,0.09-1.47,1.52h9.78v-0.81c-0.39-0.09-0.56-0.12-0.88-0.34
			c-1.58-1.06,1.38-4.35,1.83-6.31h13.17c0.44,0.82,2.44,4.6,2.44,5.43c0,0.87-0.65,1.06-1.36,1.22v0.81h10.86
			c0-1.44-0.58-0.48-1.57-1.55c-0.75-0.82-1.85-3.27-2.39-4.4l-4.14-8.35c-1.25-2.49-2.37-4.88-3.62-7.38
			c-0.64-1.28-1.23-2.47-1.86-3.71c-1.75-3.45,0.68-2.52,0.68-3.53c0-0.31-0.09-0.41-0.41-0.41h-10.18c0,0.98-0.15,0.6,0.48,1.02
			C125.77,31.07,126.24,31.4,126.24,31.77z"/>
		<path class="st1" d="M316.23,44.94h-8.42v-5.3h8.96c2.18,0,3.8,0.37,3.8,2.58C320.57,44.63,318.6,44.94,316.23,44.94L316.23,44.94
			z M300.61,35.98c0.91,0.21,1.36,0.51,1.36,1.63v19.15c0,1.06-0.5,1.43-1.36,1.63v0.81h8.28c0.31,0,0.41-0.09,0.41-0.41
			c0-0.87-1.49-0.03-1.49-2.31v-7.06h5.3c0.42,0,1.08,1.19,1.55,1.84c0.77,1.07,4.15,5.3,4.15,6.3c0,1.01-1.09,0.08-1.09,1.63h10.32
			v-0.81c-1.91-0.16-3.36-2.68-4.44-4.11l-1.84-2.5c-0.62-0.83-1.31-1.66-1.86-2.48c0.4-0.19,0.83-0.27,1.25-0.38
			c2.1-0.52,3.95-1.67,4.86-3.69c0.42-0.93,0.54-2.06,0.54-3.26c0-4.65-3.34-6.79-8.01-6.79h-17.93V35.98z"/>
		<path class="st2" d="M330.76,35.57c0,0.72,0.79,0.37,1.17,1.01c0.91,1.51-1.08,14.69,1.37,19.14c0.66,1.19,1.87,2.09,3.06,2.65
			c4.35,2.07,14.41,2.09,17.94-1.3c1.25-1.19,1.98-2.91,2.13-4.8c0.27-3.43,0.15-9.53,0.15-13.43c0-0.69-0.11-1.72,0.13-2.18
			c0.49-0.94,1.23,0.03,1.23-1.49h-8.15c0,1.02,0.08,0.72,0.72,1.05c0.28,0.15,0.64,0.53,0.64,0.85V49.7c0,3.07-1.28,4.48-3.88,5.08
			c-2.49,0.58-5.09,0.45-7.3-0.82c-1.28-0.74-1.85-2.16-1.85-4.12V37.2c0-1.57,1.36-0.36,1.36-2.04h-8.69V35.57z"/>
		<path class="st3" d="M230.4,42.36c0.17,0.73,1.37,2.88,1.77,3.67l0.91,1.8c0.29,0.64,0.79,1.12,0.85,1.86h-7.2
			c0.13-0.56,1.53-3.26,1.97-4.14c0.14-0.28,0.09-0.13,0.24-0.44C229.27,44.43,229.91,42.72,230.4,42.36L230.4,42.36z M225.92,35.71
			c0,0.88,1.09-0.06,1.09,1.77c0,1.3-7.81,16.2-9.12,18.99c-0.42,0.89-0.87,1.82-2.15,1.93v0.81h8.96c0-1.1-0.17-0.66-0.83-1.07
			c-1.77-1.08,0.66-3.11,1.1-5.04h10.86c0.35,0.67,0.66,1.27,1.06,1.93c0.92,1.52,1.56,2.89-0.52,3.37v0.81h9.51
			c0.31,0,0.41-0.09,0.41-0.41c0-0.87-0.87,0.13-2.12-1.96l-3.63-6.83c-0.83-1.66-6.34-11.32-6.34-12.54c0-0.61,0.02-0.88,0.52-1.24
			c0.61-0.43,0.56-0.05,0.56-1.07h-9.37V35.71z"/>
		<path class="st0" d="M151.23,35.57c0,0.84,1.36,0.28,1.36,1.63v19.96c0,1.57-1.36,0.36-1.36,2.04h20.23
			c0.68,0,1.22,0.09,1.52,0.51c0.58,0.8-0.06,0.85,1.19,0.85v-6.79c0-0.34-0.15-0.46-0.52-0.41c-0.76,0.1-0.34,1.36-1.65,1.36
			h-13.44V37.2c0-1.51,1.36-0.46,1.36-2.04h-8.69V35.57z"/>
		<path class="st0" d="M177.57,35.98c0.91,0.21,1.36,0.51,1.36,1.63v19.15c0,1.06-0.5,1.43-1.36,1.63v0.81h20.37
			c2.14,0,0.8,1.36,2.44,1.36v-7.2c-1.68,0-0.29,1.36-2.31,1.36h-13.31V37.88c0-2.13,1.13-1.4,1.43-2.19
			c0.05-0.14,0.11-0.52-0.34-0.52h-8.28V35.98z"/>
		<path class="st2" d="M205.14,36.93v20.23c0,1.35-1.36,0.79-1.36,1.63c0,0.31,0.09,0.41,0.41,0.41h8.28c0-0.98-0.07-0.71-0.7-1.07
			c-0.27-0.15-0.66-0.46-0.66-0.84V37.2c0-1.57,1.36-0.36,1.36-2.04h-8.28c-0.49,0-0.61,0.53,0.04,0.91
			C204.59,36.29,205.14,36.43,205.14,36.93z"/>
		<path class="st0" d="M287.17,56.08c0,2.13,1.64,3.67,3.12,3.67c1.17,0,2.2-0.07,3.09-1.12c2.38-2.8-0.15-5.94-2.14-5.94h-0.95
			C288.64,52.68,287.17,54.35,287.17,56.08z"/>
	</g>
	<g>
		<path class="st1" d="M75.59,76.92L75.59,76.92L75.59,76.92z"/>
		<path class="st1" d="M51.97,12.31c20.23,0,36.62,16.4,36.62,36.62c0,6.65-1.77,12.88-4.87,18.26L68.42,50.65L51.97,68.42
			L35.52,50.65L20.22,67.19l0.01,0.02c-3.1-5.38-4.88-11.62-4.88-18.27C15.35,28.71,31.74,12.31,51.97,12.31z"/>
		<path class="st1" d="M35.52,56.67c5.48,5.92,10.97,11.85,16.45,17.77c0,0,0,0,0,0c0,0,0,0,0,0s0,0,0,0c0,0,0,0,0,0s0,0,0,0
			c5.48-5.92,10.97-11.85,16.45-17.77l13,14.04c-0.32,0.43-0.65,0.85-0.99,1.27L68.42,59.01c-5.48,5.92-10.97,11.85-16.45,17.77
			c0,0,0,0,0,0c-5.48-5.92-10.97-11.85-16.45-17.77L23.51,71.98c-0.34-0.42-0.67-0.84-0.99-1.27L35.52,56.67L35.52,56.67z
			 M83.05,68.31L68.42,52.51L51.97,70.28l0,0h0h0h0v0L35.52,52.51L20.89,68.31c0.29,0.46,0.59,0.92,0.9,1.37l13.73-14.84
			l16.45,17.77h0l16.45-17.77l13.73,14.84C82.46,69.23,82.76,68.78,83.05,68.31L83.05,68.31z M79.63,72.94L68.42,60.84
			c-5.48,5.92-10.97,11.85-16.45,17.77c0,0,0,0,0,0s0,0,0,0c0,0,0,0,0,0s0,0,0,0c0,0,0,0,0,0c-5.48-5.92-10.97-11.85-16.45-17.77
			L24.32,72.94c0.35,0.4,0.71,0.79,1.07,1.18l10.14-10.95c5.48,5.92,10.97,11.85,16.45,17.77c0,0,0,0,0,0
			c5.48-5.92,10.97-11.85,16.45-17.77l10.14,10.95C78.92,73.74,79.28,73.35,79.63,72.94L79.63,72.94z M77.68,75.01L68.42,65
			L51.97,82.77l0,0h0h0h0v0L35.52,65l-9.26,10.01c0.38,0.37,0.76,0.74,1.15,1.09l8.11-8.76l16.45,17.77h0l16.45-17.77l8.11,8.76
			C76.92,75.75,77.31,75.38,77.68,75.01z"/>
	</g>
</g>
</svg>
